<?xml version="1.0" encoding="UTF-8"?>
<svg id="Layer_2" data-name="Layer 2" xmlns="http://www.w3.org/2000/svg" viewBox="0 0 320 280">
  <defs>
    <style>
      .cls-1 {
        fill: none;
      }
    </style>
  </defs>
  <g id="Layer_1-2" data-name="Layer 1">
    <g>
      <path class="cls-1" d="M234.03,21.07l-65.2,113.22L234.1,21.09s-.05,0-.06-.02ZM234.03,21.07l-65.2,113.22L234.1,21.09s-.05,0-.06-.02ZM234.03,21.07l-65.2,113.22L234.1,21.09s-.05,0-.06-.02ZM234.03,21.07l-65.2,113.22L234.1,21.09s-.05,0-.06-.02ZM234.03,21.07l-65.2,113.22L234.1,21.09s-.05,0-.06-.02ZM234.03,21.07l-65.2,113.22L234.1,21.09s-.05,0-.06-.02ZM234.03,21.07l-65.2,113.22L234.1,21.09s-.05,0-.06-.02ZM234.03,21.07l-65.2,113.22L234.1,21.09s-.05,0-.06-.02Z"/>
      <path d="M225.74,16.26l-65.23,113.25L225.76,16.3s-.02-.03-.02-.05Z"/>
      <path d="M19.86,135.14l130.82.06s0-.05.03-.06H19.86ZM19.86,135.14l130.82.06s0-.05.03-.06H19.86ZM19.86,135.14l130.82.06s0-.05.03-.06H19.86ZM19.86,135.14l130.82.06s0-.05.03-.06H19.86ZM93.98,16.19l65.5,113.31h.03L93.98,16.19ZM19.86,135.14l130.82.06s0-.05.03-.06H19.86ZM19.86,135.14l130.82.06s0-.05.03-.06H19.86ZM19.86,135.14l130.82.06s0-.05.03-.06H19.86ZM19.86,135.14l130.82.06s0-.05.03-.06H19.86Z"/>
      <path d="M150.64,144.74H19.86l130.8.05s-.03-.03-.02-.05ZM150.64,144.74H19.86l130.8.05s-.03-.03-.02-.05ZM150.64,144.74H19.86l130.8.05s-.03-.03-.02-.05ZM150.64,144.74H19.86l130.8.05s-.03-.03-.02-.05ZM150.64,144.74H19.86l130.8.05s-.03-.03-.02-.05ZM150.64,144.74H19.86l130.8.05s-.03-.03-.02-.05ZM150.64,144.74H19.86l130.8.05s-.03-.03-.02-.05ZM150.64,144.74H19.86l130.8.05s-.03-.03-.02-.05Z"/>
      <path d="M160.53,150.48l65.5,113.34.02-.02-65.52-113.33ZM160.53,150.48l65.5,113.34.02-.02-65.52-113.33ZM160.53,150.48l65.5,113.34.02-.02-65.52-113.33ZM160.53,150.48l65.5,113.34.02-.02-65.52-113.33ZM160.53,150.48l65.5,113.34.02-.02-65.52-113.33ZM160.53,150.48l65.5,113.34.02-.02-65.52-113.33ZM160.53,150.48l65.5,113.34.02-.02-65.52-113.33ZM160.53,150.48l65.5,113.34.02-.02-65.52-113.33ZM160.53,150.48l65.5,113.34.02-.02-65.52-113.33Z"/>
      <path d="M309.49,129.41c-.18,0-.35,0-.51.02L243.44,16.27c1.06-1.65,1.66-3.6,1.66-5.68,0-5.79-4.7-10.5-10.51-10.5-4.03,0-7.54,2.27-9.3,5.6H94.5c-1.74-3.38-5.26-5.7-9.34-5.7-5.81,0-10.51,4.7-10.51,10.5,0,2.11.62,4.08,1.7,5.73L11.02,129.46c-.16-.02-.34-.02-.51-.02-5.79,0-10.51,4.69-10.51,10.5s4.72,10.5,10.51,10.5c.18,0,.35,0,.51-.02l65.39,113.2c-1.07,1.65-1.68,3.6-1.68,5.7,0,5.81,4.7,10.51,10.51,10.51,4.06,0,7.6-2.3,9.34-5.7l130.93.16c1.73,3.39,5.28,5.71,9.34,5.71,5.81,0,10.51-4.7,10.51-10.5,0-2.1-.62-4.06-1.7-5.71v-.02l65.31-113.38c.16.02.34.02.5.02,5.81,0,10.51-4.7,10.51-10.51s-4.7-10.5-10.51-10.5ZM234.03,21.07s.03.02.06.02c.16.02.32.02.5.02s.35,0,.53-.02l65.54,113.15c-.19.27-.35.56-.5.86l-.02.02-130.8.08v-.02c-.14-.3-.32-.59-.51-.88v-.02L234.03,21.07ZM94.5,15.3h130.7c.14.34.34.66.54.96,0,.02,0,.03.02.05l-65.25,113.2h-.02c-.16-.02-.32-.02-.5-.02-.16,0-.32,0-.48.02h-.03L93.98,16.19c.19-.29.37-.58.51-.9ZM84.66,20.99c.16.02.32.02.5.02s.35,0,.53-.02l65.5,113.3v.02c-.19.27-.35.54-.48.83-.03.02-.03.03-.03.06l-130.82-.06c-.16-.3-.32-.61-.51-.9L84.66,20.99ZM85.76,258.83c-.16-.02-.34-.02-.51-.02s-.35,0-.51.02L19.34,145.62c.19-.29.37-.58.51-.88h130.78s0,.03.02.05c.14.3.32.61.53.9l-65.42,113.15ZM226.03,263.82c-.19.27-.35.56-.5.86l-130.93-.16c-.16-.3-.32-.61-.53-.9l65.41-113.15c.16.02.34.02.51.02s.35,0,.51-.02h.02l65.52,113.33-.02.02ZM235.36,259.01c-.16-.02-.34-.02-.5-.02-.18,0-.35,0-.51.02l-65.52-113.33c.19-.29.37-.58.51-.88l.02-.02,130.8-.08v.02c.14.3.32.59.51.88l-65.31,113.41Z"/>
    </g>
  </g>
</svg>