<?xml version="1.0" encoding="UTF-8"?><svg id="Layer_2" xmlns="http://www.w3.org/2000/svg" viewBox="0 0 848.66 431.25"><defs><style>.cls-1{fill:none;stroke:#d0b975;stroke-miterlimit:10;}</style></defs><g id="Layer_1-2"><path class="cls-1" d="M685.09.81l58.56,58.56-58.56,58.56-58.56-58.56L685.09.81ZM685.09,13.62l-45.75,45.75,45.75,45.75,45.75-45.75-45.75-45.75Z"/><path class="cls-1" d="M685.09,105.03l58.56,58.56-58.56,58.56-58.56-58.56,58.56-58.56ZM685.09,117.84l-45.75,45.75,45.75,45.75,45.75-45.75-45.75-45.75Z"/><path class="cls-1" d="M789.4.81l58.56,58.56-58.56,58.56-58.56-58.56L789.4.81ZM789.4,13.62l-45.75,45.75,45.75,45.75,45.75-45.75-45.75-45.75Z"/><path class="cls-1" d="M789.4,105.03l58.56,58.56-58.56,58.56-58.56-58.56,58.56-58.56ZM789.4,117.84l-45.75,45.75,45.75,45.75,45.75-45.75-45.75-45.75Z"/><path class="cls-1" d="M476.47.75l58.56,58.56-58.56,58.56-58.56-58.56L476.47.75ZM476.47,13.56l-45.75,45.75,45.75,45.75,45.75-45.75-45.75-45.75Z"/><path class="cls-1" d="M476.47,104.96l58.56,58.56-58.56,58.56-58.56-58.56,58.56-58.56ZM476.47,117.77l-45.75,45.75,45.75,45.75,45.75-45.75-45.75-45.75Z"/><path class="cls-1" d="M580.78.75l58.56,58.56-58.56,58.56-58.56-58.56L580.78.75ZM580.78,13.56l-45.75,45.75,45.75,45.75,45.75-45.75-45.75-45.75Z"/><path class="cls-1" d="M580.78,104.96l58.56,58.56-58.56,58.56-58.56-58.56,58.56-58.56ZM580.78,117.77l-45.75,45.75,45.75,45.75,45.75-45.75-45.75-45.75Z"/><path class="cls-1" d="M685.09,209.21l58.56,58.56-58.56,58.56-58.56-58.56,58.56-58.56ZM685.09,222.02l-45.75,45.75,45.75,45.75,45.75-45.75-45.75-45.75Z"/><path class="cls-1" d="M685.09,313.43l58.56,58.56-58.56,58.56-58.56-58.56,58.56-58.56ZM685.09,326.24l-45.75,45.75,45.75,45.75,45.75-45.75-45.75-45.75Z"/><path class="cls-1" d="M789.4,209.21l58.56,58.56-58.56,58.56-58.56-58.56,58.56-58.56ZM789.4,222.02l-45.75,45.75,45.75,45.75,45.75-45.75-45.75-45.75Z"/><path class="cls-1" d="M789.4,313.43l58.56,58.56-58.56,58.56-58.56-58.56,58.56-58.56ZM789.4,326.24l-45.75,45.75,45.75,45.75,45.75-45.75-45.75-45.75Z"/><path class="cls-1" d="M476.47,209.15l58.56,58.56-58.56,58.56-58.56-58.56,58.56-58.56ZM476.47,221.96l-45.75,45.75,45.75,45.75,45.75-45.75-45.75-45.75Z"/><path class="cls-1" d="M476.47,313.36l58.56,58.56-58.56,58.56-58.56-58.56,58.56-58.56ZM476.47,326.17l-45.75,45.75,45.75,45.75,45.75-45.75-45.75-45.75Z"/><path class="cls-1" d="M580.78,209.15l58.56,58.56-58.56,58.56-58.56-58.56,58.56-58.56ZM580.78,221.96l-45.75,45.75,45.75,45.75,45.75-45.75-45.75-45.75Z"/><path class="cls-1" d="M580.78,313.36l58.56,58.56-58.56,58.56-58.56-58.56,58.56-58.56ZM580.78,326.17l-45.75,45.75,45.75,45.75,45.75-45.75-45.75-45.75Z"/><path class="cls-1" d="M267.88.77l58.56,58.56-58.56,58.56-58.56-58.56L267.88.77ZM267.88,13.58l-45.75,45.75,45.75,45.75,45.75-45.75-45.75-45.75Z"/><path class="cls-1" d="M267.88,104.99l58.56,58.56-58.56,58.56-58.56-58.56,58.56-58.56ZM267.88,117.8l-45.75,45.75,45.75,45.75,45.75-45.75-45.75-45.75Z"/><path class="cls-1" d="M372.19.77l58.56,58.56-58.56,58.56-58.56-58.56L372.19.77ZM372.19,13.58l-45.75,45.75,45.75,45.75,45.75-45.75-45.75-45.75Z"/><path class="cls-1" d="M372.19,104.99l58.56,58.56-58.56,58.56-58.56-58.56,58.56-58.56ZM372.19,117.8l-45.75,45.75,45.75,45.75,45.75-45.75-45.75-45.75Z"/><path class="cls-1" d="M59.27.71l58.56,58.56-58.56,58.56L.71,59.27,59.27.71ZM59.27,13.52L13.52,59.27l45.75,45.75,45.75-45.75L59.27,13.52Z"/><path class="cls-1" d="M59.27,104.92l58.56,58.56-58.56,58.56L.71,163.48l58.56-58.56ZM59.27,117.73l-45.75,45.75,45.75,45.75,45.75-45.75-45.75-45.75Z"/><path class="cls-1" d="M163.57.71l58.56,58.56-58.56,58.56-58.56-58.56L163.57.71ZM163.57,13.52l-45.75,45.75,45.75,45.75,45.75-45.75-45.75-45.75Z"/><path class="cls-1" d="M163.57,104.92l58.56,58.56-58.56,58.56-58.56-58.56,58.56-58.56ZM163.57,117.73l-45.75,45.75,45.75,45.75,45.75-45.75-45.75-45.75Z"/><path class="cls-1" d="M267.88,209.18l58.56,58.56-58.56,58.56-58.56-58.56,58.56-58.56ZM267.88,221.99l-45.75,45.75,45.75,45.75,45.75-45.75-45.75-45.75Z"/><path class="cls-1" d="M267.88,313.39l58.56,58.56-58.56,58.56-58.56-58.56,58.56-58.56ZM267.88,326.2l-45.75,45.75,45.75,45.75,45.75-45.75-45.75-45.75Z"/><path class="cls-1" d="M372.19,209.18l58.56,58.56-58.56,58.56-58.56-58.56,58.56-58.56ZM372.19,221.99l-45.75,45.75,45.75,45.75,45.75-45.75-45.75-45.75Z"/><path class="cls-1" d="M372.19,313.39l58.56,58.56-58.56,58.56-58.56-58.56,58.56-58.56ZM372.19,326.2l-45.75,45.75,45.75,45.75,45.75-45.75-45.75-45.75Z"/><path class="cls-1" d="M59.27,209.11l58.56,58.56-58.56,58.56L.71,267.67l58.56-58.56ZM59.27,221.92l-45.75,45.75,45.75,45.75,45.75-45.75-45.75-45.75Z"/><path class="cls-1" d="M59.27,313.33l58.56,58.56-58.56,58.56L.71,371.88l58.56-58.56ZM59.27,326.14l-45.75,45.75,45.75,45.75,45.75-45.75-45.75-45.75Z"/><path class="cls-1" d="M163.57,209.11l58.56,58.56-58.56,58.56-58.56-58.56,58.56-58.56ZM163.57,221.92l-45.75,45.75,45.75,45.75,45.75-45.75-45.75-45.75Z"/><path class="cls-1" d="M163.57,313.33l58.56,58.56-58.56,58.56-58.56-58.56,58.56-58.56ZM163.57,326.14l-45.75,45.75,45.75,45.75,45.75-45.75-45.75-45.75Z"/></g></svg>