<?xml version="1.0" encoding="UTF-8"?>
<svg id="Layer_1" xmlns="http://www.w3.org/2000/svg" version="1.1" viewBox="0 0 24 24">
  <!-- Generator: Adobe Illustrator 29.8.3, SVG Export Plug-In . SVG Version: 2.1.1 Build 3)  -->
  <defs>
    <style>
      .st0 {
        fill: none;
        stroke: #000;
        stroke-linecap: round;
        stroke-linejoin: round;
        stroke-width: 2px;
      }
    </style>
  </defs>
  <path class="st0" d="M4.1,16.6"/>
  <path class="st0" d="M19.8,16.5"/>
  <path class="st0" d="M12,.9h0c2.5,0,4.5,2,4.5,4.5h0c0,2.5-2,4.5-4.5,4.5h0c-2.5,0-4.5-2-4.5-4.5h0c0-2.5,2-4.5,4.5-4.5Z"/>
  <line class="st0" x1="12" y1="23" x2="12" y2="10"/>
  <path class="st0" d="M12.1,23c4.5,0,9-1.8,9-5.3v-2.5l-4,2.5"/>
  <path class="st0" d="M11.9,23c-4.5,0-9-1.8-9-5.3v-2.5s4,2.5,4,2.5"/>
  <line class="st0" x1="8.4" y1="14" x2="15.6" y2="14"/>
</svg>