<?xml version="1.0" encoding="UTF-8"?><svg id="Layer_2" xmlns="http://www.w3.org/2000/svg" viewBox="0 0 31.99 31.99"><defs><style>.cls-1{fill:#333;}</style></defs><g id="Layer_2-2"><g id="Layer_1-2"><path class="cls-1" d="M0,3.44v25.11c0,1.9,1.54,3.44,3.44,3.44h25.11c1.9,0,3.44-1.54,3.44-3.44V3.44c0-1.9-1.54-3.44-3.44-3.44H3.44C1.54,0,0,1.54,0,3.44ZM6.6,5.33h5.12c1.56.05,2.72.37,3.49.95.84.64,1.26,1.68,1.26,3.13,0,2.59-1.66,3.92-4.99,3.98h-4.88s0-8.06,0-8.06ZM17.16,23.23c-.14.97-.56,1.76-1.27,2.36-.87.74-2.09,1.11-3.64,1.11h-5.65v-8.64h6.05c2.76.04,4.27,1.28,4.51,3.7.03.24.04.49.04.76,0,.24-.01.48-.04.7h0Z"/></g></g></svg>