<?xml version="1.0" encoding="UTF-8"?>
<svg id="Layer_1" xmlns="http://www.w3.org/2000/svg" version="1.1" viewBox="0 0 26 26">
  <!-- Generator: Adobe Illustrator 29.8.2, SVG Export Plug-In . SVG Version: 2.1.1 Build 3)  -->
  <path d="M14.4,10.4v8.2c0,.7,1,.7,1,0v-8.2c0-.7-1-.7-1,0Z"/>
  <path d="M10,10.4v7.1c0,.7,1,.7,1,0v-7.1c0-.7-1-.7-1,0Z"/>
  <path d="M24.9,4.1c-2.2,0-4.5.2-6.7.3,0-.7,0-1.3,0-2,0-.6-.3-1.1-.9-1.3-1.4-.5-3.1-.5-4.6-.5-.8,0-1.5,0-2.3,0-.6,0-1.3,0-1.8.3-.6.4-.5,1.1-.5,1.7,0,.7,0,1.4,0,2.1-2.2.1-4.5.2-6.7.3-.7,0-.7,1.1,0,1,.8,0,1.6,0,2.4-.1-.2,3.8-.3,7.6,0,11.3,0,1.6,0,3.4,1.1,4.8.9,1.2,2.3,1.9,3.7,2.4,3,1.1,6.4.8,9.6.5.7,0,1.5,0,2.1-.4.7-.4,1-1.1,1.2-1.8.6-1.5.9-3.1,1-4.8.1-2,.1-3.9.1-5.9,0-2.2,0-4.4,0-6.6,0-.2,0-.3-.2-.4.9,0,1.7,0,2.6-.1.7,0,.7-1.1,0-1ZM9.2,3.3c0-.3,0-.6,0-.9,0-.2,0-.5.1-.6.1-.1.5,0,.7,0,.3,0,.6,0,.9,0,.6,0,1.2,0,1.8,0,1.2,0,2.4,0,3.6.3.2,0,.7,0,.8.2.1.1,0,.5,0,.7,0,.5,0,1,0,1.6-2.7.1-5.3.2-8,.4,0-.5,0-1,0-1.5ZM21.4,15.7c0,1.6,0,3.2-.4,4.7-.1.7-.3,1.3-.6,1.9-.1.3-.3.7-.5,1-.3.4-.7.5-1.2.6-2.9.4-5.9.7-8.7,0-1.4-.3-2.8-.9-3.9-1.9-1.3-1.2-1.3-2.8-1.4-4.4-.2-3.9-.2-7.8,0-11.6,5.4-.3,10.8-.5,16.2-.7v.3c0,.1,0,.3.2.4,0,0,.1,0,.2.1,0,3.2,0,6.4,0,9.6Z"/>
</svg>