<?xml version="1.0" encoding="UTF-8"?>
<svg id="Layer_2" xmlns="http://www.w3.org/2000/svg" version="1.1" viewBox="0 0 30.7 25.6">
  <!-- Generator: Adobe Illustrator 29.8.2, SVG Export Plug-In . SVG Version: 2.1.1 Build 3)  -->
  <path d="M27.8,27.7s0,0,0,0c0,0,0,0,0,0h0ZM27.8,27.7h0s0,0,0,0Z"/>
  <g>
    <g>
      <path d="M15.7,25.3h0c0,0,.1,0,.2,0s0,0,0,0c0,0-.2,0-.2,0Z"/>
      <path d="M28.2,4.4h-12.3c-.3-.7-.8-1.4-1.5-1.9C12.8,1.2,10-.2,6.4.3c-.6,0-1,.6-1,1.3v2c-2-.3-3.8.5-4.5.9-.4.2-.6.7-.6,1.2v17.4c0,.5.2.9.5,1.1.3.2.6.2.9.1,2.2-.8,8-2.2,13.9.9,0,0,0,0,0,0h0c0,0,.1,0,.2,0,0,0,0,0,0,0h12.2c1.2,0,2.2-1,2.2-2.2V6.5c0-1.2-1-2.2-2.2-2.2ZM1.4,23.5s-.1-.1-.1-.4V5.8c0-.2,0-.3.1-.3.6-.4,2.3-1.1,4.1-.8v15.7c0,.4.2.8.4,1.1.2.2.5.3.8.3,1.1-.1,3.7,0,6.5,1.7-5.1-1.6-9.7-.4-11.7.3ZM15.4,7.1c-1.4-1.8-4.1-2.8-6.2-2.8s-.5.2-.5.5.2.5.5.5c2.1,0,6.2,1.4,6.2,4.7v2.7c-1.4-1.8-4.1-2.8-6.2-2.8s-.5.2-.5.5.2.5.5.5c2.1,0,6.2,1.4,6.2,4.7v2.7c-1.4-1.8-4-2.8-6.1-2.8s-.5.2-.5.5.2.5.5.5c2.1,0,6.1,1.4,6.1,4.7s0,0,0,0v2.8c-3.1-2.7-6.1-3.2-8-3.2s-.7,0-.9,0c0,0-.1-.1-.1-.4V1.6c0-.2,0-.3.1-.4,3.3-.5,5.8.8,7.3,2,1,.8,1.6,1.9,1.6,3.1v.7ZM29.4,23.3c0,.7-.6,1.2-1.3,1.2h-11.8V6.4c0-.4,0-.7-.1-1.1h11.9c.7,0,1.3.5,1.3,1.2v16.7Z"/>
    </g>
    <path d="M24.8,22.7c0,.3-.2.5-.5.5h-2.9c-.3,0-.5-.2-.5-.5s.2-.5.5-.5h2.9c.3,0,.5.2.5.5Z"/>
  </g>
</svg>