<?xml version="1.0" encoding="UTF-8"?>
<svg id="Layer_1" xmlns="http://www.w3.org/2000/svg" version="1.1" viewBox="0 0 17 12">
  <!-- Generator: Adobe Illustrator 29.8.2, SVG Export Plug-In . SVG Version: 2.1.1 Build 3)  -->
  <path d="M15.4.4c-1.2,0-2.4,0-3.6.1-1.2.1-2.3.3-3.5.2-2.4-.1-4.8-.4-7.3-.3-.6,0-.6,1,0,1,2.5-.1,4.8.1,7.3.3,1.2,0,2.3-.1,3.5-.2,1.2-.1,2.4-.1,3.6-.1.6,0,.6-1,0-1Z"/>
  <path d="M13.2,5.5H4.7c-.6,0-.6.9,0,.9h8.5c.6,0,.6-.9,0-.9Z"/>
  <path d="M15.7,10.5c-2.5-.1-5-.4-7.5-.3-2.5.2-4.9.8-7.4.6-.6,0-.6,1,0,1,2.5.2,4.9-.5,7.4-.6,2.5-.2,5,.1,7.5.3.6,0,.6-1,0-1Z"/>
</svg>