<?xml version="1.0" encoding="UTF-8"?>
<svg id="Layer_1" xmlns="http://www.w3.org/2000/svg" version="1.1" viewBox="0 0 17 12">
  <!-- Generator: Adobe Illustrator 29.8.2, SVG Export Plug-In . SVG Version: 2.1.1 Build 3)  -->
  <path d="M15.5.2c-4.8.2-9.5.2-14.3,0C0,.2,0,2.2,1.2,2.2c4.8.1,9.5.1,14.3,0,1.3,0,1.3-2,0-2Z"/>
  <path d="M13.6,4.8c-.8-.2-1.6-.2-2.4-.2-.9,0-1.7.1-2.6.1-1.7,0-3.4,0-5.1,0-1.3,0-1.3,2,0,2,1.6,0,3.3,0,4.9,0,.8,0,1.6,0,2.4-.1.7,0,1.5-.1,2.2,0,1.2.4,1.8-1.6.5-1.9Z"/>
  <path d="M15.6,9.4c-4.8.1-9.6.2-14.4.3-.8,0-1.1.9-.9,1.4,0,.2.2.4.4.5.1,0,.3.1.5.1,4.8-.1,9.6-.2,14.4-.3,1.3,0,1.3-2,0-2Z"/>
</svg>