<?xml version="1.0" encoding="UTF-8"?>
<svg id="Layer_1" xmlns="http://www.w3.org/2000/svg" version="1.1" viewBox="0 0 25 26">
  <!-- Generator: Adobe Illustrator 29.8.2, SVG Export Plug-In . SVG Version: 2.1.1 Build 3)  -->
  <path d="M23.4,3.7c0-1.4.2-3.2-1.7-3.3-1.9-.2-3.9,0-5.9,0-4.6,0-9.1.1-13.7.3-.9,0-1.2,1-.8,1.6,0,.7,0,1.4,0,2.1,0,.8-.2,1.8.1,2.5.2.6.8.8,1.4.9,1,.1,2,.2,3,.2,3.8,0,7.6-.4,11.5-.2.9,0,1.8.2,2.8.3.7.1,1.4.2,2.1-.2,1.4-.8,1.1-2.9,1.1-4.2ZM21.3,6.1c-.2.2-1.1-.1-1.3-.2-.3,0-.7,0-1-.1-1.8-.2-3.6-.2-5.3-.1-1.8,0-3.6.2-5.4.2-.9,0-1.8,0-2.7,0-.4,0-.8,0-1.1,0-.3,0-.7,0-1,0,0-.6,0-1.2,0-1.7,0-.5,0-1,0-1.5,3.3-.1,6.7-.2,10-.2,1.9,0,3.8,0,5.6,0,.4,0,.8,0,1.2,0,.2,0,.8,0,1.1,0,0,.2,0,.3,0,.5,0,.5,0,.9,0,1.4,0,.3.2,1.7-.2,1.9Z"/>
  <path d="M1.3,22.3c0,1.4-.2,3.2,1.7,3.3,1.9.2,3.9,0,5.9,0,4.6,0,9.1-.1,13.7-.3.9,0,1.2-1,.8-1.6,0-.7,0-1.4,0-2.1,0-.8.2-1.8-.1-2.5-.2-.6-.8-.8-1.4-.9-1-.1-2-.2-3-.2-3.8,0-7.6.4-11.5.2-.9,0-1.8-.2-2.8-.3-.7-.1-1.4-.2-2.1.2-1.4.8-1.1,2.9-1.1,4.2ZM3.4,19.9c.2-.2,1.1.1,1.3.2.3,0,.7,0,1,.1,1.8.2,3.6.2,5.3.1,1.8,0,3.6-.2,5.4-.2.9,0,1.8,0,2.7,0,.4,0,.8,0,1.1,0,.3,0,.7,0,1,0,0,.6,0,1.2,0,1.7,0,.5,0,1,0,1.5-3.3.1-6.7.2-10,.2-1.9,0-3.8,0-5.6,0-.4,0-.8,0-1.2,0-.2,0-.8,0-1.1,0,0-.2,0-.3,0-.5,0-.5,0-.9,0-1.4,0-.3-.2-1.7.2-1.9Z"/>
  <path d="M23,10.2c-.1-.4-.5-.6-.9-.7-3.2-.3-6.5,0-9.7.3-3,.2-6.4.7-9.3-.1-.1,0-.2,0-.3,0-.6-.2-1.4,0-1.4.8,0,1.4,0,2.9,0,4.3,0,1.2.8,1.5,2.1,1.7,3,.4,6.3,0,9.3,0,1.6,0,3.2-.2,4.7-.3.8,0,1.5-.1,2.3-.1.7,0,1.4.2,2.1.2,3,.2,1.5-4.6,1.1-6ZM12.5,14.5c-2.5.1-4.9.2-7.4.2-.6,0-1.2-.2-1.8-.2,0,0,0,0,0,0,0-.2,0-.5,0-.7,0-.8,0-1.5,0-2.3,2.8.6,5.8.2,8.6,0,3.1-.2,6.2-.5,9.3-.3.2.9.4,1.7.4,2.6,0,0,0,.2,0,.5-.5-.1-1-.1-1.5-.2-2.5,0-5.1.3-7.6.4Z"/>
</svg>