<?xml version="1.0" encoding="UTF-8"?>
<svg id="Layer_1" xmlns="http://www.w3.org/2000/svg" version="1.1" viewBox="0 0 25 26">
  <!-- Generator: Adobe Illustrator 29.8.2, SVG Export Plug-In . SVG Version: 2.1.1 Build 3)  -->
  <path d="M20.6,6.7c-2.5-.4-4.9-.9-7.4-1.3-2.4-.4-4.9-.7-7.3-.3-.6,0-.6,1.1,0,1,2.4-.3,4.9,0,7.3.3,2.4.4,4.8.8,7.2,1.2.6.1.9-.9.3-1Z"/>
  <path d="M19.9,12c-4.7-.2-9.4-.3-14.1-.2-.6,0-.6,1,0,1,4.7,0,9.4,0,14.1.2.6,0,.6-1,0-1Z"/>
  <path d="M19,19.1c-4.4,0-8.8-.2-13.1-.3-.6,0-.6,1,0,1,4.4,0,8.8.2,13.1.3.6,0,.6-1,0-1Z"/>
  <path d="M24.6,22.6c.3-3.1-.2-6.2-.6-9.3-.4-3.3-.3-6.5.2-9.8,0-.5.4-1.3,0-1.8-.3-.5-1.2-.7-1.7-.8-1.5-.3-3.1-.3-4.6-.3-3.3,0-6.6,0-9.9,0-1.6,0-3.3-.3-4.9-.5-.5,0-1.1,0-1.6.2-.5.4-.7,1.1-.9,1.7-.4,1.4-.4,3-.4,4.5,0,1.6,0,3.2,0,4.8,0,3.2.6,6.4.7,9.7,0,.8,0,1.6,0,2.4,0,.5-.2,1.4.3,1.8.4.4,1.2.3,1.8.3.7,0,1.5-.1,2.2-.3,1.8-.3,3.6-.6,5.4-.3,1.8.2,3.5.6,5.3.7,1.8,0,3.6-.1,5.4-.4,1.4-.2,3-.5,3.3-2,0-.2,0-.4-.2-.5ZM20.3,24.3c-1.4.2-2.9.3-4.3.2-2.8-.1-5.6-1.1-8.5-.7-1.4.2-2.8.6-4.2.6-.3,0-.7,0-1,0,0,0,0,0-.1,0-.1,0-.2,0,0,0,0,0,0-.5,0-.5,0-.8,0-1.5,0-2.3,0-2.9-.6-5.8-.7-8.7,0-1.4,0-2.9,0-4.4,0-1.4,0-2.8,0-4.1,0-.7.1-1.3.3-1.9,0-.3.2-.7.3-1,.3-.4.6-.3,1-.3,1.4,0,2.8.3,4.3.4,3,.2,6,.1,9,.1,1.5,0,2.9,0,4.4,0,.6,0,1.3.1,1.9.3.2,0,.4,0,.5.2.3.1.2.1.3.4,0,.4-.1.8-.2,1.2-.5,3.1-.6,6.3-.2,9.4.4,3.2,1,6.4.6,9.7,0,.1,0,.2,0,.3-.6,1-2.4,1-3.4,1.1Z"/>
</svg>