<svg width="25" height="26" viewBox="0 0 25 26" fill="none" xmlns="http://www.w3.org/2000/svg">
<path d="M24.5 23.5V12.6212V2.5C24.5 1.39543 23.6046 0.5 22.5 0.5H2.5C1.39543 0.5 0.5 1.39543 0.5 2.5V23.5C0.5 24.6046 1.39543 25.5 2.5 25.5H22.5C23.6046 25.5 24.5 24.6046 24.5 23.5Z" stroke="black" stroke-linecap="round"/>
<path d="M18.5002 7.72222H6.5C5.94772 7.72222 5.5 7.27451 5.5 6.72222V4.5C5.5 3.94772 5.94772 3.5 6.5 3.5H18.5002C19.0524 3.5 19.5002 3.94772 19.5002 4.5V6.72222C19.5002 7.27451 19.0524 7.72222 18.5002 7.72222Z" stroke="black" stroke-linecap="round"/>
<path d="M18.5002 15.1119H6.5C5.94772 15.1119 5.5 14.6642 5.5 14.1119V11.8896C5.5 11.3374 5.94772 10.8896 6.5 10.8896H18.5002C19.0524 10.8896 19.5002 11.3374 19.5002 11.8896V14.1119C19.5002 14.6642 19.0524 15.1119 18.5002 15.1119Z" stroke="black" stroke-linecap="round"/>
<path d="M18.5002 22.4996H6.5C5.94772 22.4996 5.5 22.0519 5.5 21.4996V19.2773C5.5 18.7251 5.94772 18.2773 6.5 18.2773H18.5002C19.0524 18.2773 19.5002 18.7251 19.5002 19.2773V21.4996C19.5002 22.0519 19.0524 22.4996 18.5002 22.4996Z" stroke="black" stroke-linecap="round"/>
</svg>
