<?xml version="1.0" encoding="UTF-8"?>
<svg id="Layer_1" xmlns="http://www.w3.org/2000/svg" version="1.1" viewBox="0 0 18 9">
  <!-- Generator: Adobe Illustrator 29.8.2, SVG Export Plug-In . SVG Version: 2.1.1 Build 3)  -->
  <defs>
    <style>
      .st0 {
        fill: #15161a;
      }
    </style>
  </defs>
  <path class="st0" d="M16.4.9c-1.3,1.1-2.6,2.4-3.9,3.6-1,1-2.1,2.5-3.6,2.6-.8,0-1.5-.4-2.2-.8s-1.3-.9-1.9-1.4c-1.3-1-2.6-2.1-3.5-3.5C.9.9,0,1.4.4,1.9c1,1.5,2.3,2.6,3.7,3.7,1.3,1,2.9,2.5,4.6,2.5s2.9-1.2,4-2.3c1.4-1.5,2.8-2.9,4.4-4.2.5-.4-.2-1.1-.7-.7Z"/>
  <path d="M17.3.9c-.4-.4-1-.3-1.4,0-1.3,1-2.6,2.1-3.8,3.1-1,.8-2.1,1.9-3.4,2.4,0,0,0,0,0,0-1.3.3-2.6-.6-3.5-1.5-1.1-1.1-2.2-2.3-3.1-3.6-.3-.4-.9-.7-1.4-.4-.4.2-.7.9-.4,1.4.6.8,1.2,1.5,1.9,2.3.6.7,1.2,1.4,1.8,2,1.3,1.2,2.9,2.1,4.7,1.8.1,0,.3,0,.4,0,1.6-.5,2.8-1.7,4.1-2.7,1.4-1.1,2.7-2.2,4.1-3.3.4-.3.4-1.1,0-1.4Z"/>
</svg>