<?xml version="1.0" encoding="UTF-8"?>
<svg id="Layer_1" xmlns="http://www.w3.org/2000/svg" version="1.1" viewBox="0 0 18 9">
  <!-- Generator: Adobe Illustrator 29.8.2, SVG Export Plug-In . SVG Version: 2.1.1 Build 3)  -->
  <defs>
    <style>
      .st0 {
        fill: #15161a;
      }
    </style>
  </defs>
  <path class="st0" d="M16.4.9c-1.3,1.1-2.6,2.4-3.9,3.6-1,1-2.1,2.5-3.6,2.6-.8,0-1.5-.4-2.2-.8-.7-.4-1.3-.9-1.9-1.4-1.3-1-2.6-2.1-3.5-3.5-.4-.5-1.2,0-.9.5,1,1.5,2.3,2.6,3.7,3.7,1.3,1,2.9,2.5,4.6,2.5,1.6,0,2.9-1.2,4-2.3,1.4-1.5,2.8-2.9,4.4-4.2.5-.4-.2-1.1-.7-.7Z"/>
</svg>