<svg width="17" height="15" viewBox="0 0 17 15" fill="none" xmlns="http://www.w3.org/2000/svg">
<path d="M13.3355 12.2596L12.7426 13.4135C12.4 14.0803 11.7133 14.4996 10.9637 14.4996H8.13449C7.3718 14.4996 6.88985 13.68 7.26055 13.0135L7.67986 12.2596M13.3355 12.2596L15.7517 7.55659C16.0936 6.8911 15.6104 6.09961 14.8622 6.09961H12.2819C11.5559 6.09961 10.8869 6.49304 10.5341 7.12752L7.67986 12.2596M13.3355 12.2596H7.67986" stroke="black"/>
<path d="M0.500244 12.2599L1.93876 8.33995M8.23228 8.33995L5.44816 0.753211C5.39235 0.601108 5.24754 0.5 5.08552 0.5C4.9235 0.5 4.77869 0.601108 4.72288 0.753211L1.93876 8.33995M8.23228 8.33995H1.93876M8.23228 8.33995L8.84879 10.0199" stroke="black" stroke-linecap="round"/>
</svg>
