<?xml version="1.0" encoding="UTF-8"?>
<svg id="Layer_1" xmlns="http://www.w3.org/2000/svg" version="1.1" viewBox="0 0 24 24">
  <!-- Generator: Adobe Illustrator 29.8.2, SVG Export Plug-In . SVG Version: 2.1.1 Build 3)  -->
  <path d="M24,9c0-1.1-.5-2.2-1.2-2.8l-3.5-3.5c-1.5-1.5-4.2-1.5-5.7,0L2,14.2c-.8.8-1.2,1.9-1.2,2.8s.5,2.2,1.2,2.9l.9.9h-1.2c-.9,0-1.5.8-1.5,1.5s.6,1.5,1.5,1.5h16.3c.9,0,1.5-.6,1.5-1.5s-.6-1.5-1.5-1.5h-4.2l8.9-8.9c.8-.8,1.2-1.7,1.2-2.8v-.2ZM7.2,20.9l-3.1-3.1c-.2-.2-.3-.5-.3-.6s0-.5.3-.6l2.5-2.5,4.9,4.9-2,2h-2.3v-.2ZM20.6,9.8l-6.9,6.9-4.9-4.9,6.9-6.9c.3-.3.9-.3,1.4,0l3.5,3.5c.2.2.3.5.3.6s0,.5-.3.6v.2Z"/>
</svg>