<?xml version="1.0" encoding="UTF-8"?>
<svg id="Layer_1" xmlns="http://www.w3.org/2000/svg" version="1.1" viewBox="0 0 17 15">
  <!-- Generator: Adobe Illustrator 29.8.2, SVG Export Plug-In . SVG Version: 2.1.1 Build 3)  -->
  <path d="M15.5,5.2c-.9,0-1.8,0-2.6.1-.8,0-1.8,0-2.5.6-.3.3-.5.7-.8,1,0,0-.1.2-.2.3-.2-1.6-1-3.2-1.7-4.7-.4-.9-.7-2.1-2-1.8,0,0,0,0,0,0-.2,0-.4,0-.6.2-.7.3-1.3.7-1.6,1.3-.5.8-.6,1.7-.9,2.6-.3.9-.7,1.7-1.1,2.6-.7,1.7-1.3,3.5-1.4,5.4,0,1.3,2,1.3,2,0,0-1.2.3-2.4.7-3.5,0,0,0,0,.1,0,1.6,0,3.2,0,4.9,0,0,.2-.2.3-.3.5-.3.7-.5,1.3-1,1.8-.6.7-1,1.5-.6,2.4.5.9,1.5.8,2.4.7.9,0,1.8,0,2.7,0,.6,0,1-.5,1-1,.8-.9,1.5-2,2.1-3,0,0,0-.2.1-.2.1-.1.2-.3.3-.4.6-.8,1.2-1.7,1.5-2.6,0-.1,0-.3,0-.4,0-.1.1-.2.2-.3.4-.6,0-1.5-.9-1.5ZM4.9,4.2c.1-.4.2-.9.5-1.2,0,0,.3-.2.4-.3.1.3.2.6.3.8.2.6.5,1.2.7,1.7.3.7.5,1.3.6,2-1.2,0-2.5,0-3.7,0,0,0,0-.1,0-.2.4-.9.8-1.9,1.1-2.9ZM10.4,12.6s0,0,0,.1c-.4,0-.9,0-1.3,0-.2,0-.5,0-.7,0,0,0,0,0,0,0,.2-.2.4-.5.5-.8,0-.2.1-.3.2-.5.1,0,.2,0,.3,0h1.9c-.3.4-.6.8-.9,1.1ZM12.5,9.5s0,0,0,0h-2.3c.2-.3.4-.6.6-.8.2-.3.4-.5.6-.8.1-.1.3-.5.4-.5,0,0,.5,0,.7,0,.3,0,.7,0,1,0,.1,0,.3,0,.4,0-.4.8-.8,1.5-1.3,2.3Z"/>
</svg>