<?xml version="1.0" encoding="UTF-8"?>
<svg id="Layer_1" xmlns="http://www.w3.org/2000/svg" version="1.1" viewBox="0 0 16 16">
  <!-- Generator: Adobe Illustrator 29.8.2, SVG Export Plug-In . SVG Version: 2.1.1 Build 3)  -->
  <path d="M15.8,6.3c0-.7-.3-1.4-.8-1.8l-2.3-2.3c-1-1-2.7-1-3.7,0L1.5,9.7c-.5.5-.8,1.2-.8,1.8s.3,1.4.8,1.9l.6.6h-.8c-.6,0-1,.5-1,1s.4,1,1,1h10.6c.6,0,1-.4,1-1s-.4-1-1-1h-2.7l5.8-5.8c.5-.5.8-1.1.8-1.8ZM4.9,14l-2-2c-.1-.1-.2-.3-.2-.4s0-.3.2-.4l1.6-1.6,3.2,3.2-1.3,1.3h-1.5ZM13.6,6.8l-4.5,4.5-3.2-3.2,4.5-4.5c.2-.2.6-.2.9,0l2.3,2.3c.1.1.2.3.2.4s0,.3-.2.4Z"/>
</svg>