<?xml version="1.0" encoding="UTF-8"?>
<svg id="Layer_1" xmlns="http://www.w3.org/2000/svg" version="1.1" viewBox="0 0 26 25">
  <!-- Generator: Adobe Illustrator 29.8.2, SVG Export Plug-In . SVG Version: 2.1.1 Build 3)  -->
  <path d="M1.1,11.6c0,1.6,0,3.1,0,4.7,0,1.7-.1,3.3-.1,5,0,.6-.1,1.4.3,2,.3.4.7.5,1.1.6,3.1.5,6.2.7,9.3.7,3.2,0,6.4-.2,9.6-.6,1.1-.1,2.8,0,3.4-1.2.4-.6.3-1.2.3-1.8,0-.8,0-1.6,0-2.4,0-3.3,0-6.5,0-9.8,0-1.6.2-3.1.3-4.7,0-.8.4-2.1,0-2.9.2-.3,0-.8-.4-.7-3.5.5-7.1.2-10.7,0-3.6-.2-7.1,0-10.6.2-1.2,0-2.6,0-2.8,1.4-.3,1.5-.1,3.1,0,4.6.1,1.6.3,3.2.4,4.9ZM11,1.4c4.4,0,8.8.6,13.2.1,0,0,0,0,0,0,.4.3,0,1.6,0,2,0,.8-.1,1.7-.2,2.5-.1,1.6-.2,3.2-.2,4.8,0,3.2,0,6.5,0,9.7,0,.6.2,1.6-.4,1.9-.5.3-1.2.3-1.8.4-1.4.2-2.8.3-4.2.5-2.1.2-4.1.2-6.2.2-.2-7.4-.3-14.8-.3-22.2ZM2,21.3c0-1.8,0-3.7.1-5.5,0,0,0,0,0,0,2.7-.2,5.3-1,8-.8,0,2.8.1,5.7.2,8.5-.4,0-.8,0-1.3,0-1.4,0-2.8-.2-4.2-.3-.7,0-1.5-.1-2.2-.3-.4,0-.5,0-.6-.5,0-.3,0-.7,0-1.1ZM1.6,4.2c0-.4,0-.7,0-1.1,0-.3,0-.8.2-1.1.3-.4,1.5-.3,2-.3,1.4,0,2.7-.2,4.1-.3.7,0,1.4,0,2.2,0,0,4.2,0,8.4,0,12.6-2.7-.2-5.3.6-7.9.8,0-.7,0-1.4,0-2.1,0-2.9-.6-5.7-.5-8.5Z"/>
  <path d="M16.3,11c.5-.6,1-1.3,1.5-1.9,1-1.3,2-2.6,2.9-4,.4-.5,1.2,0,.9.5-.9,1.2-1.8,2.5-2.7,3.7-.4.5-.8,1.1-1.3,1.6-.2.3-.5.6-.7.9-.2.2-.5.5-.6.7.4.5.9.9,1.4,1.3.5.5,1.1,1,1.6,1.6,1,1,2.1,2,3.1,3,.5.5-.2,1.2-.7.7-1.2-1.2-2.3-2.3-3.5-3.5-.6-.6-1.2-1.2-1.8-1.7-.4-.4-1.2-.9-1.1-1.5,0-.6.8-1.1,1.1-1.6Z"/>
</svg>