<?xml version="1.0" encoding="UTF-8"?>
<svg id="Layer_1" xmlns="http://www.w3.org/2000/svg" version="1.1" viewBox="0 0 26 25">
  <!-- Generator: Adobe Illustrator 29.8.2, SVG Export Plug-In . SVG Version: 2.1.1 Build 3)  -->
  <path d="M.6,16.3c.2,2.1.4,4.2.2,6.3,0,.5.3.8.7,1,3.9,1.5,8,.3,12.1.4,1,0,1.9.2,2.9.3,1.1,0,2.3,0,3.4-.2.9-.1,2.2,0,2.9-.5,1,.2,2.1-.5,2.4-1.5.3-.9.2-1.9,0-2.8,0-1.2-.2-2.4-.2-3.6-.1-2.5-.2-4.9-.2-7.4,0-1.3,0-2.5,0-3.8,0-.8.3-1.2.2-2.2,0,0,0-.2,0-.2.3-.6,0-1.5-.8-1.5-4,.2-8.1.3-12.1.4-1.9,0-3.9,0-5.8,0-1,0-2.1,0-3.1,0-.7,0-1.3,0-1.8.4-1.1,1-.8,3-.8,4.3,0,1.8-.1,3.6,0,5.4,0,1,.2,1.8,0,2.8-.1.8,0,1.6,0,2.4ZM11.3,3.1c.7,0,1.5,0,2.2,0,3.2,0,6.5-.1,9.7-.3,0,0,0,.1,0,.2-.5,1-.3,2.4-.3,3.4,0,1.8,0,3.6,0,5.4s.1,3.6.2,5.4c0,.9.1,1.8.2,2.7,0,.2,0,1.9-.2,1.8-.5-.7-1.3-.3-1.6.3-1.5.2-3,.5-4.5.4-1.7,0-3.3-.4-5-.3,0,0-.2,0-.3,0-.3-3-.3-6.1-.4-9.2,0-3.3,0-6.5-.1-9.8ZM2.5,15.6c1.9,0,3.8,0,5.7.2,0,0,.1,0,.2,0,0,0,.1,0,.2,0,.1,0,.2,0,.4,0,0,0,0,0,0,0,.2,0,.3,0,.5.1,0,2,.1,4.1.3,6.1-2.4.2-4.7.4-7-.3,0-1.6,0-3.3-.1-4.9,0-.4-.1-.9-.2-1.3ZM2.8,2.9c.2-.1,1.1,0,1.3,0,.4,0,.9,0,1.3,0,.9,0,1.8,0,2.7,0,.4,0,.8,0,1.2,0v9.8c.1.4.2.8.2,1.1,0,0,0,0,0,0-.3,0-.5,0-.8,0-2-.2-4-.3-5.9-.3,0-.4.1-.8,0-1.3-.1-1.7-.2-3.3-.1-5,0-.7-.2-4.2.2-4.4Z"/>
  <path d="M13.7,11.5c1.7-2.2,3.7-4.3,5.8-6.1,1-.9,2.4.6,1.4,1.4-1.8,1.6-3.5,3.4-5.1,5.3,2.2,1.9,4.1,4.1,5.7,6.4.7,1.1-1,2.1-1.7,1-1.7-2.5-3.7-4.7-6-6.6-.4-.4-.3-1,0-1.4Z"/>
</svg>