<?xml version="1.0" encoding="UTF-8"?>
<svg id="Layer_1" xmlns="http://www.w3.org/2000/svg" version="1.1" viewBox="0 0 26 26">
  <!-- Generator: Adobe Illustrator 29.8.2, SVG Export Plug-In . SVG Version: 2.1.1 Build 3)  -->
  <path d="M22.9.6c-4.7,2.8-8.9,6.5-12.7,10.5-1.9,2-3.8,4-5.6,6.1-1.8,2-3.7,4-4.4,6.7-.3,1.2,1.6,1.8,1.9.5.7-2.6,2.8-4.6,4.5-6.5,1.7-1.9,3.4-3.8,5.2-5.7,3.6-3.7,7.6-7.2,12.1-9.9,1.1-.7,0-2.4-1-1.7Z"/>
  <path d="M23.8,7.3c-6.2,4.8-10.9,11.1-16.5,16.5-.9.9.5,2.3,1.4,1.4,5.6-5.4,10.3-11.7,16.5-16.5,1-.8-.4-2.2-1.4-1.4Z"/>
  <path d="M25.2,16.2c-.3-.4-.7-.5-1.2-.4,0,0-.2,0-.3,0,0,0,0,0-.1,0-1.4.7-2.1,2.2-2.8,3.5-.9,1.6-2,3.1-3.2,4.5-.3.4-.4,1,0,1.4.4.4,1.1.4,1.4,0,1.2-1.4,2.3-3,3.3-4.6.4-.7.7-1.4,1.2-2,.4-.5.8-1,1.4-1.3.5-.2.6-.9.4-1.4Z"/>
</svg>