<?xml version="1.0" encoding="UTF-8"?>
<svg id="Layer_1" xmlns="http://www.w3.org/2000/svg" version="1.1" viewBox="0 0 26 26">
  <!-- Generator: Adobe Illustrator 29.8.2, SVG Export Plug-In . SVG Version: 2.1.1 Build 3)  -->
  <path d="M22.6,1.1c-2.3,3-6,4.7-8.7,7.3-1.6,1.5-3,3.1-4.5,4.6-1.5,1.6-3,3.2-4.4,4.8-.8.9-1.6,1.8-2.4,2.8-.7.8-1.5,1.6-1.5,2.7,0,.6,1,.6,1,0,0-1,1.1-2,1.7-2.7.7-.8,1.4-1.6,2.1-2.4,1.4-1.6,2.9-3.2,4.4-4.7,1.4-1.5,2.8-3,4.3-4.5,1.4-1.3,3-2.4,4.5-3.5,1.6-1.2,3.2-2.4,4.4-4,.4-.5-.5-1-.9-.5Z"/>
  <path d="M22.8,8.5c-.8,1.5-2,2.6-3.2,3.6-1.4,1.1-2.7,2.2-4,3.4-2.6,2.6-4.9,5.5-7.8,7.8-.5.4.2,1.1.7.7,2.9-2.4,5.3-5.3,8-8,2.4-2.3,5.6-4.1,7.2-7.1.3-.6-.6-1.1-.9-.5Z"/>
  <path d="M23.7,15.9c-1.2.9-1.9,2.3-2.7,3.6-.9,1.5-1.9,2.9-2.9,4.2-.4.5.3,1.2.7.7,1-1.3,2-2.6,2.8-4,.8-1.2,1.4-2.7,2.6-3.6.5-.4,0-1.3-.5-.9Z"/>
</svg>