<?xml version="1.0" encoding="UTF-8"?>
<svg id="Layer_2" xmlns="http://www.w3.org/2000/svg" version="1.1" viewBox="0 0 1471.7 322.7">
  <!-- Generator: Adobe Illustrator 29.8.3, SVG Export Plug-In . SVG Version: 2.1.1 Build 3)  -->
  <g id="Layer_1-2">
    <path d="M548,239.8c-8,4.2-25.7,9.7-48.2,9.7-50.6,0-83.5-34.3-83.5-85.6s35.4-89.1,90.1-89.1,34,4.5,42.3,8.7l-6.9,23.6c-7.3-4.2-18.7-8-35.4-8-38.5,0-59.3,28.4-59.3,63.4s25,62.7,58.2,62.7,28.8-4.5,37.4-8.3l5.2,22.9h0Z"/>
    <path d="M739,160.8c0,62-43,89.1-83.5,89.1s-80.4-33.3-80.4-86.3,36.7-89.1,83.2-89.1,80.8,35,80.8,86.3h0ZM605.9,162.6c0,36.7,21.1,64.5,51,64.5s51-27.4,51-65.2-14.2-64.5-50.3-64.5-51.6,33.3-51.6,65.2Z"/>
    <path d="M792.4,78.3l32.9,94.3c5.5,15.2,10,29.1,13.5,43h1c3.8-13.9,8.7-27.7,14.2-43l32.6-94.3h31.9l-65.8,167.8h-29.1l-63.8-167.8h32.6,0Z"/>
    <path d="M966.4,167.8c.7,41.2,27,58.2,57.5,58.2s35-3.8,46.4-8.7l5.2,21.8c-10.7,4.9-29.1,10.4-55.8,10.4-51.6,0-82.5-34-82.5-84.6s29.8-90.5,78.7-90.5,69.3,48.2,69.3,79-.7,11.1-1,14.2h-117.8,0ZM1055.8,145.9c.3-19.4-8-49.6-42.3-49.6s-44.4,28.4-46.8,49.6h89.1Z"/>
    <path d="M1128.6,130.7c0-19.8-.3-36.7-1.4-52.3h26.7l1,32.9h1.4c7.6-22.5,26-36.7,46.4-36.7s5.9.3,8.7,1v28.8c-3.1-.7-6.2-1-10.4-1-21.5,0-36.7,16.3-40.9,39.2-.7,4.2-1.4,9-1.4,14.2v89.4h-30.2v-115.4h0Z"/>
    <path d="M1248.8,0h30.5v246.1h-30.5V0Z"/>
    <path d="M1347.2,78.3l36.7,99.1c3.8,11.1,8,24.3,10.7,34.3h.7c3.1-10.1,6.6-22.9,10.7-35l33.3-98.4h32.2l-45.8,119.6c-21.8,57.5-36.7,87-57.5,105-14.9,13.2-29.8,18.4-37.4,19.8l-7.6-25.6c7.6-2.4,17.7-7.3,26.7-14.9,8.3-6.6,18.7-18.4,25.7-34,1.4-3.1,2.4-5.5,2.4-7.3s-.7-4.2-2.1-8l-62-154.6h33.3Z"/>
    <path d="M301.2,189.4c-1.9-2.1-3.9-4.3-6.1-6.5-13.7-13.7-28.9-21.3-44.3-23.6,15.7-2.4,30.6-10.2,43.1-22.7,2.6-2.6,5-5.2,7.1-7.8,2.6-3.2,2.4-7.8-.5-10.8L192.6,10.1c-3-3-7.8-3.1-10.9-.4-2.1,1.9-4.3,3.9-6.5,6.1-13.7,13.7-21.2,28.7-23.5,44-2.5-15.5-10.2-30.2-22.6-42.6-2.7-2.7-5.2-5-7.8-7.2-3.2-2.7-7.8-2.4-10.8.5L2.3,118.5c-3,3-3.1,7.8-.4,10.9,1.9,2.2,3.9,4.4,6.2,6.6,13.6,13.6,28.7,21.2,44,23.5-15.6,2.5-30.4,10.2-42.8,22.7-2.7,2.6-5,5.2-7.2,7.8-2.7,3.2-2.4,7.8.5,10.8l108,108c3,3,7.8,3.1,10.9.4,2.1-1.9,4.3-3.9,6.5-6.1,13.7-13.7,21.3-28.9,23.6-44.2,2.5,15.6,10.2,30.4,22.7,42.9,2.6,2.6,5.2,5,7.8,7.1,3.2,2.6,7.8,2.4,10.8-.5l108-108c3-3,3.1-7.8.4-10.9h0ZM178.6,186.8c-15.7,15.7-24.5,33.1-27.1,50.4-2.8-18.2-12.5-35.8-27.4-50.7-15.6-15.6-33-24.4-50.2-27,18.2-2.9,35.8-12.5,50.7-27.4s24.5-33,27-50.2c2.9,18.1,12.6,35.6,27.4,50.5s33.2,24.6,50.5,27.1c-18.3,2.8-36,12.5-50.9,27.5h0Z"/>
  </g>
</svg>