<?xml version="1.0" encoding="UTF-8"?><svg id="Layer_2" xmlns="http://www.w3.org/2000/svg" viewBox="0 0 303.28 303.38"><g id="Layer_2-2"><path d="M301.24,181.64c-1.9-2.1-3.9-4.3-6.1-6.5-13.7-13.7-28.9-21.3-44.3-23.6,15.7-2.4,30.6-10.2,43.1-22.7,2.6-2.6,5-5.2,7.1-7.8,2.6-3.2,2.4-7.8-.5-10.8L192.64,2.34c-3-3-7.8-3.1-10.9-.4-2.1,1.9-4.3,3.9-6.5,6.1-13.7,13.7-21.2,28.7-23.5,44-2.5-15.5-10.2-30.2-22.6-42.6-2.7-2.7-5.2-5-7.8-7.2-3.2-2.7-7.8-2.4-10.8.5L2.34,110.74c-3,3-3.1,7.8-.4,10.9,1.9,2.2,3.9,4.4,6.2,6.6,13.6,13.6,28.7,21.2,44,23.5-15.6,2.5-30.4,10.2-42.8,22.7-2.7,2.6-5,5.2-7.2,7.8-2.7,3.2-2.4,7.8.5,10.8l108,108c3,3,7.8,3.1,10.9.4,2.1-1.9,4.3-3.9,6.5-6.1,13.7-13.7,21.3-28.9,23.6-44.2,2.5,15.6,10.2,30.4,22.7,42.9,2.6,2.6,5.2,5,7.8,7.1,3.2,2.6,7.8,2.4,10.8-.5l108-108c3-3,3.1-7.8.4-10.9h0l-.1-.1ZM178.64,179.04c-15.7,15.7-24.5,33.1-27.1,50.4-2.8-18.2-12.5-35.8-27.4-50.7-15.6-15.6-33-24.4-50.2-27,18.2-2.9,35.8-12.5,50.7-27.4s24.5-33,27-50.2c2.9,18.1,12.6,35.6,27.4,50.5,14.8,14.9,33.2,24.6,50.5,27.1-18.3,2.8-36,12.5-50.9,27.5h0v-.2Z"/></g></svg>