<?xml version="1.0" encoding="UTF-8"?>
<svg id="Layer_1" xmlns="http://www.w3.org/2000/svg" version="1.1" viewBox="0 0 32.6 61.3">
  <!-- Generator: Adobe Illustrator 29.8.2, SVG Export Plug-In . SVG Version: 2.1.1 Build 3)  -->
  <defs>
    <style>
      .st0 {
        fill: #fff;
      }
    </style>
  </defs>
  <path class="st0" d="M25.7,24.1c0,.3-.2.5-.5.5h-9.4c-.3,0-.5-.2-.5-.5s.2-.5.5-.5h9.4c.3,0,.5.2.5.5Z"/>
  <path class="st0" d="M25.3,19.6c0,.3-.2.5-.5.5h-5.2c-.3,0-.5-.2-.5-.5s.2-.5.5-.5h5.2c.3,0,.5.2.5.5Z"/>
  <path class="st0" d="M25.8,28.5c0,.3-.2.5-.5.5h-9.1c-.3,0-.5-.2-.5-.5s.2-.5.5-.5h9.1c.3,0,.5.2.5.5Z"/>
  <g>
    <path class="st0" d="M19.5,10.7c0,.3-.2.5-.5.5h-5c-.3,0-.5-.2-.5-.5s.2-.5.5-.5h5c.3,0,.5.2.5.5Z"/>
    <path class="st0" d="M22.3,6.3c0,.3-.2.5-.5.5h-9.2c-.3,0-.5-.2-.5-.5s.2-.5.5-.5h9.2c.3,0,.5.2.5.5Z"/>
  </g>
  <path class="st0" d="M5.4,60.5h-.2.6-.5,0Z"/>
  <path class="st0" d="M25.8,37.2c0,.3-.2.5-.5.5h-9.4c-.3,0-.5-.2-.5-.5s.2-.5.5-.5h9.4c.3,0,.5.2.5.5Z"/>
  <path class="st0" d="M21.3,41.7c0,.3-.2.5-.5.5h-5.2c-.3,0-.5-.2-.5-.5s.2-.5.5-.5h5.2c.3,0,.5.2.5.5Z"/>
  <path class="st0" d="M25.9,32.8c0,.3-.2.5-.5.5h-9.1c-.3,0-.5-.2-.5-.5s.2-.5.5-.5h9.1c.3,0,.5.2.5.5Z"/>
  <g>
    <path class="st0" d="M28.9,14.6h-1.3c-1.3-8.2-3.3-11.6-5-13-1-.8-1.8-.8-2-.8H4.4s-3.3.4-3.3,4.6,2.5,4.3,3.6,4.5h5.2c.3,1.3.6,2.8.9,4.6-1.4,0-2.6,1.2-2.6,2.6v26.8c0,1.4,1.2,2.6,2.6,2.6h0c-.3,1.7-.6,3.3-.9,4.6h-5.3c-1.1.3-3.6,1.3-3.6,4.5s3.2,4.6,3.3,4.6h16.1c.2,0,1,0,2-.7,1.7-1.3,3.7-4.8,5.1-13h1.3c1.4,0,2.6-1.2,2.6-2.6v-26.8c0-1.4-1.2-2.6-2.6-2.6h0ZM6,8.8c-.3.2-.7.2-1,.1-1.1-.3-2.8-1.1-2.8-3.5s2-3.5,2.3-3.6h.7c.2,0,.6.2,1.2.6.5.4,1,1,1.5,2h-2c-.3,0-.5.2-.6.5s0,.6.3.7c.5.3,1,.8,1,1.9s-.2,1.1-.6,1.3ZM7.3,9c.2-.4.4-.9.4-1.5s-.3-1.5-.6-2h1.4c.4.9.8,2.1,1.2,3.5,0,0-2.4,0-2.4,0ZM7.3,1.9h13.2s.6,0,1.4.6c1.3,1.1,3.2,4.1,4.5,12.1h-14.5c-1.2-7.7-3.1-11.2-4.7-12.7h.1ZM10.9,45.6c-.9,0-1.6-.7-1.6-1.6v-26.8c0-.9.7-1.6,1.6-1.6h.2c.5,3.6,1,8.2,1.1,14h0v4.3c-.2,4.7-.6,8.5-1.1,11.7,0,0-.2,0-.2,0ZM7.4,52.3h2.4c-.4,1.4-.8,2.6-1.3,3.5h-1.4c.3-.5.6-1.1.6-2s-.2-1.2-.4-1.5h.1ZM6.5,58.8c-.5.4-.9.6-1.2.6h-.7c-.3,0-2.3-.5-2.3-3.6s1.8-3.3,2.8-3.5c.4,0,.7,0,1,0,.4.3.6.7.6,1.3,0,1.1-.6,1.6-1,1.9-.2,0-.4.4-.3.7,0,.3.3.5.6.5h2c-.6,1-1.1,1.6-1.5,2ZM22,58.8c-.8.7-1.3.6-1.3.6H7.4c1.6-1.5,3.5-5,4.7-12.7h14.5c-1.3,8.1-3.3,11.1-4.5,12.1h-.1ZM26.7,45.6h-14.5c.5-3.2.8-7,1-11.6v-4.4c-.2-5.7-.6-10.3-1.1-13.9h14.5c.5,3.6,1,8.2,1.1,14v4.3c-.2,4.7-.6,8.5-1.1,11.7h.1ZM30.5,44.1c0,.9-.7,1.6-1.6,1.6h-1.1c.5-3.2.8-7,1-11.6v-4.4c-.2-5.7-.6-10.3-1.1-13.9h1.2c.9,0,1.6.7,1.6,1.6v26.8h0Z"/>
    <path class="st0" d="M22.3,55c0,.3-.2.5-.5.5h-9.2c-.3,0-.5-.2-.5-.5s.2-.5.5-.5h9.2c.3,0,.5.2.5.5Z"/>
    <path class="st0" d="M23.8,50.6c0,.3-.2.5-.5.5h-5c-.3,0-.5-.2-.5-.5s.2-.5.5-.5h5c.3,0,.5.2.5.5Z"/>
  </g>
</svg>