<?xml version="1.0" encoding="UTF-8"?>
<svg id="Layer_1" xmlns="http://www.w3.org/2000/svg" version="1.1" viewBox="0 0 25 25">
  <!-- Generator: Adobe Illustrator 29.8.2, SVG Export Plug-In . SVG Version: 2.1.1 Build 3)  -->
  <defs>
    <style>
      .st0 {
        fill: #efe8df;
      }
    </style>
  </defs>
  <path class="st0" d="M24,13.9c-.1-2.8.2-5.5.5-8.3,0-.2,0-.4-.1-.5v-2.4c-.1-1.2-1.2-1.8-2.3-2-1-.1-1.9.2-2.8.6-.9.4-1.7.9-2.5,1.5h0c-.8.4-.6,1.9.5,1.9s.6-.2.8-.4h.4c.2,0,.3-.2.5-.3.3-.2.6-.3.9-.5.4-.2.5-.3.9-.4h1.4v3.1c-.2,2.1-.4,4.2-.5,6.4,0,2.3.5,4.5.6,6.8,0,.9.2,2.3-.4,3.1-.6.8-2.1.4-2.9.2-1-.2-1.9-.4-2.9-.6-1-.1-1.9-.3-2.8-.8.2-4.5.3-9,.2-13.6,1,1.1,2,2.2,3,3.3.4.4,1.1.4,1.4,0,.4-.4.4-1,0-1.4l-4.5-5c-.2-.2-.5-.3-.8-.3s-.5,0-.8.3c-1.8,1.8-3.4,3.7-4.9,5.7-.3.4,0,1.1.4,1.4.5.3,1,0,1.4-.4s.4-.5.5-.7c0,0,0-.1.1-.2h0c0-.1.2-.2.3-.4.4-.5.8-.9,1.1-1.4.2-.2.4-.5.7-.7,0,4.6,0,9.2-.3,13.8-1.6.2-3.2.7-4.8,1-.9.2-1.8.3-2.7.3h-1v-1.1h0c0-4.3,0-8.5-.2-12.6v-3.2c0-.8-.2-2.2.4-2.9,1-1.2,4.1,1.1,4.9,1.8,1,.8,2.4-.6,1.4-1.4C7.8,2.2,5.5.6,3.4.7,1,.9.6,3.7.6,5.6c0,5.4.1,10.8.2,16.2v.2c0,1.1,0,2.3,1.2,2.7,1.1.4,2.4.3,3.5.2,2.3-.3,4.5-1.1,6.7-1.3.3,0,.6,0,.9-.3.8.3,1.6.5,2.5.6,1.2.2,2.3.4,3.5.7,1.1.3,2.4.4,3.5-.1s1.6-1.5,1.8-2.7c.5-2.6-.3-5.2-.5-7.8h.1Z"/>
</svg>