<?xml version="1.0" encoding="UTF-8"?>
<svg id="Layer_1" xmlns="http://www.w3.org/2000/svg" version="1.1" viewBox="0 0 22 34">
  <!-- Generator: Adobe Illustrator 29.8.2, SVG Export Plug-In . SVG Version: 2.1.1 Build 3)  -->
  <defs>
    <style>
      .st0 {
        fill: #efe8df;
      }
    </style>
  </defs>
  <path class="st0" d="M.3,20.8c0,.8,0,1.6.2,2.4.5,2.8,2.6,5.3,6.2,7.3,1.8,1,3.3,1.8,4.7,2.3s2.8.7,4.2.7h1.6c.6,0,1-.6,1-1.1s-.5-.9-1-.9c-2.2.1-3.9,0-5.6-.7-1.9-.8-3.5-1.6-4.8-2.5-1.4-.9-2.5-1.9-3.2-2.9-.8-1.1-1.2-2.4-1.2-3.9,0-2.9,0-6.2,1.5-8.9,1.3-2.3,3.5-3.7,6.7-4.3,2.6-.4,5.3-.4,8-.4h.3c-.7.8-1.3,1.5-2,2.3-.8.9-1.7,1.8-2.9,2.1-.4,0-.6.3-.7.7,0,.3,0,.7.2,1s.6.4,1,.3c1.7-.4,2.9-1.6,3.7-2.5.8-.9,1.5-1.7,2.3-2.6.3-.4.7-.8,1-1.2.1,0,.2-.3.2-.5.2-.4,0-.8-.2-1.1-2.1-1.9-4.2-3.7-6.3-5.6-.3-.2-.7-.3-1-.2s-.6.4-.7.8c0,.3,0,.7.3.9,1.4,1.2,2.8,2.4,4.1,3.7-3.2,0-6.5,0-9.5.8-3.2.9-5.6,3-6.8,6.1-.6,1.4-.9,2.9-1.1,4.9,0,1-.2,2-.2,3.1h0Z"/>
</svg>