<?xml version="1.0" encoding="UTF-8"?>
<svg id="Layer_1" xmlns="http://www.w3.org/2000/svg" version="1.1" viewBox="0 0 26 25.8">
  <!-- Generator: Adobe Illustrator 29.8.2, SVG Export Plug-In . SVG Version: 2.1.1 Build 3)  -->
  <defs>
    <style>
      .st0 {
        fill: #efe8df;
      }
    </style>
  </defs>
  <path class="st0" d="M24.6,11.7c-3.4.2-6.8,0-10.2-.2-.2-3.1,0-6.3,0-9.4s-2-1.3-2,0c0,3.1-.2,6.2,0,9.3-3.7-.2-7.4-.3-11,.2-1.3.2-1.3,2.2,0,2,1.2-.2,2.4-.2,3.6-.3h5.2c.8,0,1.6,0,2.4.1.3,3.6-.2,7.2-.5,10.8h0c0,.5.2,1.1.9,1.1s.9-.4.9-.8,0-.2.1-.4c.3-3.6.7-7.2.5-10.7,3.4.2,6.7.4,10.1.2,1.3,0,1.3-2.1,0-2h0Z"/>
</svg>