<?xml version="1.0" encoding="UTF-8"?>
<svg id="Layer_1" xmlns="http://www.w3.org/2000/svg" version="1.1" viewBox="0 0 21 21">
  <!-- Generator: Adobe Illustrator 29.8.2, SVG Export Plug-In . SVG Version: 2.1.1 Build 3)  -->
  <defs>
    <style>
      .st0 {
        fill: #efe8df;
      }
    </style>
  </defs>
  <path class="st0" d="M13.8,10.4c0-.2.7-.7.8-1.1.7-1.1,1.5-2.4,1.6-3.8,0-.7-.3-1.6-.6-2.3-.2-.9-1.1-1.6-1.9-2.1-3.6-1.9-8.5.1-8.7,4.4-.2,1.8.5,3.7,1.9,4.8C3,11.3.4,15.6.3,19.6c0,1,1.5,1.3,1.9.4.2-1.1.2-2.1.6-3.1.8-1.9,1.9-4,4.1-4.5,2.2-.6,5.1-.8,7.5-.2,1.1.4,2,1.2,2.8,2,1.3,1.4,1.5,3.4,1.5,5.2s1,1.3,1.6.8c.6-.4.4-1.2.4-1.8,0-1-.2-1.9-.5-2.9-1-3.5-3.9-4.8-6.4-5.2h0ZM12.6,8.6c-3.5,3-7.4-1.6-4.6-5,1.2-1.5,3.9-1.6,5.2-.3,1.4,1.4.8,3.9-.5,5.2h-.1,0Z"/>
</svg>