<?xml version="1.0" encoding="UTF-8"?>
<svg id="Layer_1" xmlns="http://www.w3.org/2000/svg" version="1.1" viewBox="0 0 26 26">
  <!-- Generator: Adobe Illustrator 29.8.2, SVG Export Plug-In . SVG Version: 2.1.1 Build 3)  -->
  <defs>
    <style>
      .st0 {
        fill: #efe8df;
      }
    </style>
  </defs>
  <path class="st0" d="M15.8,19.1c-.4-2.9-.5-5.8-.3-8.6,0-.6-.5-1-1-1s-1,.5-1,1c-.2,3.1,0,6.1.4,9.2,0,.5.8.9,1.3.7.6-.2.8-.7.7-1.3h0Z"/>
  <path class="st0" d="M11,10.5c0-.6-.5-1-1-1s-1,.5-1,1c-.1,2.9-.1,5.9,0,8.8,0,1.3,2.1,1.3,2,0,0,0,0-8.8,0-8.8Z"/>
  <path class="st0" d="M25.1,3.9h-.5c-2.1,0-4.2.2-6.3.2,0-.4,0-.8-.1-1.3,0-.5,0-1.1-.2-1.6-.4-1.3-1.9-.9-2.9-.8-.6,0-1.1,0-1.7.2h-4.3c-.5,0-1.1,0-1.3.7-.2,1.1-.3,2.1-.3,3.2H1.5c-1.3,0-1.3,2,0,2.1h1.6v11.6c0,1,0,2,.2,3,0,.8,0,1.9.4,2.6.3.5.9.7,1.5.9,1,.3,1.9.5,2.9.6h.6c3,1,6.3.7,9.5.4.5,0,1.1,0,1.6-.2,1.2,0,2.3-.2,2.7-1.5.5-1.7.5-3.5.5-5.2,0-4.2.1-8.5.2-12.7h1.4c.7,0,1.1-.7.9-1.3.1-.3,0-.7-.5-.7h.1v-.2ZM9.6,2.6h3.1c.7,0,1.3,0,2-.2h1.4v.6c0,.4,0,.8.1,1.2-2.3,0-4.5,0-6.8.2,0-.6,0-1.1.1-1.7h0ZM21,15.3c0,1.6,0,3.3-.1,4.9,0,.5,0,1-.1,1.6-.1.4-.2.7-.4,1.1,0,.1-.1.3-.2.4h-.6c-3.1.1-6.3.3-9.4,0-.8,0-1.6-.2-2.3-.3-.3,0-.7-.1-1-.2-.3,0-.7,0-1-.2-.2-.2-.4-.4-.5-.6V6.5h0c5.3,0,10.7,0,16-.3h.1c0,3-.1,6.1-.2,9.1h-.3Z"/>
</svg>