<?xml version="1.0" encoding="UTF-8"?>
<svg id="Layer_1" xmlns="http://www.w3.org/2000/svg" version="1.1" viewBox="0 0 107.8 54">
  <!-- Generator: Adobe Illustrator 29.8.2, SVG Export Plug-In . SVG Version: 2.1.1 Build 3)  -->
  <g>
    <path d="M57.3,35c0-.7.4-1.3,1.1-1.5.5,0,.9-.4.9-.8v-8.2c0-2.2-.5-3.8-3-3.8s-3.5,1.8-3.5,3.9v8.6c0,.2.2.4.4.4h0c.8,0,1.4.7,1.4,1.5h0c0,.8-.7,1.5-1.5,1.5h-6.7v-2.7h1.1c.6-.2.8-.4.8-1.1v-8.2c0-2.1-.3-3.8-2.9-3.8s-3.6,1.8-3.6,4v8.8h1.9v3h-8.3v-2.7h1.2c.7-.2.9-.4.9-1.3v-11c0-.8-.2-1.1-.9-1.1h-1.2v-2.9h6.2v2.7h0c1.1-1.9,2.9-3.2,5.6-3.2s4.1.9,5.2,3.3c1.1-2.2,3.1-3.3,5.7-3.3,3.8,0,5.8,2.2,5.8,6.5v9.5c0,.3.3.6.6.6h0c.8,0,1.4.7,1.4,1.4h0c0,.8-.7,1.4-1.4,1.4h-5.4c-.8,0-1.5-.7-1.5-1.5h-.3Z"/>
    <path d="M67.8,34.9c0-.7.5-1.3,1.2-1.5.5-.2.9-.5.9-1.1V12.8h-.5c-.8,0-1.4-.7-1.4-1.6v-1.5h15.6c.9,0,1.6.7,1.6,1.6v2.8c0,.8-.6,1.5-1.4,1.5h-.5c-.9.1-1.7-.6-1.7-1.5h0c0-.8-.2-1.1-1-1.1h-5.9v8.4h7.5c.9,0,1.6.7,1.6,1.6v.4c0,.9-.7,1.6-1.6,1.6h-7.5v8.4h6.3c.5,0,.9-.4.9-.9v-.4c0-.9.8-1.6,1.7-1.5h.5c.8.1,1.4.8,1.4,1.6v3c0,.9-.7,1.6-1.6,1.6h-16v-1.6h0v-.3Z"/>
    <path d="M94.3,19c1.2-1.2,2.9-1.9,4.8-1.9,4.6,0,7.3,3.2,7.3,9s-3.4,11-9.1,11-6-.7-7.5-1.6V13.7c0-.8-.3-1.1-.9-1.1h0c-.7,0-1.2-.6-1.2-1.3v-1.7h6.6v9.3h0ZM94.3,32.9c.7.4,2,.7,3.2.7,2.6,0,4.3-1.9,4.3-6.9s-.7-6.3-4.2-6.3-3.4,1.2-3.4,2.9v9.5h0Z"/>
  </g>
  <g>
    <path d="M22.4,21.2c0,.3-.2.5-.5.5h-8.2c-.3,0-.5-.2-.5-.5s.2-.5.5-.5h8.2c.3,0,.5.2.5.5Z"/>
    <path d="M21.9,17.3c0,.3-.2.5-.5.5h-4.5c-.3,0-.5-.2-.5-.5s.2-.5.5-.5h4.5c.3,0,.5.2.5.5Z"/>
    <path d="M22.4,25c0,.3-.2.5-.5.5h-8c-.3,0-.5-.2-.5-.5s.2-.5.5-.5h8c.3,0,.5.2.5.5Z"/>
    <g>
      <path d="M16.9,9.5c0,.3-.2.5-.5.5h-4.4c-.3,0-.5-.2-.5-.5s.2-.5.5-.5h4.4c.3,0,.5.2.5.5Z"/>
      <path d="M19.3,5.6c0,.3-.2.5-.5.5h-8c-.3,0-.5-.2-.5-.5s.2-.5.5-.5h8c.3,0,.5.2.5.5Z"/>
    </g>
    <path d="M4.5,53c0,0-.1,0-.2,0h.5s0,0,0,0h-.5Z"/>
    <path d="M22.4,32.7c0,.3-.2.5-.5.5h-8.2c-.3,0-.5-.2-.5-.5s.2-.5.5-.5h8.2c.3,0,.5.2.5.5Z"/>
    <path d="M18.5,36.6c0,.3-.2.5-.5.5h-4.5c-.3,0-.5-.2-.5-.5s.2-.5.5-.5h4.5c.3,0,.5.2.5.5Z"/>
    <path d="M22.5,28.8c0,.3-.2.5-.5.5h-8c-.3,0-.5-.2-.5-.5s.2-.5.5-.5h8c.3,0,.5.2.5.5Z"/>
    <g>
      <path d="M25.1,12.9h-1.2c-1.2-7.2-2.9-10.2-4.4-11.4-.9-.7-1.6-.7-1.8-.7H4.9s0,0,0,0h-1.1s0,0,0,0c0,0-2.8.4-2.8,4s2.2,3.7,3.2,4c.2,0,.4,0,.5,0h4.1c.3,1.1.6,2.5.8,4-1.3,0-2.3,1-2.3,2.3v23.5c0,1.3,1,2.3,2.3,2.3h0c-.2,1.5-.5,2.8-.8,4h-4c-.2,0-.4,0-.6,0-1,.2-3.2,1.1-3.2,4s2.8,4,2.8,4c0,0,0,0,0,0h.6s0,0,.2,0h13.3c.2,0,.9,0,1.8-.6,1.5-1.2,3.3-4.2,4.4-11.4h1.1c1.3,0,2.3-1,2.3-2.3V15.2c0-1.3-1-2.3-2.3-2.3ZM5.1,7.8c-.3.1-.6.2-.9.1-.9-.2-2.5-1-2.5-3.1S3.5,1.8,3.7,1.7h.3s0,0,0,0h.2c.2,0,.6.1,1,.5.4.3.9.9,1.3,1.7h-1.8c-.2,0-.5.2-.5.4s0,.5.3.6c.4.2.9.7.9,1.6s-.2,1-.6,1.2ZM6.2,8c.2-.3.3-.7.3-1.3s-.2-1.3-.5-1.7h1.2c.4.8.7,1.8,1.1,3h-2.1ZM6.2,1.8h11.6s0,0,0,0c0,0,.5,0,1.2.5,1.1,1,2.8,3.6,4,10.6h-12.7C9.3,6.2,7.6,3.1,6.2,1.8ZM9.4,40c-.8,0-1.4-.6-1.4-1.4V15.2c0-.8.6-1.4,1.4-1.4h.1c.5,3.2.8,7.2,1,12.2h0c0,1.3,0,2.6,0,3.8-.2,4.1-.5,7.5-.9,10.2h-.2ZM6.3,45.9h2.1c-.4,1.3-.7,2.3-1.1,3h-1.2c.3-.4.5-1,.5-1.7s-.1-1-.3-1.3ZM5.5,51.6c-.5.4-.8.5-1,.5h-.2s0,0,0,0h-.4c-.2,0-2-.4-2-3.1s1.6-2.8,2.5-3.1c.3,0,.6,0,.9.1.4.2.6.6.6,1.2,0,.9-.5,1.4-.9,1.6-.2.1-.3.4-.3.6,0,.2.3.4.5.4h1.8c-.5.9-1,1.4-1.4,1.7ZM19.1,51.6c-.7.6-1.2.5-1.2.5,0,0,0,0,0,0H6.3c1.4-1.3,3-4.4,4.1-11.1h12.7c-1.2,7.1-2.9,9.7-4,10.6ZM23.2,40h-12.7c.4-2.8.7-6.1.9-10.2,0-1.3,0-2.6,0-3.9-.2-5-.5-9-1-12.2h12.7c.5,3.2.8,7.2,1,12.2,0,1.3,0,2.6,0,3.8-.2,4.1-.5,7.5-.9,10.2ZM26.5,38.7c0,.8-.6,1.4-1.4,1.4h-1c.4-2.8.7-6.1.9-10.2,0-1.3,0-2.6,0-3.9-.2-5-.5-9-1-12.2h1c.8,0,1.4.6,1.4,1.4v23.5Z"/>
      <path d="M19.4,48.2c0,.3-.2.5-.5.5h-8c-.3,0-.5-.2-.5-.5s.2-.5.5-.5h8c.3,0,.5.2.5.5Z"/>
      <path d="M20.7,44.3c0,.3-.2.5-.5.5h-4.4c-.3,0-.5-.2-.5-.5s.2-.5.5-.5h4.4c.3,0,.5.2.5.5Z"/>
    </g>
  </g>
</svg>