<?xml version="1.0" encoding="UTF-8"?>
<svg id="Layer_1" xmlns="http://www.w3.org/2000/svg" version="1.1" viewBox="0 0 24 24">
  <!-- Generator: Adobe Illustrator 29.8.2, SVG Export Plug-In . SVG Version: 2.1.1 Build 3)  -->
  <defs>
    <style>
      .st0 {
        fill: none;
        stroke: #fff;
        stroke-linecap: round;
        stroke-linejoin: round;
        stroke-width: 2px;
      }
    </style>
  </defs>
  <path class="st0" d="M2.9.9h13.4l6.7,6.9v13.1c0,1.1-1.1,2-2.5,2H3.4c-1.4,0-2.5-.9-2.5-2V2.9C.9,1.8,1.8.9,2.9.9Z"/>
  <path class="st0" d="M6.7.9v4.4c0,.9.8,1.6,1.8,1.6h4.4c1,0,1.8-.7,1.8-1.6V1.1"/>
  <path class="st0" d="M18.1,23.1v-5.8c0-1.2-1.2-2.2-2.7-2.2h-6.6c-1.5,0-2.7,1-2.7,2.2v5.8"/>
</svg>