<?xml version="1.0" encoding="UTF-8"?>
<svg id="Layer_1" xmlns="http://www.w3.org/2000/svg" version="1.1" viewBox="0 0 26 26">
  <!-- Generator: Adobe Illustrator 29.8.2, SVG Export Plug-In . SVG Version: 2.1.1 Build 3)  -->
  <defs>
    <style>
      .st0 {
        fill: #efe8df;
      }
    </style>
  </defs>
  <path class="st0" d="M24.6,11.4h0c0-.9.1-1.7.2-2.6,0-.7.1-1.4,0-2-.4-1.2-1.8-1.6-3-1.8h-1.4c0-1.2.1-2.4.2-3.6,0-.5-.5-1-1-1s-.9.4-1,1c-.1,1.2-.2,2.4-.2,3.5h-6.5c-1.5,0-3.1,0-4.6.2V1.3c0-.5-.5-1-1-1s-1,.4-1,1v3.8c-1,0-2,.2-2.7.7C0,7.1.7,11.1.7,13.3s0,.4.1.5c-.2,1.1-.2,2.3-.1,3.5.1,1.5.1,3,0,4.5,0,1.2,0,2.2,1.1,2.9,1,.7,2.4.9,3.6,1,3,.2,5.9.2,8.9.1,1.5,0,3-.1,4.5-.2,1.6,0,3.1,0,4.7-.5h0c1.2-.3,1.7-1.4,1.8-2.5.1-1.3,0-2.6.1-3.9,0-2.4,0-4.9-.8-7.3ZM2.7,9.5c0-1.1,0-2,1.3-2.3.5,0,1.1-.2,1.6-.3h.4c.2,0,.4,0,.6-.2h12.6c.8,0,2.9,0,3.4.7.3.5,0,1.3,0,1.8v1.2c-3.3.3-6.6,0-9.9,0s-6.7,0-10.1.2v-1.1h0ZM15.3,23.8c-1.3,0-2.6.1-3.9.2-1.3,0-2.5,0-3.8-.2-1.2,0-2.3,0-3.4-.2-.4,0-1.1-.2-1.3-.5-.3-.4,0-1.5,0-2,0-1.2,0-2.6-.2-3.9v-2c0-.5,0-1.1.3-1.6,0-.4,0-.7-.3-1h0c3.4-.2,6.7-.3,10.1-.2,3.3,0,6.7.3,10,0,.2.7.4,1.4.4,2.1s0,1.3.2,2v4.5c0,.5.2,2.2-.4,2.4h0c-2.4.7-5.1.5-7.6.6v-.2h0Z"/>
</svg>