<?xml version="1.0" encoding="UTF-8"?>
<svg id="Layer_1" xmlns="http://www.w3.org/2000/svg" version="1.1" viewBox="0 0 26 25">
  <!-- Generator: Adobe Illustrator 29.8.2, SVG Export Plug-In . SVG Version: 2.1.1 Build 3)  -->
  <defs>
    <style>
      .st0 {
        fill: #efe8df;
      }
    </style>
  </defs>
  <path class="st0" d="M.8,16.3c.2,2.1.4,4.2.2,6.3,0,.5.3.8.7,1,3.9,1.5,8,.3,12.1.4,1,0,1.9.3,2.9.3s2.3-.1,3.4-.2c.9-.1,2.1-.1,2.9-.5,1,.1,2.1-.5,2.4-1.5.2-.9,0-1.9,0-2.8s-.2-2.4-.2-3.6c-.1-2.5-.2-4.9-.2-7.4v-3.8c0-.8.2-1.3.2-2.2v-.2c.3-.6.1-1.5-.8-1.5-4,.2-8.1.4-12.1.4H3.4c-1,0-1.3-.1-1.8.4-1,1-.8,3-.8,4.3s-.1,3.6,0,5.4c0,1,.1,1.8,0,2.8-.1.8,0,1.6,0,2.4ZM11.8,12.9c-.1-3.3-.1-6.5-.1-9.8h2.2c3.2,0,6.5,0,9.7-.3v.2c-.5,1-.3,2.3-.3,3.4v5.4c0,1.8.1,3.6.2,5.4.1.9.2,1.8.2,2.7s-.1,2-.2,1.8c-.6-.7-1.3-.3-1.6.3-1.5.2-3,.4-4.5.4s-3.3-.3-5-.3h-.3c-.4-3.1-.4-6.1-.4-9.2,0,0,.1,0,.1,0ZM2.9,17.1c0-.4-.2-.9-.2-1.3,1.9-.1,3.8,0,5.7.2h.8c.2.1.4.1.5.1,0,2.1,0,4.1.3,6.1-2.3.2-4.7.4-7-.3v-4.9h0ZM2.8,7.5c0-.7-.3-4.2.2-4.4h6.6v10.9h-.8c-1.9-.3-3.9-.3-5.9-.3v-6.3h-.1Z"/>
  <path class="st0" d="M21.2,10.9c-1.7-2.2-3.7-4.3-5.8-6.1-1-.9-2.4.6-1.4,1.4,1.8,1.6,3.5,3.4,5.1,5.3-2.2,1.9-4.1,4.1-5.7,6.4-.7,1.1,1,2.1,1.7,1,1.7-2.5,3.7-4.7,6-6.6.4-.4.3-1,0-1.4h.1Z"/>
</svg>