<?xml version="1.0" encoding="UTF-8"?>
<svg id="Layer_1" xmlns="http://www.w3.org/2000/svg" version="1.1" viewBox="0 0 26 26">
  <!-- Generator: Adobe Illustrator 29.8.2, SVG Export Plug-In . SVG Version: 2.1.1 Build 3)  -->
  <defs>
    <style>
      .st0 {
        fill: #efe8df;
      }
    </style>
  </defs>
  <path class="st0" d="M7.5,12.5v.9c0,.3,0,.6-.3.9,0,.3-.3.5-.6.7-.3.2-.6.4-.9.5h-1.6c-.2,0-.4-.3-.6-.3-.4-.2-.7-.5-.9-.9,0-.2-.3-.4-.3-.6v-1c0-.3,0-.6.3-.9,0-.3.3-.5.6-.7s.6-.4.9-.4h.3c.4-.1.9-.1,1.3,0,.2,0,.4.3.6.3.4.2.7.5.9.9s.3.4.3.6Z"/>
  <path class="st0" d="M15.6,11.8v.6c0,.4,0,.7-.2,1-.1.3-.3.6-.5.8s-.5.4-.8.5c-.3.2-.7.2-1,.2h0c-.5,0-.9-.1-1.3-.3-.2,0-.3-.3-.5-.4-.2-.2-.4-.5-.5-.8-.2-.3-.2-.7-.2-1v-.2c0-.5,0-.9.3-1.3l.4-.5c.3-.3.7-.5,1.1-.6h.7c.4,0,.7,0,1,.2.3,0,.6.3.8.5s.4.3.4.5c.2.2.4.5.4.8h0Z"/>
  <path class="st0" d="M23.9,12.8v.7c0,.4,0,.7-.2,1-.1.3-.3.6-.5.8s-.5.4-.8.5c-.3.2-.7.2-1,.2h-.3c-.5,0-.9,0-1.3-.3-.2-.1-.3-.3-.5-.4-.3-.3-.5-.7-.6-1.1v-.7c0-.4,0-.7.2-1,0-.3.3-.6.5-.8s.5-.4.8-.5c.3-.2.7-.2,1-.2h.3c.5,0,.9,0,1.3.3.2.1.3.3.5.4.3.3.5.7.6,1.1Z"/>
</svg>