<?xml version="1.0" encoding="UTF-8"?>
<svg id="Layer_1" xmlns="http://www.w3.org/2000/svg" version="1.1" viewBox="0 0 16 17">
  <!-- Generator: Adobe Illustrator 29.8.2, SVG Export Plug-In . SVG Version: 2.1.1 Build 3)  -->
  <defs>
    <style>
      .st0 {
        fill: #efe8df;
      }
    </style>
  </defs>
  <path class="st0" d="M15.8,8c0-1.8,0-3.9-.6-5.6-.4-1-1.1-1.4-2.1-1.7-1.1-.3-2.2-.5-3.3-.6-1.1,0-2.2.2-3.3.4-1.1.2-2.2.2-3.3.2h-.2c-.8-.1-1.6-.1-2.2.5C.2,1.8.2,2.8.2,3.6c0,2,.1,4,.2,6v2.9c0,.5,0,1,.2,1.5,0,.5,0,1,.2,1.4.4.7,1.4.9,2.1,1,1,.2,2,.3,3,.3,2,0,4-.3,6-.3s1.8,0,2.5-.6.9-1.5,1.1-2.3c.4-1.8.3-3.8.3-5.6h0ZM2.3,2.8v-.3h.7c1.7,0,3.2,0,4.8-.4,1.5-.3,3,0,4.4.3.2,0,.7,0,.9.3s.2.6.2.8c.2.8.2,1.6.2,2.4v4.4c0,.7,0,1.4-.1,2.1,0,.2,0,.6-.2,1-.7-1-1.3-1.9-2-2.9-.5-.7-1.3-.6-2-.2-.4.2-.7.6-1,.9h-.1c-.2-.1-.3-.3-.4-.5-.3-.3-.5-.7-.7-1-.4-.8-.7-1.7-1.8-1.7s-1.7,1-2.3,1.7c-.2.3-.5.5-.7.8,0-1.4,0-2.8-.2-4.2v-3.6h.3ZM8.6,14.7c-1.5.1-3.1.2-4.6,0-.4,0-.7-.1-1.1-.2h-.3v-.8c.7-.9,1.5-1.8,2.3-2.7,0-.1.2-.3.4-.4,0,.3.4.7.5.9.5.8,1.3,1.8,2.2,2.1.6.2,1.2-.1,1.7-.5.2-.1.4-.3.5-.5.5.7,1,1.4,1.5,2.1h-.7c-.8,0-1.6,0-2.5.1h0Z"/>
  <path class="st0" d="M11.6,4.9h0c0-.4-.2-.6-.5-.7-.4-.2-.8-.3-1.2-.4h-1c-.3,0-.5.2-.7.4-.2.2-.3.4-.4.7v1.1c0,.4.3.7.5,1,.2.3.6.5,1,.5h1.1c.2,0,.3,0,.5-.2s.4-.3.6-.6c.3-.4.3-.8.4-1.3,0-.2,0-.4-.1-.6h-.2Z"/>
</svg>