<?xml version="1.0" encoding="UTF-8"?>
<svg id="Layer_1" xmlns="http://www.w3.org/2000/svg" version="1.1" viewBox="0 0 24 24">
  <defs>
    <style>
      .st0 {
        fill: none;
        stroke: #fff;
        stroke-linecap: round;
        stroke-linejoin: round;
        stroke-width: 2px;
      }
    </style>
  </defs>
  <path class="st0" d="M3,1h13.4l6.7,6.9v13.1c0,1.1-1.1,2-2.5,2H3.5c-1.4,0-2.5-.9-2.5-2V3c0-1.1.9-2,2-2Z"/>
  <path class="st0" d="M6.7,1v4.4c0,.9.8,1.6,1.8,1.6h4.4c1,0,1.8-.7,1.8-1.6V1.1"/>
  <path class="st0" d="M18.2,23.1v-5.8c0-1.2-1.2-2.2-2.7-2.2h-6.6c-1.5,0-2.7,1-2.7,2.2v5.8"/>
</svg>
