<?xml version="1.0" encoding="UTF-8"?>
<svg id="Layer_1" xmlns="http://www.w3.org/2000/svg" version="1.1" viewBox="0 0 16 16">
  <!-- Generator: Adobe Illustrator 29.8.2, SVG Export Plug-In . SVG Version: 2.1.1 Build 3)  -->
  <defs>
    <style>
      .st0 {
        fill: #fff;
      }
    </style>
  </defs>
  <path class="st0" d="M14.7,10.6h-1.6v-2.5c0-1.1,0-2.2-.1-3.3h1.6c1.4,0,1.4-2.2,0-2.1h-1.7v-1.5c0-.5-.4-.9-.8-1h-.3c-.5,0-1.1.3-1,1v1.5c-1.6,0-3.3-.2-4.9-.3v-1.1c0-1.3-2.1-1.3-2.1,0v.9H1.1c-.1,0-.2,0-.3.2-.1,0-.2.2-.2.3v.7c0,.2.2.3.3.5,0,0,0,0,.2.2h2.8v6.3H1.5c-1.4,0-1.4,2.1,0,2.1h2.5c0,.8,0,1.5,0,2.3,0,.4.2.6.5.8,0,.3.5.3.8.2.5,0,.9-.4.9-1v-2.3h5c-.1.8-.3,1.7-.1,2.5.3,1.3,2.3.8,2.1-.6-.1-.5,0-1.1.1-1.6v-.3h1.8c1.4,0,1.4-2,0-2.1h-.4v.2ZM5.7,4.3c1.7,0,3.4.3,5.1.3,0,1.2.1,2.4.2,3.6v2.2h-5.2v-6.2h0Z"/>
</svg>