<?xml version="1.0" encoding="UTF-8"?><svg id="Layer_2" xmlns="http://www.w3.org/2000/svg" viewBox="0 0 1471.68 322.67"><defs><style>.cls-1{fill:#fff;}</style></defs><g id="Layer_1-2"><path class="cls-1" d="M548.04,239.84c-7.97,4.16-25.65,9.71-48.18,9.71-50.6,0-83.53-34.31-83.53-85.61s35.35-89.07,90.11-89.07c18.02,0,33.97,4.51,42.28,8.66l-6.93,23.57c-7.28-4.16-18.72-7.97-35.35-7.97-38.47,0-59.27,28.42-59.27,63.43,0,38.82,24.95,62.73,58.23,62.73,17.33,0,28.77-4.5,37.43-8.32l5.2,22.87h0Z"/><path class="cls-1" d="M739,160.82c0,62.04-42.98,89.07-83.53,89.07-45.4,0-80.41-33.27-80.41-86.3,0-56.15,36.74-89.07,83.18-89.07s80.75,35.01,80.75,86.3h.01ZM605.91,162.55c0,36.74,21.14,64.47,50.95,64.47s50.95-27.38,50.95-65.16c0-28.42-14.21-64.47-50.26-64.47s-51.64,33.27-51.64,65.16Z"/><path class="cls-1" d="M792.38,78.33l32.93,94.27c5.55,15.25,10.05,29.11,13.52,42.98h1.04c3.81-13.86,8.67-27.73,14.21-42.98l32.58-94.27h31.89l-65.85,167.75h-29.11l-63.77-167.75h32.58-.02Z"/><path class="cls-1" d="M966.36,167.75c.69,41.24,27.03,58.23,57.53,58.23,21.83,0,35.01-3.81,46.44-8.66l5.2,21.83c-10.74,4.85-29.11,10.4-55.8,10.4-51.64,0-82.49-33.97-82.49-84.57s29.81-90.46,78.68-90.46c54.76,0,69.32,48.18,69.32,79.02,0,6.24-.69,11.09-1.04,14.21h-117.84,0ZM1055.78,145.91c.35-19.41-7.97-49.56-42.28-49.56-30.85,0-44.36,28.42-46.79,49.56h89.07Z"/><path class="cls-1" d="M1128.56,130.66c0-19.76-.35-36.74-1.39-52.33h26.69l1.04,32.93h1.39c7.62-22.53,25.99-36.74,46.44-36.74,3.47,0,5.89.35,8.67,1.04v28.77c-3.12-.69-6.24-1.04-10.4-1.04-21.49,0-36.74,16.29-40.9,39.17-.69,4.16-1.39,9.01-1.39,14.21v89.42h-30.15v-115.43Z"/><path class="cls-1" d="M1248.83,0h30.5v246.08h-30.5V0Z"/><path class="cls-1" d="M1347.25,78.33l36.74,99.12c3.81,11.09,7.97,24.26,10.74,34.31h.69c3.12-10.05,6.58-22.88,10.74-35.01l33.27-98.43h32.23l-45.75,119.57c-21.83,57.53-36.74,86.99-57.53,105.02-14.9,13.17-29.81,18.37-37.43,19.76l-7.62-25.65c7.62-2.43,17.68-7.28,26.69-14.9,8.32-6.58,18.72-18.37,25.65-33.97,1.39-3.12,2.43-5.54,2.43-7.28s-.69-4.16-2.08-7.97l-62.04-154.58h33.27Z"/><path class="cls-1" d="M301.25,189.38c-1.88-2.14-3.91-4.31-6.11-6.51-13.74-13.74-28.94-21.29-44.31-23.58,15.68-2.45,30.56-10.17,43.1-22.71,2.65-2.65,5.01-5.24,7.14-7.77,2.65-3.16,2.41-7.84-.51-10.76L192.58,10.06c-2.99-2.99-7.77-3.14-10.95-.35-2.15,1.87-4.32,3.91-6.51,6.1-13.66,13.66-21.2,28.75-23.54,44.02-2.52-15.51-10.21-30.21-22.63-42.63-2.66-2.66-5.25-5.03-7.79-7.16-3.16-2.66-7.84-2.42-10.76.5L2.35,118.47c-2.99,2.99-3.13,7.77-.35,10.95,1.9,2.17,3.95,4.36,6.18,6.59,13.65,13.65,28.72,21.18,43.98,23.53-15.59,2.49-30.36,10.19-42.84,22.67-2.66,2.65-5.03,5.25-7.16,7.79-2.65,3.16-2.41,7.83.51,10.75l107.99,108c2.99,2.99,7.77,3.14,10.95.35,2.14-1.88,4.32-3.92,6.52-6.12,13.71-13.71,21.26-28.87,23.56-44.2,2.48,15.61,10.19,30.41,22.68,42.9,2.65,2.65,5.25,5.02,7.78,7.15,3.16,2.65,7.84,2.41,10.76-.51l107.99-107.99c2.99-2.99,3.14-7.77.35-10.95ZM178.64,186.83c-15.69,15.69-24.52,33.11-27.05,50.38-2.83-18.2-12.51-35.82-27.42-50.73-15.63-15.63-32.96-24.45-50.17-27.01,18.18-2.85,35.79-12.53,50.68-27.42,15.63-15.63,24.46-32.98,27.02-50.2,2.89,18.11,12.55,35.63,27.38,50.46,15.72,15.72,33.18,24.56,50.49,27.06-18.27,2.8-35.97,12.5-50.93,27.46Z"/></g></svg>