<?xml version="1.0" encoding="UTF-8"?>
<svg id="Layer_1" xmlns="http://www.w3.org/2000/svg" version="1.1" viewBox="0 0 1567.5 316.8">
  <!-- Generator: Adobe Illustrator 29.8.3, SVG Export Plug-In . SVG Version: 2.1.1 Build 3)  -->
  <defs>
    <style>
      .st0, .st1 {
        fill: #fff;
      }

      .st1 {
        stroke: #221f1f;
        stroke-linecap: round;
        stroke-linejoin: round;
        stroke-width: 24.5px;
      }
    </style>
  </defs>
  <path class="st0" d="M524.2,230c0-4.1,2.6-7.7,6.5-9,3-.9,5.5-2.5,5.5-5.2v-50.3c0-13.7-2.8-23.2-18.3-23.2s-21.6,10.9-21.6,23.7v52.9c0,1.4,1.1,2.6,2.5,2.7h0c4.7.3,8.4,4.2,8.4,9h0c0,5-4,9-9,9h-41.4v-16.5l7-.7c3.9-.5,5.1-1.9,5.1-6.3v-50.3c0-12.8-2.1-23.4-17.9-23.4s-22,11.1-22,24.6v54.3l11.4.9v17.4h-51.3v-16.7l7.2-.7c4.4-.7,5.6-1.9,5.6-7v-67.5c0-5.1-1.4-6.5-5.8-7l-7.4-.5v-17.6h38v16.5h.2c6.5-11.8,18.1-19.5,34.3-19.5s25,5.3,31.8,20.2c7-13.5,19.3-20.2,34.8-20.2,23.2,0,35.7,13.7,35.7,40.1v58.1c0,2,1.6,3.7,3.6,3.8h0c4.7.3,8.4,4.2,8.4,8.9h0c0,4.9-4,8.9-8.9,8.9h-33.1c-5.2,0-9.5-4.2-9.5-9.5h.2,0Z"/>
  <path class="st0" d="M692.2,215.8c0,4.6,1.2,6.3,5.1,6.5h0c3.8.3,6.7,3.4,6.7,7.2v2.7c0,4-3.2,7.2-7.2,7.2h-18.1c-5.1,0-9.3-4-9.6-9l-.2-3.3-.7-.2c-5.8,8.4-16,15.5-32,15.5-33.9,0-46.4-23.9-46.4-56.4s20.2-66.6,61.2-66.6,24.6,1.6,41.1,7.9v88.4h.1ZM665,143.4c-3.5-1.4-10.4-3-17.4-3-23,0-29.7,21.1-29.7,44.8s4.6,36.4,23.9,36.4,23.2-10.2,23.2-21.1v-57.1Z"/>
  <path class="st0" d="M792.1,144.7c0-11.6-11.3-12.7-11.3-12.7,0-5.3,4.3-9.6,9.6-9.6h29.1c4.6,0,8.4,3.8,8.4,8.4v1.4c0,4.3-3.2,7.9-7.5,8.4l-3.4.4c-1.4,12.8-8.8,25.3-20.9,34.6l20.8,41.2c1.3,2.6,3.9,4.4,6.9,4.6h0c4.4.3,7.8,4,7.8,8.4v1.2c0,4.6-3.8,8.4-8.4,8.4h-19.6c-3.7,0-7.1-2.1-8.7-5.5l-22-46.5c-5.3,2.1-10,3.2-15.5,3.9v29.7h0c0,.1,2.8.3,2.8.3,4.7.4,8.3,4.3,8.3,9h0c0,5-4.1,9.1-9.1,9.1h-42v-16.7l7.2-.7c3.7-.2,5.6-1.6,5.6-7v-116.2c0-5.1-1.2-6.5-5.3-6.7l-7.9-.7v-17.4h30.8c5.3,0,9.6,4.3,9.6,9.6v89.2c17.4-1.6,34.8-16.5,34.8-28.1"/>
  <path class="st0" d="M936.2,152.3c0,33.2-28.1,41.3-67.5,39.9,1.2,15.5,8.8,29,29,29s15-2,20.4-4.5c5-2.3,10.9-.2,13,4.9l.7,1.6c2,4.7,0,10.2-4.7,12.4-7.2,3.4-18.6,7.2-32.4,7.2-39.2,0-53.8-25.5-53.8-58.5s20.2-64.7,57.3-64.7,38,10.9,38,32.7ZM897,140c-18.6,0-26.7,17.4-28.3,32.5,3.2.2,6.3.2,9.3.2,20.2,0,33.4-5.1,33.4-19s-5.8-13.7-14.4-13.7Z"/>
  <path class="st0" d="M954.3,229.4c0-4.3,3-8,7.1-9.3,3.3-1,5.6-2.9,5.6-6.6v-120.1l-3.3-.3c-5-.4-8.9-4.5-8.9-9.6v-9.4h96c5.3,0,9.6,4.3,9.6,9.6v17.3c0,5-3.8,9.1-8.8,9.5l-3.3.3c-5.6.5-10.4-3.9-10.4-9.5v-.5c0-4.2-1.4-6-6-6h-36.4v51.4h45.9c5.3,0,9.6,4.3,9.6,9.6v2.2c0,5.3-4.3,9.6-9.6,9.6h-45.9v51.4h38.8c3.1,0,5.6-2.5,5.6-5.6v-2.4c0-5.6,4.8-10,10.4-9.5l3.3.3c5,.4,8.8,4.6,8.8,9.5v18.7c0,5.3-4.3,9.6-9.6,9.6h-98.5v-10.1h0Z"/>
  <path class="st0" d="M1117.1,131.4c7.2-7.4,17.9-11.8,29.7-11.8,28.1,0,45,19.7,45,55.4s-20.9,67.7-55.7,67.7-36.7-4.6-46.4-10V98.9c0-4.9-1.6-6.5-5.8-6.7h0c-4.1-.4-7.2-3.8-7.2-7.9v-10.2h40.4v57.3h0ZM1117.1,217c4.6,2.5,12.3,4.6,19.9,4.6,15.8,0,26.7-11.6,26.7-42.4s-4.6-38.5-25.8-38.5-20.9,7.4-20.9,17.9v58.5h.1Z"/>
  <path class="st0" d="M1264.2,119.5c17.2,0,51.3,5.1,51.3,58.5s-22.7,64.7-55,64.7-51-19.7-51-61.7,30.6-61.5,54.7-61.5ZM1286.5,181.7c0-25.5-5.8-41.3-23.7-41.3s-24.6,15.1-24.6,37.3,3,43.8,23.9,43.8,24.4-16.7,24.4-39.9h0Z"/>
  <path class="st0" d="M1387.2,119.5c17.2,0,51.3,5.1,51.3,58.5s-22.7,64.7-55,64.7-51-19.7-51-61.7,30.6-61.5,54.7-61.5ZM1409.4,181.7c0-25.5-5.8-41.3-23.7-41.3s-24.6,15.1-24.6,37.3,3,43.8,23.9,43.8,24.4-16.7,24.4-39.9h0Z"/>
  <path class="st0" d="M1528,144.8c0-11.6-11.3-12.7-11.3-12.7,0-5.3,4.3-9.6,9.6-9.6h29.1c4.6,0,8.4,3.8,8.4,8.4v1.4c0,4.3-3.2,7.9-7.5,8.4l-3.4.4c-1.4,12.8-8.8,25.3-20.9,34.6l20.8,41.2c1.3,2.6,3.9,4.4,6.9,4.6h0c4.4.3,7.8,4,7.8,8.4v1.2c0,4.6-3.8,8.4-8.4,8.4h-19.6c-3.7,0-7.1-2.1-8.7-5.5l-22-46.5c-5.3,2.1-10,3.2-15.5,3.9v29.7h0c0,.1,2.8.3,2.8.3,4.7.4,8.3,4.3,8.3,9h0c0,5-4.1,9.1-9.1,9.1h-42v-16.7l7.2-.7c3.7-.2,5.6-1.6,5.6-7v-116.2c0-5.1-1.2-6.5-5.3-6.7l-7.9-.7v-17.4h30.8c5.3,0,9.6,4.3,9.6,9.6v89.2c17.4-1.6,34.8-16.5,34.8-28.1"/>
  <g>
    <path class="st0" d="M265.3,35.6v151.3c0,4.3-2.2,8.1-5.6,10.3-1.9,1.2-4.2,2-6.7,2s-4.8-.7-6.7-2c-3.3-2.2-5.5-6-5.5-10.3V53.6c-12.6,4-31.3,8.2-54.5,8.2s-36.7,14.5-39.4,19.6v135.7c0,.8,0,1.6-.2,2.4-1.1,5.6-6.1,9.9-12,9.9s-10.9-4.2-12-9.8c-.2-.8-.2-1.6-.2-2.4V81.4c-2.7-5-12.9-19.6-39.4-19.6s-41.9-4.2-54.5-8.2v133.3c0,4.3-2.2,8.1-5.6,10.3-1.9,1.3-4.2,2-6.7,2s-4.7-.7-6.6-2c-3.4-2.2-5.6-6-5.6-10.3V35.6c0-4.3,2.3-8.3,6-10.5s8.3-2.3,12.1-.2c.2,0,23.9,12.5,60.9,12.5s42.3,10.2,51.6,19.9c9.4-9.7,25.4-19.9,51.7-19.9s60.7-12.4,60.9-12.6c3.8-2.1,8.4-2,12.1.2s6,6.2,6,10.5h-.1Z"/>
    <g>
      <path class="st0" d="M258.9,248.5c-1.2.6-28.9,15.5-72.6,15.5s-39.5,19.4-40.2,21.1c-1.7,5-6.2,8.3-11.5,8.3h0c-5.2,0-9.7-3.3-11.4-8.2h0c-.7-1.7-9.5-21.2-40.2-21.2-43.6,0-71.4-14.9-72.6-15.5-5.9-3.2-8.1-10.7-4.9-16.6,1-1.9,2.5-3.4,4.1-4.4,3.6-2.3,8.4-2.7,12.4-.5,0,0,.3.2.9.4,4.6,2.2,27.1,12.1,60.1,12.1s19.4,1.6,26.8,4.2c6.1,2.1,11.2,6.2,15.2,11.2,2.2,2.8,5.7,4.6,9.6,4.6s7.3-1.8,9.6-4.6c4.1-5.1,9.2-9.2,15.3-11.3,7.4-2.6,16.3-4.2,26.7-4.2,33.1,0,55.5-9.9,60.1-12.1.5-.3.8-.4.9-.4,4.1-2.2,8.8-1.9,12.5.5,1.7,1.1,3.1,2.6,4.1,4.4,3.2,5.9,1,13.4-4.9,16.6h0Z"/>
      <path class="st1" d="M134.7,280.9"/>
    </g>
  </g>
</svg>