<?xml version="1.0" encoding="UTF-8"?>
<svg id="Layer_1" xmlns="http://www.w3.org/2000/svg" version="1.1" viewBox="0 0 26 26">
  <!-- Generator: Adobe Illustrator 29.8.2, SVG Export Plug-In . SVG Version: 2.1.1 Build 3)  -->
  <defs>
    <style>
      .st0 {
        fill: #fff;
      }
    </style>
  </defs>
  <path class="st0" d="M13,10.5h0c1.4,0,2.5,1.1,2.5,2.5h0c0,1.4-1.1,2.5-2.5,2.5h0c-1.4,0-2.5-1.1-2.5-2.5h0c0-1.4,1.1-2.5,2.5-2.5Z"/>
  <path class="st0" d="M5,10.5h0c1.4,0,2.5,1.1,2.5,2.5h0c0,1.4-1.1,2.5-2.5,2.5h0c-1.4,0-2.5-1.1-2.5-2.5h0c0-1.4,1.1-2.5,2.5-2.5Z"/>
  <path class="st0" d="M21,10.5h0c1.4,0,2.5,1.1,2.5,2.5h0c0,1.4-1.1,2.5-2.5,2.5h0c-1.4,0-2.5-1.1-2.5-2.5h0c0-1.4,1.1-2.5,2.5-2.5Z"/>
</svg>