<?xml version="1.0" encoding="UTF-8"?>
<svg id="Layer_1" xmlns="http://www.w3.org/2000/svg" version="1.1" viewBox="0 0 25 26">
  <!-- Generator: Adobe Illustrator 29.8.2, SVG Export Plug-In . SVG Version: 2.1.1 Build 3)  -->
  <defs>
    <style>
      .st0 {
        fill: #efe8df;
      }
    </style>
  </defs>
  <path class="st0" d="M23.4,3.7c0-1.4.2-3.2-1.7-3.3-1.9-.2-3.9,0-5.9,0-4.6,0-9.1.1-13.7.3-.9,0-1.2,1-.8,1.6v2.1c0,.8-.2,1.8.1,2.5.2.6.8.8,1.4.9,1,0,2,.2,3,.2,3.8,0,7.6-.4,11.5-.2.9,0,1.8.2,2.8.3.7.1,1.4.2,2.1-.2,1.4-.8,1.1-2.9,1.1-4.2,0,0,.1,0,.1,0ZM21.3,6.1c-.2.2-1.1,0-1.3-.2h-1c-1.8-.2-3.6-.2-5.3,0-1.8,0-3.6.2-5.4.2H3.5v-3.2c3.3,0,6.7-.2,10-.2h7.9v1.9c0,.3.2,1.7-.2,1.9v-.4Z"/>
  <path class="st0" d="M1.3,22.3c0,1.4-.2,3.2,1.7,3.3,1.9.2,3.9,0,5.9,0,4.6,0,9.1-.1,13.7-.3.9,0,1.2-1,.8-1.6v-2.1c0-.8.2-1.8-.1-2.5-.2-.6-.8-.8-1.4-.9-1-.1-2-.2-3-.2-3.8,0-7.6.4-11.5.2-.9,0-1.8-.2-2.8-.3-.7-.1-1.4-.2-2.1.2-1.4.8-1.1,2.9-1.1,4.2h0ZM3.4,19.9c.2-.2,1.1.1,1.3.2.3,0,.7,0,1,.1,1.8.2,3.6.2,5.3.1,1.8,0,3.6-.2,5.4-.2h4.8v3.2c-3.3.1-6.7.2-10,.2H3.3v-1.9c0-.3-.2-1.7.2-1.9v.2h0Z"/>
  <path class="st0" d="M23,10.2c-.1-.4-.5-.6-.9-.7-3.2-.3-6.5,0-9.7.3-3,.2-6.4.7-9.3-.1h-.3c-.6-.2-1.4,0-1.4.8v4.3c0,1.2.8,1.5,2.1,1.7,3,.4,6.3,0,9.3,0s3.2-.2,4.7-.3c.8,0,1.5-.1,2.3-.1s1.4.2,2.1.2c3,.2,1.5-4.6,1.1-6h0ZM12.5,14.5c-2.5.1-4.9.2-7.4.2s-1.2-.2-1.8-.2h0v-3c2.8.6,5.8.2,8.6,0,3.1-.2,6.2-.5,9.3-.3.2.9.4,1.7.4,2.6v.5c-.5-.1-1-.1-1.5-.2-2.5,0-5.1.3-7.6.4Z"/>
</svg>