<?xml version="1.0" encoding="UTF-8"?>
<svg id="Layer_1" xmlns="http://www.w3.org/2000/svg" version="1.1" viewBox="0 0 16 16">
  <!-- Generator: Adobe Illustrator 29.8.2, SVG Export Plug-In . SVG Version: 2.1.1 Build 3)  -->
  <defs>
    <style>
      .st0 {
        fill: #efe8df;
      }
    </style>
  </defs>
  <path class="st0" d="M14.4,1c-1-.8-2.4-.6-3.6-.5-.6,0-1.1,0-1.6.3s-.9.9-1.3,1.4c-.7.9-1.6,2-1.9,3.1-.3,1.2.2,2.3.8,3.3s.7,1.1.7,1.6-.4,1-.6,1.4c-.5.9-1.4,1.7-2.4,1.9-.5,0-1,0-1.3-.4-.4-.4-.5-.9-.4-1.5,0-.4,0-.8.5-1s1.4,0,2,0c1.3,0,1.3-2.2,0-2.1-1.3,0-2.6-.3-3.6.7-.8.8-1.1,2.2-1,3.3.2,1.6,1.4,2.6,2.8,2.9h0c.4.1.8,0,1.2,0s.9-.2,1.3-.4c1.1-.5,2-1.5,2.6-2.5.7-1.1,1.2-2.3.7-3.7-.2-.6-.5-1.1-.8-1.7-.2-.4-.4-.8-.5-1.2,0-.3.1-.6.2-.9.2-.4.4-.7.7-1,.4-.5.8-1.2,1.3-1.6h1.8c.6,0,1,0,1.2.5.4,1.2-.4,2-.9,3-.7,0-1.4.2-2.2.4-.6,0-.9.8-.7,1.3.2.6.7.8,1.3.7.9-.1,1.8-.3,2.7-.4.3,0,.7-.4.7-.7.1-.5.5-.9.7-1.4.3-.6.5-1.2.5-1.8.1-1.1-.2-2.4-1-3.1h.1Z"/>
</svg>