<?xml version="1.0" encoding="UTF-8"?>
<svg id="Layer_1" xmlns="http://www.w3.org/2000/svg" version="1.1" viewBox="0 0 26 25">
  <!-- Generator: Adobe Illustrator 29.8.2, SVG Export Plug-In . SVG Version: 2.1.1 Build 3)  -->
  <defs>
    <style>
      .st0 {
        fill: #efe8df;
      }
    </style>
  </defs>
  <path class="st0" d="M24.8,3.6h0c0-.3,0-.6-.5-.9-1.8-1.1-3.9-1.7-6-1.7s-3.6,0-5.1,1h-.4c-1.5-.9-3.4-1-5.1-1S3.4,1.6,1.6,2.7c-.4.2-.5.5-.5.9h0c-.5,6.5-.6,12.9-.5,19.4,0,1,1.2,1.2,1.7.7,0,0,.2-.1.3-.2,1.3-1.3,3.1-2.3,5-2.3s3.4.8,4.3,2.3c.2.4.6.5,1,.4.3,0,.7,0,1-.4.9-1.5,2.6-2.3,4.3-2.3s3.7.9,5,2.3c.1.1.2.2.3.2.5.5,1.7.3,1.7-.7,0-6.5,0-13-.5-19.4h0ZM11.8,20.5c-1.1-.8-2.5-1.2-3.9-1.3-1.9,0-3.7.6-5.2,1.7,0-5.6,0-11.2.5-16.8,1.3-.7,2.8-1.2,4.3-1.2s1.8,0,2.7.2c.6,0,1.2.2,1.7.6v16.8s-.1,0-.1,0ZM23.3,20.9c-1.5-1.1-3.4-1.8-5.2-1.7-1.4,0-2.7.5-3.9,1.3-.1-5.6-.1-11.2,0-16.8.5-.3,1.1-.5,1.7-.6.9,0,1.8-.2,2.7-.2,1.5,0,3,.5,4.3,1.2.5,5.6.5,11.2.5,16.8h0Z"/>
</svg>