<?xml version="1.0" encoding="UTF-8"?>
<svg id="Layer_1" xmlns="http://www.w3.org/2000/svg" version="1.1" viewBox="0 0 18 6">
  <!-- Generator: Adobe Illustrator 29.8.2, SVG Export Plug-In . SVG Version: 2.1.1 Build 3)  -->
  <path d="M17.2.3c-2.8-.1-5.5-.2-8.3-.2-1.4,0-2.7,0-4.1,0-1.3,0-2.6,0-3.9.3-.6.2-.4,1.1.3,1,1.2-.3,2.6-.2,3.9-.3,1.4,0,2.7,0,4.1,0,2.7,0,5.4,0,8,.2.6,0,.6-1,0-1Z"/>
  <path d="M17.4,4.6c-.3-.3-.8-.3-1.3-.3-.7,0-1.5,0-2.2,0-1.4,0-2.9,0-4.3,0-2.9,0-5.8,0-8.7.2-.6,0-.6,1,0,1,2.7,0,5.4-.1,8.1-.1,1.3,0,2.6,0,4,0,.7,0,1.3,0,2,0,.3,0,.7,0,1,0s.3,0,.5,0c0,0,.4,0,.3,0,.5.5,1.2-.3.7-.7Z"/>
</svg>