<svg width="24" height="24" viewBox="0 0 24 24" fill="none" xmlns="http://www.w3.org/2000/svg">
  <path fill-rule="evenodd" clip-rule="evenodd" d="M12 0C5.37 0 0 5.37 0 12C0 18.63 5.37 24 12 24C18.63 24 24 18.63 24 12C24 5.37 18.63 0 12 0ZM20.04 5.88C21.42 7.54 22.25 9.64 22.31 11.92C22.02 11.86 18.59 11.22 15.14 11.63C15.05 11.44 14.96 11.24 14.86 11.04C14.63 10.54 14.38 10.04 14.12 9.55C17.89 8.03 19.73 6.19 20.04 5.88ZM12 1.71C14.53 1.71 16.86 2.65 18.69 4.21C18.43 4.49 16.77 6.21 13.14 7.57C11.51 4.67 9.71 2.27 9.39 1.85C10.24 1.75 11.11 1.71 12 1.71ZM7.47 2.47C7.77 2.87 9.54 5.28 11.19 8.11C6.48 9.3 2.3 9.28 1.87 9.28C2.5 6.29 4.63 3.78 7.47 2.47ZM1.68 12.01C1.68 11.9 1.68 11.79 1.68 11.68C2.1 11.69 7.03 11.75 12.08 10.36C12.41 10.98 12.72 11.61 13.01 12.24C12.87 12.28 12.73 12.33 12.59 12.37C7.39 13.93 4.58 18.62 4.25 19.2C2.61 17.38 1.68 14.81 1.68 12.01ZM12 22.32C9.68 22.32 7.54 21.55 5.81 20.25C6.08 19.7 8.26 15.58 13.94 13.72C13.96 13.71 13.98 13.71 14 13.7C15.46 17.42 16.08 20.52 16.24 21.43C14.93 22.01 13.5 22.32 12 22.32ZM17.92 20.47C17.82 19.83 17.24 16.87 15.88 13.21C19.14 12.73 22 13.5 22.33 13.58C21.81 16.5 20.19 19.03 17.92 20.47Z" fill="currentColor"/>
</svg>

