<?xml version="1.0" encoding="UTF-8"?>
<svg id="Layer_1" xmlns="http://www.w3.org/2000/svg" version="1.1" viewBox="0 0 16 16">
  <!-- Generator: Adobe Illustrator 29.8.2, SVG Export Plug-In . SVG Version: 2.1.1 Build 3)  -->
  <path d="M14.5,11.1c-.8,0-1.5,0-2.3,0,0-1.2,0-2.3,0-3.5,0-1.1-.2-2.2-.3-3.4.7,0,1.4,0,2.1.1.6,0,.6-1,0-1-.7,0-1.4,0-2.2-.1,0-.8-.1-1.6-.1-2.4,0-.6-1-.6-1,0,0,.8,0,1.6.1,2.4-1.8,0-3.7-.1-5.5-.1,0-.7,0-1.4,0-2,0-.6-1-.6-1,0,0,.7,0,1.4,0,2-1.1,0-2.1,0-3.2,0-.6,0-.6,1,0,1,1.1,0,2.1,0,3.2,0,0,2.4,0,4.8,0,7.2-1.1,0-2.2,0-3.3,0-.6,0-.6,1,0,1,1.1,0,2.2,0,3.2,0,0,1,0,2,0,2.9,0,.6,1,.6,1,0,0-1,0-2,0-2.9,2,0,3.9,0,5.9,0,0,.8,0,1.6,0,2.5,0,.6,1,.6,1,0,0-.8,0-1.6,0-2.5.8,0,1.5,0,2.3,0,.6,0,.6-1,0-1ZM5.3,11.3c0-2.4,0-4.8,0-7.1,1.9,0,3.7,0,5.6.1.1,1.1.2,2.3.3,3.4,0,1.2,0,2.3,0,3.5-2,0-3.9,0-5.9,0Z"/>
</svg>