<?xml version="1.0" encoding="UTF-8"?>
<svg id="Layer_1" xmlns="http://www.w3.org/2000/svg" version="1.1" viewBox="0 0 16 16">
  <!-- Generator: Adobe Illustrator 29.8.2, SVG Export Plug-In . SVG Version: 2.1.1 Build 3)  -->
  <path d="M14.7,10.6c-.5,0-1.1,0-1.6,0,0-.8,0-1.7,0-2.5,0-1.1,0-2.2-.1-3.3.5,0,1.1,0,1.6,0,1.4-.1,1.4-2.2,0-2.1-.6,0-1.1,0-1.7,0,0-.5,0-1,0-1.5,0-.5-.4-.9-.8-1,0,0-.2,0-.3,0-.5,0-1.1.3-1,1,0,.5,0,1,0,1.5-1.6,0-3.3-.2-4.9-.3,0-.4,0-.7,0-1.1,0-1.3-2.1-1.3-2.1,0,0,.3,0,.6,0,.9-.7,0-1.4,0-2.1,0,0,0-.1,0-.2,0h0c-.1,0-.3,0-.4,0-.1,0-.2.1-.3.2-.1,0-.2.2-.2.3,0,.1,0,.3,0,.4v.3c0,.2.2.3.3.5,0,0,.1.1.2.2.2,0,.3.1.5.1h.2c0,0,.1,0,.2,0,.6,0,1.3,0,1.9,0,0,2.1,0,4.2,0,6.3-.8,0-1.6,0-2.4,0-1.4,0-1.4,2.1,0,2.1.8,0,1.7,0,2.5,0,0,.8,0,1.5.1,2.3,0,.4.2.6.5.8.1.3.5.3.8.2.5,0,.9-.4.9-1,0-.8,0-1.6-.1-2.3,1.7,0,3.3,0,5,0-.1.8-.3,1.7-.1,2.5.3,1.3,2.3.8,2.1-.6-.1-.5,0-1.1.1-1.6,0-.1,0-.2,0-.3.6,0,1.2,0,1.8,0,1.4,0,1.4-2,0-2.1ZM5.7,4.3c1.7.1,3.4.3,5.1.3,0,1.2.1,2.4.2,3.6,0,.7,0,1.5,0,2.2-1.7,0-3.5,0-5.2,0,0-2.1,0-4.1,0-6.2Z"/>
</svg>