<?xml version="1.0" encoding="UTF-8"?>
<svg id="Layer_1" xmlns="http://www.w3.org/2000/svg" version="1.1" viewBox="0 0 26 25">
  <!-- Generator: Adobe Illustrator 29.8.2, SVG Export Plug-In . SVG Version: 2.1.1 Build 3)  -->
  <path d="M5.9,11.6c.9,1.3,1.9,2.6,3,3.7,1,1.1,2.3,1.8,3.8,1.9,0,0,.2,0,.3,0,.2,0,.4,0,.5-.1,2.5-1.3,4.6-3.3,6-5.8.2-.5.1-1.1-.4-1.4-.5-.2-1.1-.1-1.4.4-.3.6-.7,1.1-1.1,1.6,0,0,0,0,0,0,0,0,0,.1-.1.2-.1.1-.2.3-.3.4-.2.2-.4.5-.7.7-.2.2-.5.4-.7.6,0,0-.1.1-.2.2,0,0,0,0-.1,0,0,0-.1,0-.1,0,0,0-.1.1-.2.2-.2.1-.3.2-.5.3,0-4.5,0-9.1,0-13.6,0-1.3-2-1.3-2,0,0,4.6,0,9.2,0,13.9-.7-.3-1.2-.9-1.7-1.5-.8-.9-1.6-1.9-2.3-2.9-.7-1.1-2.4,0-1.7,1Z"/>
  <path d="M25.3,20.8c0,0,0-.1,0-.2.1-1.3.1-2.6,0-3.9,0-.2,0-.4,0-.5,0-.4-.4-.5-.7-.4-.6-.2-1.4,0-1.3.9.1,1.3.1,2.5,0,3.8,0,.5,0,1.2-.3,1.7-.4.7-1,.5-1.7.5-2.7,0-5.3,0-8,0-2.6,0-5.2,0-7.7,0-.6,0-1.4,0-2-.2-.7-.2-.9-.6-.9-1.3,0-1.4,0-2.8,0-4.2,0-.8-.7-1.1-1.3-.9-.3-.1-.7,0-.7.4v1.3c0,1.1,0,2.3,0,3.4,0,.8,0,1.7.5,2.3.4.6,1,.7,1.6.8,0,0,.2,0,.3,0,1.6.4,3.3.3,4.9.3,1.8,0,3.5,0,5.3,0,1.5,0,3,0,4.5,0,.9,0,1.8.2,2.8.2s2.7,0,3.7-.6c1.1-.8,1.2-2.1,1-3.4Z"/>
</svg>