<?xml version="1.0" encoding="UTF-8"?><svg id="Layer_2" xmlns="http://www.w3.org/2000/svg" viewBox="0 0 533.98 512"><g id="Layer_1-2"><path d="M490.18,64.69c-22.63,38.7-30.57,72.66-25.06,117.68,1.83,14.99,6.23,29.58,8.56,44.44,26.16,167.04-147.5,290.84-296.71,209.71-4.12-2.24-15.05-8.23-17.92-11.08-.84-.83-1.41-.91-1.06-2.43l59.75-26.84c116.45,47.74,236.66-61.93,196.96-182.38-5.11-15.51-11.43-26.51-29.45-17.03-56.98,39.42-111.16,85.92-168.38,124.62-1.16.78-3.49,3.47-4.88,2.12L533.98,0l-43.8,64.69Z"/><path d="M390.99,95.99l-58.73,26.83c-33.07-12.1-66.26-14.38-100.27-4.32-93.59,27.7-138.63,143.14-80.22,224.22,5,6.95,11.14,12.88,16.22,19.75L0,512c.32-2.27,2.59-4.65,4.01-6.48,36.16-46.25,105.57-90.03,87.24-158.28-2.5-9.3-6.94-18.02-9.76-27.24C37.36,175.75,159.28,35.88,308.18,60.31c22.18,3.64,63.84,17.46,80.73,32.27,1.13.99,2.47,1.53,2.08,3.41Z"/></g></svg>