<?xml version="1.0" encoding="UTF-8"?>
<svg id="Layer_1" xmlns="http://www.w3.org/2000/svg" version="1.1" viewBox="0 0 18 10.2">
  <!-- Generator: Adobe Illustrator 29.8.2, SVG Export Plug-In . SVG Version: 2.1.1 Build 3)  -->
  <path d="M16.6.2c-2.6.4-5.2,0-7.8,0-2.5-.1-5.1,0-7.6.2C0,.5,0,2.5,1.2,2.4c2.6-.1,5.3-.4,7.9-.2,2.7.1,5.3.4,8,0,1.3-.2.7-2.1-.5-1.9Z"/>
  <path d="M16.8,4.1c-2.5-.1-5.1-.2-7.6-.2-2.5,0-5.1.3-7.6,0-.5,0-1.1.1-1.2.7-.1.5.2,1.2.7,1.2,2.6.4,5.2,0,7.8,0,2.6,0,5.3.1,7.9.2,1.3,0,1.3-1.9,0-2Z"/>
  <path d="M16.7,8H1.2c-1.3,0-1.3,1.9,0,1.9h15.5c1.3,0,1.3-1.9,0-1.9Z"/>
</svg>