<?xml version="1.0" encoding="UTF-8"?>
<svg id="Layer_1" xmlns="http://www.w3.org/2000/svg" version="1.1" viewBox="0 0 18 10.2">
  <!-- Generator: Adobe Illustrator 29.8.2, SVG Export Plug-In . SVG Version: 2.1.1 Build 3)  -->
  <path d="M17.3.6c-5.5-.2-10.9-.2-16.4,0-.6,0-.6,1,0,1,5.5-.1,10.9-.1,16.4,0,.6,0,.6-1,0-1Z"/>
  <path d="M16.9,4.5c-5.2.3-10.5-.1-15.7-.4-.6,0-.6,1,0,1,5.2.3,10.5.7,15.7.4.6,0,.6-1,0-1Z"/>
  <path d="M16.8,8.6c-1.1-.4-2.4-.2-3.5-.1-1.3,0-2.7.1-4,.2-2.7,0-5.4,0-8.1-.1-.6,0-.6,1,0,1,2.6.1,5.2.2,7.8.1,1.3,0,2.6,0,3.9-.1,1.2,0,2.5-.3,3.6,0,.6.2.9-.8.3-1Z"/>
</svg>