<?xml version="1.0" encoding="UTF-8"?>
<svg id="Layer_1" xmlns="http://www.w3.org/2000/svg" version="1.1" viewBox="0 0 16 16">
  <!-- Generator: Adobe Illustrator 29.8.2, SVG Export Plug-In . SVG Version: 2.1.1 Build 3)  -->
  <defs>
    <style>
      .st0 {
        fill: none;
        stroke: #000;
        stroke-miterlimit: 10;
        stroke-width: 2px;
      }
    </style>
  </defs>
  <path class="st0" d="M15,3.8v8.4c0,1.5-1.2,2.8-2.8,2.8H3.8c-1.5,0-2.8-1.3-2.8-2.8V3.8c0-1.5,1.3-2.8,2.8-2.8h8.4c1.5,0,2.8,1.2,2.8,2.8Z"/>
  <path class="st0" d="M12,5.9h0c0,1.1-.9,1.9-1.9,1.9h0c-1.1,0-1.9-.9-1.9-1.9h0c0-1.1.9-1.9,1.9-1.9h0c1.1,0,1.9.9,1.9,1.9Z"/>
  <path class="st0" d="M13.2,14l-2.6-2.7c-.3-.3-.8-.4-1.2-.2l-.7.4c-.4.3-1,.2-1.3-.2l-1.8-2.3c-.4-.5-1.1-.5-1.5,0l-3.1,3.2"/>
</svg>