<?xml version="1.0" encoding="UTF-8"?>
<svg id="Layer_1" xmlns="http://www.w3.org/2000/svg" version="1.1" viewBox="0 0 24 24">
  <!-- Generator: Adobe Illustrator 29.8.2, SVG Export Plug-In . SVG Version: 2.1.1 Build 3)  -->
  <defs>
    <style>
      .st0 {
        fill: none;
        stroke: #000;
        stroke-miterlimit: 10;
        stroke-width: 2px;
      }
    </style>
  </defs>
  <path class="st0" d="M22.9,5.4v13.1c0,2.3-1.9,4.4-4.4,4.4H5.4c-2.3,0-4.4-2-4.4-4.4V5.4C1.1,3.1,3.1,1.1,5.4,1.1h13.1c2.3,0,4.4,1.9,4.4,4.4Z"/>
  <path class="st0" d="M18.3,8.7h0c0,1.7-1.4,3-3,3h0c-1.7,0-3-1.4-3-3h0c0-1.7,1.4-3,3-3h0c1.7,0,3,1.4,3,3Z"/>
  <path class="st0" d="M21,22.2l-4.9-5.1c-.5-.5-1.3-.6-1.9-.3l-1.1.6c-.6.5-1.6.3-2-.3l-2.8-3.6c-.6-.8-1.7-.8-2.3,0l-4.8,5"/>
</svg>