<?xml version="1.0" encoding="UTF-8"?>
<svg id="Layer_1" xmlns="http://www.w3.org/2000/svg" version="1.1" viewBox="0 0 16 17">
  <!-- Generator: Adobe Illustrator 29.8.2, SVG Export Plug-In . SVG Version: 2.1.1 Build 3)  -->
  <g>
    <path d="M9.4,6.1s0,0,0,0c0,0,0,0,0,0,0,0,0,0,0,0Z"/>
    <path d="M11.4,5.3c-.2-.4-.6-.8-1-1,0,0,0,0,0,0,0,0,0,0,0,0,0,0,0,0-.1,0,0,0,0,0-.1,0,0,0-.2,0-.3,0-.2,0-.4.2-.5.4,0,0,0,0,0,0-.2.2-.4.5-.5.7-.3.6-.3,1.3.2,1.8.6.5,1.3.3,1.9,0,.3-.1.5-.3.7-.6.2-.4.1-.8,0-1.1ZM10.4,6.1c0,0-.2,0-.2.1,0,0,0,0-.1,0,0,0,0,0,0,0,0,0,0,0-.1,0,0,0-.1,0-.1,0,0,0,0,0,0,0,0,0,0,0,0,0,0,0,0,0,0,0,0,0,0,0,0,0,0,0,0,0,0,0,0,0,0,0,0,0,0,0,0,0,0,0,0,0,0,0,0,0,0,0,0,0,0,0,0,0,0,0,0,0,0,0,0,0,0,0,0,0,0,0,0,0,0,0,0,0,0,0,0,0,0,0,0,0,0,0,0,0,0,0,0,0,0,0,0,0,0,0,0,0,0,0,0,0,0-.1,0,0,0,0,0,0,0,0,0,0,0,0,0,0,0,0,0,0,0,0,0,0,0,0,0,0,0,0,0,0,0,0,0,0,0,0,0-.1,0,0,0,0,0-.1,0,0,0,0,0,0,0,0,0,0,0,0,0,0,.1-.1.2-.2,0,0,0,0,.1,0,0,0,0,0,0,0,0,0,0,0,.1,0,0,0,.1.1.2.2,0,0,0,0,0,0,0,0,0,0,0,0,0,0,0,0,0,.1,0,0,0,0,0,0,0,0,0,0,0,0,0,0,0,0,0,0,0,0,0,0,0,0,0,0,0,0,0,0,0,0,0,0,0,0Z"/>
  </g>
  <path d="M12.5,3.5c0,0,0-.1-.1-.2,0,0,0,0-.1,0,0,0-.2,0-.3,0,0,0,0,0-.1,0,0,0-.2,0-.2.1,0,0-.1.1-.2.2,0,0,0,0,0,.1,0,0,0,.1,0,.2,0,0,0,0,0,.1,0,0,0,.1,0,.2,0,0,0,.1,0,.2,0,0,0,.1.1.1,0,0,.1,0,.2,0,0,0,0,0,.1,0,0,0,.2,0,.3,0,0,0,0,0,.1,0,0,0,.1-.1.1-.2,0,0,0,0,0,0,0,0,0,0,0-.1,0,0,0,0,0,0,0,0,0,0,.1-.2,0,0,0-.1,0-.2,0,0,0-.1,0-.2Z"/>
  <path d="M9.5,3.1c0-.1-.1-.3-.2-.4,0,0,0-.1-.1-.1,0,0-.1,0-.2,0,0,0-.1,0-.2,0,0,0-.1,0-.2,0-.1,0-.2.2-.2.3,0,0,0,0,0,.1,0,0,0,.2,0,.3,0,0,0,0,0,.1,0,0,0,.2,0,.2,0,0,0,0,0-.1,0,0,0,.1,0,.2,0,0,0,.1.1.2,0,0,.1,0,.2.1,0,0,.1,0,.2,0,0,0,0,0,.1,0,0,0,.2,0,.2-.1,0,0,0,0,0-.1,0,0,0-.2,0-.3,0-.1,0-.3,0-.4Z"/>
  <path d="M8.1,5c0,0-.2-.1-.4-.1,0,0-.1,0-.2,0-.1,0-.3,0-.4-.1,0,0-.1,0-.2,0,0,0-.1,0-.2,0-.1,0-.2.2-.2.3,0,.1,0,.3,0,.4,0,0,0,0,0,.1,0,0,.1.1.2.1.3.1.6.2.9.2.1,0,.3,0,.4-.1s.2-.2.1-.4c0-.1,0-.3-.1-.4Z"/>
  <path d="M13.7,6.2c0-.1-.2-.2-.3-.2-.3,0-.6,0-.9,0,0,0-.1,0-.2,0,0,0-.1,0-.2.1,0,0-.2.2-.1.4,0,.1,0,.3.1.4,0,0,.2.2.4.1.2,0,.5,0,.7,0,0,0,0,0,0,0,0,0,.1,0,.2,0,0,0,.1,0,.2,0,.1,0,.2-.2.2-.3,0-.1,0-.3,0-.4Z"/>
  <path d="M15.7,11.5c0-2.5,0-4.9-.2-7.4,0-.8,0-2.2-.8-2.7-.3-.3-.8-.3-1.2-.4-.6-.1-1.2-.2-1.8-.3-2.3-.2-4.7-.5-7-.5-1.1,0-2.6,0-3.5.6-.9.7-.6,1.8-.7,2.7,0,.1,0,.2,0,.3,0,1.9,0,3.8,0,5.7,0,1.2-.1,2.5-.2,3.7,0,.9-.1,1.9.6,2.6.8.6,2,.3,2.9.3,1.2,0,2.4,0,3.6,0,2.5,0,4.9.2,7.4.4.5,0,.6-.5.4-.8.1-.2.2-.4.3-.6.2-1.2.1-2.5.1-3.7ZM5.2,15.3c-.6,0-1.2,0-1.7,0-.5,0-1.1.2-1.6,0-.9-.4-.4-2.3-.4-3,0-1,.1-2.1.2-3.1,0,0,0,0,0,0,.3-.3.6-.5.9-.7.3-.2.6-.6.9-.7.2-.1.2,0,.5.1.1.1.3.2.4.3.2.2.5.5.7.7.4.5.8,1.1,1.2,1.6.3.5.7,1.1,1.3,1.3.5.2,1,.1,1.4-.2.5-.3,1-.9,1.7-.6.7.2,1.1,1,1.5,1.6.4.7.8,1.4,1.2,2.1.3.6,1.2,0,.9-.5-.5-.8-.9-1.6-1.4-2.4-.4-.6-.8-1.3-1.5-1.6-.6-.3-1.3-.4-1.9-.1-.6.3-1.2,1.2-1.8.5-.5-.5-.9-1.3-1.3-1.9-.4-.6-.9-1.2-1.5-1.6-.5-.4-1-.8-1.7-.4-.5.3-1,.7-1.4,1.1,0-1.8,0-3.5,0-5.3,0,0,0-.2,0-.2,0,0,0,0,0,0,0-.6.7-.7,1.2-.8,1.2-.2,2.4-.2,3.6,0,2.2.1,4.6.2,6.8.6.7.1,1,.1,1.2.9.1.5.1,1.1.2,1.7,0,1.2.1,2.3.2,3.5,0,1.2,0,2.3,0,3.5,0,.6,0,1.2,0,1.7,0,.5-.3,1.6.1,2-.4-.3-.8,0-.9.3-1.8-.2-3.7-.3-5.5-.3-1.1,0-2.2,0-3.2,0Z"/>
  <path d="M11,7.8c0,0-.1,0-.2,0,0,0-.1,0-.2,0-.1,0-.2.1-.3.2,0,.1,0,.2,0,.4v.6c.2.1.3.2.4.3,0,0,.1,0,.2,0,0,0,.1,0,.2,0,.1,0,.2-.1.3-.2,0-.1,0-.2,0-.4v-.6c-.2-.1-.3-.2-.4-.3Z"/>
  <path d="M8.8,7.4c0,0-.2-.2-.4-.1,0,0,0,0-.1,0,0,0-.2,0-.2.1-.2.2-.5.4-.7.6,0,0,0,0-.1.2,0,0,0,.1,0,.2,0,.1,0,.3.1.4,0,0,.2.2.4.1,0,0,0,0,.1,0,0,0,.2,0,.2-.1.2-.2.5-.4.7-.6,0,0,0,0,.1-.2,0,0,0-.1,0-.2,0-.1,0-.3-.1-.4Z"/>
</svg>