<svg width="16" height="17" viewBox="0 0 16 17" fill="none" xmlns="http://www.w3.org/2000/svg">
<path d="M13.5 16H2.5C1.39543 16 0.5 15.1046 0.5 14V2.5C0.5 1.39543 1.39543 0.5 2.5 0.5H13.5C14.6046 0.5 15.5 1.39543 15.5 2.5V14C15.5 15.1046 14.6046 16 13.5 16Z" stroke="black"/>
<path d="M9.5 4C9.5 3.17157 10.1716 2.5 11 2.5C11.8284 2.5 12.5 3.17157 12.5 4C12.5 4.82843 11.8284 5.5 11 5.5C10.1716 5.5 9.5 4.82843 9.5 4Z" stroke="black"/>
<path d="M0.5 11L3.98156 5.58423C4.41507 4.90989 5.42609 4.99422 5.74189 5.73107L7.31865 9.41019C7.62168 10.1173 8.57624 10.2317 9.0378 9.61627L10.0801 8.22655C10.5134 7.64877 11.3976 7.70681 11.7517 8.33629L15.5 15" stroke="black"/>
</svg>
