<?xml version="1.0" encoding="UTF-8"?>
<svg id="Layer_1" xmlns="http://www.w3.org/2000/svg" version="1.1" viewBox="0 0 26 26">
  <!-- Generator: Adobe Illustrator 29.8.2, SVG Export Plug-In . SVG Version: 2.1.1 Build 3)  -->
  <path d="M18.8,3.4H2.3c-.6,0-.6,1,0,1h12.5c-2.1,1.7-4.1,3.5-6.1,5.3-.6-.7-1.2-1.3-1.8-2-.4-.5-1.1.2-.7.7.6.7,1.2,1.4,1.8,2-.9.9-1.9,1.8-2.8,2.7-.5.5.3,1.2.7.7.9-.9,1.8-1.8,2.8-2.7,1.1,1.2,2.4,2.3,3.6,3.4.5.4,1.2-.3.7-.7-1.3-1-2.4-2.2-3.6-3.3,2.2-2,4.4-4,6.7-5.8,0,0,.1-.1.1-.2h2.6c.6,0,.6-1,0-1Z"/>
  <path d="M12.2,1.1h-4.8c-.6,0-.6,1,0,1h4.8c.6,0,.6-1,0-1Z"/>
  <path d="M23,24.5c-1-2.3-2-4.6-3-6.9s-1-2.3-1.5-3.4c-.4-.9-.8-1.7-1.9-1.6-1.9.1-3,1.9-3.7,3.4-1,2-1.7,4.1-2.1,6.3-.1.6.9.9,1,.3.1-.8.4-1.7.6-2.5h7.4c0,0,.2,0,.2,0,.7,1.6,1.4,3.3,2.1,4.9.3.6,1.1,0,.9-.5ZM12.7,19.1c.3-.8.5-1.5.9-2.2.6-1.3,1.6-3.3,3.2-3.3.6,0,.7.7.9,1.2.2.5.4.9.6,1.4.4,1,.8,1.9,1.3,2.9,0,0,0,0,0,.1h-6.9Z"/>
</svg>