<?xml version="1.0" encoding="UTF-8"?>
<svg id="Layer_1" xmlns="http://www.w3.org/2000/svg" version="1.1" viewBox="0 0 26 26">
  <!-- Generator: Adobe Illustrator 29.8.2, SVG Export Plug-In . SVG Version: 2.1.1 Build 3)  -->
  <path d="M19.2,3.1c-.4,0-.8,0-1.1,0-.3-.4-.8-.6-1.3-.3-.2,0-.3.2-.5.3-4.5,0-9.1,0-13.6-.1-1.3,0-1.3,2,0,2,3.5,0,7.1,0,10.6,0-1.7,1.2-3.3,2.5-4.9,4,0,0-.1-.1-.2-.2-.1-.1-.2-.3-.3-.4,0,0-.2-.2,0-.1,0,0-.1-.1-.1-.2-.2-.3-.4-.6-.5-.9-.2-.5-.9-.6-1.4-.4-.5.3-.6.9-.4,1.4.4.9,1,1.6,1.6,2.2-.7.8-1.4,1.5-2.1,2.4-.3.4-.4,1,0,1.4.4.4,1.1.4,1.4,0,.7-.8,1.4-1.7,2.2-2.4,1.1.9,2.3,1.8,3.2,2.9.3.4,1.1.4,1.4,0,.4-.4.4-1,0-1.4-.9-1.1-2.1-2-3.2-2.9,2.1-2,4.4-3.8,6.9-5.3.8,0,1.6,0,2.3,0,1.3,0,1.3-2,0-2Z"/>
  <path d="M11.9.4h-4.6c-.5,0-1,.5-1,1,0,.5.4,1,1,1h4.6c.5,0,1-.5,1-1,0-.5-.4-1-1-1Z"/>
  <path d="M23.3,23.7c-1-2-2-4-3-6.1-.5-1-.9-1.9-1.4-2.9-.2-.3-.4-.6-.6-.9-.4-.7-.8-1.3-1.7-1.2-.4,0-.7.1-1,.2-.4.1-.8.4-1.2.7-.4.4-.7.9-1,1.4-.2.4-.4.7-.6,1.1-.6,1.2-1,2.4-1.4,3.6-.4,1-.8,1.9-1.2,2.9-.2.5-.1,1.1.4,1.4.4.2,1.2.1,1.4-.4.4-.9.8-1.8,1.2-2.8,0,0,0,0,0,0,2,0,4.1,0,6.1,0,0,0,.2,0,.2,0,.7,1.3,1.3,2.7,2,4,.1.3.4.4.6.5.2.2.5,0,.7-.1.4-.2.8-.8.5-1.4ZM15.4,15.5c.2-.4.7-1,1.2-.7.5.4.8,1.3,1.1,1.8l1,2.1c-1.6,0-3.1,0-4.7,0,0-.2.2-.5.3-.7.4-.8.7-1.7,1.1-2.5Z"/>
</svg>