<?xml version="1.0" encoding="UTF-8"?>
<svg id="Layer_2" data-name="Layer 2" xmlns="http://www.w3.org/2000/svg" viewBox="0 0 510.4 570.05">
  <defs>
    <style>
      .cls-1 {
        fill: #ebb473;
      }

      .cls-2 {
        fill: #a7d982;
      }

      .cls-3 {
        fill: #e68ea9;
      }

      .cls-4 {
        fill: #f0d874;
      }

      .cls-5 {
        fill: #838383;
      }
    </style>
  </defs>
  <g id="Layer_1-2" data-name="Layer 1">
    <path class="cls-5" d="M491.61,251.75c4.14,10.92,6.98,22.06-2.63,28.41-9.61,6.35-21.8,4.84-27.23-3.37s-2.03-20.02,7.58-26.37c9.61-6.35,18.79-7.87,22.28,1.33Z"/>
    <g>
      <path d="M319.2,42c-5.42,5.68-7.91,12.97-9.21,20.43-7.3,41.79-16.8,82.24-27.54,123.27l-8.06,30.77,9.35,4.34-9.71-1.1-22.05-.54,7.25-2.78-.85-17.96-1.1-58.99-.21-46-.7-21.01c-.46-13.75-1-27.19-3.51-40.54-1.8-9.57-7.73-17.23-15.74-20.37-9.23-3.62-19.82-2.1-26.74,5.24-5.24,5.56-8.32,13.54-8.72,21.24l-1.9,36.45-.75,19.02-2.97,63.97-3.55,60.46,8.18,1.4-32.15,6.85c2.56-2.97,5.15-3.77,9.03-5.22l-30.2-146.55c-3.26-15.82-8.05-30.89-23.66-33.2-8.51-1.26-17.42,1.9-22.82,9.21-6.45,8.74-7.6,20.12-6.03,31.15l11.59,81.51,9.98,75.05,11.03.97c-14.25,3.32-27.21,6.44-40.47,13.57,3.06-4.4,7.85-6.56,12.86-8.94l-14.01-32.08-26.23-68.57c-3.39-8.85-7.71-17.39-16.56-21.61-12.2-5.82-26.72,1.78-30.04,14.9-3.09,12.24,1.67,30.69,6.24,44.08l36.83,107.97c1.68,4.93,1.72,9.01,2.07,14.16,1.69,25.03,4.93,49.36,9.93,73.87s12.82,50.05,28.2,69.78c17.57,22.53,42.14,22.33,70.37,20.61-13.21,5.74-27.32,6.01-41.51,4.98l-15.53-2.52c-4.55,11.28,20.59,14.34,34.93,16.97-10.49,2.7-21.42.21-30.72-3.43l-5.4-4.46-7.07,91.57-14.19-3.86,4.88-85.53.77-16.92c-22.39-23.37-31.02-50.56-37.97-81.99-5.76-28.09-8.72-55.71-10.33-84.43L4.82,174.77c-5.5-19.97-9.18-40.16,5.61-54.57,8-7.79,18.19-11.05,29.84-9.99,12.72,1.16,22.65,9.48,27.5,21.75l33.92,85.77-15-109.8c-2.98-21.78-9.36-47.1,5.84-65.03,6.86-8.09,17.08-11.15,27.56-11.57,20.65-.83,33.26,14.37,37.27,33.99l25.2,123.41,1.18-23.65,5.63-122.32C190.45,19.36,201.9,1.23,226.08.05c17.81-.86,33.14,9.01,37.82,26.76,2.66,10.1,3.57,20.58,3.72,31.47l1.74,130.38c12.69-43.75,21.56-87.94,30.04-132.63,2.52-13.29,11.5-23.89,22.25-27.98,13.5-5.14,26.84-2.29,37.52,6.35,13.93,11.27,14.63,31.94,12.02,50.13l-14.04,97.85-7.41,59.2c4.39,17.97,6.95,34.82,8.97,54.26l18.67-21.14c19.32-21.89,34.38-41.06,65.32-48.76,17.93-4.46,38.45-4.89,54.07,4.8,10.76,6.68,16.61,19.35,12.12,31.57-5,13.6-26.19,20.94-41.43,38.5-11.38,13.12-19.5,27.75-28.15,42.85l-32.39,56.57c-12.04,21.02-38.61,51.42-59.66,64.35l-.78,18.84-.59,21.05-1.06,32.96-.86,28.38-15.09,4.25.56-36.7,1.38-54.41c-3.18,2.41-5.69,4.25-8.45,4.76-8.87,1.63-16.69,3.59-25.68,1.99l16.86-3.89c5.9-1.36,11.41-3.27,17.11-5.81l.58-7.12-28.15,1.74c-8.44.52-16.33-1.28-24.14-3.82l21.57-.93c19.21-.83,36.67-8.21,51.1-20.94l18.04-17.96c16.66-19.33,29.57-40.42,42.58-62.37l30.5-51.48c6.91-11.66,15.41-21.73,25.41-30.27-4.67-2.22-8.81-5.79-10.2-9.1-2.32-5.52-1.42-11.41,1.67-15.76,8.56-12.02,23.9-18.53,33.26-8.23,2.39,2.63,3.7,13.67,1.09,16.41.7-5.96-2.28-16.55-7.71-18.01-13.02-3.5-27.56,9.44-26.62,21.16.43,5.4,4.85,10.99,10.29,12.4l19.53-13.95c4.09-2.92,8.2-7.57,9.36-12.46,1.27-5.34-2.25-10.26-5.92-13.71-6.26-5.87-14.55-8.27-23.29-8.71-32.2-1.63-56.13,16.14-76.28,39.79l-28.5,33.46-9.74,11.19c-5,7.88-5.54,15.92-3.98,25.38-3.8-5.99-4.01-13.31-1.68-19.89l3.86-10.87c-10.51,3.55-16.82,11.79-22.17,20.61,1.18-9.83,8.9-15.81,16.25-22.15-.54-19.88-3.43-39.09-7.76-58.32-1.59-7.06-4.5-12.69-8.6-18.48l5.69.39,21.4-140.44c2.59-16.96,4.88-39.81-5.92-51.01-8.87-9.2-23.87-10.05-32.97-.51Z"/>
      <path d="M241.87,52.85c-7.25,8.72-22.7,9.03-29.92.83-7.82-8.88-6.9-22.45-.62-32.27,6.48-10.13,22.48-11,30.3-1.49,7.37,8.98,8.18,23.38.24,32.93ZM226.52,54.93c9.49.14,16.19-4.61,17.84-13.45,1.28-6.88.43-14.44-4.43-19.8-6.58-7.27-18.08-8.83-24.93-1.31-6.33,6.94-7.56,17.77-4.13,26.17,2.63,6.43,8.87,8.29,15.65,8.39Z"/>
      <path d="M136.31,79.36c-5.52,10.09-20.58,13.42-29.17,6.01-9.06-7.81-10.27-22.92-3.62-32.3,7.17-10.12,22.16-11.44,30.14-2.22,6.48,7.49,7.68,19.3,2.64,28.51ZM133.01,77.97c7.27-9.4,4.31-23.32-5.38-28.93-6.33-3.66-14.98-2.22-20.12,2.94-8.01,8.04-7.62,23.14,1.8,30.22,6.77,5.08,18.48,2.53,23.7-4.23Z"/>
      <path d="M350.08,76.15c-8.24,9.55-25.04,8.86-31.81-1.83s-2.74-26,7.76-32.89c10.14-6.65,23.68-.68,27.65,10.36,2.86,7.92,2.46,17.33-3.61,24.36ZM349.29,72.18c3.94-5.15,4.25-11.95,2.84-17.85-2.53-10.61-14.67-16.69-24.42-11.24-8.49,4.75-11.87,15.68-8.96,24.95,1.82,5.79,8.43,9.36,13.15,10.12,6.4,1.03,13.31-.66,17.38-5.99Z"/>
      <path d="M49.21,157.99c-5.53,7.59-16.29,10.14-23.91,5.15-11.76-7.71-13.52-25.19-3.81-35.28,7.94-8.25,21.66-5.8,27.5,3.64,4.92,7.95,6.03,18.51.22,26.49ZM48.78,151.92c4.82-10.88-1.07-24.88-12.46-26.35-6.03-.78-12.16,1.19-15.55,6.66-5.37,8.69-3.5,22.16,5.9,27.58,7.46,4.3,18.64-.05,22.11-7.89Z"/>
      <path d="M71.04,266.92c-2.58,6.35-5.8,11.65-10.53,16.89.65-6.75,4.42-13.44,10.53-16.89Z"/>
      <path class="cls-4" d="M226.52,54.93c-6.78-.1-13.02-1.96-15.65-8.39-3.43-8.4-2.2-19.23,4.13-26.17,6.85-7.51,18.35-5.96,24.93,1.31,4.86,5.36,5.71,12.92,4.43,19.8-1.65,8.84-8.35,13.6-17.84,13.45Z"/>
      <path class="cls-1" d="M133.01,77.97c-5.22,6.76-16.93,9.31-23.7,4.23-9.42-7.08-9.82-22.18-1.8-30.22,5.14-5.16,13.79-6.6,20.12-2.94,9.69,5.61,12.64,19.52,5.38,28.93Z"/>
      <path class="cls-2" d="M349.29,72.18c-4.07,5.32-10.98,7.01-17.38,5.99-4.72-.76-11.33-4.33-13.15-10.12-2.92-9.27.46-20.2,8.96-24.95,9.74-5.45,21.89.63,24.42,11.24,1.4,5.9,1.1,12.7-2.84,17.85Z"/>
      <path class="cls-3" d="M48.78,151.92c-3.47,7.84-14.65,12.19-22.11,7.89-9.4-5.42-11.27-18.89-5.9-27.58,3.38-5.47,9.52-7.44,15.55-6.66,11.39,1.47,17.28,15.47,12.46,26.35Z"/>
    </g>
  </g>
</svg>