<?xml version="1.0" encoding="UTF-8"?>
<svg id="Layer_1" xmlns="http://www.w3.org/2000/svg" version="1.1" viewBox="0 0 17 12">
  <!-- Generator: Adobe Illustrator 29.8.2, SVG Export Plug-In . SVG Version: 2.1.1 Build 3)  -->
  <path d="M16.3.3C11.2.1,6.1,1.3,1,.5c-.6-.1-.9.9-.3,1,5.2.9,10.3-.3,15.5,0,.6,0,.6-1,0-1Z"/>
  <path d="M8.1,5.4c-.6.2-1.1.2-1.7.2-.6,0-1.2,0-1.8,0-1.2,0-2.5,0-3.7,0-.6,0-.6,1,0,1h3.8c.6,0,1.3,0,1.9,0,.6,0,1.2,0,1.8-.2.6-.2.3-1.2-.3-1Z"/>
  <path d="M15.8,10.6c-1.3-.1-2.6-.3-3.8-.3-1.2,0-2.4.1-3.6.2-2.5.3-5,.3-7.5.2-.6,0-.6,1,0,1,2.5.1,5,0,7.5-.2,1.2-.1,2.4-.3,3.6-.2,1.3,0,2.6.2,3.8.3.6,0,.6-.9,0-1Z"/>
</svg>