<?xml version="1.0" encoding="UTF-8"?>
<svg id="Layer_1" xmlns="http://www.w3.org/2000/svg" version="1.1" viewBox="0 0 17 12">
  <!-- Generator: Adobe Illustrator 29.8.2, SVG Export Plug-In . SVG Version: 2.1.1 Build 3)  -->
  <path d="M15.9.2c-2.5,0-5,.2-7.5,0-1.2,0-2.3-.2-3.5-.2-1.3,0-2.5.3-3.8.2C-.2.1-.1,2.1,1.1,2.3c1.3.1,2.5,0,3.8-.2,1.2,0,2.3.1,3.5.2,2.5.1,5,0,7.5,0,1.3,0,1.3-2,0-2Z"/>
  <path d="M8.4,4.9c-2.4,0-4.8.2-7.2.2-.5,0-1,.4-1,1s.5,1,1,1c2.4,0,4.8-.2,7.2-.2.5,0,1-.4,1-1s-.5-1-1-1Z"/>
  <path d="M15.9,9.9c-4.9,0-9.8-.2-14.8-.3-1.3,0-1.3,2,0,2,4.9.1,9.8.2,14.8.3,1.3,0,1.3-2,0-2Z"/>
</svg>