<?xml version="1.0" encoding="UTF-8"?>
<svg id="Layer_1" xmlns="http://www.w3.org/2000/svg" version="1.1" viewBox="0 0 26 25">
  <!-- Generator: Adobe Illustrator 29.8.2, SVG Export Plug-In . SVG Version: 2.1.1 Build 3)  -->
  <path d="M25.2,19.6c-.2-1.2-.4-2.3-.7-3.4-.5-2.1-1.1-4.2-1.9-6.3-.8-2.2-.8-4.5-1.5-6.7-.6-2-1.6-3.3-3.9-2.6,0,0,0,0-.1,0-1.3.3-3,.7-3.5,1.9-.2-.9-.6-1.9-1.3-2.1-.7-.2-1.7,0-2.4,0-.8,0-1.7,0-2.6,0-.1,0-.3,0-.4,0-.7-.3-1.7-.3-2.4-.3C3.2,0,1.3,0,.9,1.4c-.2.7,0,1.5,0,2.2,0,1,.1,2.1.1,3.1.1,4.6-.1,9.2-.4,13.7,0,.2,0,.3,0,.5,0,.9-.1,1.8-.2,2.7,0,.2.1.5.3.7,0,.1.2.2.4.2.1,0,.3.1.5.1,1,0,1.9,0,2.9,0,.4,0,1,0,1.4-.2,2.2.4,6.6,1.3,7.2-1.8.3-1.4.1-3,.1-4.5,0-1.8,0-3.5.2-5.3.1-2.4.5-4.8.4-7.2,0,0,0,0,0,.1.3,1.1.5,2.3.8,3.4,1.1,4.3,2.3,8.6,3.6,12.8.2.8.4,1.8,1.1,2.3.7.5,1.4.3,2.2.2,1.5-.3,3.5-.5,3.8-2.3.1-.8-.1-1.8-.2-2.6ZM6.1,8c0,2.1-.2,4.1-.3,6.2-.1,2-.2,4.1-.2,6.1,0,.4,0,.8,0,1.2,0,.8-.1.9-.9,1.1-.7.1-1.4.1-2.1,0,0-.8.1-1.5.2-2.2,0-.1,0-.3,0-.4.2-3.8.4-7.5.4-11.3,0-1.9,0-3.8-.2-5.7,0-.2,0-.4,0-.7h0c.3,0,.6-.1.8-.1.7,0,1.6,0,2.3.1.3.8.2,1.8.2,2.7,0,1,0,2,0,3ZM11.8,7.5c0,2.2-.4,4.3-.5,6.5,0,2.1-.1,4.3-.1,6.4,0,1,.3,2.1-.9,2.3-.9.1-1.8,0-2.7,0,.2-1,.1-2.1.1-3,0-4,.4-8,.5-11.9,0-1.8.1-3.6-.2-5.4,1.1,0,2.2,0,3.3,0,.7,1.5.5,3.4.5,5ZM21.3,22.4c-.6.2-.6.2-.8-.3-.2-.5-.3-1-.5-1.5-.3-1-.6-2-.9-2.9-.6-2-1.1-3.9-1.6-5.9-.5-2-1-4-1.5-5.9-.1-.5-.2-1-.3-1.5,0-.2-.2-1-.2-1,0,0,1-.3,1.2-.3.5-.2,1.1-.4,1.6-.5.2,0,.4,0,.6.5.2.3.3.8.4,1.2.3.9.5,1.9.7,2.9.2,1,.2,1.9.5,2.8.3.9.6,1.8.9,2.7.6,1.9,1.1,3.9,1.5,5.9.2.9.6,2.1.5,3,0,.8-1.5.8-2.1,1Z"/>
</svg>