<?xml version="1.0" encoding="UTF-8"?>
<svg id="Layer_1" xmlns="http://www.w3.org/2000/svg" version="1.1" viewBox="0 0 26 25">
  <!-- Generator: Adobe Illustrator 29.8.2, SVG Export Plug-In . SVG Version: 2.1.1 Build 3)  -->
  <path d="M25.2,19.6c-.2-1.2-.4-2.3-.7-3.4-.5-2.1-1.1-4.2-1.9-6.3-.8-2.2-.8-4.5-1.5-6.7-.6-2-1.6-3.3-3.9-2.6h-.1c-1.3.3-3,.7-3.5,1.9-.2-.9-.6-1.9-1.3-2.1-.7-.2-1.7,0-2.4,0h-3c-.7-.3-1.7-.3-2.4-.3C3.2,0,1.3,0,.9,1.4c-.2.7,0,1.5,0,2.2,0,1,.1,2.1.1,3.1.1,4.6-.1,9.2-.4,13.7v.5c0,.9,0,1.8-.2,2.7,0,.2,0,.5.3.7,0,.1.2.2.4.2s.3.1.5.1h2.9c.4,0,1,0,1.4-.2,2.2.4,6.6,1.3,7.2-1.8.3-1.4.1-3,.1-4.5s0-3.5.2-5.3c.1-2.4.5-4.8.4-7.2h0c.3,1.2.5,2.4.8,3.5,1.1,4.3,2.3,8.6,3.6,12.8.2.8.4,1.8,1.1,2.3s1.4.3,2.2.2c1.5-.3,3.5-.5,3.8-2.3.1-.8-.1-1.8-.2-2.6h.1ZM6.1,8c0,2.1-.2,4.1-.3,6.2,0,2-.2,4.1-.2,6.1v1.2c0,.8,0,.9-.9,1.1-.7.1-1.4.1-2.1,0,0-.8,0-1.5.2-2.2v-.4c.2-3.8.4-7.5.4-11.3s0-3.8-.2-5.7v-.7h3.1c.3.8.2,1.8.2,2.7v3h-.2ZM11.8,7.5c0,2.2-.4,4.3-.5,6.5,0,2.1-.1,4.3-.1,6.4s.3,2.1-.9,2.3c-.9.1-1.8,0-2.7,0,.2-1,0-2.1,0-3,0-4,.4-8,.5-11.9,0-1.8.1-3.6-.2-5.4h3.3c.7,1.5.5,3.4.5,5h0ZM21.3,22.4c-.4.1-.7,0-.8-.3-.2-.5-.3-1-.5-1.5-.3-1-.6-2-.9-2.9-.6-2-1.1-3.9-1.6-5.9s-1-4-1.5-5.9c-.1-.5-.2-1-.3-1.5,0-.2-.2-1-.2-1,0,0,1-.3,1.2-.3.5-.2,1.1-.4,1.6-.5.2,0,.4,0,.6.5.2.3.3.8.4,1.2.3.9.5,1.9.7,2.9.2,1,.2,1.9.5,2.8s.6,1.8.9,2.7c.6,1.9,1.1,3.9,1.5,5.9.2.9.6,2.1.5,3,0,.8-1.5.8-2.1,1,0,0,0-.2,0-.2Z"/>
</svg>