<?xml version="1.0" encoding="UTF-8"?>
<svg id="Layer_1" xmlns="http://www.w3.org/2000/svg" version="1.1" viewBox="0 0 26 25">
  <!-- Generator: Adobe Illustrator 29.8.2, SVG Export Plug-In . SVG Version: 2.1.1 Build 3)  -->
  <path d="M25,20.6c0,0-.1,0-.2-.1.1-.1.1-.3,0-.5-3.3-6.1-6.6-12.3-10-18.4,0,0,0,0,0-.1,0,0,0,0,0-.1-.1-.2-.5-.3-.7-.2-1.1.7-2.1,1.5-3.2,2.2,0-.6,0-1.3-.1-1.9,0-.6-1.1-.6-1.1,0,0,.2,0,.3,0,.5-1.1-.2-2.2-.3-3.3-.4,0-.1,0-.3,0-.4,0-.6-1-.6-1.1,0,0,.2,0,.4,0,.6-1-.2-2.1-.3-3.2-.3,0,0,0,0,0,0,0-.6-1.1-.6-1.1,0-.2,7.3-.3,14.6-.5,22,0,.2.1.4.3.5,0,0,.2,0,.2,0,1.1,0,2.3,0,3.4.1.2.2.5.4.8.1,0,0,0,0,.1,0,0,0,0,0,0,0,.2,0,.4-.1.5-.3.8-.3,1.7-.1,2.6.1.7.2,1.9.5,2.1-.5.1-.5,0-1.1.1-1.6,0-.7,0-1.3,0-2,0-1.2,0-2.4.1-3.6,0-3.7,0-7.4-.2-11.1,3.4,6.1,6.6,12.3,9.5,18.7.2.4.7.3.9,0,0,0,0,0,.1,0,.1-.1.2-.2.4-.4,0,0,0,0,0,0,0,0,0,0,.1,0,0,0,.1,0,.2-.1.3-.2.6-.3,1-.5.7-.3,1.3-.7,1.9-1.2.2-.2.2-.5,0-.7ZM5.1,23c-1.2,0-2.3,0-3.5-.1.2-6.8.3-13.6.5-20.4,1,0,2,0,3,.3,0,0,.1,0,.2,0,0,3.2.5,6.4.5,9.6,0,3.6-.4,7.2-.7,10.7ZM10,15.8c0,1.2,0,2.3,0,3.5,0,.6,0,1.2,0,1.9,0,.6-.2,1.3,0,1.9,0,0,0,0,0,0,0,0,0,0-.1,0-.3,0-.6-.1-.8-.2-.5-.1-.9-.3-1.4-.3-.4,0-.8,0-1.1.1.3-3.4.6-6.9.6-10.3,0-3.2-.6-6.5-.5-9.7,1.1,0,2.3.1,3.4.4,0,0,0,0,0,0,.3,4.3.4,8.5.3,12.8ZM23.5,21.2c-.3.2-.6.3-1,.5-.5.2-1,.5-1.5.9-2.9-6.3-6-12.4-9.4-18.5.8-.6,1.7-1.2,2.5-1.7,3.3,6,6.5,12.1,9.8,18.1,0,.1.2.2.2.2,0,0-.2.2-.3.2,0,0-.3.2-.4.3Z"/>
</svg>