<?xml version="1.0" encoding="UTF-8"?>
<svg id="Layer_1" xmlns="http://www.w3.org/2000/svg" version="1.1" viewBox="0 0 16 16">
  <!-- Generator: Adobe Illustrator 29.8.2, SVG Export Plug-In . SVG Version: 2.1.1 Build 3)  -->
  <defs>
    <style>
      .st0 {
        fill: none;
        stroke: #000;
        stroke-linecap: round;
        stroke-linejoin: round;
        stroke-width: 2px;
      }
    </style>
  </defs>
  <path class="st0" d="M5.2,7.8h-.9c-.9-.1-1.7.2-2.3.8h0c-.6.6-.9,1.4-.9,2.2v.5c0,.7.4,1.5.9,2l.6.6c.5.5,1.2.8,2,.9h.5c.8,0,1.7-.3,2.2-.8h0c.6-.6.9-1.5.9-2.3l-.2-3.7"/>
  <path class="st0" d="M10.8,8.2h.9c.9.1,1.7-.2,2.3-.8h0c.6-.6.9-1.4.9-2.2v-.5c0-.7-.4-1.5-.9-2l-.6-.6c-.5-.5-1.2-.8-2-.9h-.5c-.8,0-1.7.3-2.2.8h0c-.6.6-.9,1.5-.9,2.3l.2,3.7"/>
</svg>