<?xml version="1.0" encoding="UTF-8"?>
<svg id="Layer_1" xmlns="http://www.w3.org/2000/svg" version="1.1" viewBox="0 0 16 16">
  <!-- Generator: Adobe Illustrator 29.8.2, SVG Export Plug-In . SVG Version: 2.1.1 Build 3)  -->
  <path d="M12.4,1.1c-1-.4-2.3-.3-3.2.2-1,.5-1.5,1.5-1.9,2.5-.4,1.1-.9,2.4-.5,3.6.3.9,1.4,1.9,1.3,3-.1.6-.7,1.2-1.1,1.6-.5.5-.9,1-1.5,1.5-.6.4-1.4.8-2.1.4-.6-.3-1-1-1-1.6,0-.7.1-1.5.5-2.2.2-.4.3-.5.8-.5.5,0,1,0,1.5,0,.6,0,.6-1,0-1-.7,0-1.4,0-2.1,0-.5,0-.8.4-1,.9-.5,1-.9,2.3-.5,3.4.3,1,1,1.8,2,2.1,1.2.3,2.3-.4,3.2-1.1.9-.8,1.9-1.8,2.3-2.9.4-1.1,0-2-.6-2.9-.3-.5-.6-1-.6-1.6,0-.7.3-1.4.5-2,.4-1.2,1-2.3,2.3-2.5.7-.1,1.6-.1,2.1.4.5.5.6,1.4.5,2.1-.2,1.5-1.6,2.4-3.1,2.2-.6,0-.6.9,0,1,2.3.2,4.3-1.7,4.1-4.1-.1-1-.6-2.1-1.6-2.5Z"/>
</svg>