<svg width="16" height="16" viewBox="0 0 16 16" fill="none" xmlns="http://www.w3.org/2000/svg">
<path d="M5.82323 7.48678L4.92598 7.40521C4.33485 7.35147 3.7504 7.56307 3.33069 7.98278L1.41421 9.89926C0.633165 10.6803 0.633164 11.9466 1.41421 12.7277L2.57886 13.8923C3.35991 14.6734 4.62624 14.6734 5.40729 13.8923L7.32376 11.9759C7.74347 11.5561 7.95508 10.9717 7.90134 10.3806L7.40544 4.92574C7.35171 4.33462 7.56331 3.75017 7.98302 3.33046L9.8995 1.41398C10.6805 0.632933 11.9469 0.632932 12.7279 1.41398L13.8926 2.57863C14.6736 3.35968 14.6736 4.62601 13.8926 5.40705L11.9761 7.32353C11.5564 7.74324 10.9719 7.95484 10.3808 7.90111L9.84958 7.85281" stroke="black" stroke-linecap="round" stroke-linejoin="round"/>
</svg>
