<?xml version="1.0" encoding="UTF-8"?>
<svg id="Layer_1" xmlns="http://www.w3.org/2000/svg" version="1.1" viewBox="0 0 488.9 117.9">
  <!-- Generator: Adobe Illustrator 29.8.2, SVG Export Plug-In . SVG Version: 2.1.1 Build 3)  -->
  <path d="M169.9,63.4c.4,3.6.3,6.8.3,11.2s.2,8.6-1.8,10c-3.8,2.7-6.4-1.1-6.4-5.2,0-12.4-.6-25.2-6.3-36.4-3.3-6.6-12.4-17.4-19.3-9-2.9,3.6-1.8,11.3-2.3,15.9-.2,4.6-4.4,7.1-6.9,3.1-2.3-5,0-12.1-4.9-15.8-5.6-3.6-10.8,2.9-12.7,8-2.8,6-1.9,12-2.1,18.6v15.2c0,3.8.2,6.2-.5,8.1-1,3.2-5.9,3.4-7.1.3-.8-1.8-.6-3.9-.6-7.2v-27.2c0-8.3,4.2-18.3,11-23.2,3-2.1,7.2-2.8,11-2.6,2.1.1,4.4.5,6.3.2,3.1-.5,5.6-3.5,8.7-4.4,4.3-1.5,9.4-1.1,13.4.8,4.4,2.1,7.6,6,10.5,9.9,6.3,8.5,8.7,19.3,9.7,29.7v.2-.2Z"/>
  <path d="M211.5,80.4c-1.3-3.9-3.6-7.3-5.7-10.9-2.2-3.4-3.4-7.4-6-10.5-2.3-2.7-5.8-3.1-9.1-3.2-3.9,0-8.3.5-10.9,3.3-2,1.8-2.7,4.5-2.8,7.6,0,2.9,0,6.2,1,8.7,3.3,6.8,14.6,7.2,20.1,3,2.1-1.2,3.1,1.3,4,2.9,1,2,2.3,4.1,4.4,5,3.8,1.5,6.3-2.4,5-5.8v-.2h0ZM193.1,67.6c-.5,2-1.3,5-3.8,5s-3.4-.7-3.8-2.2c-.5-2.6-.2-6.1,3.2-6,1.2,0,3.3-.2,4.3.2.9.3.4,1.8.2,2.8v.2h0Z"/>
  <path d="M248.9,75.7c.2,3.5-3.6,4.8-6.3,3.1-3.9-2.1-7.3-4.9-11.3-7-1.3-.7-3.2-2.2-4.6-1.2-.9.6-.2,4.4,0,6.2.2,3.6.4,9-3.2,10.1-4.1.9-5-4.5-5.3-7.6-.3-3-.9-5.8-1.7-8.6-1.9-7.5-5-14.4-5.9-22.1-.9-6.4-2.5-12.3-2.6-18.9.4-4.1-1.5-14.5,2.7-16.3,7.3-2,5.4,8.8,5.7,13.1,0,5.2.7,8,1.4,12.3.7,4.5,1.4,9,2.6,13.4,1.5,6.4,5.2,2.9,9.5,0,1.1-.7,2.3-1.4,3.6-1.9,3.4-1.5,8.1.6,6.5,4.5-.9,2.6-4.2,3.7-5.5,6-1.6,4.4,14.5,8.2,14.6,14.9v.2-.2h-.2Z"/>
  <path d="M279.4,62.7c-1.4-5.6-3.7-12.2-9.5-14.5-4.2-1.7-9.8-1.5-13.2,1.7-4.7,4.5-5.7,11.5-6.5,17.8-1.6,10.2,6.6,17.8,16.5,18.3,2.9.2,6,.4,8.4-.8,2.5-1.2,2.5-4.5.4-5.9-2.9-1.8-7.1-1.2-10.2-2.3-1.1-.4-5.5-2.3-4.3-3.6,2-1,5.6-.4,7.9-.6,4.3,0,7.5.2,9.3-1.6,2.1-2.2,1.9-5.5,1.2-8.3v-.2h0ZM270.7,64.1c-.1.5-.9.5-2.3.5h-3.4c-1.5-.2-5.5.7-5.6-1.1,0-1.3.7-2.6,1.2-3.8.8-1.9,1.7-4.1,3.5-4.3,3.3-.2,4.9,3.3,5.9,5.9.4,1.1.9,2.2.8,2.7h-.1Z"/>
  <path d="M328.6,73.8c-2.9,0-5.1,2.8-8,3.4-3.6.8-8.1,0-10.8-2.6-.7-.7-1.5-1.8-.8-2.7.6-.7,2.1-1.1,3.9-1.3,4.1-.3,8.1-.9,11.8-2.4,5.7-1.8,6.3-10.8,2.1-14.5-2.8-2.5-6.6-3.5-10.4-3.6-3.2,0-7,.5-9.4,2.5-5.7,4.9-7.9,13-7.9,20.2.5,9.9,11.9,13.3,20.4,13.2,2.9,0,5.7-.4,7.6-1.6,2.7-1.5,5.3-4.8,4.8-7.7-.2-1.6-1.6-3-3.2-3h-.2.1ZM310.6,62c.8-3.1,4.8-4,7.6-3.5.9,0,2.9,1.3,1.8,2-1.9.9-4.3,1-6.2,1.6-.9.2-2.5.8-3.2,0h0Z"/>
  <path d="M375.8,58.9c-1.3-2.5-3.7-4.8-3.5-7.8.1-2.3,1.7-4.3,2-7.4.6-5.7.5-12.3-2.9-17-4-5.6-10.3-8-17-7.5-5.7,0-11.3-.4-15.2,3.6-2.5,2.2-2.7,6-2.6,9.9-.1,6.3,0,12.5.9,18.6.2,5.3,0,11,.9,16.3.5,4.3,0,9.3,1.5,13,3.6,7.3,15.1,8.5,22.3,6.8,6.3-1.8,11.6-7,14.4-12.8,1.5-4.4,1.6-11-.7-15.5v-.2h0ZM368.9,70.1c-2.3,7.7-13.5,13-19.9,7.2-3-3-2-7.9-2.5-11.7-.2-2.5-.6-4.7-.7-7.2-.3-4.4,0-9.1-.7-13.3-.5-4.6-1.1-10.8.1-15,.9-2.6,4.3-2.5,6.7-2.7,5.6-.5,11.4,1.6,13.6,7.1,2.2,5.3-.1,11.1-5,13.6-2.8,1.7-6.5,1.9-8.7,4.2-2.6,3.6,1.5,6.1,5,6.1s9.1.2,10.9,4.1c1.3,2.3,2,5,1.3,7.5v.2h-.1,0Z"/>
  <path d="M414.5,55.5c-3-6-11.6-5.9-17.2-5-4,1-6.9,4.4-9.3,7.6-4.7,6.7-4.5,17.5,4.2,20.7,3.5,1.3,7.4,1.2,11.5,1.1,1.8,0,3.3-.3,4.7-1.2,5.8-4.4,9-16.1,6-22.9v-.2h0ZM407.5,62.8c-.2,1.2-.7,2.5-1.1,3.7-.7,1.9-1.3,4-2.9,4.8s-3.5.7-5.3.4c-4.6-.7-6-4.1-3.7-7.8,1.4-2.9,3.7-4.8,7-5.2,2.8-.6,6.7.4,6.1,4v.2h-.1Z"/>
  <path d="M446.7,56.7c-2.4-4.5-6.9-4.3-11.2-5.7-2.3-.8-4.2-1.9-6.6-1.6-3.6.5-6.7,3.3-8,6.5-1.5,4.3-1.6,9.8.5,14,3.1,4.8,7.4,9.6,13.4,10.1,10.1,1.3,14.6-6.7,13.8-16.1,0-2.7-.6-5.3-1.7-7.1v-.2h-.2,0ZM439.9,69.3c-3,6.5-10.6-1-11.7-5.5-.4-1.3-.3-3.2,1.1-3.8.7-.3,1.6-.2,2.3,0,2.1.2,5.2-.2,6.6.6,2.5,1.4,2.2,6.2,1.6,8.6v.2h.1Z"/>
  <path d="M486.1,78.8c-2.1,1.9-5.3.4-7.2-1.2-3.6-3.1-6.9-6.6-10.7-9.4-.9-.6-1.9-1.6-3.1-1.3-1.2.4-1.1,2.6-.8,5.4.3,3,.8,6.4-.5,9.1-1.9,3.9-6,2.5-7.1-1.4-2-6.7-1.1-15.4-2.3-21.9-1.4-7.7-2.1-15.5-2.9-23.3-.6-3.9-1.9-7.9-1.3-11.9.3-3.3,2.8-6.2,5.8-4.4,2.1,1.6,2.4,4.7,2.8,7.1,1.4,6.6,1.9,13.3,2.7,19.9,1.4,9.6,5.6.5,10.2-.9,3.5-1.4,6.8,1.5,5.2,5.1-.9,3-5,4.9-5,8.2.2,1.8,2.5,3.4,4.8,5.4,3.2,3.4,13.1,10.5,9.3,15.1h-.1l.2.4Z"/>
  <path d="M461.9,105.7c0,1.9-1.8,3.9-3,4H119.2c-2,0-3.6-2.4-3.4-4.4.2-2.1,1.5-3.6,3.2-3.8h339.6c1.7.2,3.2,1.9,3.3,4h0v.2Z"/>
  <g>
    <path d="M87.2,92.1c0-2.6-1.3-4.5-1.8-7-.7-3.3.3-6.9.5-10.2.2-3.5.2-7,0-10.5-.2-13.7-.4-27.4-.6-41.2,0-4.7,1.2-11.7-2.3-15.4-3.7-3.9-11.4-4-16.5-4.2-7.3-.3-14.7.3-22,0-8.2-.5-16.4-2-24.6-1.6-5.4.3-11.5.8-15.2,5.2-2.4,2.8-3.1,6.4-3.1,10-.2.5-.4,1.1-.4,1.8.3,14.4,1.1,29,.6,43.4-.2,6.9-1.2,13.2-.6,20.1.6,7-.7,13.9-.4,20.8.2,4.5,1,8.7,5.4,10.8,5.6,2.6,13.8,2.1,19.8,2.1,14,0,28-1.8,42-1,4.2.2,8.8.8,12.7-1.2,5.5-2.8,5.6-7.9,5.5-13.3,0-2.9.8-5.7.8-8.6h.1ZM78,106.4c-2.4,2.6-10.6.7-13.5.6-11.5-.3-22.9.9-34.4,1.1-5.1,0-10.2,0-15.2-.5-3.5-.4-5.6-.3-5.8-4.4-.1-2.7,0-5.4.3-8.1.4-6.3-.2-12.2-.4-18.5-.1-6.4,1.1-12.8,1.1-19.3,0-10.9-.3-21.8-.6-32.8.4-.6.7-1.4.6-2.4-.4-3.4-1.3-8.7,2-10.8,4.3-2.8,12.5-1.6,17.4-1.3,10.7.7,21,1.5,31.8,1.5s13.1-1,15.6,1.9c1.3,1.5.6,5.8.6,7.8,0,2.9,0,5.7,0,8.6.2,10.8.3,21.6.5,32.5,0,5,.2,10-.3,15-.2,2.4-.5,4.8-.3,7.2.2,2.6,1.8,5,1.9,7.5,0,2.3-.9,4.6-.9,7s1.1,5.8-.4,7.4h0Z"/>
    <path d="M64.6,20.2c-13.6-.6-27.3-.7-40.9-.5-5.1,0-5.2,8.1,0,8,13.7-.3,27.3,0,40.9.5,5.1.2,5.1-7.8,0-8Z"/>
    <path d="M64,36.3c-13.3.7-26.5.6-39.8-.2-5.1-.3-5.1,7.7,0,8,13.3.8,26.5.8,39.8.2,5.1-.3,5.2-8.3,0-8Z"/>
    <path d="M48.9,91.5h-9.6c-5.1,0-5.2,8,0,8h9.6c5.1,0,5.2-8,0-8Z"/>
    <path d="M63.7,52.6c-2.7-.2-5.1.2-7.8.7-3.7.6-7.1,0-10.8-.2-6.9-.4-13.8-.3-20.7,0-5.1,0-5.2,8.1,0,8,6.9-.2,13.8-.3,20.7,0,3.1.2,6.2.7,9.3.4s6.1-1.1,9.3-.9c5.1.4,5.1-7.6,0-8Z"/>
    <path d="M63.4,69.6c-12.9.2-25.8.2-38.7,0-5.1,0-5.2,7.9,0,8,12.9.2,25.8.2,38.7,0,5.1,0,5.2-8.1,0-8Z"/>
  </g>
</svg>