<?xml version="1.0" encoding="UTF-8"?><svg id="Layer_2" xmlns="http://www.w3.org/2000/svg" viewBox="0 0 1147.38 339.13"><defs><style>.cls-1{fill:#fff;}</style></defs><g id="Layer_2-2"><path d="M333.09,144.29l.86,9.92c5.99-7.66,14.04-11.48,24.14-11.48,10.68,0,17.89,4.25,21.64,12.73,5.73-8.49,14.01-12.73,24.84-12.73,17.13,0,25.94,10.37,26.41,31.09v55h-26.41v-53.36c0-4.32-.73-7.47-2.19-9.45-1.46-1.98-4.12-2.97-7.97-2.97-5.21,0-9.09,2.32-11.64,6.95l.08,1.09v57.73h-26.41v-53.2c0-4.43-.7-7.63-2.11-9.61-1.41-1.98-4.09-2.97-8.05-2.97-5.05,0-8.91,2.32-11.56,6.95v58.83h-26.33v-84.53h24.69Z"/><path d="M493.63,228.82c-.94-1.72-1.77-4.24-2.5-7.58-4.84,6.09-11.62,9.14-20.31,9.14-7.97,0-14.74-2.41-20.31-7.23-5.57-4.82-8.36-10.87-8.36-18.16,0-9.17,3.38-16.09,10.16-20.78,6.77-4.69,16.61-7.03,29.53-7.03h8.12v-4.47c0-7.8-3.36-11.7-10.08-11.7-6.25,0-9.38,3.09-9.38,9.26h-26.33c0-8.17,3.48-14.8,10.43-19.9s15.82-7.65,26.6-7.65,19.3,2.63,25.55,7.89c6.25,5.26,9.45,12.47,9.61,21.64v37.42c.1,7.76,1.3,13.7,3.59,17.81v1.33h-26.33ZM477.15,211.64c3.28,0,6-.7,8.16-2.11,2.16-1.41,3.71-2.99,4.65-4.77v-13.52h-7.66c-9.17,0-13.75,4.12-13.75,12.34,0,2.4.81,4.34,2.42,5.82,1.61,1.48,3.67,2.23,6.17,2.23Z"/><path d="M564.88,197.34l-7.42,7.42v24.06h-26.33v-120.08h26.33v63.75l2.66-3.52,19.84-24.69h31.56l-29.61,34.77,31.56,49.77h-30.16l-18.44-31.48Z"/><path d="M659.34,230.39c-12.97,0-23.46-3.87-31.48-11.6-8.02-7.73-12.03-17.8-12.03-30.2v-2.19c0-8.64,1.6-16.28,4.8-22.89,3.2-6.61,7.88-11.73,14.02-15.35,6.15-3.62,13.44-5.43,21.88-5.43,11.88,0,21.25,3.69,28.12,11.05,6.88,7.37,10.31,17.64,10.31,30.82v10.23h-52.34c.94,4.74,2.99,8.46,6.17,11.17,3.18,2.71,7.29,4.06,12.34,4.06,8.33,0,14.84-2.92,19.53-8.75l12.03,14.22c-3.28,4.53-7.93,8.14-13.95,10.82s-12.49,4.02-19.41,4.02ZM656.37,163.04c-7.71,0-12.29,5.11-13.75,15.31h26.56v-2.03c.1-4.22-.96-7.49-3.2-9.8-2.24-2.32-5.44-3.48-9.61-3.48Z"/><path d="M777.3,180.54h-43.12v27.19h50.94v21.09h-78.36v-113.75h78.52v21.17h-51.09v23.98h43.12v20.31Z"/><path d="M873.55,187.26c0,13.86-2.87,24.51-8.59,31.95-5.73,7.45-13.8,11.17-24.22,11.17-8.59,0-15.52-3.41-20.78-10.23l-1.09,8.67h-23.59v-120h26.33v42.27c4.9-5.57,11.22-8.36,18.98-8.36,10.52,0,18.65,3.78,24.38,11.33,5.73,7.55,8.59,18.18,8.59,31.88v1.33ZM847.15,185.58c0-8.11-1.08-13.9-3.24-17.35-2.16-3.46-5.48-5.19-9.96-5.19-5.94,0-10.05,2.26-12.34,6.79v33.54c2.24,4.47,6.41,6.71,12.5,6.71s10.13-3.02,11.8-9.05c.83-2.96,1.25-8.11,1.25-15.44Z"/><path d="M881.84,185.78c0-8.44,1.64-15.95,4.92-22.54,3.28-6.59,7.99-11.65,14.14-15.2,6.15-3.54,13.36-5.31,21.64-5.31,12.66,0,22.63,3.92,29.92,11.76,7.29,7.84,10.94,18.5,10.94,31.99v.94c0,13.18-3.66,23.63-10.98,31.37-7.32,7.73-17.23,11.6-29.73,11.6s-21.69-3.61-28.98-10.82c-7.29-7.21-11.22-16.99-11.8-29.34l-.08-4.45ZM908.16,187.42c0,7.81,1.22,13.54,3.67,17.19,2.45,3.65,6.07,5.47,10.86,5.47,9.38,0,14.17-7.21,14.38-21.64v-2.66c0-15.16-4.84-22.73-14.53-22.73-8.8,0-13.57,6.54-14.3,19.61l-.08,4.77Z"/><path d="M971.68,185.78c0-8.44,1.64-15.95,4.92-22.54,3.28-6.59,7.99-11.65,14.14-15.2,6.15-3.54,13.36-5.31,21.64-5.31,12.66,0,22.63,3.92,29.92,11.76,7.29,7.84,10.94,18.5,10.94,31.99v.94c0,13.18-3.66,23.63-10.98,31.37-7.32,7.73-17.23,11.6-29.73,11.6s-21.69-3.61-28.98-10.82c-7.29-7.21-11.22-16.99-11.8-29.34l-.08-4.45ZM998.01,187.42c0,7.81,1.22,13.54,3.67,17.19,2.45,3.65,6.07,5.47,10.86,5.47,9.38,0,14.17-7.21,14.38-21.64v-2.66c0-15.16-4.84-22.73-14.53-22.73-8.8,0-13.57,6.54-14.3,19.61l-.08,4.77Z"/><path d="M1098.79,197.34l-7.42,7.42v24.06h-26.33v-120.08h26.33v63.75l2.66-3.52,19.84-24.69h31.56l-29.61,34.77,31.56,49.77h-30.16l-18.44-31.48Z"/><path d="M218.44,76.3s-.01-.01-.02-.01l-.64-.4c-.19-.12-.39-.19-.59-.2-.05,0-.11,0-.16,0l1.54.7-.13-.08Z"/><path d="M152.83,270.66s-.03,0-.04.02c.01,0,.02,0,.04-.01.01,0,.02,0,.04-.02-.01,0-.03,0-.04.01ZM155.37,269.59s-.05.01-.07.02h0c-.06.03-.13.06-.19.08-.07.03-.13.06-.2.09-.14.05-.27.11-.39.16-.07.02-.14.05-.21.08-.13.06-.27.11-.4.17-.38.16-.73.31-.99.43.06-.03.13-.05.2-.08.14-.05.29-.11.44-.18.88-.36,1.78-.74,2.63-1.09-.25.09-.53.2-.82.32ZM152.83,270.66s-.03,0-.04.02c.01,0,.02,0,.04-.01.01,0,.02,0,.04-.02-.01,0-.03,0-.04.01ZM155.37,269.59s-.05.01-.07.02h0c-.06.03-.13.06-.19.08-.07.03-.13.06-.2.09-.14.05-.27.11-.39.16-.07.02-.14.05-.21.08-.13.06-.27.11-.4.17-.38.16-.73.31-.99.43.06-.03.13-.05.2-.08.14-.05.29-.11.44-.18.88-.36,1.78-.74,2.63-1.09-.25.09-.53.2-.82.32ZM152.83,270.66s-.03,0-.04.02c.01,0,.02,0,.04-.01.01,0,.02,0,.04-.02-.01,0-.03,0-.04.01ZM155.37,269.59s-.05.01-.07.02h0c-.06.03-.13.06-.19.08-.07.03-.13.06-.2.09-.14.05-.27.11-.39.16-.07.02-.14.05-.21.08-.13.06-.27.11-.4.17-.38.16-.73.31-.99.43.06-.03.13-.05.2-.08.14-.05.29-.11.44-.18.88-.36,1.78-.74,2.63-1.09-.25.09-.53.2-.82.32ZM152.83,270.66s-.03,0-.04.02c.01,0,.02,0,.04-.01.01,0,.02,0,.04-.02-.01,0-.03,0-.04.01ZM155.37,269.59s-.05.01-.07.02h0c-.06.03-.13.06-.19.08-.07.03-.13.06-.2.09-.14.05-.27.11-.39.16-.07.02-.14.05-.21.08-.13.06-.27.11-.4.17-.38.16-.73.31-.99.43.06-.03.13-.05.2-.08.14-.05.29-.11.44-.18.88-.36,1.78-.74,2.63-1.09-.25.09-.53.2-.82.32ZM152.83,270.66s-.03,0-.04.02c.01,0,.02,0,.04-.01.01,0,.02,0,.04-.02-.01,0-.03,0-.04.01ZM155.37,269.59s-.05.01-.07.02h0c-.06.03-.13.06-.19.08-.07.03-.13.06-.2.09-.14.05-.27.11-.39.16-.07.02-.14.05-.21.08-.13.06-.27.11-.4.17-.38.16-.73.31-.99.43.06-.03.13-.05.2-.08.14-.05.29-.11.44-.18.88-.36,1.78-.74,2.63-1.09-.25.09-.53.2-.82.32ZM152.83,270.66s-.03,0-.04.02c.01,0,.02,0,.04-.01.01,0,.02,0,.04-.02-.01,0-.03,0-.04.01ZM155.37,269.59s-.05.01-.07.02h0c-.06.03-.13.06-.19.08-.07.03-.13.06-.2.09-.14.05-.27.11-.39.16-.07.02-.14.05-.21.08-.13.06-.27.11-.4.17-.38.16-.73.31-.99.43.06-.03.13-.05.2-.08.14-.05.29-.11.44-.18.88-.36,1.78-.74,2.63-1.09-.25.09-.53.2-.82.32ZM152.83,270.66s-.03,0-.04.02c.01,0,.02,0,.04-.01.01,0,.02,0,.04-.02-.01,0-.03,0-.04.01ZM155.37,269.59s-.05.01-.07.02h0c-.06.03-.13.06-.19.08-.07.03-.13.06-.2.09-.14.05-.27.11-.39.16-.07.02-.14.05-.21.08-.13.06-.27.11-.4.17-.38.16-.73.31-.99.43.06-.03.13-.05.2-.08.14-.05.29-.11.44-.18.88-.36,1.78-.74,2.63-1.09-.25.09-.53.2-.82.32ZM152.83,270.66s-.03,0-.04.02c.01,0,.02,0,.04-.01.01,0,.02,0,.04-.02-.01,0-.03,0-.04.01ZM155.37,269.59s-.05.01-.07.02h0c-.06.03-.13.06-.19.08-.07.03-.13.06-.2.09-.14.05-.27.11-.39.16-.07.02-.14.05-.21.08-.13.06-.27.11-.4.17-.38.16-.73.31-.99.43.06-.03.13-.05.2-.08.14-.05.29-.11.44-.18.88-.36,1.78-.74,2.63-1.09-.25.09-.53.2-.82.32ZM152.83,270.66s-.03,0-.04.02c.01,0,.02,0,.04-.01.01,0,.02,0,.04-.02-.01,0-.03,0-.04.01ZM155.37,269.59s-.05.01-.07.02h0c-.06.03-.13.06-.19.08-.07.03-.13.06-.2.09-.14.05-.27.11-.39.16-.07.02-.14.05-.21.08-.13.06-.27.11-.4.17-.38.16-.73.31-.99.43.06-.03.13-.05.2-.08.14-.05.29-.11.44-.18.88-.36,1.78-.74,2.63-1.09-.25.09-.53.2-.82.32ZM152.83,270.66s-.03,0-.04.02c.01,0,.02,0,.04-.01.01,0,.02,0,.04-.02-.01,0-.03,0-.04.01ZM155.37,269.59s-.05.01-.07.02h0c-.06.03-.13.06-.19.08-.07.03-.13.06-.2.09-.14.05-.27.11-.39.16-.07.02-.14.05-.21.08-.13.06-.27.11-.4.17-.38.16-.73.31-.99.43.06-.03.13-.05.2-.08.14-.05.29-.11.44-.18.88-.36,1.78-.74,2.63-1.09-.25.09-.53.2-.82.32ZM152.83,270.66s-.03,0-.04.02c.01,0,.02,0,.04-.01.01,0,.02,0,.04-.02-.01,0-.03,0-.04.01ZM155.37,269.59s-.05.01-.07.02h0c-.06.03-.13.06-.19.08-.07.03-.13.06-.2.09-.14.05-.27.11-.39.16-.07.02-.14.05-.21.08-.13.06-.27.11-.4.17-.38.16-.73.31-.99.43.06-.03.13-.05.2-.08.14-.05.29-.11.44-.18.88-.36,1.78-.74,2.63-1.09-.25.09-.53.2-.82.32ZM152.83,270.66s-.03,0-.04.02c.01,0,.02,0,.04-.01.01,0,.02,0,.04-.02-.01,0-.03,0-.04.01ZM155.37,269.59s-.05.01-.07.02h0c-.06.03-.13.06-.19.08-.07.03-.13.06-.2.09-.14.05-.27.11-.39.16-.07.02-.14.05-.21.08-.13.06-.27.11-.4.17-.38.16-.73.31-.99.43.06-.03.13-.05.2-.08.14-.05.29-.11.44-.18.88-.36,1.78-.74,2.63-1.09-.25.09-.53.2-.82.32ZM152.83,270.66s-.03,0-.04.02c.01,0,.02,0,.04-.01.01,0,.02,0,.04-.02-.01,0-.03,0-.04.01ZM155.37,269.59s-.05.01-.07.02h0c-.06.03-.13.06-.19.08-.07.03-.13.06-.2.09-.14.05-.27.11-.39.16-.07.02-.14.05-.21.08-.13.06-.27.11-.4.17-.38.16-.73.31-.99.43.06-.03.13-.05.2-.08.14-.05.29-.11.44-.18.88-.36,1.78-.74,2.63-1.09-.25.09-.53.2-.82.32ZM152.83,270.66s-.03,0-.04.02c.01,0,.02,0,.04-.01.01,0,.02,0,.04-.02-.01,0-.03,0-.04.01ZM155.37,269.59s-.05.01-.07.02h0c-.06.03-.13.06-.19.08-.07.03-.13.06-.2.09-.14.05-.27.11-.39.16-.07.02-.14.05-.21.08-.13.06-.27.11-.4.17-.38.16-.73.31-.99.43.06-.03.13-.05.2-.08.14-.05.29-.11.44-.18.88-.36,1.78-.74,2.63-1.09-.25.09-.53.2-.82.32ZM152.83,270.66s-.03,0-.04.02c.01,0,.02,0,.04-.01.01,0,.02,0,.04-.02-.01,0-.03,0-.04.01ZM155.37,269.59s-.05.01-.07.02h0c-.06.03-.13.06-.19.08-.07.03-.13.06-.2.09-.14.05-.27.11-.39.16-.07.02-.14.05-.21.08-.13.06-.27.11-.4.17-.38.16-.73.31-.99.43.06-.03.13-.05.2-.08.14-.05.29-.11.44-.18.88-.36,1.78-.74,2.63-1.09-.25.09-.53.2-.82.32ZM152.83,270.66s-.03,0-.04.02c.01,0,.02,0,.04-.01.01,0,.02,0,.04-.02-.01,0-.03,0-.04.01ZM155.37,269.59s-.05.01-.07.02h0c-.06.03-.13.06-.19.08-.07.03-.13.06-.2.09-.14.05-.27.11-.39.16-.07.02-.14.05-.21.08-.13.06-.27.11-.4.17-.38.16-.73.31-.99.43.06-.03.13-.05.2-.08.14-.05.29-.11.44-.18.88-.36,1.78-.74,2.63-1.09-.25.09-.53.2-.82.32ZM152.83,270.66s-.03,0-.04.02c.01,0,.02,0,.04-.01.01,0,.02,0,.04-.02-.01,0-.03,0-.04.01ZM155.37,269.59s-.05.01-.07.02h0c-.06.03-.13.06-.19.08-.07.03-.13.06-.2.09-.14.05-.27.11-.39.16-.07.02-.14.05-.21.08-.13.06-.27.11-.4.17-.38.16-.73.31-.99.43.06-.03.13-.05.2-.08.14-.05.29-.11.44-.18.88-.36,1.78-.74,2.63-1.09-.25.09-.53.2-.82.32ZM152.83,270.66s-.03,0-.04.02c.01,0,.02,0,.04-.01.01,0,.02,0,.04-.02-.01,0-.03,0-.04.01ZM155.37,269.59s-.05.01-.07.02h0c-.06.03-.13.06-.19.08-.07.03-.13.06-.2.09-.14.05-.27.11-.39.16-.07.02-.14.05-.21.08-.13.06-.27.11-.4.17-.38.16-.73.31-.99.43.06-.03.13-.05.2-.08.14-.05.29-.11.44-.18.88-.36,1.78-.74,2.63-1.09-.25.09-.53.2-.82.32ZM152.83,270.66s-.03,0-.04.02c.01,0,.02,0,.04-.01.01,0,.02,0,.04-.02-.01,0-.03,0-.04.01ZM155.37,269.59s-.05.01-.07.02h0c-.06.03-.13.06-.19.08-.07.03-.13.06-.2.09-.14.05-.27.11-.39.16-.07.02-.14.05-.21.08-.13.06-.27.11-.4.17-.38.16-.73.31-.99.43.06-.03.13-.05.2-.08.14-.05.29-.11.44-.18.88-.36,1.78-.74,2.63-1.09-.25.09-.53.2-.82.32ZM152.83,270.66s-.03,0-.04.02c.01,0,.02,0,.04-.01.01,0,.02,0,.04-.02-.01,0-.03,0-.04.01ZM155.37,269.59s-.05.01-.07.02h0c-.06.03-.13.06-.19.08-.07.03-.13.06-.2.09-.14.05-.27.11-.39.16-.07.02-.14.05-.21.08-.13.06-.27.11-.4.17-.38.16-.73.31-.99.43.06-.03.13-.05.2-.08.14-.05.29-.11.44-.18.88-.36,1.78-.74,2.63-1.09-.25.09-.53.2-.82.32ZM152.83,270.66s-.03,0-.04.02c.01,0,.02,0,.04-.01.01,0,.02,0,.04-.02-.01,0-.03,0-.04.01ZM155.37,269.59s-.05.01-.07.02h0c-.06.03-.13.06-.19.08-.07.03-.13.06-.2.09-.14.05-.27.11-.39.16-.07.02-.14.05-.21.08-.13.06-.27.11-.4.17-.38.16-.73.31-.99.43.06-.03.13-.05.2-.08.14-.05.29-.11.44-.18.88-.36,1.78-.74,2.63-1.09-.25.09-.53.2-.82.32ZM152.83,270.66s-.03,0-.04.02c.01,0,.02,0,.04-.01.01,0,.02,0,.04-.02-.01,0-.03,0-.04.01ZM155.37,269.59s-.05.01-.07.02h0c-.06.03-.13.06-.19.08-.07.03-.13.06-.2.09-.14.05-.27.11-.39.16-.07.02-.14.05-.21.08-.13.06-.27.11-.4.17-.38.16-.73.31-.99.43.06-.03.13-.05.2-.08.14-.05.29-.11.44-.18.88-.36,1.78-.74,2.63-1.09-.25.09-.53.2-.82.32ZM152.83,270.66s-.03,0-.04.02c.01,0,.02,0,.04-.01.01,0,.02,0,.04-.02-.01,0-.03,0-.04.01ZM155.37,269.59s-.05.01-.07.02h0c-.06.03-.13.06-.19.08-.07.03-.13.06-.2.09-.14.05-.27.11-.39.16-.07.02-.14.05-.21.08-.13.06-.27.11-.4.17-.38.16-.73.31-.99.43.06-.03.13-.05.2-.08.14-.05.29-.11.44-.18.88-.36,1.78-.74,2.63-1.09-.25.09-.53.2-.82.32ZM152.83,270.66s-.03,0-.04.02c.01,0,.02,0,.04-.01.01,0,.02,0,.04-.02-.01,0-.03,0-.04.01ZM155.37,269.59s-.05.01-.07.02h0c-.06.03-.13.06-.19.08-.07.03-.13.06-.2.09-.14.05-.27.11-.39.16-.07.02-.14.05-.21.08-.13.06-.27.11-.4.17-.38.16-.73.31-.99.43.06-.03.13-.05.2-.08.14-.05.29-.11.44-.18.88-.36,1.78-.74,2.63-1.09-.25.09-.53.2-.82.32Z"/><path d="M156.31,269.22c-1.18.49-2.47,1.03-3.66,1.52.64-.31,2.56-1.1,3.66-1.52Z"/><path d="M216.19,123.19h.01l.98-2.58-.99,2.58ZM223.98,102.8l-1.08,2.85.69-1.79.4-1.06h-.01Z"/><path d="M156.31,269.22c-1.18.49-2.47,1.03-3.66,1.52.64-.31,2.56-1.1,3.66-1.52Z"/><path d="M169.39,129.22l-.16.5-.39,1.17h0s-.45,1.37-.45,1.37h0s-.12.37-.12.37c-.05.12-.09.25-.13.37l-.12.38c-.04.1-.07.2-.1.3l-.22.66c-.03.1-.06.2-.09.29l-.25.74-.13.41c-.09.27-.18.55-.28.82l-.4,1.22c-.04.14-.09.27-.13.41-.05.13-.09.27-.14.4l-.13.4c-.04.13-.09.26-.13.39,1.23-3.35,2.58-7,3.52-10.63-.05.13-.1.28-.15.43ZM234.22,149.01c-3.23-8.66-7.37-16.22-12.56-23.07l.4-1.03,27.73,3.03h.12s30.9,3.22,30.9,3.22c1.77-.32,3.25-1.09,4.14-2.61,1.91-3.07-.04-7.08-3.34-8.11l-52.94-16.2,3.99-10.44c1.35.13,5.66,2.3,5.32-.7l-1.72-8.19c-.18-.85.47-1.64,1.34-1.64,1.29-.17,5.38.78,4.73-1.77l-5.24-17.17c-.61-2.03-3.31-.15-4.46.18l-2.3-6.87-.1-.25c-3.01-8.27-18.26-1.87-24.13-1.8,2.61-6.6-2.21-14.19-9.29-14.64l-17.06-1.35C181.26,1.85,144.52-6.74,117.37,4.71c-2.98,1.07-15.86,6.26-18.76,6.52-4.27,1.51,8.98,11.29,3.59,12.17h-6.75c-.86,0-1.51.79-1.34,1.63,2.79,14,3.62,7.78-10.88,18.18-.8.51-.84,1.65-.1,2.23l9.43,7.28c3.22,2.9-9.05,5.09-9.49,6.98C57.01,52.45,7.5,27.91.42,71.36c-2.53,11.93,6.8,24.38,18.84,25.77l47.56,6.29c-17.75,17.43-36.63,64.39-6.06,103.46,4,4.9,9.47,13.04,12.85,24.04,3.49,11.33,15.29,27.67,21.17,35.38l-22.79,17.86c-3.84,2.85-3.68,9.16.32,11.79,1.92-.03,62.88,47.27,64.32,41.96,4.96-2.99,10.24-7.49,5.91-13.55l-14-18.18h0c-4.05-5.07,15.81-5.9,23.51-21.84,7.28,7.1,10.09,17.72,7.09,27.45l-5.44,17.85c-1.51,4.56,2.21,9.59,7.02,9.48h73.29c3.57.27,4.21-5.14,5.25-7.47,1.45-3.78-.82-8.33-4.7-9.46l-21.9-6.89c-1.53-.44-2.23-2.43-1.28-3.71,12.67-18.04,9.01-35.35.56-45.82,26.71-32.48,37.43-71.49,24.3-110.9M230.06,151.86c-.02-.06-.04-.12-.06-.18.02.06.06.12.06.18ZM223.11,58.48c.85-.14,1.69.3,2.08,1.06l3.16,9.42h.03s1.27,3.69,1.27,3.69c.48,4.44-5.96-1.53-5.84,2.59.12.94.86,2.85-.34,3.35-1.77-.73-3.44-1.52-5.03-2.29-.01,0-.01-.01-.02-.01-.42-.2-.83-.4-1.23-.6-8.04-3.92-14.29-6.9-23.16,1.39-1.56-.49-3.38-1.07-5-1.14-.12-.07-7.08-8.14-7.19-8.23-.77-.87-.15-2.24,1.01-2.26l8.95-.16c-.05.26,6.45-2.82,6.99-3.02l-.25.04c.16-.04.31-.08.46-.13l-.18.08,24.29-3.78ZM119.36,9.81c20.52-8.27,54.99-7.81,54.94,29.35l-15.71-1.24c-3.61-.18-4.04,5.05-.44,5.45l38.22,3.03c3.81.21,6.21,4.69,4.29,7.97-13.52-6.56-8.1-8.94-19.08.31-.43.35-1.02.42-1.52.16-1.1-.33-3.63-2.63-4.72-1.4-1.09.54-3.89,4.97-5.41,3.76-8.58-4.72-7.28-7.89-11.44,1.22-.59,1.21-2.39.93-2.58-.41-.3-1.28-.04-5.23-2.43-4.19l-6.73,3.44c-.91.47-1.99-.19-1.99-1.22v-15.75c0-1.14-1.31-1.78-2.21-1.08l-7.13,5.53c-.99.78-2.41-.09-2.18-1.33-.27-.76,4.54-18.75,2.54-18.56l-22.95-12.58,6.53-2.46ZM71.22,99.07l-51.32-6.79c-16.35-2.52-18.65-21.56-9.5-32.99,6.88-9.79,21.25-9.94,31.75-6.99,29.17,8.93,94.82,29.01,123.44,37.76-7.99,5.41-7.49,13.53-2.97,21.11-.01,0-18.18-2.4-18.18-2.4-6.16-7.17-15.49-12.87-25.16-12.89-8.8-.71-17.99,1.57-25.48,6.18l-22.58-2.99ZM88.69,106.32s-.09.09-.13.14c.04-.05.08-.1.12-.14h.01ZM127.93,297.81c-4.57,1.55-6.31,7.6-3.26,11.35l13.99,18.18c.86,1.05.6,2.73-.51,3.48l-3.65,2.6-59.39-41.49c-.64-.44-1.02-1.14-1.04-1.93-1.88-1.04,23.53-19.23,23.84-19.94,11.59,12.35,30.28,9.12,44.77,4.49h0s5.79,6.06,5.8,6.06c-3.76,7.79-10.67,13.58-20.55,17.2ZM207.38,308.78c-2.86,3.89-.82,9.85,3.82,11.18l21.89,6.89c1.3.38,2.05,1.9,1.57,3.16l-1.5,4.22h-72.44c-1.6.04-2.85-1.66-2.35-3.17,9.02-26.35,11.74-37.9-10.47-58.12,1.65-.74,3.17-1.48,4.76-2.2.04-.02.09-.04.13-.06.01,0,.02,0,.04-.01.01,0,.02,0,.04-.02,0,0,.01,0,.02,0,.01-.01.02-.01.03-.02.06-.03.13-.05.2-.08.26-.12.52-.24.79-.35.13-.06.27-.11.4-.17.07-.03.14-.06.21-.08.01,0,.02-.02.03-.02.19-.07.37-.15.56-.23.06-.03.13-.05.19-.08.02-.01.05-.02.07-.02.29-.12.57-.23.82-.32.04-.02.08-.03.12-.05.05-.02.11-.04.16-.06.01,0,.02-.01.03-.01,39.47-16.31,50.44-2.79,50.1-2.24,4.55,5.58,15.45,19.89.78,41.87ZM220.8,124.83c-.29-.39-.61-.76-.91-1.15l1.29.17-.38.98ZM222.22,107.42l-2.67,6.99-.42,1.11c-.14.36-.28.72-.42,1.08l-.4,1.05-1.13,2.96-.98,2.58.17.03s-.36.47-.37.5c-4.28,1.41-10.47,2.5-12.85,6.77l-34.46,53.46c-3.23,6.02-11.74,4.84-17.39,4.88-3.6,3.39-52.44-42.21-55.85-43.91-11.73-9.33-12.7-29.69.34-38.31,6.76-4.45,15.41-6.51,23.49-5.84,8.43.08,16.65,5.28,21.83,11.7h0c.04.06.07.11.11.16.03,0,.12.13.27.37,0,.01,0,.03.02.04,2.34,3.78,17.61,32.4,18.36,33.18.23.26.51.45.82.58.07.03.15.06.23.08h0s0,.01.01.01c.04,0,.08.02.12.03.03.01.06.02.1.02,0,0,.01.01.02.01h.03c.06.01.13.02.2.03.98.09,2.03-.37,2.5-1.3.51-1.76,1.2-3.73,1.97-5.83l.08-.25h0s.03-.09.03-.09c0-.03.02-.06.03-.09,1.23-3.35,2.58-7,3.52-10.63.01-.03.01-.05.02-.08v-.03c1.47-5.63,1.94-11.19-.58-15.45-4.77-9.9-7.06-12.97-1.64-18.3,1.4-1.38,3.32-2.91,5.84-4.75h.02c5.48-3.98,11.69-12.27,19.38-8.42,1.5.46,3.13.18,4.37-.76,7.94-6.86,9.85-4.58,18.41-.71l11.98,5.42c1.52.69,2.24,2.45,1.65,4.01-1.29,3.41-3.29,8.64-5.4,14.14l-.69,1.79-.68,1.77ZM280.46,126.24c-.1.01-1.89.28-1.98.27l-55.51-7.35,3.95-10.34,53.23,16.29c.43.15,1.04.95.31,1.13ZM169.39,129.22l-.16.5-.39,1.17h0s-.45,1.37-.45,1.37h0s-.12.37-.12.37c-.05.12-.09.25-.13.37l-.12.38c-.04.1-.07.2-.1.3l-.22.66c-.03.1-.06.2-.09.29l-.25.74-.13.41c-.09.27-.18.55-.28.82l-.4,1.22c-.04.14-.09.27-.13.41-.05.13-.09.27-.14.4l-.13.4c-.04.13-.09.26-.13.39,1.23-3.35,2.58-7,3.52-10.63-.05.13-.1.28-.15.43Z"/><path d="M142.37,274.66c.1-.03.21-.06.31-.1h0c-.11.03-.21.07-.31.1Z"/><path d="M156.31,269.22c-1.18.49-2.47,1.03-3.66,1.52.64-.31,2.56-1.1,3.66-1.52Z"/><path class="cls-1" d="M216.36,123.22s-.36.47-.37.5l.2-.53.17.02Z"/><rect class="cls-1" x="209.17" y="113" width="21.83" height="0" transform="translate(36 278.29) rotate(-69.1)"/><path class="cls-1" d="M141.5,113.04c-.13-.19-.26-.38-.39-.56.14.18.26.37.39.56Z"/><path class="cls-1" d="M161.82,147c-.4.02-.79-.05-1.14-.2.35.15.75.21,1.14.2Z"/><path class="cls-1" d="M169.84,127.85s-5.78,17.5-5.79,17.5l5.79-17.5Z"/><path class="cls-1" d="M170.46,125.53c-.1.52-.23,1.04-.38,1.55.15-.51.27-1.03.38-1.55Z"/><polygon class="cls-1" points="173.19 90.18 167.02 95.19 173.18 90.18 173.19 90.18"/><path d="M173.18,90.18l-5.84,4.75,5.86-4.75h-.02ZM161.16,146.94s-.07,0-.1-.02c.04.01.07.02.11.03t-.01-.01ZM173.18,90.18l-5.84,4.75,5.86-4.75h-.02ZM161.16,146.94s-.07,0-.1-.02c.04.01.07.02.11.03t-.01-.01ZM173.18,90.18l-5.84,4.75,5.86-4.75h-.02ZM161.16,146.94s-.07,0-.1-.02c.04.01.07.02.11.03t-.01-.01ZM216.2,123.19l-.2.53s.35-.47.37-.5l-.17-.03ZM219.89,123.68c.3.39.62.76.91,1.15l.38-.98-1.29-.17ZM173.18,90.18l-5.84,4.75,5.86-4.75h-.02ZM161.16,146.94s-.07,0-.1-.02c.04.01.07.02.11.03t-.01-.01ZM88.68,106.32s-.08.09-.12.14c.04-.05.09-.09.13-.14h-.01ZM161.16,146.94s-.07,0-.1-.02c.04.01.07.02.11.03t-.01-.01ZM173.18,90.18l-5.84,4.75,5.86-4.75h-.02ZM161.16,146.94s-.07,0-.1-.02c.04.01.07.02.11.03t-.01-.01ZM173.18,90.18l-5.84,4.75,5.86-4.75h-.02ZM161.16,146.94s-.07,0-.1-.02c.04.01.07.02.11.03t-.01-.01ZM173.18,90.18l-5.84,4.75,5.86-4.75h-.02Z"/><path d="M221.17,123.86l-.37.98c-.29-.39-.61-.77-.92-1.15l1.29.17Z"/><path d="M230.06,151.86c-.02-.06-.04-.12-.06-.18.02.06.06.12.06.18Z"/></g></svg>