<?xml version="1.0" encoding="UTF-8"?>
<svg id="Layer_1" xmlns="http://www.w3.org/2000/svg" version="1.1" viewBox="0 0 1567.5 316.8">
  <!-- Generator: Adobe Illustrator 30.5.0, SVG Export Plug-In . SVG Version: 2.1.3 Build 18)  -->
  <path d="M524.2,230c0-4.1,2.6-7.7,6.5-9,3-.9,5.5-2.5,5.5-5.2v-50.3c0-13.7-2.8-23.2-18.3-23.2s-21.6,10.9-21.6,23.7v52.9c0,1.4,1.1,2.6,2.5,2.7h0c4.7.3,8.4,4.2,8.4,9h0c0,5-4,9-9,9h-41.4v-16.5l7-.7c3.9-.5,5.1-1.9,5.1-6.3v-50.3c0-12.8-2.1-23.4-17.9-23.4s-22,11.1-22,24.6v54.3l11.4.9v17.4h-51.3v-16.7l7.2-.7c4.4-.7,5.6-1.9,5.6-7v-67.5c0-5.1-1.4-6.5-5.8-7l-7.4-.5v-17.6h38v16.5h.2c6.5-11.8,18.1-19.5,34.3-19.5s25,5.3,31.8,20.2c7-13.5,19.3-20.2,34.8-20.2,23.2,0,35.7,13.7,35.7,40.1v58.1c0,2,1.6,3.7,3.6,3.8h0c4.7.3,8.4,4.2,8.4,8.9h0c0,4.9-4,8.9-8.9,8.9h-33.1c-5.2,0-9.5-4.2-9.5-9.5h.2,0Z"/>
  <path d="M692.2,215.8c0,4.6,1.2,6.3,5.1,6.5h0c3.8.3,6.7,3.4,6.7,7.2v2.7c0,4-3.2,7.2-7.2,7.2h-18.1c-5.1,0-9.3-4-9.6-9l-.2-3.3-.7-.2c-5.8,8.4-16,15.5-32,15.5-33.9,0-46.4-23.9-46.4-56.4s20.2-66.6,61.2-66.6,24.6,1.6,41.1,7.9v88.4h.1ZM665,143.4c-3.5-1.4-10.4-3-17.4-3-23,0-29.7,21.1-29.7,44.8s4.6,36.4,23.9,36.4,23.2-10.2,23.2-21.1v-57.1Z"/>
  <path d="M792.1,144.7c0-11.6-11.3-12.7-11.3-12.7,0-5.3,4.3-9.6,9.6-9.6h29.1c4.6,0,8.4,3.8,8.4,8.4v1.4c0,4.3-3.2,7.9-7.5,8.4l-3.4.4c-1.4,12.8-8.8,25.3-20.9,34.6l20.8,41.2c1.3,2.6,3.9,4.4,6.9,4.6h0c4.4.3,7.8,4,7.8,8.4v1.2c0,4.6-3.8,8.4-8.4,8.4h-19.6c-3.7,0-7.1-2.1-8.7-5.5l-22-46.5c-5.3,2.1-10,3.2-15.5,3.9v29.7h0c0,.1,2.8.3,2.8.3,4.7.4,8.3,4.3,8.3,9h0c0,5-4.1,9.1-9.1,9.1h-42v-16.7l7.2-.7c3.7-.2,5.6-1.6,5.6-7v-116.2c0-5.1-1.2-6.5-5.3-6.7l-7.9-.7v-17.4h30.8c5.3,0,9.6,4.3,9.6,9.6v89.2c17.4-1.6,34.8-16.5,34.8-28.1"/>
  <path d="M936.2,152.3c0,33.2-28.1,41.3-67.5,39.9,1.2,15.5,8.8,29,29,29s15-2,20.4-4.5c5-2.3,10.9-.2,13,4.9l.7,1.6c2,4.7,0,10.2-4.7,12.4-7.2,3.4-18.6,7.2-32.4,7.2-39.2,0-53.8-25.5-53.8-58.5s20.2-64.7,57.3-64.7,38,10.9,38,32.7ZM897,140c-18.6,0-26.7,17.4-28.3,32.5,3.2.2,6.3.2,9.3.2,20.2,0,33.4-5.1,33.4-19s-5.8-13.7-14.4-13.7Z"/>
  <path d="M954.3,229.4c0-4.3,3-8,7.1-9.3,3.3-1,5.6-2.9,5.6-6.6v-120.1l-3.3-.3c-5-.4-8.9-4.5-8.9-9.6v-9.4h96c5.3,0,9.6,4.3,9.6,9.6v17.3c0,5-3.8,9.1-8.8,9.5l-3.3.3c-5.6.5-10.4-3.9-10.4-9.5v-.5c0-4.2-1.4-6-6-6h-36.4v51.4h45.9c5.3,0,9.6,4.3,9.6,9.6v2.2c0,5.3-4.3,9.6-9.6,9.6h-45.9v51.4h38.8c3.1,0,5.6-2.5,5.6-5.6v-2.4c0-5.6,4.8-10,10.4-9.5l3.3.3c5,.4,8.8,4.6,8.8,9.5v18.7c0,5.3-4.3,9.6-9.6,9.6h-98.5v-10.1h0Z"/>
  <path d="M1117.1,131.4c7.2-7.4,17.9-11.8,29.7-11.8,28.1,0,45,19.7,45,55.4s-20.9,67.7-55.7,67.7-36.7-4.6-46.4-10V98.9c0-4.9-1.6-6.5-5.8-6.7h0c-4.1-.4-7.2-3.8-7.2-7.9v-10.2h40.4v57.3h0ZM1117.1,217c4.6,2.5,12.3,4.6,19.9,4.6,15.8,0,26.7-11.6,26.7-42.4s-4.6-38.5-25.8-38.5-20.9,7.4-20.9,17.9v58.5h.1Z"/>
  <path d="M1264.2,119.5c17.2,0,51.3,5.1,51.3,58.5s-22.7,64.7-55,64.7-51-19.7-51-61.7,30.6-61.5,54.7-61.5ZM1286.5,181.7c0-25.5-5.8-41.3-23.7-41.3s-24.6,15.1-24.6,37.3,3,43.8,23.9,43.8,24.4-16.7,24.4-39.9h0Z"/>
  <path d="M1387.2,119.5c17.2,0,51.3,5.1,51.3,58.5s-22.7,64.7-55,64.7-51-19.7-51-61.7,30.6-61.5,54.7-61.5ZM1409.4,181.7c0-25.5-5.8-41.3-23.7-41.3s-24.6,15.1-24.6,37.3,3,43.8,23.9,43.8,24.4-16.7,24.4-39.9h0Z"/>
  <path d="M1528,144.8c0-11.6-11.3-12.7-11.3-12.7,0-5.3,4.3-9.6,9.6-9.6h29.1c4.6,0,8.4,3.8,8.4,8.4v1.4c0,4.3-3.2,7.9-7.5,8.4l-3.4.4c-1.4,12.8-8.8,25.3-20.9,34.6l20.8,41.2c1.3,2.6,3.9,4.4,6.9,4.6h0c4.4.3,7.8,4,7.8,8.4v1.2c0,4.6-3.8,8.4-8.4,8.4h-19.6c-3.7,0-7.1-2.1-8.7-5.5l-22-46.5c-5.3,2.1-10,3.2-15.5,3.9v29.7h0c0,.1,2.8.3,2.8.3,4.7.4,8.3,4.3,8.3,9h0c0,5-4.1,9.1-9.1,9.1h-42v-16.7l7.2-.7c3.7-.2,5.6-1.6,5.6-7v-116.2c0-5.1-1.2-6.5-5.3-6.7l-7.9-.7v-17.4h30.8c5.3,0,9.6,4.3,9.6,9.6v89.2c17.4-1.6,34.8-16.5,34.8-28.1"/>
  <path d="M267,32.2v153.2c0,4.4-2.2,8.2-5.7,10.4-1.9,1.3-4.2,2-6.7,2s-4.8-.7-6.8-2c-3.4-2.2-5.6-6-5.6-10.4V50.5c-12.8,4.1-31.7,8.3-55.2,8.3s-37.2,14.7-39.9,19.8v137.4c0,.8,0,1.6-.2,2.4-1.1,5.7-6.1,10-12.2,10s-11-4.3-12.2-9.9c-.2-.8-.2-1.6-.2-2.5V78.7c-2.8-5.1-13.1-19.8-39.9-19.8s-42.4-4.2-55.2-8.3v134.9c0,4.4-2.2,8.2-5.6,10.4-1.9,1.3-4.3,2-6.8,2s-4.8-.7-6.7-2c-3.4-2.2-5.7-6.1-5.7-10.4V32.2c0-4.4,2.3-8.4,6.1-10.7,3.8-2.2,8.4-2.3,12.3-.2.2,0,24.2,12.7,61.7,12.7s42.8,10.3,52.3,20.1c9.5-9.8,25.8-20.1,52.3-20.1s61.5-12.6,61.7-12.7c3.8-2.1,8.5-2,12.2.2,3.8,2.2,6,6.3,6,10.7Z"/>
  <path d="M266,237.1c0,.7,0,1.4-.1,2.1-.1.9-.4,1.8-.8,2.6,0,0,0,0,0,.1-.4.8-1,1.6-1.8,2.5,0,0,0,0,0,0-2,2.2-5.1,4.4-9.3,6.4t0,0c-6.4,3.2-15.5,6.3-28.2,8.7-.2,0-.4,0-.6.1-11.2,2.2-24.4,3.6-39,4h0c-8,0-14.5,1.3-19.9,3.3-7.7,2.5-12.1,6.1-15.1,9.8,0,0,0,0,0,0-2.5,3-4.1,6.2-5.8,9h0c-.8,1.6-1.8,3.1-3.8,4.9-.1.1-.3.2-.4.4-.3.2-.7.5-1.1.7-.7.4-1.5.8-2.3,1-.6.2-1.2.3-1.9.4h0c-.6,0-1.3.1-1.9.1s-1.3,0-1.9-.1h0c-.6,0-1.3-.2-1.9-.4-.8-.2-1.6-.6-2.3-1-.4-.2-.7-.4-1.1-.7-.1-.1-.3-.2-.4-.4-2-1.8-3-3.4-3.8-4.9h0c-1.7-2.8-3.4-6-5.8-9,0,0,0,0,0,0-3.1-3.8-7.5-7.3-15.1-9.8-5.3-2-11.8-3.3-19.9-3.3h0c-14.6-.4-27.8-1.9-39-4-.2,0-.4,0-.6-.1-12.7-2.4-21.8-5.5-28.2-8.7t0,0c-4.1-2-7.3-4.2-9.3-6.4,0,0,0,0,0,0-.7-.8-1.3-1.6-1.8-2.5,0,0,0,0,0-.1-.4-.9-.6-1.7-.8-2.6-.1-.7-.2-1.4-.1-2.1,0-4.1,2-7.6,4.9-9.8,0,0,0,0,0,0,2.7-2.1,6.1-3.2,9.8-2.4.2,0,.4.1.6.2,1.9.8,3.8,1.6,5.7,2.4.9.4,1.9.8,2.9,1.2.9.4,1.9.8,2.9,1.1.1,0,.3.1.4.2.1,0,.3.1.4.2.6.2,1.2.4,1.8.6.2,0,.3.1.5.2.2,0,.3.1.5.2.7.3,1.5.5,2.2.7,0,0,.2,0,.3,0,0,0,.1,0,.2,0,.2,0,.4.1.7.2.5.2,1.1.3,1.6.5.2,0,.3.1.5.1,3.9,1.2,7.9,2.2,12.3,3,0,0,.1,0,.2,0,.4,0,.8.2,1.1.3.3,0,.6.2.9.2.3,0,.7.2,1,.2.3,0,.7.2,1,.2,1.1.2,2.2.4,3.3.5,1.5.2,3,.4,4.5.5.4,0,.8,0,1.2.1,1.2,0,2.3.2,3.5.2,2,.1,4,.2,6.1.3.9,0,1.7,0,2.6,0,.5,0,1,0,1.5,0,.3,0,.6,0,.9,0,1.2,0,2.4,0,3.7.2,0,0,.2,0,.3,0,.7,0,1.5,0,2.2.1,1.2,0,2.5.1,3.7.2.2,0,.4,0,.7,0,.5,0,1.1,0,1.6.1,4.2.4,8.4.9,12.3,1.9.3,0,.6.1.9.2.4,0,.7.2,1.1.3.6.2,1.2.3,1.8.5.3.1.7.2,1,.4.3,0,.6.2.9.3,1.1.4,2.1.8,3.2,1.3.3.1.6.3.9.4,0,0,.1,0,.2,0,.3.1.6.3.9.5.3.2.6.3,1,.5.3.2.6.4.9.6.5.3,1,.6,1.5,1,.3.2.7.5,1,.7.5.4,1,.8,1.5,1.2,1,.8,1.9,1.7,2.7,2.6.4.5.8.9,1.2,1.4,0,.1.2.2.3.3,1.1,1.2,2.2,2.3,3.4,3.2.2.1.3.3.5.4,0,0,0,0,0,0,.2.2.5.3.7.5.1,0,.2.2.4.2.2,0,.3.2.5.3.1,0,.3.1.4.2,1,.5,2.1.8,3.3.9.2,0,.3,0,.5,0,.3,0,.6,0,.9,0,.3,0,.6,0,.9,0,.2,0,.3,0,.5,0,1.2-.1,2.3-.4,3.3-.9.1,0,.3-.1.4-.2.2,0,.3-.2.5-.3.1,0,.2-.1.4-.2.2-.2.5-.3.7-.5,0,0,0,0,0,0,.2-.1.4-.3.5-.4,1.2-1,2.3-2.1,3.4-3.2,0-.1.2-.2.3-.3.4-.5.8-.9,1.2-1.4.9-1,1.8-1.8,2.7-2.6.5-.4,1-.8,1.5-1.2.3-.2.7-.5,1-.7.5-.3,1-.7,1.5-1,.3-.2.6-.4.9-.6.3-.2.6-.4,1-.5.3-.2.6-.3.9-.5,0,0,.1,0,.2,0,.3-.2.6-.3.9-.4,1-.5,2.1-.9,3.2-1.3.3-.1.6-.2.9-.3.3-.1.7-.2,1-.4.6-.2,1.2-.4,1.8-.5.4-.1.7-.2,1.1-.3.3,0,.6-.2.9-.2,3.9-.9,8.1-1.5,12.3-1.9.5,0,1.1,0,1.6-.1.2,0,.4,0,.7,0,1.2,0,2.5-.2,3.7-.2.7,0,1.5,0,2.2-.1,0,0,.2,0,.3,0,1.2,0,2.4-.1,3.7-.2.3,0,.6,0,.9,0,.5,0,1,0,1.5,0,.9,0,1.7,0,2.6,0,2,0,4.1-.2,6.1-.3,1.2,0,2.4-.1,3.5-.2.4,0,.8,0,1.2-.1,1.5-.1,3-.3,4.5-.5,1.1-.1,2.2-.3,3.3-.5.3,0,.7-.1,1-.2.4,0,.7-.1,1-.2.3,0,.6-.1.9-.2.4,0,.8-.2,1.1-.3,0,0,.1,0,.2,0,4.4-.8,8.4-1.8,12.3-3,.2,0,.3,0,.5-.1.5-.1,1.1-.3,1.6-.5.2,0,.4-.1.7-.2,0,0,.1,0,.2,0,0,0,.2,0,.3,0,.7-.2,1.5-.5,2.2-.7.2,0,.3-.1.5-.2.2,0,.3,0,.5-.2.6-.2,1.2-.4,1.8-.6.1,0,.3,0,.4-.2.1,0,.3-.1.4-.2,1-.3,1.9-.7,2.9-1.1,1-.4,1.9-.8,2.9-1.2,1.9-.8,3.7-1.6,5.7-2.4.2,0,.4-.1.6-.2,3.7-.8,7.1.2,9.8,2.4,0,0,0,0,0,0,3,2.2,5,5.6,4.9,9.8Z"/>
</svg>