<?xml version="1.0" encoding="UTF-8"?>
<svg id="Layer_1" xmlns="http://www.w3.org/2000/svg" version="1.1" viewBox="0 0 264.8 273.3">
  <!-- Generator: Adobe Illustrator 29.8.2, SVG Export Plug-In . SVG Version: 2.1.1 Build 3)  -->
  <defs>
    <style>
      .st0 {
        stroke: #221f1f;
        stroke-linecap: round;
        stroke-linejoin: round;
        stroke-width: 24.5px;
      }
    </style>
  </defs>
  <path d="M263.1,13.8v151.3c0,4.3-2.2,8.1-5.6,10.3-1.9,1.2-4.2,2-6.7,2s-4.8-.7-6.7-2c-3.3-2.2-5.5-6-5.5-10.3V31.9c-12.6,4-31.3,8.2-54.5,8.2s-36.7,14.5-39.4,19.6v135.7c0,.8,0,1.6-.2,2.4-1.1,5.6-6.1,9.9-12,9.9s-10.9-4.2-12-9.8c-.2-.8-.2-1.6-.2-2.4V59.7c-2.7-5-12.9-19.6-39.4-19.6s-41.9-4.2-54.5-8.2v133.3c0,4.3-2.2,8.1-5.6,10.3-1.9,1.3-4.2,2-6.7,2s-4.7-.7-6.6-2c-3.4-2.2-5.6-6-5.6-10.3V13.8c0-4.3,2.3-8.3,6-10.5,3.7-2.2,8.3-2.3,12.1-.2.2,0,23.9,12.5,60.9,12.5s42.3,10.2,51.6,19.9c9.4-9.7,25.4-19.9,51.7-19.9s60.7-12.4,60.9-12.6c3.8-2.1,8.4-2,12.1.2,3.7,2.2,6,6.2,6,10.5Z"/>
  <g>
    <path d="M256.7,226.8c-1.2.6-28.9,15.5-72.6,15.5s-39.5,19.4-40.2,21.1c-1.7,5-6.2,8.3-11.5,8.3h0c-5.2,0-9.7-3.3-11.4-8.2h0s0,0,0,0c-.7-1.7-9.5-21.2-40.2-21.2-43.6,0-71.4-14.9-72.6-15.5C2.2,223.5,0,216.1,3.2,210.2c1-1.9,2.5-3.4,4.1-4.4,3.6-2.3,8.4-2.7,12.4-.5,0,0,.3.2.9.4,4.6,2.2,27.1,12.1,60.1,12.1s19.4,1.6,26.8,4.2c6.1,2.1,11.2,6.2,15.2,11.2,2.2,2.8,5.7,4.6,9.6,4.6s7.3-1.8,9.6-4.6c4.1-5.1,9.2-9.2,15.3-11.3,7.4-2.6,16.3-4.2,26.7-4.2,33.1,0,55.5-9.9,60.1-12.1.5-.3.8-.4.9-.4,4.1-2.2,8.8-1.9,12.5.5,1.7,1.1,3.1,2.6,4.1,4.4,3.2,5.9,1,13.4-4.9,16.6Z"/>
    <path class="st0" d="M132.4,259.2"/>
  </g>
</svg>