<svg width="304" height="100" viewBox="0 0 304 100" fill="none" xmlns="http://www.w3.org/2000/svg">
<g clip-path="url(#clip0_28_4353)">
<path d="M46.05 30.6127C46.05 30.6127 45.975 30.5752 45.9375 30.5752C46.0125 30.6002 46.075 30.6377 46.15 30.6752L46.05 30.6127Z" fill="black"/>
<path d="M32.5376 70.6002C32.7126 70.5252 32.8876 70.4502 33.0626 70.3877C32.9126 70.4377 32.7126 70.5252 32.5376 70.6002ZM32.3626 70.6752C32.3626 70.6752 32.3126 70.6877 32.2876 70.7002C32.3126 70.7002 32.3376 70.6752 32.3626 70.6752ZM32.5376 70.6002C32.7126 70.5252 32.8876 70.4502 33.0626 70.3877C32.9126 70.4377 32.7126 70.5252 32.5376 70.6002ZM32.3626 70.6752C32.3626 70.6752 32.3126 70.6877 32.2876 70.7002C32.3126 70.7002 32.3376 70.6752 32.3626 70.6752ZM32.5376 70.6002C32.7126 70.5252 32.8876 70.4502 33.0626 70.3877C32.9126 70.4377 32.7126 70.5252 32.5376 70.6002ZM32.3626 70.6752C32.3626 70.6752 32.3126 70.6877 32.2876 70.7002C32.3126 70.7002 32.3376 70.6752 32.3626 70.6752ZM32.5376 70.6002C32.7126 70.5252 32.8876 70.4502 33.0626 70.3877C32.9126 70.4377 32.7126 70.5252 32.5376 70.6002ZM32.3626 70.6752C32.3626 70.6752 32.3126 70.6877 32.2876 70.7002C32.3126 70.7002 32.3376 70.6752 32.3626 70.6752ZM32.5376 70.6002C32.7126 70.5252 32.8876 70.4502 33.0626 70.3877C32.9126 70.4377 32.7126 70.5252 32.5376 70.6002ZM32.3626 70.6752C32.3626 70.6752 32.3126 70.6877 32.2876 70.7002C32.3126 70.7002 32.3376 70.6752 32.3626 70.6752ZM32.5376 70.6002C32.7126 70.5252 32.8876 70.4502 33.0626 70.3877C32.9126 70.4377 32.7126 70.5252 32.5376 70.6002ZM32.3626 70.6752C32.3626 70.6752 32.3126 70.6877 32.2876 70.7002C32.3126 70.7002 32.3376 70.6752 32.3626 70.6752ZM32.5376 70.6002C32.7126 70.5252 32.8876 70.4502 33.0626 70.3877C32.9126 70.4377 32.7126 70.5252 32.5376 70.6002ZM32.3626 70.6752C32.3626 70.6752 32.3126 70.6877 32.2876 70.7002C32.3126 70.7002 32.3376 70.6752 32.3626 70.6752ZM32.5376 70.6002C32.7126 70.5252 32.8876 70.4502 33.0626 70.3877C32.9126 70.4377 32.7126 70.5252 32.5376 70.6002ZM32.3626 70.6752C32.3626 70.6752 32.3126 70.6877 32.2876 70.7002C32.3126 70.7002 32.3376 70.6752 32.3626 70.6752ZM32.5376 70.6002C32.7126 70.5252 32.8876 70.4502 33.0626 70.3877C32.9126 70.4377 32.7126 70.5252 32.5376 70.6002ZM32.3626 70.6752C32.3626 70.6752 32.3126 70.6877 32.2876 70.7002C32.3126 70.7002 32.3376 70.6752 32.3626 70.6752ZM32.5376 70.6002C32.7126 70.5252 32.8876 70.4502 33.0626 70.3877C32.9126 70.4377 32.7126 70.5252 32.5376 70.6002ZM32.3626 70.6752C32.3626 70.6752 32.3126 70.6877 32.2876 70.7002C32.3126 70.7002 32.3376 70.6752 32.3626 70.6752ZM32.5376 70.6002C32.7126 70.5252 32.8876 70.4502 33.0626 70.3877C32.9126 70.4377 32.7126 70.5252 32.5376 70.6002ZM32.3626 70.6752C32.3626 70.6752 32.3126 70.6877 32.2876 70.7002C32.3126 70.7002 32.3376 70.6752 32.3626 70.6752ZM32.5376 70.6002C32.7126 70.5252 32.8876 70.4502 33.0626 70.3877C32.9126 70.4377 32.7126 70.5252 32.5376 70.6002ZM32.3626 70.6752C32.3626 70.6752 32.3126 70.6877 32.2876 70.7002C32.3126 70.7002 32.3376 70.6752 32.3626 70.6752ZM32.5376 70.6002C32.7126 70.5252 32.8876 70.4502 33.0626 70.3877C32.9126 70.4377 32.7126 70.5252 32.5376 70.6002ZM32.3626 70.6752C32.3626 70.6752 32.3126 70.6877 32.2876 70.7002C32.3126 70.7002 32.3376 70.6752 32.3626 70.6752ZM32.5376 70.6002C32.7126 70.5252 32.8876 70.4502 33.0626 70.3877C32.9126 70.4377 32.7126 70.5252 32.5376 70.6002ZM32.3626 70.6752C32.3626 70.6752 32.3126 70.6877 32.2876 70.7002C32.3126 70.7002 32.3376 70.6752 32.3626 70.6752ZM32.5376 70.6002C32.7126 70.5252 32.8876 70.4502 33.0626 70.3877C32.9126 70.4377 32.7126 70.5252 32.5376 70.6002ZM32.3626 70.6752C32.3626 70.6752 32.3126 70.6877 32.2876 70.7002C32.3126 70.7002 32.3376 70.6752 32.3626 70.6752ZM32.5376 70.6002C32.7126 70.5252 32.8876 70.4502 33.0626 70.3877C32.9126 70.4377 32.7126 70.5252 32.5376 70.6002ZM32.3626 70.6752C32.3626 70.6752 32.3126 70.6877 32.2876 70.7002C32.3126 70.7002 32.3376 70.6752 32.3626 70.6752ZM32.5376 70.6002C32.7126 70.5252 32.8876 70.4502 33.0626 70.3877C32.9126 70.4377 32.7126 70.5252 32.5376 70.6002ZM32.3626 70.6752C32.3626 70.6752 32.3126 70.6877 32.2876 70.7002C32.3126 70.7002 32.3376 70.6752 32.3626 70.6752ZM32.5376 70.6002C32.7126 70.5252 32.8876 70.4502 33.0626 70.3877C32.9126 70.4377 32.7126 70.5252 32.5376 70.6002ZM32.3626 70.6752C32.3626 70.6752 32.3126 70.6877 32.2876 70.7002C32.3126 70.7002 32.3376 70.6752 32.3626 70.6752ZM32.5376 70.6002C32.7126 70.5252 32.8876 70.4502 33.0626 70.3877C32.9126 70.4377 32.7126 70.5252 32.5376 70.6002ZM32.3626 70.6752C32.3626 70.6752 32.3126 70.6877 32.2876 70.7002C32.3126 70.7002 32.3376 70.6752 32.3626 70.6752ZM32.5376 70.6002C32.7126 70.5252 32.8876 70.4502 33.0626 70.3877C32.9126 70.4377 32.7126 70.5252 32.5376 70.6002ZM32.3626 70.6752C32.3626 70.6752 32.3126 70.6877 32.2876 70.7002C32.3126 70.7002 32.3376 70.6752 32.3626 70.6752ZM32.5376 70.6002C32.7126 70.5252 32.8876 70.4502 33.0626 70.3877C32.9126 70.4377 32.7126 70.5252 32.5376 70.6002ZM32.3626 70.6752C32.3626 70.6752 32.3126 70.6877 32.2876 70.7002C32.3126 70.7002 32.3376 70.6752 32.3626 70.6752ZM32.5376 70.6002C32.7126 70.5252 32.8876 70.4502 33.0626 70.3877C32.9126 70.4377 32.7126 70.5252 32.5376 70.6002ZM32.3626 70.6752C32.3626 70.6752 32.3126 70.6877 32.2876 70.7002C32.3126 70.7002 32.3376 70.6752 32.3626 70.6752ZM32.5376 70.6002C32.7126 70.5252 32.8876 70.4502 33.0626 70.3877C32.9126 70.4377 32.7126 70.5252 32.5376 70.6002ZM32.3626 70.6752C32.3626 70.6752 32.3126 70.6877 32.2876 70.7002C32.3126 70.7002 32.3376 70.6752 32.3626 70.6752ZM32.5376 70.6002C32.7126 70.5252 32.8876 70.4502 33.0626 70.3877C32.9126 70.4377 32.7126 70.5252 32.5376 70.6002ZM32.3626 70.6752C32.3626 70.6752 32.3126 70.6877 32.2876 70.7002C32.3126 70.7002 32.3376 70.6752 32.3626 70.6752Z" fill="black"/>
<path d="M33.0626 70.3877C32.8876 70.4502 32.7126 70.5252 32.5376 70.6002C32.7126 70.5252 32.9126 70.4377 33.0626 70.3877Z" fill="black"/>
<path d="M33.0626 70.3877C32.8876 70.4502 32.7126 70.5252 32.5376 70.6002C32.7126 70.5252 32.9126 70.4377 33.0626 70.3877Z" fill="black"/>
<path d="M35.2998 43.1626C35.2998 43.1626 35.2998 43.1251 35.2998 43.1001L35.1873 43.4251C35.2123 43.3376 35.2498 43.2501 35.2873 43.1626H35.2998ZM34.9873 44.0626C35.0123 43.9626 35.0498 43.8626 35.0873 43.7626L35.0623 43.8126L34.9873 44.0626Z" fill="black"/>
<path d="M35.3126 43.1C35.3126 43.1 35.3126 43.1375 35.3126 43.1625C35.4876 42.6875 35.6751 42.1875 35.8126 41.6875L35.6501 42.1375L35.3251 43.1H35.3126ZM35.3126 43.1L35.2001 43.425C35.2251 43.3375 35.2626 43.25 35.3001 43.1625C35.4751 42.6875 35.6626 42.1875 35.8001 41.6875L35.6376 42.1375L35.3126 43.1ZM32.3626 70.675C32.3626 70.675 32.3126 70.6875 32.2876 70.7C32.3126 70.7 32.3376 70.675 32.3626 70.675Z" fill="black"/>
<path d="M72.325 49.8251C72.15 49.7376 70.55 48.5126 70.3625 48.5751C70.225 48.2001 70.3625 46.7876 69.725 46.7501L67.225 46.3751C66.45 44.9626 61.9375 45.4376 60.625 45.1751C59.8125 45.3001 57.0625 42.1251 56.4625 41.7251C57.45 41.7501 59.6 42.5376 60.2625 41.4501C60.6625 40.8126 60.2625 39.9876 59.55 39.7751L48.3625 36.4376L49.2 34.3001C49.4875 34.3251 50.4 34.7626 50.325 34.1501L49.9625 32.4626C49.925 32.2876 50.0625 32.1251 50.25 32.1251C50.5125 32.1001 51.3875 32.2876 51.25 31.7626L50.1375 28.2376C50.0125 27.8126 49.4375 28.2001 49.2 28.2626L48.7125 26.8501L48.6875 26.8001C48.05 25.1001 44.825 26.4251 43.5875 26.4376C44.1375 25.0751 43.1125 23.5126 41.625 23.4251L38.0125 23.1376C38.3375 15.3751 30.5625 13.6126 24.825 15.9626C24.1875 16.1876 21.475 17.2501 20.85 17.3126C19.95 17.6126 22.75 19.6251 21.6125 19.8126H20.1875C20 19.8126 19.8625 19.9751 19.9 20.1501C20.5 23.0251 20.675 21.7501 17.6 23.8876C17.4375 23.9876 17.425 24.2251 17.5875 24.3501L19.575 25.8376C20.2625 26.4376 17.6625 26.8876 17.575 27.2751C12.0625 25.7876 1.58752 20.7376 0.087521 29.6751C-0.437479 32.1376 1.53752 34.6876 4.07502 34.9751L14.1375 36.2751C10.375 39.8626 6.38752 49.5251 12.85 57.5626C13.7 58.5626 14.85 60.2501 15.575 62.5126C16.3125 64.8376 18.8 68.2001 20.05 69.7876L15.225 73.4626C14.4125 74.0501 14.45 75.3501 15.3 75.8876C15.7 75.8751 28.5875 85.6126 28.9 84.5251C29.95 83.9001 31.0625 82.9751 30.15 81.7376L27.1875 77.9876C27.1125 77.8876 27.075 77.8001 27.075 77.7251C27.075 76.8876 30.675 76.4751 32.1625 73.5001C33.7 74.9626 34.2875 77.1501 33.6625 79.1501L32.5 82.8126C32.1875 83.7501 32.975 84.7876 33.9875 84.7626H49.4875C50.2375 84.8251 50.375 83.7126 50.6 83.2376C50.9 82.4501 50.425 81.5251 49.6 81.2876L44.975 79.8626C44.65 79.7751 44.5 79.3626 44.7 79.1001C47.375 75.3876 46.6125 71.8251 44.825 69.6751C50.4625 63.0001 52.7375 54.9751 49.9625 46.8626L54.55 48.3876C55.775 52.0501 59.925 53.6626 63.9875 52.7876C64.525 55.6626 64.225 54.6751 67.5 54.8751C68.425 55.7876 68.75 57.0501 70.125 57.0876C71.6375 57.1251 72.5 55.4501 71.9 54.1876C71.85 53.8251 72.8875 49.9751 72.325 49.8251ZM69.1875 47.6876L69.5625 50.2376L67.9125 47.5001L69.1875 47.6876ZM59.25 40.7376C59.3375 40.7751 59.4625 40.9376 59.3125 40.9751C59.2875 40.9751 58.9125 41.0251 58.8875 41.0251L47.15 39.5126L47.9875 37.3876L59.25 40.7376ZM47.1875 27.0251C47.3625 27.0001 47.5375 27.0876 47.625 27.2501L48.2875 29.1876H48.3L48.5625 29.9376C48.6625 30.8626 47.3 29.6251 47.325 30.4751C47.3625 30.6751 47.5125 31.0626 47.2625 31.1626C46.875 31.0126 46.5 30.8376 46.15 30.6751C46.075 30.6376 46.0125 30.6001 45.9375 30.5751C44.225 29.7626 42.9125 29.1376 41.0375 30.8501C40.7 30.7501 40.325 30.6376 39.975 30.6251C39.95 30.6126 38.475 28.9501 38.45 28.9251C38.3 28.7501 38.425 28.4626 38.675 28.4626L40.5625 28.4251C40.5625 28.4251 42.0125 27.8126 42.05 27.8126H41.9875C41.9875 27.8126 42.05 27.8001 42.0875 27.7876L42.05 27.8126L47.1875 27.0251ZM25.25 17.0126C29.5875 15.3126 36.875 15.4126 36.8625 23.0501L33.5375 22.8001C32.775 22.7626 32.6875 23.8376 33.45 23.9251L41.525 24.5376C42.3375 24.5876 42.8375 25.5126 42.4375 26.1876C39.575 24.8376 40.725 24.3376 38.4 26.2501C38.3125 26.3251 38.1875 26.3376 38.075 26.2751C37.85 26.2126 37.3125 25.7376 37.075 25.9876C36.85 26.1001 36.2625 27.0126 35.9375 26.7626C34.125 25.8001 34.4 25.1376 33.5125 27.0126C33.3875 27.2626 33.0125 27.2126 32.975 26.9376C32.9125 26.6751 32.975 25.8501 32.4625 26.0626L31.0375 26.7751C30.8375 26.8751 30.6125 26.7376 30.6125 26.5251V23.2876C30.6125 23.0501 30.3375 22.9251 30.15 23.0626L28.6375 24.2001C28.425 24.3626 28.125 24.1876 28.175 23.9251C28.125 23.7751 29.1375 20.0751 28.7125 20.1126L23.8625 17.5251L25.25 17.0126ZM15.0625 35.3751L4.21252 33.9876C0.750021 33.4626 0.262521 29.5501 2.20002 27.2001C3.66252 25.1751 6.70002 25.1501 8.91252 25.7626C15.0875 27.5876 28.9625 31.7251 35.025 33.5251C33.325 34.6376 33.4375 36.3126 34.3875 37.8751L30.55 37.3751C29.25 35.9001 27.275 34.7251 25.225 34.7251C23.3625 34.5751 21.425 35.0501 19.8375 36.0001L15.0625 35.3751ZM27.05 76.2751C26.0875 76.5876 25.725 77.8376 26.3625 78.6001L29.325 82.3501C29.5125 82.5626 29.45 82.9001 29.2125 83.0626L28.45 83.6001L15.8875 75.0626C15.75 74.9751 15.675 74.8251 15.6625 74.6626C15.275 74.4501 20.6375 70.7001 20.7125 70.5626C23.15 73.0876 27.0625 72.4501 30.1125 71.5001C30.125 71.5001 30.15 71.4876 30.175 71.4876L31.4 72.7251C30.6125 74.3376 29.15 75.5251 27.05 76.2751ZM43.8625 78.5251C43.25 79.3251 43.6875 80.5501 44.6625 80.8251L49.3 82.2501C49.5625 82.3251 49.725 82.6376 49.625 82.9001L49.3125 83.7626H33.9875C33.65 83.7626 33.3875 83.4251 33.5 83.1126C35.4 77.6876 35.975 75.3126 31.275 71.1501C31.625 71.0001 31.95 70.8501 32.2875 70.7001C32.3125 70.7001 32.3375 70.6751 32.3625 70.6626C32.4125 70.6501 32.475 70.6251 32.5375 70.6001C32.7125 70.5251 32.9125 70.4376 33.0625 70.3876C33.0625 70.3876 33.0625 70.3876 33.0875 70.3876C41.425 67.0251 43.75 69.8126 43.675 69.9251C44.6375 71.0751 46.95 74.0126 43.85 78.5376L43.8625 78.5251ZM46 39.6126L45.725 40.3376H45.7625C45.7625 40.3376 45.7125 40.4001 45.6875 40.4376C45.6875 40.4501 45.675 40.4501 45.675 40.4501C44.775 40.7376 43.4625 40.9626 42.9625 41.8376L35.675 52.8501C34.9875 54.0876 33.1875 53.8376 32 53.8501C31.2375 54.5501 20.9125 45.1626 20.1875 44.8126C17.7125 42.8876 17.5 38.7001 20.2625 36.9376C21.6875 36.0126 23.5125 35.5876 25.225 35.7251C27.0125 35.7501 28.75 36.8126 29.85 38.1376C29.8625 38.1626 29.8875 38.1876 29.9 38.2126C29.9125 38.2126 29.9125 38.2376 29.925 38.2376C30.425 39.0376 33.65 44.9251 33.8125 45.0876C33.8625 45.1376 33.925 45.1751 33.9875 45.2001C34.0625 45.2251 34.1375 45.2501 34.225 45.2376C34.4 45.2251 34.575 45.1376 34.6625 44.9751C34.7625 44.6251 34.9125 44.2251 35.0625 43.8126L35.0875 43.7626C35.125 43.6501 35.1625 43.5501 35.2 43.4376L35.3125 43.1001L35.6375 42.1376C35.7 41.9626 35.75 41.8126 35.8 41.6876C35.8 41.6751 35.8 41.6626 35.8 41.6501V41.6251C36.15 40.4126 36.2875 39.2001 35.725 38.2876C34.7 36.2376 34.225 35.6126 35.4125 34.5001L35.45 34.4626C35.7375 34.1876 36.125 33.9001 36.6125 33.5501C37.5625 32.8876 38.625 31.6126 39.8625 31.6126C40.1375 31.6126 40.425 31.6751 40.7125 31.8126C41.025 31.9126 41.375 31.8501 41.6375 31.6626C43.3125 30.2501 43.725 30.7251 45.525 31.5126L48.0625 32.6251C48.3875 32.7751 48.5375 33.1376 48.4125 33.4501C48.1625 34.1001 47.7625 35.1001 47.35 36.1501L46.6875 37.8251L46.325 38.7626L45.9875 39.6126H46ZM46.7 40.6751C46.6375 40.6001 46.5625 40.5251 46.5 40.4376L46.775 40.4751L46.7 40.6751ZM65.2625 53.8501C65.2375 53.6751 65.0875 52.9751 65 52.5376L64.9375 52.2251L65.1875 52.4751C65.625 52.9001 66.4625 53.6876 66.6375 53.8626H65.2625V53.8501ZM70.125 56.0751C69.2625 55.9126 68.9375 54.7626 68.15 54.0626C67.6875 53.3501 66.2875 52.1376 65.675 51.5251C64.45 50.2751 63.05 49.1126 61.4 48.4501C60.7625 48.2126 60.3625 49.1001 60.9875 49.3751C62.2625 49.9126 63.3875 50.7001 64.3625 51.6751C64.3625 51.6751 64.3125 51.6876 64.2875 51.7001C63.075 51.9751 61.3375 52.0376 60.25 51.9501C57.7375 51.4501 55.75 49.4001 55.45 47.8751C55.65 47.4501 49.7125 45.8251 49.525 45.6501C48.8375 43.8751 47.9625 42.3126 46.8625 40.9126L46.95 40.7001L54.75 41.5251C60.075 46.3126 57.9875 46.1876 65.4625 46.4876C66.5375 46.1126 70.35 54.0001 70.9 54.5126H70.9125C71.0375 54.7126 71.0375 54.9626 71.025 55.1876C71.025 55.6751 70.6125 56.0876 70.1125 56.0751H70.125ZM71.0875 52.7876L70.7625 52.2626C71 52.0751 70.5375 50.0876 70.55 49.8376L71.4625 50.4626L71.0875 52.7876Z" fill="black"/>
<path d="M33.0626 70.3877C32.8876 70.4502 32.7126 70.5252 32.5376 70.6002C32.7126 70.5252 32.9126 70.4377 33.0626 70.3877Z" fill="black"/>
<path d="M45.7625 40.3499C45.7625 40.3499 45.7125 40.3999 45.6875 40.4374L45.725 40.3374H45.7625V40.3499Z" fill="black"/>
<path d="M35.0623 43.8127L35.0873 43.7627C35.0498 43.8627 35.0123 43.9627 34.9873 44.0627L35.0623 43.8127Z" fill="black"/>
<path d="M35.2002 43.4251L35.3127 43.1001C35.3127 43.1001 35.3127 43.1376 35.3127 43.1626C35.2752 43.2501 35.2377 43.3376 35.2127 43.4251H35.2002Z" fill="black"/>
<path d="M36.0501 40.8252C36.0251 40.9377 36.0001 41.0377 35.9751 41.1502C36.0001 41.0502 36.0376 40.9377 36.0501 40.8252Z" fill="black"/>
<path d="M46.5 40.4374C46.5625 40.5249 46.6375 40.5999 46.7 40.6749L46.775 40.4749L46.5 40.4374ZM45.725 40.3374L45.6875 40.4374C45.6875 40.4374 45.75 40.3499 45.7625 40.3499H45.725V40.3374Z" fill="black"/>
<path d="M99.9873 68.2877C99.9873 68.2877 99.9748 68.2377 99.9748 68.2252V68.2002H99.9623C99.5623 67.6627 91.3373 59.6002 91.2248 59.4252C91.1998 59.4002 91.1623 59.3752 91.1373 59.3627C91.1373 59.3627 91.1373 59.3502 91.1123 59.3502C91.1123 59.3502 91.0623 59.3127 91.0248 59.3002H91.0123C91.0123 59.3002 90.9873 59.2877 90.9623 59.2877H90.9248C90.9248 59.2877 90.8498 59.2752 90.8248 59.2752L85.8748 59.6127L89.0748 41.0752C89.1373 40.7502 88.8248 40.4252 88.4873 40.5002L86.0748 40.8752C85.8623 40.9127 85.6873 41.0752 85.6498 41.2877L82.8748 56.8627L64.4998 58.3252C64.2748 58.3377 64.0873 58.4877 64.0373 58.7002L63.3623 61.3377L62.4998 62.1627C62.4998 62.1627 62.4623 62.2002 62.4498 62.2252C62.3248 62.3252 61.3873 66.5877 60.4498 70.8502C59.5248 75.1002 58.5998 79.3752 58.5498 79.5127V79.5377C58.5498 79.9627 60.7873 83.0502 61.7748 84.5252C61.9873 84.8252 62.3248 85.0002 62.6873 85.0002H95.9873C96.4623 85.0002 96.8623 84.6627 96.9498 84.2127C96.9123 84.0127 100.1 68.5377 100.025 68.3627C100.025 68.3377 100.025 68.3127 100.025 68.2877H99.9873ZM64.4748 61.0377L64.9248 59.2877L83.3248 57.8252C83.5623 57.8127 83.7623 57.6377 83.7998 57.4127L86.5748 41.8127L87.9123 41.6002L84.8123 59.5252L64.4748 61.0377Z" fill="black"/>
<path d="M58.5498 79.7503C58.5498 79.7503 58.5498 79.7503 58.5498 79.7378C58.5498 79.7378 58.5498 79.7628 58.5623 79.7753V79.7503H58.5498Z" fill="black"/>
<path d="M99.9373 68.1627C99.9373 68.1627 99.9373 68.1502 99.9248 68.1377C99.9248 68.1377 99.9373 68.1627 99.9498 68.1752L99.9373 68.1627ZM99.9498 68.1752C99.9498 68.1752 99.9498 68.1752 99.9498 68.1877V68.1752Z" fill="black"/>
<path d="M46.775 40.475L46.7 40.675C46.6375 40.6 46.5625 40.525 46.5 40.4375L46.775 40.475Z" fill="black"/>
<path d="M48.6502 46.2499C48.6502 46.2499 48.6502 46.2249 48.6377 46.2124C48.6377 46.2124 48.6377 46.2374 48.6502 46.2499Z" fill="black"/>
<path d="M64.3748 51.6878C64.3748 51.6878 64.3248 51.6878 64.2998 51.7003C64.3248 51.6878 64.3373 51.6878 64.3623 51.6753L64.3748 51.6878Z" fill="black"/>
<path d="M65.1875 52.4751C65.1875 52.4751 65.0625 52.5126 65 52.5376L64.9375 52.2251L65.1875 52.4751Z" fill="black"/>
</g>
<path d="M112.173 63V43.3636H117.364V46.8281H117.594C118.003 45.6776 118.685 44.7699 119.639 44.1051C120.594 43.4403 121.736 43.108 123.065 43.108C124.412 43.108 125.558 43.4446 126.504 44.1179C127.45 44.7827 128.081 45.6861 128.396 46.8281H128.601C129.001 45.7031 129.726 44.804 130.774 44.1307C131.831 43.4489 133.08 43.108 134.52 43.108C136.352 43.108 137.839 43.6918 138.982 44.8594C140.132 46.0185 140.707 47.6634 140.707 49.794V63H135.274V50.8679C135.274 49.777 134.984 48.9588 134.405 48.4134C133.825 47.8679 133.101 47.5952 132.232 47.5952C131.243 47.5952 130.472 47.9105 129.918 48.5412C129.364 49.1634 129.087 49.9858 129.087 51.0085V63H123.807V50.7528C123.807 49.7898 123.53 49.0227 122.976 48.4517C122.43 47.8807 121.71 47.5952 120.815 47.5952C120.21 47.5952 119.665 47.7486 119.179 48.0554C118.702 48.3537 118.322 48.7756 118.041 49.321C117.76 49.858 117.619 50.4886 117.619 51.2131V63H112.173ZM149.169 63.3707C147.916 63.3707 146.799 63.1534 145.819 62.7188C144.839 62.2756 144.064 61.6236 143.493 60.7628C142.93 59.8935 142.649 58.8111 142.649 57.5156C142.649 56.4247 142.849 55.5085 143.25 54.767C143.65 54.0256 144.196 53.429 144.886 52.9773C145.576 52.5256 146.36 52.1847 147.238 51.9545C148.125 51.7244 149.054 51.5625 150.025 51.4688C151.167 51.3494 152.088 51.2386 152.787 51.1364C153.485 51.0256 153.993 50.8636 154.308 50.6506C154.623 50.4375 154.781 50.1222 154.781 49.7045V49.6278C154.781 48.8182 154.525 48.1918 154.014 47.7486C153.511 47.3054 152.795 47.0838 151.866 47.0838C150.886 47.0838 150.106 47.3011 149.527 47.7358C148.947 48.1619 148.564 48.6989 148.376 49.3466L143.339 48.9375C143.595 47.7443 144.098 46.7131 144.848 45.8438C145.598 44.9659 146.565 44.2926 147.75 43.8239C148.943 43.3466 150.323 43.108 151.892 43.108C152.983 43.108 154.027 43.2358 155.024 43.4915C156.029 43.7472 156.92 44.1435 157.696 44.6804C158.48 45.2173 159.098 45.9077 159.549 46.7514C160.001 47.5866 160.227 48.5881 160.227 49.7557V63H155.062V60.277H154.909C154.593 60.8906 154.172 61.4318 153.643 61.9006C153.115 62.3608 152.48 62.723 151.738 62.9872C150.997 63.2429 150.14 63.3707 149.169 63.3707ZM150.728 59.6122C151.529 59.6122 152.237 59.4545 152.85 59.1392C153.464 58.8153 153.946 58.3807 154.295 57.8352C154.645 57.2898 154.819 56.6719 154.819 55.9815V53.8977C154.649 54.0085 154.414 54.1108 154.116 54.2045C153.826 54.2898 153.498 54.3707 153.132 54.4474C152.765 54.5156 152.399 54.5795 152.032 54.6392C151.666 54.6903 151.333 54.7372 151.035 54.7798C150.396 54.8736 149.838 55.0227 149.36 55.2273C148.883 55.4318 148.512 55.7088 148.248 56.0582C147.984 56.3991 147.852 56.8253 147.852 57.3366C147.852 58.0781 148.12 58.6449 148.657 59.0369C149.203 59.4205 149.893 59.6122 150.728 59.6122ZM167.947 57.3494L167.959 50.8168H168.752L175.042 43.3636H181.293L172.843 53.233H171.552L167.947 57.3494ZM163.012 63V36.8182H168.458V63H163.012ZM175.285 63L169.506 54.4474L173.137 50.5994L181.664 63H175.285ZM190.665 63.3835C188.646 63.3835 186.907 62.9744 185.45 62.1562C184.001 61.3295 182.884 60.1619 182.1 58.6534C181.316 57.1364 180.924 55.3423 180.924 53.2713C180.924 51.2514 181.316 49.4787 182.1 47.9531C182.884 46.4276 183.988 45.2386 185.411 44.3864C186.843 43.5341 188.522 43.108 190.448 43.108C191.744 43.108 192.95 43.3168 194.066 43.7344C195.191 44.1435 196.171 44.7614 197.006 45.5881C197.85 46.4148 198.506 47.4545 198.975 48.7074C199.444 49.9517 199.678 51.4091 199.678 53.0795V54.5753H183.097V51.2003H194.552C194.552 50.4162 194.381 49.7216 194.04 49.1165C193.7 48.5114 193.227 48.0384 192.621 47.6974C192.025 47.348 191.33 47.1733 190.538 47.1733C189.711 47.1733 188.978 47.3651 188.339 47.7486C187.708 48.1236 187.214 48.6307 186.856 49.2699C186.498 49.9006 186.315 50.6037 186.306 51.3793V54.5881C186.306 55.5597 186.485 56.3991 186.843 57.1065C187.209 57.8139 187.725 58.3594 188.39 58.7429C189.055 59.1264 189.843 59.3182 190.755 59.3182C191.36 59.3182 191.914 59.233 192.417 59.0625C192.92 58.892 193.35 58.6364 193.708 58.2955C194.066 57.9545 194.339 57.5369 194.526 57.0426L199.563 57.375C199.307 58.5852 198.783 59.642 197.991 60.5455C197.207 61.4403 196.192 62.1392 194.948 62.642C193.712 63.1364 192.285 63.3835 190.665 63.3835ZM201.894 63V36.8182H219.537V41.3821H207.43V47.6207H218.629V52.1847H207.43V58.4361H219.588V63H201.894ZM222.497 63V36.8182H227.943V46.6619H228.11C228.348 46.1335 228.693 45.5966 229.145 45.0511C229.605 44.4972 230.202 44.0369 230.935 43.6705C231.676 43.2955 232.597 43.108 233.696 43.108C235.128 43.108 236.449 43.483 237.659 44.233C238.87 44.9744 239.837 46.0952 240.561 47.5952C241.286 49.0866 241.648 50.9574 241.648 53.2074C241.648 55.3977 241.294 57.2472 240.587 58.7557C239.888 60.2557 238.934 61.3935 237.723 62.169C236.522 62.9361 235.175 63.3196 233.684 63.3196C232.627 63.3196 231.728 63.1449 230.986 62.7955C230.253 62.446 229.652 62.0071 229.184 61.4787C228.715 60.9418 228.357 60.4006 228.11 59.8551H227.867V63H222.497ZM227.828 53.1818C227.828 54.3494 227.99 55.3679 228.314 56.2372C228.638 57.1065 229.107 57.7841 229.72 58.2699C230.334 58.7472 231.08 58.9858 231.958 58.9858C232.844 58.9858 233.594 58.7429 234.208 58.2571C234.821 57.7628 235.286 57.081 235.601 56.2116C235.925 55.3338 236.087 54.3239 236.087 53.1818C236.087 52.0483 235.929 51.0511 235.614 50.1903C235.299 49.3295 234.834 48.6562 234.22 48.1705C233.607 47.6847 232.853 47.4418 231.958 47.4418C231.071 47.4418 230.321 47.6761 229.708 48.1449C229.103 48.6136 228.638 49.2784 228.314 50.1392C227.99 51 227.828 52.0142 227.828 53.1818ZM252.714 63.3835C250.728 63.3835 249.011 62.9616 247.562 62.1179C246.122 61.2656 245.01 60.081 244.225 58.5639C243.441 57.0384 243.049 55.2699 243.049 53.2585C243.049 51.2301 243.441 49.4574 244.225 47.9403C245.01 46.4148 246.122 45.2301 247.562 44.3864C249.011 43.5341 250.728 43.108 252.714 43.108C254.7 43.108 256.413 43.5341 257.853 44.3864C259.302 45.2301 260.419 46.4148 261.203 47.9403C261.987 49.4574 262.379 51.2301 262.379 53.2585C262.379 55.2699 261.987 57.0384 261.203 58.5639C260.419 60.081 259.302 61.2656 257.853 62.1179C256.413 62.9616 254.7 63.3835 252.714 63.3835ZM252.74 59.1648C253.643 59.1648 254.397 58.9091 255.002 58.3977C255.608 57.8778 256.063 57.1705 256.37 56.2756C256.686 55.3807 256.843 54.3622 256.843 53.2202C256.843 52.0781 256.686 51.0597 256.37 50.1648C256.063 49.2699 255.608 48.5625 255.002 48.0426C254.397 47.5227 253.643 47.2628 252.74 47.2628C251.828 47.2628 251.061 47.5227 250.438 48.0426C249.825 48.5625 249.36 49.2699 249.045 50.1648C248.738 51.0597 248.585 52.0781 248.585 53.2202C248.585 54.3622 248.738 55.3807 249.045 56.2756C249.36 57.1705 249.825 57.8778 250.438 58.3977C251.061 58.9091 251.828 59.1648 252.74 59.1648ZM273.352 63.3835C271.366 63.3835 269.649 62.9616 268.2 62.1179C266.76 61.2656 265.648 60.081 264.864 58.5639C264.079 57.0384 263.687 55.2699 263.687 53.2585C263.687 51.2301 264.079 49.4574 264.864 47.9403C265.648 46.4148 266.76 45.2301 268.2 44.3864C269.649 43.5341 271.366 43.108 273.352 43.108C275.338 43.108 277.051 43.5341 278.491 44.3864C279.94 45.2301 281.057 46.4148 281.841 47.9403C282.625 49.4574 283.017 51.2301 283.017 53.2585C283.017 55.2699 282.625 57.0384 281.841 58.5639C281.057 60.081 279.94 61.2656 278.491 62.1179C277.051 62.9616 275.338 63.3835 273.352 63.3835ZM273.378 59.1648C274.281 59.1648 275.035 58.9091 275.641 58.3977C276.246 57.8778 276.702 57.1705 277.008 56.2756C277.324 55.3807 277.481 54.3622 277.481 53.2202C277.481 52.0781 277.324 51.0597 277.008 50.1648C276.702 49.2699 276.246 48.5625 275.641 48.0426C275.035 47.5227 274.281 47.2628 273.378 47.2628C272.466 47.2628 271.699 47.5227 271.077 48.0426C270.463 48.5625 269.998 49.2699 269.683 50.1648C269.376 51.0597 269.223 52.0781 269.223 53.2202C269.223 54.3622 269.376 55.3807 269.683 56.2756C269.998 57.1705 270.463 57.8778 271.077 58.3977C271.699 58.9091 272.466 59.1648 273.378 59.1648ZM290.053 57.3494L290.066 50.8168H290.858L297.148 43.3636H303.399L294.949 53.233H293.658L290.053 57.3494ZM285.118 63V36.8182H290.564V63H285.118ZM297.391 63L291.612 54.4474L295.243 50.5994L303.77 63H297.391Z" fill="black"/>
<defs>
<clipPath id="clip0_28_4353">
<rect width="100" height="100" fill="white"/>
</clipPath>
</defs>
</svg>
