<?xml version="1.0" encoding="UTF-8"?>
<svg id="Layer_1" xmlns="http://www.w3.org/2000/svg" version="1.1" viewBox="0 0 63.2 53.1">
  <!-- Generator: Adobe Illustrator 29.8.2, SVG Export Plug-In . SVG Version: 2.1.1 Build 3)  -->
  <g>
    <path d="M32.4,52.5h0c.1.1.3.1.4.1s0,0,0,0c-.2,0-.3,0-.4-.1Z"/>
    <path d="M58.1,9.2h-25.3c-.7-1.5-1.7-2.8-3.1-3.9C26.3,2.6,20.6-.4,13.1.8c-1.1.2-2,1.3-2,2.7v4.1c-4.2-.6-7.9,1.1-9.4,2-.8.5-1.3,1.4-1.3,2.5v36c0,1,.4,1.8,1.1,2.3.5.4,1.2.5,1.8.3,4.6-1.6,16.6-4.6,28.7,1.8,0,0,.1,0,.2,0h0c.1,0,.3,0,.4,0,0,0,0,0,0,0h25.2c2.5,0,4.6-2,4.6-4.5V13.6c0-2.5-2.1-4.5-4.6-4.5ZM2.8,48.7c0,0-.3-.3-.3-.7V12c0-.4.1-.6.3-.7,1.3-.7,4.7-2.3,8.4-1.7v32.4c0,.9.3,1.7.9,2.2.4.4,1,.6,1.6.5,2.4-.2,7.6-.2,13.3,3.4-10.6-3.2-20.1-.8-24.2.6ZM31.7,14.8c-2.9-3.8-8.4-5.8-12.7-5.8s-1,.5-1,1,.4,1,1,1c4.4,0,12.7,2.8,12.7,9.6v5.5c-2.9-3.8-8.4-5.8-12.7-5.8s-1,.5-1,1,.4,1,1,1c4.4,0,12.7,2.8,12.7,9.6v5.5c-2.9-3.8-8.3-5.8-12.6-5.8s-1,.5-1,1,.4,1,1,1c4.4,0,12.6,2.8,12.6,9.7s0,.1,0,.2v5.8c-6.3-5.6-12.7-6.6-16.4-6.6s-1.4,0-1.9,0c0,0-.3-.3-.3-.7V3.5c0-.4.2-.7.3-.7,6.8-1,11.9,1.7,15,4.1,2.1,1.6,3.2,4,3.2,6.5v1.4ZM60.7,48.2c0,1.4-1.2,2.4-2.6,2.4h-24.4V13.4c0-.7,0-1.5-.3-2.2h24.6c1.4,0,2.6,1.1,2.6,2.5v34.5Z"/>
  </g>
  <path d="M51.1,46.9c0,.6-.5,1-1,1h-5.9c-.6,0-1-.5-1-1s.4-1,1-1h5.9c.6,0,1,.4,1,1Z"/>
</svg>