<?xml version="1.0" encoding="UTF-8"?>
<svg id="Layer_1" xmlns="http://www.w3.org/2000/svg" version="1.1" viewBox="0 0 53.4 19.4">
  <!-- Generator: Adobe Illustrator 29.8.2, SVG Export Plug-In . SVG Version: 2.1.1 Build 3)  -->
  <defs>
    <style>
      .st0 {
        fill: none;
        stroke: #231f20;
        stroke-linecap: round;
        stroke-linejoin: round;
        stroke-width: 1.7px;
      }

      .st1 {
        fill: #231f20;
      }
    </style>
  </defs>
  <path d="M31.9,14.6c0-.3.2-.5.5-.6.2,0,.4-.2.4-.4v-3.5c0-1-.2-1.6-1.3-1.6s-1.5.8-1.5,1.6v3.7s0,.2.2.2h0c.3,0,.6.3.6.6h0c0,.3-.3.6-.6.6h-2.9v-1.1h.5c.3,0,.4-.2.4-.5v-3.5c0-.9-.1-1.6-1.2-1.6s-1.5.8-1.5,1.7v3.8h.8v1.3h-3.6v-1.2h.5c.3,0,.4-.2.4-.5v-4.7c0-.4,0-.5-.4-.5h-.5v-1.3h2.6v1.1h0c.5-.8,1.3-1.4,2.4-1.4s1.7.4,2.2,1.4c.5-.9,1.3-1.4,2.4-1.4,1.6,0,2.5,1,2.5,2.8v4c0,.1,0,.3.2.3h0c.3,0,.6.3.6.6h0c0,.3-.3.6-.6.6h-2.3c-.4,0-.7-.3-.7-.7h0v.2Z"/>
  <path d="M36.8,14.6c0-.3.2-.6.5-.6s.4-.2.4-.5V5.2h-.2c-.3,0-.6-.3-.6-.7v-.7h6.7c.4,0,.7.3.7.7v1.2c0,.3-.3.6-.6.7h-.2c-.4,0-.7-.2-.7-.6h0c0-.3,0-.5-.4-.5h-2.5v3.6h3.2c.4,0,.7.3.7.7v.2c0,.4-.3.7-.7.7h-3.2v3.6h2.7c.2,0,.4-.2.4-.4v-.2c0-.4.3-.7.7-.7h.2c.3,0,.6.3.6.7v1.3c0,.4-.3.7-.7.7h-6.8v-.7h0l-.2-.2Z"/>
  <path d="M48,7.8c.5-.5,1.2-.8,2.1-.8,1.9,0,3.1,1.4,3.1,3.8s-1.4,4.7-3.9,4.7-2.5-.3-3.2-.7V5.6c0-.3,0-.5-.4-.5h0c-.3,0-.5-.3-.5-.5v-.7h2.8v4h0ZM48,13.7c.3.2.9.3,1.4.3,1.1,0,1.9-.8,1.9-2.9s-.3-2.7-1.8-2.7-1.4.5-1.4,1.2v4.1h-.1Z"/>
  <g>
    <path class="st1" d="M17.9,16c0,0-2,1.1-5.1,1.1s-2.7,1.4-2.8,1.5c-.1.3-.4.6-.8.6h0c-.4,0-.7-.2-.8-.6,0,0,0,0,0,0,0-.1-.7-1.5-2.8-1.5-3,0-5-1-5.1-1.1-.4-.2-.6-.7-.3-1.2,0-.1.2-.2.3-.3.3-.2.6-.2.9,0,0,0,0,0,0,0,.3.1,1.9.9,4.2.9s1.4.1,1.9.3c.4.1.8.4,1.1.8.2.2.4.3.7.3h0s0,0,0,0c.3,0,.5-.1.7-.3.3-.3.6-.6,1.1-.8.5-.2,1.1-.3,1.9-.3,2.4,0,3.9-.7,4.2-.9,0,0,0,0,0,0,.3-.2.6-.1.9,0,.1,0,.2.2.3.3.2.4,0,.9-.3,1.2Z"/>
    <path class="st0" d="M9.2,18.2"/>
    <path class="st1" d="M18.3,1.1v10.5c0,.5-.4.9-.9.9s-.9-.4-.9-.9V2.4c-.9.3-2.2.6-3.8.6s-2.6,1-2.7,1.4v9.4c0,.5-.4.9-.9.9s-.9-.4-.9-.9V4.3c-.2-.4-.9-1.4-2.7-1.4s-2.9-.3-3.8-.6v9.3c0,.5-.4.9-.9.9s-.9-.4-.9-.9V1.1C0,.8.3.6.5.4c.3-.2.6-.2.8,0,0,0,1.7.9,4.2.9s2.9.7,3.6,1.4c.7-.7,1.8-1.4,3.6-1.4s4.2-.9,4.2-.9c.3-.1.6-.1.8,0,.3.2.4.4.4.7Z"/>
  </g>
</svg>