<?xml version="1.0" encoding="UTF-8"?>
<svg id="Layer_1" xmlns="http://www.w3.org/2000/svg" version="1.1" viewBox="0 0 53.4 19.4">
  <!-- Generator: Adobe Illustrator 29.8.2, SVG Export Plug-In . SVG Version: 2.1.1 Build 3)  -->
  <defs>
    <style>
      .st0 {
        stroke: #221f1f;
        stroke-linecap: round;
        stroke-linejoin: round;
        stroke-width: 1.5px;
      }
    </style>
  </defs>
  <path d="M31.9,14.6c0-.3.2-.5.5-.6.2,0,.4-.2.4-.4v-3.5c0-1-.2-1.6-1.3-1.6s-1.5.8-1.5,1.6v3.7s0,.2.2.2h0c.3,0,.6.3.6.6h0c0,.3-.3.6-.6.6h-2.9v-1.1h.5c.3,0,.4-.2.4-.5v-3.5c0-.9-.1-1.6-1.2-1.6s-1.5.8-1.5,1.7v3.8h.8v1.3h-3.6v-1.2h.5c.3,0,.4-.2.4-.5v-4.7c0-.4,0-.5-.4-.5h-.5v-1.3h2.6v1.1h0c.5-.8,1.3-1.4,2.4-1.4s1.7.4,2.2,1.4c.5-.9,1.3-1.4,2.4-1.4,1.6,0,2.5,1,2.5,2.8v4c0,.1,0,.3.2.3h0c.3,0,.6.3.6.6h0c0,.3-.3.6-.6.6h-2.3c-.4,0-.7-.3-.7-.7h0v.2s-.1,0-.1,0Z"/>
  <path d="M36.8,14.6c0-.3.2-.6.5-.6s.4-.2.4-.5V5.2h-.2c-.3,0-.6-.3-.6-.7v-.7h6.7c.4,0,.7.3.7.7v1.2c0,.3-.3.6-.6.7h-.2c-.4,0-.7-.2-.7-.6h0c0-.3,0-.5-.4-.5h-2.5v3.6h3.2c.4,0,.7.3.7.7v.2c0,.4-.3.7-.7.7h-3.2v3.6h2.7c.2,0,.4-.2.4-.4v-.2c0-.4.3-.7.7-.7h.2c.3,0,.6.3.6.7v1.3c0,.4-.3.7-.7.7h-6.8v-.7h0s-.2-.2-.2-.2Z"/>
  <path d="M48,7.8c.5-.5,1.2-.8,2.1-.8,1.9,0,3.1,1.4,3.1,3.8s-1.4,4.7-3.9,4.7-2.5-.3-3.2-.7V5.6c0-.3,0-.5-.4-.5h0c-.3,0-.5-.3-.5-.5v-.7h2.8v4h0ZM48,13.7c.3.2.9.3,1.4.3,1.1,0,1.9-.8,1.9-2.9s-.3-2.7-1.8-2.7-1.4.5-1.4,1.2v4.1h-.1Z"/>
  <g>
    <path d="M16.1,2.2v9.3c0,.3-.1.5-.3.6-.1,0-.3.1-.4.1s-.3,0-.4-.1c-.2-.1-.3-.4-.3-.6V3.3c-.8.2-1.9.5-3.3.5s-2.2.9-2.4,1.2v8.3s0,0,0,.1c0,.3-.4.6-.7.6s-.7-.3-.7-.6c0,0,0,0,0-.1V5c-.2-.3-.8-1.2-2.4-1.2s-2.6-.3-3.3-.5v8.2c0,.3-.1.5-.3.6-.1,0-.3.1-.4.1s-.3,0-.4-.1c-.2-.1-.3-.4-.3-.6V2.2c0-.3.1-.5.4-.6.2-.1.5-.1.7,0,0,0,1.5.8,3.7.8s2.6.6,3.2,1.2c.6-.6,1.6-1.2,3.2-1.2s3.7-.8,3.7-.8c.2-.1.5-.1.7,0,.2.1.4.4.4.6Z"/>
    <g>
      <path d="M15.7,15.2c0,0-1.8,1-4.4,1s-2.4,1.2-2.5,1.3c-.1.3-.4.5-.7.5h0c-.3,0-.6-.2-.7-.5h0s0,0,0,0c0-.1-.6-1.3-2.5-1.3-2.7,0-4.4-.9-4.4-.9-.4-.2-.5-.7-.3-1,0-.1.2-.2.3-.3.2-.1.5-.2.8,0,0,0,0,0,0,0,.3.1,1.7.7,3.7.7s1.2.1,1.6.3.7.4.9.7.3.3.6.3.4-.1.6-.3c.2-.3.6-.6.9-.7s1-.3,1.6-.3c2,0,3.4-.6,3.7-.7,0,0,0,0,0,0,.2-.1.5-.1.8,0,.1,0,.2.2.3.3.2.4,0,.8-.3,1Z"/>
      <path class="st0" d="M8.1,17.2"/>
    </g>
  </g>
</svg>