<?xml version="1.0" encoding="UTF-8"?>
<svg id="Layer_1" xmlns="http://www.w3.org/2000/svg" version="1.1" viewBox="0 0 1384 316.8">
  <!-- Generator: Adobe Illustrator 29.8.2, SVG Export Plug-In . SVG Version: 2.1.1 Build 3)  -->
  <path d="M331.8,206c0-4.1,2.6-7.7,6.5-9,3-.9,5.5-2.5,5.5-5.2v-50.3c0-13.7-2.8-23.2-18.3-23.2s-21.6,10.9-21.6,23.7v52.9c0,1.4,1.1,2.6,2.5,2.7h0c4.7.3,8.4,4.2,8.4,9h0c0,5-4,9-9,9h-41.4v-16.5l7-.7c3.9-.5,5.1-1.9,5.1-6.3v-50.3c0-12.8-2.1-23.4-17.9-23.4s-22,11.1-22,24.6v54.3l11.4.9v17.4h-51.3v-16.7l7.2-.7c4.4-.7,5.6-1.9,5.6-7v-67.5c0-5.1-1.4-6.5-5.8-7l-7.4-.5v-17.6h38v16.5h.2c6.5-11.8,18.1-19.5,34.3-19.5s25,5.3,31.8,20.2c7-13.5,19.3-20.2,34.8-20.2,23.2,0,35.7,13.7,35.7,40.1v58.1c0,2,1.6,3.7,3.6,3.8h0c4.7.3,8.4,4.2,8.4,8.9h0c0,4.9-4,8.9-8.9,8.9h-33.1c-5.2,0-9.5-4.2-9.5-9.5h.2,0Z"/>
  <path d="M499.8,191.8c0,4.6,1.2,6.3,5.1,6.5h0c3.8.3,6.7,3.4,6.7,7.2v2.7c0,4-3.2,7.2-7.2,7.2h-18.1c-5.1,0-9.3-4-9.6-9l-.2-3.3-.7-.2c-5.8,8.4-16,15.5-32,15.5-33.9,0-46.4-23.9-46.4-56.4s20.2-66.6,61.2-66.6,24.6,1.6,41.1,7.9v88.4h.1ZM472.6,119.4c-3.5-1.4-10.4-3-17.4-3-23,0-29.7,21.1-29.7,44.8s4.6,36.4,23.9,36.4,23.2-10.2,23.2-21.1v-57.1Z"/>
  <path d="M599.7,120.7c0-11.6-11.3-12.7-11.3-12.7,0-5.3,4.3-9.6,9.6-9.6h29.1c4.6,0,8.4,3.8,8.4,8.4v1.4c0,4.3-3.2,7.9-7.5,8.4l-3.4.4c-1.4,12.8-8.8,25.3-20.9,34.6l20.8,41.2c1.3,2.6,3.9,4.4,6.9,4.6h0c4.4.3,7.8,4,7.8,8.4v1.2c0,4.6-3.8,8.4-8.4,8.4h-19.6c-3.7,0-7.1-2.1-8.7-5.5l-22-46.5c-5.3,2.1-10,3.2-15.5,3.9v29.7h0c0,.1,2.8.3,2.8.3,4.7.4,8.3,4.3,8.3,9h0c0,5-4.1,9.1-9.1,9.1h-42v-16.7l7.2-.7c3.7-.2,5.6-1.6,5.6-7v-116.2c0-5.1-1.2-6.5-5.3-6.7l-7.9-.7v-17.4h30.8c5.3,0,9.6,4.3,9.6,9.6v89.2c17.4-1.6,34.8-16.5,34.8-28.1"/>
  <path d="M743.8,128.3c0,33.2-28.1,41.3-67.5,39.9,1.2,15.5,8.8,29,29,29s15-2,20.4-4.5c5-2.3,10.9-.2,13,4.9l.7,1.6c2,4.7,0,10.2-4.7,12.4-7.2,3.4-18.6,7.2-32.4,7.2-39.2,0-53.8-25.5-53.8-58.5s20.2-64.7,57.3-64.7,38,10.9,38,32.7ZM704.6,116c-18.6,0-26.7,17.4-28.3,32.5,3.2.2,6.3.2,9.3.2,20.2,0,33.4-5.1,33.4-19s-5.8-13.7-14.4-13.7Z"/>
  <path d="M761.9,205.4c0-4.3,3-8,7.1-9.3,3.3-1,5.6-2.9,5.6-6.6v-120.1l-3.3-.3c-5-.4-8.9-4.5-8.9-9.6v-9.4h96c5.3,0,9.6,4.3,9.6,9.6v17.3c0,5-3.8,9.1-8.8,9.5l-3.3.3c-5.6.5-10.4-3.9-10.4-9.5v-.5c0-4.2-1.4-6-6-6h-36.4v51.4h45.9c5.3,0,9.6,4.3,9.6,9.6v2.2c0,5.3-4.3,9.6-9.6,9.6h-45.9v51.4h38.8c3.1,0,5.6-2.5,5.6-5.6v-2.4c0-5.6,4.8-10,10.4-9.5l3.3.3c5,.4,8.8,4.6,8.8,9.5v18.7c0,5.3-4.3,9.6-9.6,9.6h-98.5v-10.1h0Z"/>
  <path d="M924.7,107.4c7.2-7.4,17.9-11.8,29.7-11.8,28.1,0,45,19.7,45,55.4s-20.9,67.7-55.7,67.7-36.7-4.6-46.4-10V74.9c0-4.9-1.6-6.5-5.8-6.7h0c-4.1-.4-7.2-3.8-7.2-7.9v-10.2h40.4v57.3ZM924.7,193c4.6,2.5,12.3,4.6,19.9,4.6,15.8,0,26.7-11.6,26.7-42.4s-4.6-38.5-25.8-38.5-20.9,7.4-20.9,17.9v58.5h.1Z"/>
  <path d="M1071.8,95.5c17.2,0,51.3,5.1,51.3,58.5s-22.7,64.7-55,64.7-51-19.7-51-61.7,30.6-61.5,54.7-61.5ZM1094.1,157.7c0-25.5-5.8-41.3-23.7-41.3s-24.6,15.1-24.6,37.3,3,43.8,23.9,43.8,24.4-16.7,24.4-39.9h0Z"/>
  <path d="M1194.8,95.5c17.2,0,51.3,5.1,51.3,58.5s-22.7,64.7-55,64.7-51-19.7-51-61.7,30.6-61.5,54.7-61.5ZM1217,157.7c0-25.5-5.8-41.3-23.7-41.3s-24.6,15.1-24.6,37.3,3,43.8,23.9,43.8,24.4-16.7,24.4-39.9h0Z"/>
  <path d="M1335.6,120.8c0-11.6-11.3-12.7-11.3-12.7,0-5.3,4.3-9.6,9.6-9.6h29.1c4.6,0,8.4,3.8,8.4,8.4v1.4c0,4.3-3.2,7.9-7.5,8.4l-3.4.4c-1.4,12.8-8.8,25.3-20.9,34.6l20.8,41.2c1.3,2.6,3.9,4.4,6.9,4.6h0c4.4.3,7.8,4,7.8,8.4v1.2c0,4.6-3.8,8.4-8.4,8.4h-19.6c-3.7,0-7.1-2.1-8.7-5.5l-22-46.5c-5.3,2.1-10,3.2-15.5,3.9v29.7h0c0,.1,2.8.3,2.8.3,4.7.4,8.3,4.3,8.3,9h0c0,5-4.1,9.1-9.1,9.1h-42v-16.7l7.2-.7c3.7-.2,5.6-1.6,5.6-7v-116.2c0-5.1-1.2-6.5-5.3-6.7l-7.9-.7v-17.4h30.8c5.3,0,9.6,4.3,9.6,9.6v89.2c17.4-1.6,34.8-16.5,34.8-28.1"/>
  <g>
    <path d="M134.8,123.4c0,1.5-1.2,2.7-2.7,2.7h-47.8c-1.5,0-2.7-1.2-2.7-2.7s1.2-2.7,2.7-2.7h47.8c1.5,0,2.7,1.2,2.7,2.7Z"/>
    <path d="M132.4,100.6c0,1.5-1.2,2.7-2.7,2.7h-26.4c-1.5,0-2.7-1.2-2.7-2.7s1.2-2.7,2.7-2.7h26.4c1.5,0,2.7,1.2,2.7,2.7Z"/>
    <path d="M135.1,145.9c0,1.5-1.2,2.7-2.7,2.7h-46.5c-1.5,0-2.7-1.2-2.7-2.7s1.2-2.7,2.7-2.7h46.5c1.5,0,2.7,1.2,2.7,2.7Z"/>
    <g>
      <path d="M103.1,55.3c0,1.5-1.2,2.7-2.7,2.7h-25.4c-1.5,0-2.7-1.2-2.7-2.7s1.2-2.7,2.7-2.7h25.4c1.5,0,2.7,1.2,2.7,2.7Z"/>
      <path d="M117,32.9c0,1.5-1.2,2.7-2.7,2.7h-46.9c-1.5,0-2.7-1.2-2.7-2.7s1.2-2.7,2.7-2.7h46.9c1.5,0,2.7,1.2,2.7,2.7Z"/>
    </g>
    <path d="M30.6,309.3c-.3,0-.7,0-.9,0h3.2c.1,0,.3,0,.4,0h-2.7Z"/>
    <path d="M135.2,190.6c0,1.5-1.2,2.7-2.7,2.7h-47.8c-1.5,0-2.7-1.2-2.7-2.7s1.2-2.7,2.7-2.7h47.8c1.5,0,2.7,1.2,2.7,2.7Z"/>
    <path d="M112.2,213.5c0,1.5-1.2,2.7-2.7,2.7h-26.4c-1.5,0-2.7-1.2-2.7-2.7s1.2-2.7,2.7-2.7h26.4c1.5,0,2.7,1.2,2.7,2.7Z"/>
    <path d="M135.6,168.2c0,1.5-1.2,2.7-2.7,2.7h-46.5c-1.5,0-2.7-1.2-2.7-2.7s1.2-2.7,2.7-2.7h46.5c1.5,0,2.7,1.2,2.7,2.7Z"/>
    <g>
      <path d="M150.8,75.1h-6.8c-6.7-41.9-17-59.5-25.8-66.5-5.1-4.1-9.2-4-10.4-3.9H33c-.2,0-.3,0-.5,0h-6.5c-.1,0-.2,0-.3,0-.2,0-16.6,2.2-16.6,23.5s12.9,21.8,18.5,23.2c1,.3,2.1.4,3.2.4h23.7c1.7,6.6,3.3,14.3,4.7,23.3-7.4,0-13.3,6-13.3,13.4v137c0,7.4,6,13.4,13.4,13.4h.4c-1.4,8.9-3.1,16.6-4.7,23.2h-23.6c-1.1,0-2.2.1-3.4.4-5.6,1.4-18.5,6.6-18.5,23.2s16.5,23.5,16.6,23.5c.1,0,.2,0,.3,0h3.4c.3,0,.6,0,.9,0h77.6c1.2.1,5.2.2,10.3-3.8,8.7-6.9,19.1-24.3,25.9-66.6h6.4c7.4,0,13.4-6,13.4-13.4V88.5c0-7.4-6-13.4-13.4-13.4ZM34,45.6c-1.5.9-3.4,1.1-5.2.6-5.4-1.4-14.5-5.6-14.5-18s10.5-17.9,11.8-18.1h2c.2,0,.3,0,.5,0h1.4c1.2.1,3.3.8,6,3.1,2.3,2,5,5.1,7.8,10.1h-10.2c-1.4,0-2.7,1-3.1,2.4s.3,2.9,1.5,3.6c2.4,1.3,5.2,4.1,5.2,9.5s-1.1,5.6-3.3,6.9ZM40.6,46.5c1.2-1.9,2-4.4,2-7.7s-1.4-7.7-3.2-10h7.1c2.1,4.7,4.3,10.5,6.4,17.8h-12.3ZM40.5,10.1h67.5c.2,0,.3,0,.4,0,.1,0,2.9-.3,6.9,3.2,6.6,5.6,16.4,20.8,23.1,61.8h-73.9c-6.3-39.2-15.7-57.1-24-65ZM59.2,233.6c-4.4,0-8-3.6-8-8V88.5c0-4.4,3.6-8,8-8h.8c2.7,18.5,4.9,41.9,5.9,71.3h0c.3,7.6.3,15,0,22.2-1.1,24-3,43.6-5.4,59.6h-1.2ZM41,267.6h12.4c-2.1,7.3-4.3,13.1-6.4,17.8h-7.1c1.8-2.3,3.2-5.6,3.2-10.1s-.8-5.9-2-7.7ZM36.3,300.9c-2.7,2.2-4.8,2.9-5.9,3h-1.4c-.1,0-.3,0-.4,0h-2.1c-1.4-.2-11.8-2.5-11.8-18.1s9.1-16.6,14.5-18c1.8-.5,3.7-.2,5.2.6,2.2,1.3,3.3,3.6,3.3,6.9,0,5.4-2.8,8.2-5.2,9.5-1.3.7-1.9,2.2-1.5,3.6.4,1.4,1.6,2.4,3.1,2.4h10.2c-2.9,5.1-5.6,8.2-7.9,10.2ZM115.7,300.9c-4,3.4-6.7,3.1-6.8,3.1-.2,0-.3,0-.5,0H41c8.3-7.8,17.7-25.7,24-65h73.9c-6.8,41.4-16.7,56.5-23.2,61.9ZM139.8,233.6h-74c2.4-16.2,4.2-35.7,5.3-59.3.3-7.3.3-14.9,0-22.6-1-29-3-52.4-5.8-71.2h74c2.7,18.5,4.9,41.9,5.8,71.4.3,7.5.3,15,0,22.2-1.1,24-3,43.6-5.4,59.6ZM158.8,225.5c0,4.4-3.6,8-8,8h-5.6c2.4-16.2,4.2-35.7,5.3-59.3.3-7.3.3-14.9,0-22.6-1-29-3-52.4-5.8-71.2h6c4.4,0,8,3.6,8,8v137Z"/>
      <path d="M117.4,281.2c0,1.5-1.2,2.7-2.7,2.7h-46.9c-1.5,0-2.7-1.2-2.7-2.7s1.2-2.7,2.7-2.7h46.9c1.5,0,2.7,1.2,2.7,2.7Z"/>
      <path d="M125,258.7c0,1.5-1.2,2.7-2.7,2.7h-25.4c-1.5,0-2.7-1.2-2.7-2.7s1.2-2.7,2.7-2.7h25.4c1.5,0,2.7,1.2,2.7,2.7Z"/>
    </g>
  </g>
</svg>