<svg width="192" height="28" viewBox="0 0 192 28" fill="none" xmlns="http://www.w3.org/2000/svg">
<path d="M0.173296 27V7.36364H5.36364V10.8281H5.59375C6.00284 9.67756 6.68466 8.76989 7.6392 8.10511C8.59375 7.44034 9.7358 7.10795 11.0653 7.10795C12.4119 7.10795 13.5582 7.4446 14.5043 8.1179C15.4503 8.78267 16.081 9.68608 16.3963 10.8281H16.6009C17.0014 9.70312 17.7259 8.80398 18.7741 8.13068C19.831 7.44886 21.0795 7.10795 22.5199 7.10795C24.3523 7.10795 25.8395 7.69176 26.9815 8.85938C28.1321 10.0185 28.7074 11.6634 28.7074 13.794V27H23.2741V14.8679C23.2741 13.777 22.9844 12.9588 22.4048 12.4134C21.8253 11.8679 21.1009 11.5952 20.2315 11.5952C19.2429 11.5952 18.4716 11.9105 17.9176 12.5412C17.3636 13.1634 17.0866 13.9858 17.0866 15.0085V27H11.8068V14.7528C11.8068 13.7898 11.5298 13.0227 10.9759 12.4517C10.4304 11.8807 9.71023 11.5952 8.81534 11.5952C8.21023 11.5952 7.66477 11.7486 7.17898 12.0554C6.7017 12.3537 6.32244 12.7756 6.04119 13.321C5.75994 13.858 5.61932 14.4886 5.61932 15.2131V27H0.173296ZM37.1687 27.3707C35.9158 27.3707 34.7993 27.1534 33.8192 26.7188C32.8391 26.2756 32.0636 25.6236 31.4925 24.7628C30.93 23.8935 30.6488 22.8111 30.6488 21.5156C30.6488 20.4247 30.8491 19.5085 31.2496 18.767C31.6502 18.0256 32.1957 17.429 32.886 16.9773C33.5763 16.5256 34.3604 16.1847 35.2383 15.9545C36.1246 15.7244 37.0536 15.5625 38.0252 15.4688C39.1672 15.3494 40.0877 15.2386 40.7866 15.1364C41.4854 15.0256 41.9925 14.8636 42.3079 14.6506C42.6232 14.4375 42.7809 14.1222 42.7809 13.7045V13.6278C42.7809 12.8182 42.5252 12.1918 42.0138 11.7486C41.511 11.3054 40.7951 11.0838 39.8661 11.0838C38.886 11.0838 38.1062 11.3011 37.5266 11.7358C36.9471 12.1619 36.5636 12.6989 36.3761 13.3466L31.3391 12.9375C31.5948 11.7443 32.0976 10.7131 32.8476 9.84375C33.5976 8.96591 34.565 8.29261 35.7496 7.82386C36.9428 7.34659 38.3235 7.10795 39.8917 7.10795C40.9826 7.10795 42.0266 7.2358 43.0238 7.49148C44.0295 7.74716 44.9201 8.14347 45.6957 8.6804C46.4797 9.21733 47.0976 9.90767 47.5493 10.7514C48.0011 11.5866 48.2269 12.5881 48.2269 13.7557V27H43.0621V24.277H42.9087C42.5934 24.8906 42.1715 25.4318 41.6431 25.9006C41.1147 26.3608 40.4797 26.723 39.7383 26.9872C38.9968 27.2429 38.1403 27.3707 37.1687 27.3707ZM38.7283 23.6122C39.5295 23.6122 40.2368 23.4545 40.8505 23.1392C41.4641 22.8153 41.9457 22.3807 42.2951 21.8352C42.6445 21.2898 42.8192 20.6719 42.8192 19.9815V17.8977C42.6488 18.0085 42.4144 18.1108 42.1161 18.2045C41.8263 18.2898 41.4982 18.3707 41.1317 18.4474C40.7653 18.5156 40.3988 18.5795 40.0323 18.6392C39.6658 18.6903 39.3334 18.7372 39.0351 18.7798C38.3959 18.8736 37.8377 19.0227 37.3604 19.2273C36.8832 19.4318 36.5124 19.7088 36.2482 20.0582C35.984 20.3991 35.8519 20.8253 35.8519 21.3366C35.8519 22.0781 36.1204 22.6449 36.6573 23.0369C37.2028 23.4205 37.8931 23.6122 38.7283 23.6122ZM55.9467 21.3494L55.9595 14.8168H56.7521L63.0419 7.36364H69.2933L60.843 17.233H59.5518L55.9467 21.3494ZM51.012 27V0.818181H56.4581V27H51.012ZM63.2848 27L57.5064 18.4474L61.137 14.5994L69.664 27H63.2848ZM78.6654 27.3835C76.6456 27.3835 74.9069 26.9744 73.4495 26.1562C72.0007 25.3295 70.8842 24.1619 70.1001 22.6534C69.316 21.1364 68.924 19.3423 68.924 17.2713C68.924 15.2514 69.316 13.4787 70.1001 11.9531C70.8842 10.4276 71.9879 9.23864 73.4112 8.38636C74.843 7.53409 76.522 7.10795 78.4481 7.10795C79.7436 7.10795 80.9495 7.31676 82.066 7.73438C83.191 8.14347 84.1711 8.76136 85.0064 9.58807C85.8501 10.4148 86.5064 11.4545 86.9751 12.7074C87.4439 13.9517 87.6782 15.4091 87.6782 17.0795V18.5753H71.0973V15.2003H82.5518C82.5518 14.4162 82.3814 13.7216 82.0404 13.1165C81.6995 12.5114 81.2265 12.0384 80.6214 11.6974C80.0248 11.348 79.3302 11.1733 78.5376 11.1733C77.7109 11.1733 76.9779 11.3651 76.3387 11.7486C75.7081 12.1236 75.2137 12.6307 74.8558 13.2699C74.4978 13.9006 74.3146 14.6037 74.3061 15.3793V18.5881C74.3061 19.5597 74.485 20.3991 74.843 21.1065C75.2095 21.8139 75.7251 22.3594 76.3899 22.7429C77.0546 23.1264 77.843 23.3182 78.7549 23.3182C79.36 23.3182 79.914 23.233 80.4169 23.0625C80.9197 22.892 81.3501 22.6364 81.7081 22.2955C82.066 21.9545 82.3387 21.5369 82.5262 21.0426L87.5632 21.375C87.3075 22.5852 86.7833 23.642 85.9907 24.5455C85.2066 25.4403 84.1924 26.1392 82.9481 26.642C81.7123 27.1364 80.2848 27.3835 78.6654 27.3835ZM89.8945 27V0.818181H107.537V5.3821H95.43V11.6207H106.629V16.1847H95.43V22.4361H107.588V27H89.8945ZM110.497 27V0.818181H115.943V10.6619H116.11C116.348 10.1335 116.693 9.59659 117.145 9.05114C117.605 8.49716 118.202 8.03693 118.935 7.67045C119.676 7.29545 120.597 7.10795 121.696 7.10795C123.128 7.10795 124.449 7.48295 125.659 8.23295C126.87 8.97443 127.837 10.0952 128.561 11.5952C129.286 13.0866 129.648 14.9574 129.648 17.2074C129.648 19.3977 129.294 21.2472 128.587 22.7557C127.888 24.2557 126.934 25.3935 125.723 26.169C124.522 26.9361 123.175 27.3196 121.684 27.3196C120.627 27.3196 119.728 27.1449 118.986 26.7955C118.253 26.446 117.652 26.0071 117.184 25.4787C116.715 24.9418 116.357 24.4006 116.11 23.8551H115.867V27H110.497ZM115.828 17.1818C115.828 18.3494 115.99 19.3679 116.314 20.2372C116.638 21.1065 117.107 21.7841 117.72 22.2699C118.334 22.7472 119.08 22.9858 119.958 22.9858C120.844 22.9858 121.594 22.7429 122.208 22.2571C122.821 21.7628 123.286 21.081 123.601 20.2116C123.925 19.3338 124.087 18.3239 124.087 17.1818C124.087 16.0483 123.929 15.0511 123.614 14.1903C123.299 13.3295 122.834 12.6562 122.22 12.1705C121.607 11.6847 120.853 11.4418 119.958 11.4418C119.071 11.4418 118.321 11.6761 117.708 12.1449C117.103 12.6136 116.638 13.2784 116.314 14.1392C115.99 15 115.828 16.0142 115.828 17.1818ZM140.714 27.3835C138.728 27.3835 137.011 26.9616 135.562 26.1179C134.122 25.2656 133.01 24.081 132.225 22.5639C131.441 21.0384 131.049 19.2699 131.049 17.2585C131.049 15.2301 131.441 13.4574 132.225 11.9403C133.01 10.4148 134.122 9.23011 135.562 8.38636C137.011 7.53409 138.728 7.10795 140.714 7.10795C142.7 7.10795 144.413 7.53409 145.853 8.38636C147.302 9.23011 148.419 10.4148 149.203 11.9403C149.987 13.4574 150.379 15.2301 150.379 17.2585C150.379 19.2699 149.987 21.0384 149.203 22.5639C148.419 24.081 147.302 25.2656 145.853 26.1179C144.413 26.9616 142.7 27.3835 140.714 27.3835ZM140.74 23.1648C141.643 23.1648 142.397 22.9091 143.002 22.3977C143.608 21.8778 144.063 21.1705 144.37 20.2756C144.686 19.3807 144.843 18.3622 144.843 17.2202C144.843 16.0781 144.686 15.0597 144.37 14.1648C144.063 13.2699 143.608 12.5625 143.002 12.0426C142.397 11.5227 141.643 11.2628 140.74 11.2628C139.828 11.2628 139.061 11.5227 138.438 12.0426C137.825 12.5625 137.36 13.2699 137.045 14.1648C136.738 15.0597 136.585 16.0781 136.585 17.2202C136.585 18.3622 136.738 19.3807 137.045 20.2756C137.36 21.1705 137.825 21.8778 138.438 22.3977C139.061 22.9091 139.828 23.1648 140.74 23.1648ZM161.352 27.3835C159.366 27.3835 157.649 26.9616 156.2 26.1179C154.76 25.2656 153.648 24.081 152.864 22.5639C152.079 21.0384 151.687 19.2699 151.687 17.2585C151.687 15.2301 152.079 13.4574 152.864 11.9403C153.648 10.4148 154.76 9.23011 156.2 8.38636C157.649 7.53409 159.366 7.10795 161.352 7.10795C163.338 7.10795 165.051 7.53409 166.491 8.38636C167.94 9.23011 169.057 10.4148 169.841 11.9403C170.625 13.4574 171.017 15.2301 171.017 17.2585C171.017 19.2699 170.625 21.0384 169.841 22.5639C169.057 24.081 167.94 25.2656 166.491 26.1179C165.051 26.9616 163.338 27.3835 161.352 27.3835ZM161.378 23.1648C162.281 23.1648 163.035 22.9091 163.641 22.3977C164.246 21.8778 164.702 21.1705 165.008 20.2756C165.324 19.3807 165.481 18.3622 165.481 17.2202C165.481 16.0781 165.324 15.0597 165.008 14.1648C164.702 13.2699 164.246 12.5625 163.641 12.0426C163.035 11.5227 162.281 11.2628 161.378 11.2628C160.466 11.2628 159.699 11.5227 159.077 12.0426C158.463 12.5625 157.998 13.2699 157.683 14.1648C157.376 15.0597 157.223 16.0781 157.223 17.2202C157.223 18.3622 157.376 19.3807 157.683 20.2756C157.998 21.1705 158.463 21.8778 159.077 22.3977C159.699 22.9091 160.466 23.1648 161.378 23.1648ZM178.053 21.3494L178.066 14.8168H178.858L185.148 7.36364H191.399L182.949 17.233H181.658L178.053 21.3494ZM173.118 27V0.818181H178.564V27H173.118ZM185.391 27L179.612 18.4474L183.243 14.5994L191.77 27H185.391Z" fill="black"/>
</svg>
