<?xml version="1.0" encoding="UTF-8"?>
<svg id="Layer_1" xmlns="http://www.w3.org/2000/svg" xmlns:xlink="http://www.w3.org/1999/xlink" version="1.1" viewBox="0 0 1672 316.8">
  <!-- Generator: Adobe Illustrator 29.8.2, SVG Export Plug-In . SVG Version: 2.1.1 Build 3)  -->
  <defs>
    <style>
      .st0, .st1 {
        fill: none;
        stroke: #000;
        stroke-miterlimit: 10;
        stroke-width: 16px;
      }

      .st1 {
        stroke-linecap: round;
      }

      .st2 {
        display: none;
      }
    </style>
  </defs>
  <g class="st2">
    <image width="289" height="123" transform="translate(73.2 182.7) scale(.5)" xlink:href="make-ebook-logomark-1.png"/>
  </g>
  <g class="st2">
    <image width="281" height="114" transform="translate(142.3 316.6) scale(.5)" xlink:href="make-ebook-logomark-2.png"/>
  </g>
  <g>
    <path d="M611.8,219c0-4.1,2.6-7.7,6.5-9,3-.9,5.5-2.5,5.5-5.2v-50.3c0-13.7-2.8-23.2-18.3-23.2s-21.6,10.9-21.6,23.7v52.9c0,1.4,1.1,2.6,2.5,2.7h0c4.7.3,8.4,4.2,8.4,9h0c0,5-4,9-9,9h-41.4s0-16.5,0-16.5l7-.7c3.9-.5,5.1-1.9,5.1-6.3v-50.3c0-12.8-2.1-23.4-17.9-23.4s-22,11.1-22,24.6v54.3l11.4.9v17.4h-51.3v-16.7l7.2-.7c4.4-.7,5.6-1.9,5.6-7v-67.5c0-5.1-1.4-6.5-5.8-7l-7.4-.5v-17.6h38v16.5h.2c6.5-11.8,18.1-19.5,34.3-19.5s25,5.3,31.8,20.2c7-13.5,19.3-20.2,34.8-20.2,23.2,0,35.7,13.7,35.7,40.1v58.1c0,2,1.6,3.7,3.6,3.8h0c4.7.3,8.4,4.2,8.4,8.9h0c0,4.9-4,8.9-8.9,8.9h-33.1c-5.2,0-9.5-4.2-9.5-9.5h0Z"/>
    <path d="M779.8,204.8c0,4.6,1.2,6.3,5.1,6.5h0c3.8.3,6.7,3.4,6.7,7.2v2.7c0,4-3.2,7.2-7.2,7.2h-18.1c-5.1,0-9.3-4-9.6-9l-.2-3.3-.7-.2c-5.8,8.4-16,15.5-32,15.5-33.9,0-46.4-23.9-46.4-56.4s20.2-66.6,61.2-66.6,24.6,1.6,41.1,7.9v88.4ZM752.6,132.4c-3.5-1.4-10.4-3-17.4-3-23,0-29.7,21.1-29.7,44.8s4.6,36.4,23.9,36.4,23.2-10.2,23.2-21.1v-57.1Z"/>
    <path d="M844.9,210.1l2.8.2c4.7.4,8.3,4.3,8.3,9h0c0,5-4.1,9.1-9.1,9.1h-42s0-16.7,0-16.7l7.2-.7c3.7-.2,5.6-1.6,5.6-7v-116.2c0-5.1-1.2-6.5-5.3-6.7l-7.9-.7v-17.4h30.8c5.3,0,9.6,4.3,9.6,9.6v89.2c17.4-1.6,34.8-16.5,34.8-28.1s-2.1-4.2-5.3-4.6l-6-.7v-7.4c0-5.3,4.3-9.6,9.6-9.6h29.1c4.6,0,8.4,3.8,8.4,8.4v1.4c0,4.3-3.2,7.9-7.5,8.4l-3.4.4c-1.4,12.8-8.8,25.3-20.9,34.6l20.8,41.2c1.3,2.6,3.9,4.4,6.9,4.6h0c4.4.3,7.8,4,7.8,8.4v1.2c0,4.6-3.8,8.4-8.4,8.4h-19.6c-3.7,0-7.1-2.1-8.7-5.5l-22-46.5c-5.3,2.1-10,3.2-15.5,3.9v29.7Z"/>
    <path d="M1023.8,141.3c0,33.2-28.1,41.3-67.5,39.9,1.2,15.5,8.8,29,29,29s15-2,20.4-4.5c5-2.3,10.9-.2,13,4.9l.7,1.6c2,4.7,0,10.2-4.7,12.4-7.2,3.4-18.6,7.2-32.4,7.2-39.2,0-53.8-25.5-53.8-58.5s20.2-64.7,57.3-64.7,38,10.9,38,32.7ZM984.6,129c-18.6,0-26.7,17.4-28.3,32.5,3.2.2,6.3.2,9.3.2,20.2,0,33.4-5.1,33.4-19s-5.8-13.7-14.4-13.7Z"/>
    <path d="M1041.9,218.4c0-4.3,3-8,7.1-9.3,3.3-1,5.6-2.9,5.6-6.6v-120.1c.1,0-3.3-.3-3.3-.3-5-.4-8.9-4.5-8.9-9.6v-9.4h96c5.3,0,9.6,4.3,9.6,9.6v17.3c0,5-3.8,9.1-8.8,9.5l-3.3.3c-5.6.5-10.4-3.9-10.4-9.5v-.5c0-4.2-1.4-6-6-6h-36.4v51.4h45.9c5.3,0,9.6,4.3,9.6,9.6v2.2c0,5.3-4.3,9.6-9.6,9.6h-45.9v51.4c-.1,0,38.8,0,38.8,0,3.1,0,5.6-2.5,5.6-5.6v-2.4c0-5.6,4.8-10,10.4-9.5l3.3.3c5,.4,8.8,4.6,8.8,9.5v18.7c0,5.3-4.3,9.6-9.6,9.6h-98.5v-10.1Z"/>
    <path d="M1204.7,120.4c7.2-7.4,17.9-11.8,29.7-11.8,28.1,0,45,19.7,45,55.4s-20.9,67.7-55.7,67.7-36.7-4.6-46.4-10V87.9c0-4.9-1.6-6.5-5.8-6.7h0c-4.1-.4-7.2-3.8-7.2-7.9v-10.2h40.4v57.3ZM1204.7,206c4.6,2.5,12.3,4.6,19.9,4.6,15.8,0,26.7-11.6,26.7-42.4s-4.6-38.5-25.8-38.5-20.9,7.4-20.9,17.9v58.5Z"/>
    <path d="M1351.8,108.5c17.2,0,51.3,5.1,51.3,58.5s-22.7,64.7-55,64.7-51-19.7-51-61.7,30.6-61.5,54.7-61.5ZM1374.1,170.7c0-25.5-5.8-41.3-23.7-41.3s-24.6,15.1-24.6,37.3,3,43.8,23.9,43.8,24.4-16.7,24.4-39.9Z"/>
    <path d="M1474.8,108.5c17.2,0,51.3,5.1,51.3,58.5s-22.7,64.7-55,64.7-51-19.7-51-61.7,30.6-61.5,54.7-61.5ZM1497,170.7c0-25.5-5.8-41.3-23.7-41.3s-24.6,15.1-24.6,37.3,3,43.8,23.9,43.8,24.4-16.7,24.4-39.9Z"/>
    <path d="M1580.8,210.1l2.8.2c4.7.4,8.3,4.3,8.3,9h0c0,5-4.1,9.1-9.1,9.1h-42s0-16.7,0-16.7l7.2-.7c3.7-.2,5.6-1.6,5.6-7v-116.2c0-5.1-1.2-6.5-5.3-6.7h0c-4.5-.4-7.9-4.1-7.9-8.6v-9.5h31.3c5,0,9.1,4.1,9.1,9.1v89.8c17.4-1.6,34.8-16.5,34.8-28.1s-2.1-4.2-5.3-4.6l-6-.7v-7.4c0-5.3,4.3-9.6,9.6-9.6h28.5c5,0,9,4,9,9v.3c0,4.6-3.5,8.5-8.1,9l-2.8.3c-1.4,12.8-8.8,25.3-20.9,34.6l23,45.5,4.2.3c4.7.4,8.4,4.3,8.4,9h0c0,5-4,9-9,9h-19.4c-3.5,0-6.7-2-8.2-5.2l-22.1-46.8c-5.3,2.1-10,3.2-15.5,3.9v29.7Z"/>
  </g>
  <g>
    <polyline class="st1" points="138.5 298.3 17.2 228.5 17 88.7 138 18.5"/>
    <path class="st0" d="M393.6,158.2c0,23.6-6.2,46.2-17.5,65.9s-27.8,36.5-48.2,48.3c-20.4,11.8-43.1,17.7-65.9,17.8-19.4,0-38.9-4.2-56.9-12.8-2.3-1.1-4.7-2.3-6.9-3.6-.7-.4-1.4-.8-2.1-1.2-6.7-3.8-12.9-8.2-18.7-13-12-10-21.9-21.9-29.6-35.2-11.4-19.7-17.7-42.3-17.8-65.9,0-39.4,17.5-76.3,47.1-101.2,5.8-4.9,12-9.2,18.7-13.1.7-.4,1.4-.8,2.1-1.2,2.3-1.3,4.6-2.4,6.9-3.6,18-8.7,37.4-13,56.9-13,22.8,0,45.5,5.8,65.9,17.5,20.4,11.8,36.9,28.5,48.3,48.2,11.4,19.7,17.7,42.3,17.8,65.9Z"/>
    <line class="st1" x1="189.8" y1="269.8" x2="140.8" y2="298.3"/>
    <line class="st1" x1="140.3" y1="18.5" x2="189.3" y2="46.7"/>
  </g>
</svg>