<?xml version="1.0" encoding="UTF-8"?>
<svg id="Layer_1" xmlns="http://www.w3.org/2000/svg" version="1.1" viewBox="0 0 90 120">
  <!-- Generator: Adobe Illustrator 29.8.2, SVG Export Plug-In . SVG Version: 2.1.1 Build 3)  -->
  <path d="M88.1,93.1c0-2.6-1.3-4.5-1.8-7-.7-3.3.3-6.9.5-10.2.2-3.5.2-7,.1-10.5-.2-13.7-.4-27.4-.6-41.2,0-4.7,1.2-11.7-2.3-15.4-3.7-3.9-11.4-4-16.5-4.2-7.3-.3-14.7.3-22-.1-8.2-.5-16.4-2-24.6-1.6-5.4.3-11.5.8-15.2,5.2-2.4,2.8-3.1,6.4-3.1,10-.2.5-.4,1.1-.4,1.8.3,14.4,1.1,29,.6,43.4-.2,6.9-1.2,13.2-.6,20.1.6,7-.7,13.9-.4,20.8.2,4.5,1,8.7,5.4,10.8,5.6,2.6,13.8,2.1,19.8,2.1,14,0,28-1.8,42-1,4.2.2,8.8.8,12.7-1.2,5.5-2.8,5.6-7.9,5.5-13.3,0-2.9.8-5.7.8-8.6ZM78.9,107.4c-2.4,2.6-10.6.7-13.5.6-11.5-.3-22.9.9-34.4,1.1-5.1.1-10.2,0-15.2-.5-3.5-.4-5.6-.3-5.8-4.4-.1-2.7,0-5.4.3-8.1.4-6.3-.2-12.2-.4-18.5-.1-6.4,1.1-12.8,1.1-19.3,0-10.9-.3-21.8-.6-32.8.4-.6.7-1.4.6-2.4-.4-3.4-1.3-8.7,2-10.8,4.3-2.8,12.5-1.6,17.4-1.3,10.7.7,21,1.5,31.8,1.5,3.6,0,13.1-1,15.6,1.9,1.3,1.5.6,5.8.6,7.8,0,2.9,0,5.7.1,8.6.2,10.8.3,21.6.5,32.5,0,5,.2,10-.3,15-.2,2.4-.5,4.8-.3,7.2.2,2.6,1.8,5,1.9,7.5.1,2.3-.9,4.6-.9,7,0,1.9,1.1,5.8-.4,7.4Z"/>
  <path d="M65.5,21.2c-13.6-.6-27.3-.7-40.9-.5-5.1,0-5.2,8.1,0,8,13.7-.3,27.3,0,40.9.5,5.1.2,5.1-7.8,0-8Z"/>
  <path d="M64.9,37.3c-13.3.7-26.5.6-39.8-.2-5.1-.3-5.1,7.7,0,8,13.3.8,26.5.8,39.8.2,5.1-.3,5.2-8.3,0-8Z"/>
  <path d="M49.8,92.5h-9.6c-5.1,0-5.2,8,0,8h9.6c5.1,0,5.2-8,0-8Z"/>
  <path d="M64.6,53.6c-2.7-.2-5.1.2-7.8.7-3.7.6-7.1,0-10.8-.2-6.9-.4-13.8-.3-20.7-.1-5.1.1-5.2,8.1,0,8,6.9-.2,13.8-.3,20.7.1,3.1.2,6.2.7,9.3.4,3.1-.3,6.1-1.1,9.3-.9,5.1.4,5.1-7.6,0-8Z"/>
  <path d="M64.3,70.6c-12.9.2-25.8.2-38.7,0-5.1,0-5.2,7.9,0,8,12.9.2,25.8.2,38.7,0,5.1,0,5.2-8.1,0-8Z"/>
</svg>