<?xml version="1.0" encoding="UTF-8"?>
<svg id="Layer_1" xmlns="http://www.w3.org/2000/svg" version="1.1" viewBox="0 0 264.8 273.3">
  <!-- Generator: Adobe Illustrator 30.2.1, SVG Export Plug-In . SVG Version: 2.1.1 Build 1)  -->
  <defs>
    <style>
      .st0 {
        stroke: #221f1f;
        stroke-linecap: round;
        stroke-linejoin: round;
        stroke-width: 24.5px;
      }
    </style>
  </defs>
  <path d="M263.1,13.8v151.3c0,4.3-2.2,8.1-5.6,10.3-1.9,1.2-4.2,2-6.7,2s-4.8-.7-6.7-2c-3.3-2.2-5.5-6-5.5-10.3V31.9c-12.6,4-31.3,8.2-54.5,8.2s-36.7,14.5-39.4,19.6v135.7c0,.8,0,1.6-.2,2.4-1.1,5.6-6.1,9.9-12,9.9s-10.9-4.2-12-9.8c-.2-.8-.2-1.6-.2-2.4V59.7c-2.7-5-12.9-19.6-39.4-19.6s-41.9-4.2-54.5-8.2v133.3c0,4.3-2.2,8.1-5.6,10.3-1.9,1.3-4.2,2-6.7,2s-4.7-.7-6.6-2c-3.4-2.2-5.6-6-5.6-10.3V13.8c0-4.3,2.3-8.3,6-10.5,3.7-2.2,8.3-2.3,12.1-.2.2,0,23.9,12.5,60.9,12.5s42.3,10.2,51.6,19.9c9.4-9.7,25.4-19.9,51.7-19.9s60.7-12.4,60.9-12.6c3.8-2.1,8.4-2,12.1.2s6,6.2,6,10.5h-.1Z"/>
  <g>
    <path d="M261.2,221.9c0,.2-.2.3-.3.5-.2.3-.4.6-.7.9-.2.3-.5.6-.7.9-.1.2-.3.3-.4.5-.2.2-.4.4-.6.6-.6.5-1.3,1-2.1,1.4h0s0,0-.1,0c-1.1.6-25.7,13.7-64.8,15.3-.6,0-1.2,0-1.9,0-.6,0-1.3,0-1.9,0-1.3,0-2.7,0-4,0s-.9,0-1.4,0c-27.4.5-36.7,16.9-38.5,20.6h0c-.1.3-.2.5-.3.6-.9,2.5-2.4,4.5-4.4,5.9-1.7,1.2-3.8,2-6,2.2-.3,0-.7,0-1,0s-.6,0-.9,0c-2.2-.2-4.3-1-6-2.2-2-1.4-3.5-3.5-4.4-5.9,0-.1-.1-.3-.3-.6h0c-.8-1.8-3.3-6.3-8.6-10.6-5.9-4.9-15.4-9.7-29.9-10-.5,0-1.1,0-1.6,0-1.3,0-2.6,0-3.8,0-.7,0-1.3,0-1.9,0-.6,0-1.3,0-1.9,0-39.1-1.6-63.6-14.8-64.8-15.3,0,0,0,0-.1,0h0c-.8-.4-1.5-.9-2.1-1.5-.2-.2-.4-.4-.6-.6-.2-.2-.3-.3-.4-.5-.3-.3-.5-.6-.7-.9-.2-.3-.4-.6-.6-.9-.1-.2-.2-.3-.3-.5-1.1-2.1-1.7-4.4-1.5-6.8,0-.5,0-.9.2-1.4.2-1.2.7-2.4,1.3-3.6,1-1.9,2.5-3.4,4.1-4.4,3.6-2.3,8.4-2.7,12.4-.5,0,0,.3.2.9.4,4.6,2.2,27.1,12.1,60.1,12.1s3.3,0,4.7,0c7.9.4,14.8,1.7,20.8,3.7.3.2.8.4,1.3.5,6.1,2.1,11.2,6.2,15.2,11.2,2.1,2.7,5.3,4.4,9,4.6.2,0,.5,0,.7,0s.4,0,.6,0c3.6-.2,6.9-1.9,9-4.6,4-5,9.1-9.1,15.2-11.2.5-.2.9-.4,1.3-.5,6-2,12.9-3.3,20.8-3.6,1.5,0,3,0,4.7,0,33,0,55.5-9.9,60.1-12.1.6-.2.9-.4.9-.4,4-2.2,8.8-1.8,12.4.5,1.6,1,3.1,2.5,4.1,4.4.6,1.1,1,2.3,1.3,3.6,0,.5.1.9.2,1.4.1,2.4-.4,4.7-1.5,6.8Z"/>
    <path d="M3,221.9c-1.1-2.1-1.7-4.4-1.5-6.8-.1,2.4.4,4.7,1.5,6.8Z"/>
    <path d="M5.8,225.3c.6.5,1.3,1,2.1,1.4h0c-.8-.4-1.4-.9-2.1-1.4Z"/>
    <path d="M143.5,263.5c0-.1.1-.3.3-.6,0,.2,0,.4,0,.5-1.6,4.7-5.7,7.9-10.6,8.3,2.2-.2,4.3-1,6-2.2,2-1.4,3.5-3.5,4.4-5.9Z"/>
    <path d="M157,221.9c.4-.2.9-.3,1.3-.5-.3.2-.8.4-1.3.5-6.1,2.1-11.2,6.2-15.2,11.2-2.1,2.7-5.3,4.4-9,4.6,3.6-.2,6.7-2,8.9-4.6,4.1-5.1,9.2-9.2,15.3-11.3Z"/>
    <path d="M256.4,226.7h0c-1.1.6-25.7,13.8-64.9,15.4,39.1-1.6,63.6-14.8,64.8-15.3,0,0,0,0,.1,0Z"/>
    <path d="M262.5,213.8c-.2-1.2-.7-2.4-1.3-3.6-1-1.9-2.5-3.4-4.1-4.4-3.6-2.3-8.4-2.7-12.4-.5,0,0-.3.2-.9.4-4.6,2.2-27.1,12.1-60.1,12.1s-3.3,0-4.7,0c1.5,0,3-.1,4.6-.1,33.1,0,55.5-9.9,60.1-12.1.5-.3.8-.4.9-.4,4.1-2.2,8.8-1.9,12.5.5,1.7,1.1,3.1,2.6,4.1,4.4.6,1.2,1.1,2.4,1.3,3.7Z"/>
    <path class="st0" d="M132.2,259.2"/>
  </g>
</svg>