<?xml version="1.0" encoding="UTF-8"?>
<svg id="Layer_1" xmlns="http://www.w3.org/2000/svg" version="1.1" viewBox="0 0 90 61.3">
  <!-- Generator: Adobe Illustrator 29.8.2, SVG Export Plug-In . SVG Version: 2.1.1 Build 3)  -->
  <defs>
    <style>
      .st0 {
        stroke-linecap: round;
      }

      .st0, .st1 {
        fill: none;
        stroke: #000;
        stroke-miterlimit: 10;
        stroke-width: 4px;
      }
    </style>
  </defs>
  <polyline class="st0" points="33.5 54.6 12.7 42.7 12.7 18.7 33.5 6.6"/>
  <path class="st1" d="M77.3,30.6c0,4-1.1,7.9-3,11.3s-4.8,6.3-8.3,8.3c-3.5,2-7.4,3-11.3,3-3.3,0-6.7-.7-9.8-2.2-.4-.2-.8-.4-1.2-.6-.1,0-.2-.1-.4-.2-1.1-.7-2.2-1.4-3.2-2.2-2-1.7-3.8-3.8-5.1-6-2-3.4-3-7.3-3-11.3,0-6.8,3-13.1,8.1-17.4,1-.8,2.1-1.6,3.2-2.2.1,0,.2-.1.4-.2.4-.2.8-.4,1.2-.6,3.1-1.5,6.4-2.2,9.8-2.2,3.9,0,7.8,1,11.3,3,3.5,2,6.3,4.9,8.3,8.3,2,3.4,3,7.3,3,11.3Z"/>
  <line class="st0" x1="42.3" y1="49.7" x2="33.9" y2="54.6"/>
  <line class="st0" x1="33.8" y1="6.6" x2="42.3" y2="11.5"/>
</svg>