<?xml version="1.0" encoding="UTF-8"?>
<svg id="Layer_1" xmlns="http://www.w3.org/2000/svg" version="1.1" viewBox="0 0 264.8 273.3">
  <!-- Generator: Adobe Illustrator 29.8.2, SVG Export Plug-In . SVG Version: 2.1.1 Build 3)  -->
  <defs>
    <style>
      .st0 {
        fill: #231f20;
      }

      .st1 {
        fill: none;
        stroke: #231f20;
        stroke-linecap: round;
        stroke-linejoin: round;
        stroke-width: 24.8px;
      }
    </style>
  </defs>
  <path class="st0" d="M258.2,227.9c-1.2.6-29.3,15.7-73.6,15.7s-39.9,19.7-40.7,21.4c-1.7,5-6.3,8.4-11.6,8.4h0c-5.3,0-9.8-3.3-11.6-8.3,0,0,0,0,0,0-.7-1.7-9.6-21.4-40.7-21.4-44.1,0-72.3-15.1-73.5-15.7-6-3.3-8.2-10.8-5-16.8,1.1-2,2.6-3.6,4.4-4.6,3.6-2.2,8.3-2.5,12.4-.3,0,0,.2.1.6.3,4,2,27,12.4,61.1,12.4s19.7,1.7,27.2,4.3c6.2,2.1,11.4,6.3,15.5,11.3,2.3,2.7,5.7,4.5,9.5,4.5h0c0,0,0,0,0,0,3.8,0,7.2-1.8,9.5-4.5,4.2-5,9.4-9.1,15.5-11.3,7.6-2.6,16.6-4.3,27.2-4.3,34.2,0,57.1-10.4,61.1-12.4.4-.2.6-.3.6-.3,4-2.2,8.7-1.9,12.4.3,1.8,1.1,3.3,2.7,4.4,4.6,3.3,6,1.1,13.5-5,16.8Z"/>
  <path class="st1" d="M132.4,260.7"/>
  <path class="st0" d="M264.7,12.2v153.2c0,6.9-5.5,12.4-12.4,12.4s-12.4-5.5-12.4-12.4V30.5c-12.8,4.1-31.7,8.3-55.2,8.3s-37.2,14.8-39.9,19.8v137.4c0,6.8-5.5,12.4-12.4,12.4s-12.4-5.5-12.4-12.4V58.7c-2.8-5.1-13.1-19.8-39.9-19.8s-42.4-4.2-55.2-8.3v134.9c0,6.9-5.5,12.4-12.4,12.4S.1,172.3.1,165.4V12.2C.1,7.9,2.4,3.8,6.2,1.6c3.8-2.2,8.4-2.3,12.3-.2.2,0,24.2,12.7,61.7,12.7s42.8,10.3,52.3,20.2c9.5-9.8,25.8-20.2,52.3-20.2S246.2,1.5,246.4,1.3c3.8-2.1,8.5-2,12.2.2,3.8,2.2,6,6.3,6,10.7Z"/>
</svg>