<?xml version="1.0" encoding="UTF-8"?><svg id="Layer_2" xmlns="http://www.w3.org/2000/svg" viewBox="0 0 112 120"><defs><style>.cls-1{fill:#111136;}</style></defs><g id="Layer_1-2"><path class="cls-1" d="M79.73,12.51c4.41-.06,10.74-1.03,9.46,5.32,1.73-.33,6.13-1.97,7.61-1.13,1.55.88,1.83,3.39,2.57,4.48.31.46.91.52,1.22,1.05.28.46,1.45,4.04,1.2,4.29h-2.58s1.14,3.92,1.14,3.92l-3.15-.28.28,2.52-2.27-.55-.31,1.11,15.42,3.27c2.35.76,2.19,3.45-.37,3.74l-17.33-.55c.01,1.93-1.29,5.6-.8,7.34.15.55,1.01,1.38,1.33,2.06,6.83,15,3.57,30.7-5.05,44.22,6.23,5.22,3.05,10.73.22,16.66l13.19,4.34.27.53-.86,4.92c-2.33-.03-4.68.08-7.02.03-12-.29-24.05-.8-36.03.21l-16.12-10.59c-.28-.52.07-1,.23-1.47.93-2.78,3.27-5.43,3.81-8.31-.92-.9-1.46-2.52-2.29-3.39-1.11-1.17-2.93-1.93-4.16-3.49-1.35-1.72-1.85-3.88-3.33-5.71-2.69-3.35-6.03-5.96-8.66-9.74-8.52-12.21-10.6-28.25-.34-40.14l-21.06-.84c-3.46-.37-5.55-3.74-5.87-6.87-.81-7.9,4.56-14.37,12.96-13.5,9.95,1.02,21.12,5.4,31.1,6.58,1.77.21,2.84-.83,4.37-1.48.22-1.21-3.45-2.55-3.74-3.9.92-.99,3.51-1.97,3.89-3.22s-.91-2.56-.74-3.93c4.9-.03.31-3.29.58-3.64,1.47-.48,2.83-.06,4.3-.7.98-.43,2.14-1.81,3.18-2.5,9.63-6.44,22.78-2.85,23.75,9.36ZM78.01,12.51c-.95-12.14-15.33-13.73-23.21-6.3l8.27,3.26-1.1,7.81,4.01-3.92.29,6.72,3.58-1.95c.59.03.42,2.72.72,3.35,1.19-.63,1.33-2.21,1.72-3.36l3.23,1.08,1.84-1.6,2.04.48,1.97-2.44,6.08,1.91c.62-1.2-.07-3.35-1.56-3.35h-13.61v-1.68h5.73ZM96.01,18.17l-16.85,3.72c1.83,1.44,4.25,4.1,6.73,4.09.8,0,1.58-.36,2.26-.3s3.1,1.65,3.32,1.4l.29-3.08,2.57,1.4-.28-2.24,2.29.28-.86-2.24h2s-1.49-3.02-1.49-3.02ZM93.2,30.44c-2.3-.32-9.1-3.58-10.97-3.04-.79.23-1.54,1.89-2.71,2.14-1.25.26-3.01-.72-3.79-.38l-8.34,7.84c-.33.32-.28.6-.15,1,.53,1.59,3.2,4.45,4.01,6.19.19.4.41.77.42,1.23.02,1.19-1.59,6.54-2.04,8.05-.14.48-.58,2.38-.93,2.46-.49.09-.55-.39-.78-.64-5.17-5.52-5.99-15.35-15.3-16.42-7.68-.88-17.33,5.01-13.72,13.41,2.04,4.73,14.97,11.96,19.71,15.18,1.33.91,4.66,3.84,5.65,4.28,1.41.63,4.9-.41,6.6-.26l1.09-.9,12.24-23.05,4.55-2.83,4.46-14.26ZM86.04,110.81c2.68-6.11,7.6-12.52-.38-17.13-8.43-4.87-15.22.48-22.54,4.25-.35.49,9.06,6.66,9.4,7.76.56,1.81-3,11.72-2.52,12.12l29.5.27.27-2.76-13.72-4.51ZM65.91,116.21c-.95-.89-3.17.43-4.52-.21-.28-.13-3.35-4.64-3.43-5.06-.12-.66.02-1.12.22-1.73.88-2.71,3.46-5.98,4.53-8.76.22-.67-.7-1.46-1.39-1.36-.84.12-3.62,1.8-4.93,2.21-3.63,1.13-5.73.9-9.29-.27l-3.44,7.64,14.51,9.64,8.38-.49c.12-.11-.48-1.45-.64-1.61ZM68.55,117.26c-.08-2.43,2.82-9.11,2.24-11-.11-.37-5.37-4.48-6.1-4.96-.24-.16-.27-.4-.71-.28-.49,2.85-3.48,6.09-4.17,8.68-.36,1.35,1.74,4.6,3.15,4.78,1.14.15,2.52-.18,3.69.03l1.91,2.76Z"/></g></svg>