<?xml version="1.0" encoding="UTF-8"?><svg id="Layer_1" xmlns="http://www.w3.org/2000/svg" viewBox="0 0 1671.98 316.8"><defs><style>.cls-1,.cls-2{fill:none;stroke:#000;stroke-miterlimit:10;stroke-width:16px;}.cls-2{stroke-linecap:round;}</style></defs><path d="M611.8,219.02c0-4.09,2.62-7.75,6.52-8.97,2.96-.93,5.54-2.49,5.54-5.24v-50.33c0-13.68-2.78-23.19-18.32-23.19-12.52,0-21.57,10.9-21.57,23.66v52.93c0,1.41,1.09,2.57,2.5,2.66h0c4.72.3,8.4,4.22,8.4,8.96h0c0,4.96-4.02,8.98-8.98,8.98h-41.36s0-16.47,0-16.47l6.96-.7c3.94-.46,5.1-1.85,5.1-6.26v-50.34c0-12.76-2.09-23.43-17.86-23.43-13.22,0-22.04,11.13-22.04,24.59v54.28l11.37.93v17.39h-51.26v-16.7l7.19-.69c4.41-.7,5.57-1.86,5.57-6.96v-67.5c0-5.1-1.39-6.49-5.8-6.96l-7.42-.46v-17.63h38.04v16.47h.23c6.49-11.83,18.09-19.48,34.33-19.48,13.22,0,25.05,5.34,31.78,20.18,6.96-13.45,19.25-20.18,34.79-20.18,23.19,0,35.72,13.68,35.72,40.13v58.07c0,2.04,1.59,3.73,3.63,3.84h0c4.73.27,8.43,4.19,8.43,8.93h0c0,4.94-4.01,8.95-8.95,8.95h-33.1c-5.22,0-9.45-4.23-9.45-9.45h0Z"/><path d="M779.76,204.81c0,4.64,1.16,6.26,5.1,6.49h0c3.79.26,6.73,3.41,6.73,7.21v2.73c0,3.99-3.23,7.22-7.22,7.22h-18.05c-5.08,0-9.28-3.97-9.57-9.04l-.18-3.26-.69-.23c-5.8,8.35-16.01,15.54-32.01,15.54-33.87,0-46.39-23.89-46.39-56.37,0-40.82,20.18-66.57,61.24-66.57,7.65,0,24.59,1.62,41.05,7.89v88.37ZM752.62,132.44c-3.48-1.39-10.44-3.02-17.4-3.02-22.96,0-29.69,21.11-29.69,44.77,0,18.32,4.64,36.41,23.89,36.41,14.84,0,23.2-10.2,23.2-21.1v-57.06Z"/><path d="M844.95,210.14l2.83.24c4.69.39,8.31,4.32,8.31,9.03h0c0,5-4.06,9.06-9.06,9.06h-41.97s0-16.7,0-16.7l7.19-.69c3.71-.23,5.56-1.62,5.56-6.96v-116.21c0-5.1-1.16-6.49-5.33-6.73l-7.89-.7v-17.39h30.78c5.29,0,9.58,4.29,9.58,9.58v89.23c17.39-1.62,34.79-16.47,34.79-28.07,0-3.25-2.09-4.18-5.34-4.64l-6.03-.69v-7.35c0-5.29,4.29-9.58,9.58-9.58h29.1c4.64,0,8.41,3.76,8.41,8.41v1.43c0,4.3-3.24,7.91-7.52,8.36l-3.38.36c-1.39,12.76-8.81,25.28-20.88,34.56l20.82,41.22c1.33,2.63,3.94,4.38,6.88,4.59h0c4.39.33,7.79,3.98,7.79,8.39v1.18c0,4.64-3.76,8.41-8.41,8.41h-19.62c-3.7,0-7.08-2.14-8.66-5.48l-21.99-46.47c-5.34,2.09-9.97,3.25-15.54,3.94v29.69Z"/><path d="M1023.79,141.25c0,33.17-28.07,41.29-67.5,39.9,1.16,15.54,8.81,28.99,28.99,28.99,8.12,0,14.97-2.03,20.4-4.5,5-2.27,10.87-.16,13.01,4.89l.66,1.56c1.99,4.71-.04,10.17-4.67,12.37-7.25,3.44-18.56,7.25-32.41,7.25-39.2,0-53.81-25.51-53.81-58.45,0-35.95,20.18-64.71,57.29-64.71,23.43,0,38.04,10.9,38.04,32.71ZM984.6,128.96c-18.56,0-26.68,17.4-28.3,32.47,3.25.23,6.26.23,9.28.23,20.18,0,33.4-5.1,33.4-19.02,0-9.74-5.8-13.68-14.38-13.68Z"/><path d="M1041.9,218.38c0-4.34,2.97-7.97,7.12-9.26,3.26-1.01,5.64-2.85,5.64-6.64v-109.02l-3.44-.26c-5-.38-8.86-4.54-8.86-9.55v-9.44h95.96c5.29,0,9.58,4.29,9.58,9.58v17.31c0,4.99-3.82,9.14-8.79,9.55l-3.34.28c-5.58.46-10.37-3.95-10.37-9.55v-.5c0-4.18-1.39-6.03-6.03-6.03h-36.42v44.07h45.85c5.29,0,9.58,4.29,9.58,9.58v2.18c0,5.29-4.29,9.58-9.58,9.58h-45.85v47.55h38.97c3.07,0,5.57-2.49,5.57-5.57v-2.36c0-5.6,4.78-10.01,10.37-9.55l3.34.27c4.97.41,8.8,4.56,8.8,9.55v18.71c0,5.29-4.29,9.58-9.58,9.58h-98.51v-10.08Z"/><path d="M1204.74,120.38c7.19-7.42,17.86-11.83,29.69-11.83,28.07,0,45,19.72,45,55.44,0,45.7-20.88,67.73-55.67,67.73-16.47,0-36.65-4.64-46.39-9.97V87.9c0-4.87-1.62-6.49-5.8-6.73h0c-4.08-.4-7.19-3.82-7.19-7.92v-10.17h40.36v57.29ZM1204.74,205.97c4.64,2.55,12.3,4.64,19.95,4.64,15.77,0,26.68-11.59,26.68-42.44,0-19.02-4.64-38.51-25.75-38.51-12.06,0-20.88,7.42-20.88,17.86v58.45Z"/><path d="M1351.82,108.55c17.17,0,51.26,5.1,51.26,58.45,0,45.23-22.73,64.71-54.97,64.71s-51.03-19.72-51.03-61.7c0-48.94,30.62-61.47,54.74-61.47ZM1374.09,170.71c0-25.51-5.8-41.29-23.66-41.29s-24.59,15.08-24.59,37.34,3.01,43.84,23.89,43.84c17.39,0,24.36-16.7,24.36-39.89Z"/><path d="M1474.76,108.55c17.17,0,51.26,5.1,51.26,58.45,0,45.23-22.73,64.71-54.97,64.71s-51.03-19.72-51.03-61.7c0-48.94,30.62-61.47,54.74-61.47ZM1497.03,170.71c0-25.51-5.8-41.29-23.66-41.29s-24.59,15.08-24.59,37.34,3.02,43.84,23.89,43.84c17.39,0,24.36-16.7,24.36-39.89Z"/><path d="M1580.78,210.14l2.83.24c4.69.39,8.31,4.32,8.31,9.03h0c0,5-4.06,9.06-9.06,9.06h-41.97s0-16.7,0-16.7l7.19-.69c3.71-.23,5.56-1.62,5.56-6.96v-116.21c0-5.1-1.16-6.49-5.33-6.73h0c-4.46-.39-7.89-4.13-7.89-8.62v-9.48h31.3c5,0,9.06,4.06,9.06,9.06v89.75c17.39-1.62,34.79-16.47,34.79-28.07,0-3.25-2.09-4.18-5.34-4.64l-6.03-.69v-7.35c0-5.29,4.29-9.58,9.58-9.58h28.49c4.98,0,9.02,4.04,9.02,9.02v.27c0,4.61-3.48,8.48-8.07,8.97l-2.84.3c-1.39,12.76-8.81,25.28-20.88,34.56l22.96,45.46,4.17.31c4.71.35,8.35,4.27,8.35,9h0c0,4.98-4.04,9.02-9.02,9.02h-19.37c-3.49,0-6.66-2.01-8.15-5.16l-22.14-46.79c-5.34,2.09-9.97,3.25-15.54,3.94v29.69Z"/><polyline class="cls-2" points="138.48 298.29 17.23 228.53 16.97 88.66 138 18.51"/><path class="cls-1" d="M393.62,158.18c.06,23.55-6.2,46.2-17.54,65.94s-27.81,36.53-48.18,48.33c-20.38,11.82-43.1,17.74-65.89,17.78-19.44.06-38.9-4.22-56.91-12.81-2.33-1.12-4.65-2.3-6.93-3.57-.69-.37-1.4-.77-2.11-1.16-6.67-3.83-12.9-8.2-18.69-13.02-11.95-9.97-21.94-21.89-29.64-35.17-11.43-19.68-17.74-42.34-17.78-65.89-.07-39.41,17.46-76.35,47.06-101.19,5.77-4.86,11.99-9.23,18.66-13.09.69-.41,1.38-.8,2.09-1.18,2.26-1.27,4.56-2.45,6.87-3.57,17.98-8.68,37.45-13,56.92-13.04,22.77-.06,45.53,5.79,65.94,17.54,20.41,11.77,36.94,28.48,48.33,48.18,11.43,19.68,17.74,42.34,17.78,65.89Z"/><line class="cls-2" x1="189.82" y1="269.85" x2="140.75" y2="298.29"/><line class="cls-2" x1="140.27" y1="18.51" x2="189.3" y2="46.72"/></svg>