<?xml version="1.0" encoding="UTF-8"?>
<svg id="Layer_1" xmlns="http://www.w3.org/2000/svg" version="1.1" viewBox="0 0 145.7 54">
  <!-- Generator: Adobe Illustrator 29.8.2, SVG Export Plug-In . SVG Version: 2.1.1 Build 3)  -->
  <g>
    <path d="M95.5,36.1c0-.6.4-1.2,1-1.3s.8-.4.8-.8v-7.6c0-2.1-.4-3.5-2.8-3.5s-3.2,1.6-3.2,3.6v8c0,.2.2.4.4.4h0c.7,0,1.3.6,1.3,1.3h0c0,.7-.6,1.3-1.3,1.3h-6.2s0-2.5,0-2.5h1c.6-.2.8-.4.8-1v-7.6c0-1.9-.3-3.5-2.7-3.5s-3.3,1.7-3.3,3.7v8.2h1.7v2.8h-7.7v-2.5h1.1c.7-.2.8-.4.8-1.2v-10.1c0-.8-.2-1-.9-1h-1.1v-2.7h5.7v2.5h0c1-1.8,2.7-2.9,5.2-2.9s3.8.8,4.8,3c1-2,2.9-3,5.2-3,3.5,0,5.4,2.1,5.4,6v8.7c0,.3.2.6.5.6h0c.7,0,1.3.6,1.3,1.3h0c0,.7-.6,1.3-1.3,1.3h-5c-.8,0-1.4-.6-1.4-1.4h0Z"/>
    <path d="M105.1,36c0-.7.4-1.2,1.1-1.4s.8-.4.8-1v-16.4h-.5c-.8,0-1.3-.7-1.3-1.5v-1.4h14.4c.8,0,1.4.6,1.4,1.4v2.6c0,.7-.6,1.4-1.3,1.4h-.5c-.8.1-1.6-.6-1.6-1.4h0c0-.7-.2-1-.9-1h-5.5v6.6h6.9c.8,0,1.4.6,1.4,1.4v.3c0,.8-.6,1.4-1.4,1.4h-6.9v7.1h5.9c.5,0,.8-.4.8-.8v-.4c0-.8.7-1.5,1.6-1.4h.5c.7.1,1.3.7,1.3,1.5v2.8c0,.8-.6,1.4-1.4,1.4h-14.8v-1.5Z"/>
    <path d="M129.6,21.3c1.1-1.1,2.7-1.8,4.5-1.8,4.2,0,6.8,3,6.8,8.3s-3.1,10.2-8.4,10.2-5.5-.7-7-1.5v-20.1c0-.7-.2-1-.9-1h0c-.6,0-1.1-.6-1.1-1.2v-1.5h6.1v8.6ZM129.6,34.1c.7.4,1.8.7,3,.7,2.4,0,4-1.7,4-6.4s-.7-5.8-3.9-5.8-3.1,1.1-3.1,2.7v8.8Z"/>
  </g>
  <g>
    <path d="M24.3,49.2c-.2,0-.4,0-.6-.2l-18.8-10.8V15.8S23.7,4.9,23.7,4.9c.6-.3,1.3-.1,1.6.4.3.6.1,1.3-.4,1.6L7.3,17.2v19.6s17.7,10.1,17.7,10.1c.6.3.8,1.1.4,1.6-.2.4-.6.6-1,.6Z"/>
    <path d="M42.8,48c-3.1,0-6.2-.7-9-2-.4-.2-.8-.4-1.1-.6-.1,0-.2-.1-.3-.2h0c-1-.6-2-1.3-3-2.1-1.9-1.6-3.5-3.5-4.7-5.6-1.8-3.2-2.8-6.8-2.8-10.5,0-6.2,2.7-12.1,7.5-16.1.9-.8,1.9-1.5,3-2.1.1,0,.2-.1.3-.2.3-.2.7-.4,1.1-.6,2.8-1.4,5.9-2.1,9.1-2.1,0,0,0,0,0,0,3.7,0,7.3,1,10.5,2.8,3.2,1.8,5.9,4.5,7.7,7.7,1.8,3.2,2.8,6.8,2.8,10.5,0,3.7-1,7.3-2.8,10.5-1.8,3.2-4.5,5.9-7.7,7.7-3.2,1.8-6.8,2.8-10.5,2.8,0,0,0,0,0,0ZM33.6,43.1c.1,0,.2.1.3.2h0c.3.2.6.3,1,.5,2.5,1.2,5.3,1.8,8,1.8,3.3,0,6.5-.9,9.3-2.5,2.8-1.6,5.2-4,6.8-6.8,1.6-2.8,2.5-6.1,2.5-9.3h0c0-3.3-.9-6.5-2.5-9.3-1.6-2.8-4-5.2-6.8-6.8-2.8-1.6-6-2.5-9.3-2.5-2.8,0-5.6.6-8,1.8-.4.2-.7.3-1,.5h0c0,0-.2.1-.3.2-.9.5-1.8,1.2-2.6,1.9-4.2,3.6-6.7,8.8-6.6,14.3,0,3.3.9,6.5,2.5,9.3,1.1,1.9,2.5,3.6,4.2,5,.8.7,1.7,1.3,2.6,1.8Z"/>
    <path d="M24.7,49.2c-.4,0-.8-.2-1-.6-.3-.6-.1-1.3.4-1.6l7.4-4.3c.6-.3,1.3-.1,1.6.4.3.6.1,1.3-.4,1.6l-7.4,4.3c-.2.1-.4.2-.6.2Z"/>
    <path d="M32,11.4c-.2,0-.4,0-.6-.2l-7.4-4.2c-.6-.3-.8-1.1-.4-1.6.3-.6,1.1-.8,1.6-.4l7.4,4.2c.6.3.8,1.1.4,1.6-.2.4-.6.6-1,.6Z"/>
  </g>
</svg>