<?xml version="1.0" encoding="UTF-8"?>
<svg id="Layer_1" xmlns="http://www.w3.org/2000/svg" version="1.1" viewBox="0 0 136 53.1">
  <!-- Generator: Adobe Illustrator 29.8.2, SVG Export Plug-In . SVG Version: 2.1.1 Build 3)  -->
  <g>
    <g>
      <path d="M29.9,50.2h0c.1.1.2.1.4.1s0,0,0,0c-.1,0-.3,0-.4-.1Z"/>
      <path d="M53.4,10.7h-23.1c-.6-1.4-1.6-2.6-2.8-3.5-3.1-2.5-8.3-5.2-15.1-4.1-1,.2-1.8,1.2-1.8,2.5v3.7c-3.9-.6-7.2,1-8.6,1.8-.7.4-1.2,1.3-1.2,2.3v32.9c0,.9.4,1.7,1,2.1.5.4,1.1.4,1.7.3,4.2-1.4,15.1-4.2,26.2,1.6,0,0,.1,0,.2,0h0c.1,0,.3,0,.4,0,0,0,0,0,0,0h23c2.3,0,4.2-1.8,4.2-4.1V14.8c0-2.2-1.9-4.1-4.2-4.1ZM2.9,46.8c0,0-.3-.2-.3-.7V13.3c0-.3.1-.6.3-.7,1.2-.7,4.3-2.1,7.7-1.5v29.6c0,.8.3,1.5.8,2,.4.4.9.5,1.4.5,2.1-.2,7-.2,12.2,3.1-9.6-2.9-18.4-.7-22.1.5ZM29.3,15.8c-2.6-3.5-7.7-5.3-11.6-5.3s-.9.4-.9.9.4.9.9.9c4.1,0,11.6,2.6,11.6,8.8v5c-2.6-3.5-7.7-5.3-11.6-5.3s-.9.4-.9.9.4.9.9.9c4.1,0,11.6,2.6,11.6,8.8v5c-2.6-3.5-7.6-5.3-11.5-5.3s-.9.4-.9.9.4.9.9.9c4,0,11.5,2.6,11.5,8.8s0,.1,0,.2v5.3c-5.8-5.1-11.6-6-15-6s-1.2,0-1.7,0c0,0-.3-.3-.3-.7V5.5c0-.4.2-.6.2-.7,6.2-1,10.9,1.5,13.7,3.8,1.9,1.5,3,3.6,3,5.9v1.3ZM55.8,46.3c0,1.2-1.1,2.2-2.4,2.2h-22.2V14.5c0-.7,0-1.4-.2-2h22.5c1.3,0,2.4,1,2.4,2.2v31.5Z"/>
    </g>
    <path d="M47,45.2c0,.5-.4.9-.9.9h-5.4c-.5,0-.9-.4-.9-.9s.4-.9.9-.9h5.4c.5,0,.9.4.9.9Z"/>
  </g>
  <path d="M64,11h4.2l4.7,13.2,4.7-13.2h4.2v17.1h-3.1v-11.8l-4.3,11.8h-3l-4.3-11.8v11.8h-3.1V11Z"/>
  <path d="M84.4,24.8c0-2.2,1.4-3.4,4.2-3.9l4.3-.8c0-1.8-.8-2.7-2.5-2.7s-2.3.7-2.6,2h-3.1c.5-2.8,2.6-4.4,5.7-4.4s5.6,1.9,5.6,5.3v4.7c0,.7.2.9.7.9h.4v2.2c-.2,0-.7,0-1.1,0-1.4,0-2.4-.5-2.7-2.1-.6,1.4-2.3,2.3-4.4,2.3s-4.5-1.3-4.5-3.5ZM92.9,22.8v-.7l-3.3.7c-1.4.3-1.9.8-1.9,1.7s.7,1.6,1.9,1.6c2,0,3.3-1.3,3.3-3.2Z"/>
  <path d="M99,11h3.1v10l5.3-5.8h3.8l-5,5.3,5.2,7.5h-3.5l-3.8-5.7-2,2.1v3.5h-3.1V11Z"/>
  <path d="M111.8,21.6c0-4,2.5-6.7,6.2-6.7s6.1,2.5,6.1,6.9v.7h-9.1c0,2.3,1.3,3.4,3.1,3.4s2.3-.6,2.7-1.8l3.2.2c-.7,2.5-2.9,4-5.8,4s-6.3-2.6-6.3-6.7ZM120.9,20.4c-.1-2.1-1.3-3.1-2.9-3.1s-2.8,1.1-3,3.1h5.9Z"/>
  <path d="M63.3,43.5c0-4,2.5-6.7,6.2-6.7s6.1,2.5,6.1,6.9v.7h-9.1c0,2.3,1.3,3.4,3.1,3.4s2.3-.6,2.7-1.8l3.2.2c-.7,2.5-2.9,4-5.8,4s-6.3-2.6-6.3-6.7ZM72.4,42.3c-.1-2.1-1.3-3.1-2.9-3.1s-2.8,1.1-3,3.1h5.9Z"/>
  <path d="M78,32.8h6.4c4.2,0,6.4,1.4,6.4,4.6s-1.2,3.4-3.4,3.6c2.6.3,4.1,1.8,4.1,4.1s-2.2,4.7-6.2,4.7h-7.3v-17.1ZM84.3,40c2,0,3.3-.8,3.3-2.3s-1.2-2.3-3.3-2.3h-3.2v4.5h3.2ZM85.1,47.3c1.9,0,3.2-.8,3.2-2.4s-1.2-2.4-3.2-2.4h-4v4.8h4Z"/>
  <path d="M93.6,43.5c0-4.1,2.5-6.7,6.3-6.7s6.3,2.6,6.3,6.7-2.5,6.7-6.3,6.7-6.3-2.6-6.3-6.7ZM103,43.5c0-2.6-1.1-4.2-3.1-4.2s-3.1,1.6-3.1,4.2,1.1,4.2,3.1,4.2,3.1-1.5,3.1-4.2Z"/>
  <path d="M107.9,43.5c0-4.1,2.5-6.7,6.3-6.7s6.3,2.6,6.3,6.7-2.5,6.7-6.3,6.7-6.3-2.6-6.3-6.7ZM117.3,43.5c0-2.6-1.1-4.2-3.1-4.2s-3.1,1.6-3.1,4.2,1.1,4.2,3.1,4.2,3.1-1.5,3.1-4.2Z"/>
  <path d="M122.9,32.8h3.1v10l5.3-5.8h3.8l-5,5.3,5.2,7.5h-3.5l-3.8-5.7-2,2.1v3.5h-3.1v-17.1Z"/>
</svg>