<?xml version="1.0" encoding="UTF-8"?>
<svg id="Layer_1" xmlns="http://www.w3.org/2000/svg" version="1.1" viewBox="0 0 264.8 273.3">
  <!-- Generator: Adobe Illustrator 30.4.0, SVG Export Plug-In . SVG Version: 2.1.3 Build 103)  -->
  <path d="M263.1,13.7v151.4c0,4.3-2.2,8.1-5.6,10.3-1.9,1.2-4.2,2-6.7,2s-4.8-.7-6.7-2c-3.3-2.2-5.5-6-5.5-10.3V31.9c-12.6,4-31.3,8.2-54.5,8.2s-36.7,14.5-39.4,19.6v135.7c0,.8,0,1.6-.2,2.4-1.1,5.6-6.1,9.9-12,9.9s-10.9-4.2-12-9.8c-.2-.8-.2-1.6-.2-2.4V59.7c-2.7-5-12.9-19.6-39.4-19.6s-41.9-4.2-54.5-8.2v133.3c0,4.3-2.2,8.1-5.6,10.3-1.9,1.3-4.2,2-6.7,2s-4.7-.7-6.6-2c-3.4-2.2-5.6-6-5.6-10.3V13.8c0-4.3,2.3-8.3,6-10.5,3.7-2.2,8.3-2.3,12.1-.2.2,0,23.9,12.5,60.9,12.5s42.3,10.2,51.6,19.9c9.4-9.7,25.4-19.9,51.7-19.9s60.7-12.4,60.9-12.6c3.8-2.1,8.4-2,12.1.2s5.9,6.2,5.9,10.5Z"/>
  <path d="M256.4,226.9c-2.4,1.1-16,8-38.1,12.2-8.1,1.5-15.2,2.4-23.7,2.9-4.9.3-10.1,0-15,.3-17.4,1.5-29.4,8.2-36.3,22-4.5,9.8-18.4,9.4-22.5-.5-6.5-12.7-17.4-19.3-33.9-21.3-4.8-.5-9.9-.3-14.6-.4-6-.2-12.3-.8-17.8-1.6-2.7-.4-5.6-.9-8.4-1.4-21.6-4.1-35.2-10.8-37.9-12.1-3.8-1.8-6.7-6.6-6.7-10.7-.2-7.2,6.5-13.5,13.7-12.4,2.6.4,4.3,1.3,6.3,2.1,3.7,2.4,31.5,10.8,51.5,11.3,4.1.3,9.2.3,13.6.4,4.2,0,10,1.1,14.7,2.3,7.7,1.8,14.9,5.6,20,11.7,4.1,5.5,11.5,7.8,17.5,3.9,1.7-1.1,3-2.6,4.3-4.1,3.2-3.6,7.1-6.7,11.5-8.7,9-3.9,19.4-5.5,28.9-5.3,5.4,0,9.1-.3,14.3-.8,23.8-2.4,39.4-8.3,45.4-11,8.6-4.9,18.8-.6,19.6,9.8v.2h.2c.2,4.2-2.7,9.2-6.6,11.2Z"/>
</svg>