<?xml version="1.0" encoding="UTF-8"?>
<svg id="Layer_1" xmlns="http://www.w3.org/2000/svg" version="1.1" viewBox="0 0 26 27">
  <!-- Generator: Adobe Illustrator 29.8.2, SVG Export Plug-In . SVG Version: 2.1.1 Build 3)  -->
  <path d="M11.4,19.6c-1.7-1.9-3.6-3.6-5.6-5.1,1.9-2,3.8-4.1,5.5-6.3.3-.4.4-1,0-1.4-.3-.4-1.1-.4-1.4,0-2,2.5-4.1,4.8-6.3,7.1-.5.5-.3,1.2.2,1.6,2.3,1.6,4.3,3.5,6.2,5.5.9,1,2.3-.5,1.4-1.4Z"/>
  <path d="M20.1,12.3c-.5-.6-1-1.1-1.5-1.7-1-1.1-2.1-2.3-3.2-3.3-.7-.7-1.8,0-1.7.9,0,.1,0,.3.1.4,1.7,1.9,3.2,3.6,4.9,5.5,0,0-.2.1-.2.2-.3.2-.5.5-.8.7-.5.4-1,.9-1.4,1.4-.9,1-1.8,2.1-2.6,3.2-.3.4,0,1.1.4,1.4.5.3,1.1,0,1.4-.4.8-1.1,1.7-2.2,2.7-3.2.5-.5,1-1,1.5-1.4.5-.5,1.3-.9,1.5-1.7.1-.8-.5-1.4-1-2Z"/>
  <path d="M25.5,5.6c0-1.3.3-3.5-.6-4.6-.8-1-2.6-.8-3.7-.8-1.8,0-3.6.1-5.4.3-3.5.3-6.9.2-10.4,0-1.2,0-2.6-.3-3.6.3C.4,1.5.5,2.9.5,4.2c0,3.5.2,7.1.1,10.6,0,3.2-.8,6.8.2,9.9.5,1.5,1.6,1.8,3,1.9,2.1.2,4.1.2,6.2.3,3.3,0,6.7,0,10-.3,1,0,2.2,0,3.1-.2.9,0,1.8-.1,2.2-1,.3-.6.2-1.5.2-2.1v-2.8c0-1.6,0-3.3,0-4.9,0-.8-.2-1.7-.2-2.5,0-.9.3-1.7.3-2.5.2-1.6,0-3.2,0-4.8ZM6.6,2.4c1.8.1,3.6.3,5.5.3,2.9,0,5.8-.5,8.7-.5.6,0,1.3,0,1.9,0,.5,0,.6,0,.8.5.1.3,0,.8,0,1.1,0,1.4.1,2.7.2,4.1,0,1.5-.2,2.9-.3,4.4-.1,1.5.2,3,.2,4.4,0,1.5,0,3,0,4.5,0,.8,0,1.6,0,2.3,0,.2,0,.3,0,.5,0,.1,0,.2,0,.3-.2,0-1,0-1.2,0-.1,0-.2,0-.3,0-5.7.5-11.5.7-17.2.3-.6,0-1.7,0-2.1-.5-.3-.5-.3-1.5-.3-2-.1-1.5,0-2.9,0-4.4.1-2.4,0-4.7,0-7v-3.8c0-.2,0-.5,0-.8,0-.3,0-.5,0-.8,0-.7,0-1.4,0-2.1,0,0,0-.1,0-.2,0-.2.1-.3.2-.5.1-.1.3-.2.5-.2,1.1,0,2.3,0,3.4,0Z"/>
</svg>