<?xml version="1.0" encoding="UTF-8"?>
<svg id="Layer_1" xmlns="http://www.w3.org/2000/svg" version="1.1" viewBox="0 0 26 27">
  <!-- Generator: Adobe Illustrator 29.8.2, SVG Export Plug-In . SVG Version: 2.1.1 Build 3)  -->
  <path d="M10.9,19.7c-1.8-1.9-3.9-3.7-6.1-5.2,2.1-2.2,4.2-4.6,6-7.1.4-.5-.5-1-.9-.5-1.9,2.6-4,5-6.3,7.3-.2.2-.2.6.1.8,2.3,1.6,4.4,3.4,6.4,5.4.4.5,1.2-.2.7-.7Z"/>
  <path d="M19.9,14c-1.8-2-3.6-4-5.4-6.1-.4-.5-1.1.2-.7.7,1.7,1.9,3.3,3.7,5,5.6-.2.1-.4.3-.5.4-.1.1-.2.3-.2.4-1.6,1.4-3,3-4.2,4.8-.2.2,0,.6.2.7.3.1.5,0,.7-.2,1.2-1.7,2.6-3.2,4.1-4.6.1-.1.2-.2.2-.4.3-.2.5-.4.8-.6.3-.2.3-.6.1-.8Z"/>
  <path d="M24.3.9c-.8-.6-2.1-.5-3-.5-1.2,0-2.3.1-3.5.2-4.9.3-9.7.4-14.6.3,0-.3-.4-.7-.8-.5-.3.1-.5.3-.7.4-.2,0-.3,0-.5,0-.6,0-.6.7-.2.9-.5,1-.5,2.2-.4,3.2.2,2.2.2,4.5.2,6.7,0,4.5-.5,9.1,0,13.6,0,.3.2.5.5.5,4.9.4,9.8.6,14.7.7,1.2,0,2.4,0,3.6,0,1.1,0,2.3,0,3.3-.2.8-.2,1.5-.6,1.7-1.5.1-.5,0-1,0-1.5,0-.6,0-1.2,0-1.9,0-4.9.1-9.9.2-14.8,0-1.2,0-2.4,0-3.6,0-.8,0-1.7-.8-2.3ZM24.1,5.5c0,4.6-.1,9.1-.2,13.7,0,1.1,0,2.2,0,3.4,0,.5,0,1.1,0,1.6,0,.6-.2.9-.7,1.1-.9.3-2.1.3-3,.3-1.2,0-2.3,0-3.5,0-4.9,0-9.8-.3-14.8-.6-.3-4,0-8.1,0-12.2,0-2.1,0-4.2,0-6.2,0-1.4-.5-3.4.4-4.6,4.2.1,8.4.1,12.5-.1,2.2-.1,4.5-.4,6.7-.4.9,0,2.5-.2,2.7,1,.1,1,0,2.1,0,3.1Z"/>
</svg>