<?xml version="1.0" encoding="UTF-8"?><svg id="Layer_2" xmlns="http://www.w3.org/2000/svg" viewBox="0 0 1114.47 160.6"><g id="Layer_1-2"><path d="M26.69,91.95v66.36H0V45.05h25.51v19.25h1.33c2.6-6.34,6.77-11.38,12.5-15.12,5.73-3.74,12.82-5.6,21.27-5.6,7.82,0,14.64,1.67,20.46,5.01,5.83,3.34,10.35,8.18,13.57,14.53,3.22,6.34,4.8,14.04,4.76,23.08v72.11h-26.69v-67.99c0-7.57-1.95-13.49-5.86-17.77-3.91-4.28-9.3-6.41-16.19-6.41-4.67,0-8.81,1.02-12.42,3.06-3.61,2.04-6.44,4.98-8.48,8.81-2.04,3.83-3.06,8.48-3.06,13.94Z"/><path d="M220.05,100.8c0-9.93-1.37-18.49-4.13-25.7-2.76-7.2-6.53-13.14-11.32-17.81-4.8-4.67-10.3-8.12-16.52-10.36-6.22-2.24-12.82-3.35-19.8-3.35-10.82,0-20.23,2.47-28.24,7.41s-14.24,11.82-18.69,20.64c-4.45,8.83-6.67,19.06-6.67,30.71s2.21,22.13,6.64,30.86c4.42,8.73,10.75,15.46,18.99,20.21,8.23,4.74,18.03,7.11,29.38,7.11,8.8,0,16.61-1.34,23.45-4.02,6.83-2.68,12.45-6.46,16.85-11.35,4.4-4.89,7.38-10.63,8.96-17.22l-24.92-2.8c-1.18,3.19-2.93,5.87-5.24,8.03-2.31,2.17-5.04,3.8-8.18,4.9-3.15,1.11-6.66,1.66-10.55,1.66-5.8,0-10.86-1.24-15.19-3.72-4.33-2.48-7.7-6.07-10.1-10.77-2.33-4.53-3.53-9.95-3.61-16.26h78.89v-8.19ZM141.21,90.99c.26-4.44,1.41-8.55,3.45-12.35,2.29-4.25,5.49-7.69,9.62-10.32,4.13-2.63,8.92-3.94,14.38-3.94,5.11,0,9.6,1.16,13.46,3.47,3.86,2.31,6.87,5.47,9.03,9.48,2.16,4.01,3.27,8.57,3.32,13.68h-53.26Z"/><path d="M248.97,28.98c-4.23,0-7.87-1.43-10.91-4.28-3.05-2.85-4.57-6.27-4.57-10.25s1.52-7.39,4.57-10.21c3.05-2.83,6.68-4.24,10.91-4.24s7.93,1.43,10.95,4.28c3.02,2.85,4.53,6.27,4.53,10.25s-1.51,7.39-4.53,10.21c-3.02,2.83-6.67,4.24-10.95,4.24ZM235.55,158.31V45.05h26.69v113.26h-26.69Z"/><path d="M305.57,7.3v151.01h-26.69V7.3h26.69Z"/><path d="M368.76,158.31V45.05h25.51v19.25h1.33c2.36-6.49,6.27-11.56,11.72-15.23,5.46-3.66,11.97-5.49,19.54-5.49s14.14,1.86,19.43,5.57c5.28,3.71,9.01,8.76,11.17,15.15h1.18c2.51-6.29,6.75-11.32,12.72-15.08s13.06-5.64,21.27-5.64c10.42,0,18.93,3.29,25.51,9.88,6.59,6.59,9.88,16.2,9.88,28.83v76.02h-26.77v-71.89c0-7.03-1.87-12.18-5.6-15.45-3.74-3.27-8.31-4.9-13.71-4.9-6.44,0-11.47,2-15.08,6.01-3.61,4.01-5.42,9.21-5.42,15.6v70.64h-26.18v-73c0-5.85-1.76-10.52-5.27-14.01-3.52-3.49-8.1-5.23-13.75-5.23-3.83,0-7.33.97-10.47,2.91-3.15,1.94-5.65,4.67-7.52,8.18-1.87,3.52-2.8,7.61-2.8,12.28v68.87h-26.69Z"/><path d="M600.83,160.52c-11.31,0-21-2.48-29.09-7.45-8.09-4.96-14.3-11.83-18.66-20.61-4.35-8.77-6.53-18.89-6.53-30.34s2.21-21.67,6.64-30.49c4.42-8.82,10.68-15.71,18.77-20.65,8.09-4.94,17.66-7.41,28.72-7.41,9.19,0,17.34,1.68,24.44,5.05,7.1,3.37,12.77,8.11,17,14.23,4.23,6.12,6.64,13.26,7.23,21.42h-25.51c-1.03-5.46-3.48-10.02-7.34-13.68-3.86-3.66-9.01-5.49-15.45-5.49-5.46,0-10.25,1.46-14.38,4.39-4.13,2.93-7.34,7.12-9.62,12.57-2.29,5.46-3.43,12-3.43,19.61s1.13,14.34,3.39,19.87c2.26,5.53,5.44,9.78,9.55,12.76,4.1,2.97,8.93,4.46,14.49,4.46,3.93,0,7.46-.75,10.58-2.25,3.12-1.5,5.74-3.67,7.85-6.53,2.11-2.85,3.56-6.32,4.35-10.4h25.51c-.64,8.01-3,15.1-7.08,21.27-4.08,6.17-9.64,10.99-16.66,14.45-7.03,3.47-15.29,5.2-24.78,5.2Z"/><path d="M697.06,160.6c-7.18,0-13.63-1.29-19.36-3.87-5.73-2.58-10.25-6.4-13.57-11.47-3.32-5.06-4.98-11.31-4.98-18.73,0-6.39,1.18-11.67,3.54-15.85,2.36-4.18,5.58-7.52,9.66-10.03,4.08-2.51,8.69-4.41,13.83-5.71,5.14-1.3,10.46-2.25,15.96-2.84,6.64-.69,12.02-1.31,16.15-1.88,4.13-.56,7.14-1.45,9.03-2.65,1.89-1.2,2.84-3.08,2.84-5.64v-.44c0-5.55-1.65-9.86-4.94-12.9-3.29-3.05-8.04-4.57-14.23-4.57-6.54,0-11.71,1.43-15.52,4.28-3.81,2.85-6.38,6.22-7.71,10.1l-24.92-3.54c1.97-6.88,5.21-12.65,9.73-17.29,4.52-4.65,10.05-8.14,16.59-10.47,6.54-2.33,13.76-3.5,21.68-3.5,5.46,0,10.89.64,16.3,1.92,5.41,1.28,10.35,3.38,14.82,6.3,4.47,2.93,8.07,6.89,10.8,11.91,2.73,5.01,4.09,11.28,4.09,18.8v75.8h-25.66v-15.56h-.89c-1.62,3.15-3.9,6.08-6.82,8.81-2.93,2.73-6.59,4.92-10.99,6.56-4.4,1.65-9.55,2.47-15.45,2.47ZM703.99,140.98c5.36,0,10-1.07,13.94-3.21,3.93-2.14,6.97-4.98,9.11-8.52,2.14-3.54,3.21-7.4,3.21-11.58v-13.35c-.84.69-2.25,1.33-4.24,1.92-1.99.59-4.22,1.11-6.67,1.55-2.46.44-4.89.84-7.3,1.18-2.41.34-4.5.64-6.27.88-3.98.54-7.55,1.43-10.69,2.65-3.15,1.23-5.63,2.94-7.45,5.12-1.82,2.19-2.73,5-2.73,8.44,0,4.92,1.79,8.63,5.38,11.13,3.59,2.51,8.16,3.76,13.71,3.76Z"/><path d="M776.92,158.31V45.05h25.88v18.88h1.18c2.06-6.54,5.62-11.59,10.65-15.15,5.04-3.56,10.8-5.35,17.29-5.35,1.47,0,3.13.06,4.98.18,1.84.12,3.38.31,4.61.55v24.55c-1.13-.39-2.91-.75-5.35-1.07-2.43-.32-4.78-.48-7.04-.48-4.87,0-9.23,1.04-13.09,3.13-3.86,2.09-6.89,4.98-9.11,8.66-2.21,3.69-3.32,7.94-3.32,12.76v66.58h-26.69Z"/><path d="M888.85,160.3c-8.9,0-16.86-2.29-23.89-6.86-7.03-4.57-12.58-11.21-16.66-19.91-4.08-8.7-6.12-19.27-6.12-31.71s2.08-23.21,6.23-31.89c4.15-8.68,9.77-15.24,16.85-19.69,7.08-4.45,14.97-6.67,23.67-6.67,6.64,0,12.09,1.12,16.37,3.35,4.28,2.24,7.67,4.92,10.18,8.04,2.51,3.12,4.45,6.06,5.83,8.81h1.11V7.3h26.77v151.01h-26.25v-17.84h-1.62c-1.38,2.75-3.37,5.67-5.97,8.74-2.61,3.07-6.05,5.69-10.32,7.85-4.28,2.16-9.66,3.24-16.15,3.24ZM896.3,138.4c5.65,0,10.47-1.54,14.45-4.61,3.98-3.07,7.01-7.36,9.07-12.87,2.06-5.51,3.1-11.92,3.1-19.25s-1.02-13.69-3.06-19.1c-2.04-5.41-5.04-9.61-9-12.61-3.96-3-8.81-4.5-14.56-4.5s-10.91,1.55-14.89,4.65c-3.98,3.1-6.98,7.37-9,12.83-2.02,5.46-3.02,11.7-3.02,18.73s1.02,13.38,3.06,18.91c2.04,5.53,5.06,9.88,9.07,13.05,4.01,3.17,8.93,4.76,14.78,4.76Z"/><path d="M993.6,7.3v151.01h-26.69V7.3h26.69Z"/><path d="M1114.47,100.8c0-9.93-1.38-18.49-4.13-25.7-2.75-7.2-6.53-13.14-11.32-17.81-4.79-4.67-10.3-8.12-16.52-10.36-6.22-2.24-12.82-3.35-19.8-3.35-10.82,0-20.23,2.47-28.24,7.41-8.02,4.94-14.24,11.82-18.69,20.64-4.45,8.83-6.67,19.06-6.67,30.71s2.21,22.13,6.63,30.86c4.43,8.73,10.75,15.46,18.99,20.21s18.03,7.11,29.38,7.11c8.8,0,16.61-1.34,23.45-4.02,6.83-2.68,12.45-6.46,16.85-11.35,4.4-4.89,7.38-10.63,8.96-17.22l-24.92-2.8c-1.18,3.19-2.92,5.87-5.23,8.03-2.31,2.17-5.04,3.8-8.19,4.9-3.15,1.11-6.66,1.66-10.55,1.66-5.8,0-10.86-1.24-15.19-3.72-4.33-2.48-7.69-6.07-10.1-10.77-2.33-4.53-3.53-9.95-3.6-16.26h78.89v-8.19ZM1035.63,90.99c.26-4.44,1.4-8.55,3.44-12.35,2.29-4.25,5.49-7.69,9.62-10.32,4.13-2.63,8.92-3.94,14.38-3.94,5.11,0,9.6,1.16,13.46,3.47,3.86,2.31,6.87,5.47,9.03,9.48,2.16,4.01,3.27,8.57,3.32,13.68h-53.25Z"/></g></svg>