<?xml version="1.0" encoding="UTF-8"?><svg id="Layer_2" xmlns="http://www.w3.org/2000/svg" viewBox="0 0 200 100.61"><defs><style>.cls-1{fill:#333;}</style></defs><g id="Layer_1-2"><path class="cls-1" d="M108.9,43.43c-.91,6.08-1.76,11.78-2.61,17.48-1.47,9.85-2.93,19.71-4.4,29.56-.44,2.98-.91,5.96-1.32,8.95-.09.67-.66,1.17-1.34,1.17-7.66,0-15.31,0-22.97.02-1.94,0-3.3-.98-4.44-2.45-7.12-9.16-14.24-18.33-21.38-27.47-7.87-10.07-15.76-20.11-23.65-30.17-.15-.2-.32-.38-.7-.83v60.65H0V2.77C0,1.46,1.04.38,2.35.34,6.51.21,14.78.1,18.44.91c7.09,1.56,12.53,5.59,16.92,11.21,12,15.34,24,30.69,36,46.03.71.91,1.47,1.79,2.44,2.96V1.31c0-.7.57-1.27,1.27-1.27h39.16c2.6,0,3.18.39,4.09,2.82,5.96,15.77,11.93,31.53,17.9,47.3.37.97.78,1.92,1.3,3.16.43-1.06.75-1.84,1.07-2.63,6.47-16.11,12.94-32.22,19.41-48.32.76-1.91,1.43-2.36,3.5-2.36h21.25c1.9,0,2.44.44,2.72,2.34,1.7,11.47,3.38,22.94,5.09,34.41,1.79,12.01,3.62,24.01,5.42,36.01,1.34,8.94,2.65,17.89,3.97,26.83.03.2.03.41.05.72h-26.06c-2.4-18.72-4.81-37.49-7.22-56.25-.13-.02-.25-.04-.38-.06-.22.47-.46.93-.65,1.4-7.32,17.43-14.63,34.87-21.94,52.31-1.23,2.94-1.46,2.99-4.74,2.83-1.14-.06-2.29-.05-3.43.02-3.12.19-3.69.03-4.7-2.49-2.84-7.11-5.67-14.22-8.51-21.33-4.05-10.14-8.1-20.28-12.16-30.41-.35-.87-.78-1.71-1.32-2.9h0Z"/></g></svg>