<?xml version="1.0" encoding="UTF-8"?><svg id="Layer_1" xmlns="http://www.w3.org/2000/svg" viewBox="0 0 795.33 400.12"><defs><style>.cls-1{fill:#333;}</style></defs><path class="cls-1" d="M433.06,172.7c-3.61,24.19-6.99,46.86-10.37,69.52-5.83,39.19-11.66,78.37-17.49,117.56-1.81,12.18-3.73,24.35-5.38,36.56-.37,2.71-1.27,3.68-4.03,3.68-30.83-.04-61.66.01-92.49.06-7.7.01-13.12-3.91-17.65-9.73-28.31-36.44-56.62-72.88-85.03-109.24-31.29-40.03-62.68-79.98-94.04-119.96-.61-.78-1.27-1.51-2.79-3.31v241.18H0V1.75c5.52-.38,11.08-.83,16.65-1.14C35.65-.44,54.59-.53,73.34,3.6c28.19,6.21,49.81,22.23,67.28,44.56,47.72,61.02,95.43,122.05,143.16,183.06,2.84,3.62,5.84,7.12,9.69,11.78V.15h6.78c51.33,0,102.66,0,153.99,0,10.35,0,12.64,1.57,16.28,11.2,23.72,62.7,47.44,125.4,71.18,188.08,1.46,3.85,3.11,7.62,5.15,12.56,1.72-4.22,3-7.33,4.26-10.46,25.73-64.05,51.45-128.11,77.17-192.16C631.32,1.77,633.96,0,642.2,0c28.16,0,56.33,0,84.49,0,7.55,0,9.71,1.73,10.83,9.31,6.78,45.61,13.45,91.24,20.26,136.84,7.13,47.75,14.41,95.47,21.56,143.21,5.32,35.56,10.53,71.14,15.79,106.71.12.81.12,1.64.21,2.85h-103.62c-9.55-74.45-19.13-149.08-28.7-223.7-.5-.08-1.01-.15-1.51-.23-.87,1.85-1.81,3.68-2.6,5.56-29.09,69.33-58.16,138.67-87.24,208.01-4.78,11.4-5.77,11.89-17.87,11.31-5.81-.28-11.66-.08-17.48.17-9.93.43-12.15-.86-15.83-10.06-11.29-28.27-22.55-56.55-33.83-84.82-16.1-40.32-32.21-80.64-48.35-120.94-1.39-3.47-3.1-6.82-5.25-11.53Z"/></svg>