<?xml version="1.0" encoding="UTF-8"?>
<svg id="Layer_1" xmlns="http://www.w3.org/2000/svg" version="1.1" viewBox="0 0 26 25">
  <!-- Generator: Adobe Illustrator 29.8.2, SVG Export Plug-In . SVG Version: 2.1.1 Build 3)  -->
  <path d="M25.4,13.9c-.1-1,0-1.8,0-2.8.1-1.8,0-3.6,0-5.4,0-1.3.2-3.3-.8-4.3-.5-.5-1.1-.4-1.8-.4-1,0-2.1,0-3.1,0-1.9,0-3.9,0-5.8,0-4,0-8.1-.2-12.1-.4-.9,0-1.1.9-.8,1.5,0,0,0,.1,0,.2,0,.9.2,1.4.2,2.2,0,1.3,0,2.5,0,3.8,0,2.5-.1,4.9-.2,7.4,0,1.2-.1,2.4-.2,3.6,0,.9-.2,1.9,0,2.8.3,1,1.4,1.6,2.4,1.5.8.4,2,.4,2.9.5,1.1.1,2.3.3,3.4.2,1,0,1.9-.3,2.9-.3,4.1-.1,8.2,1.1,12.1-.4.4-.2.8-.5.7-1-.2-2.1,0-4.2.2-6.3,0-.8.1-1.6,0-2.4ZM14.5,12.9c0,3.1,0,6.1-.4,9.2,0,0-.2,0-.3,0-1.7,0-3.4.3-5,.3-1.5,0-3-.2-4.5-.4-.3-.6-1-1-1.6-.3-.1.2-.2-1.5-.2-1.8,0-.9.1-1.8.2-2.7.1-1.8.2-3.6.2-5.4s0-3.6,0-5.4c0-1.1.2-2.4-.3-3.4,0,0,0-.1,0-.2,3.2.2,6.5.3,9.7.3.7,0,1.5,0,2.2,0,0,3.3,0,6.5-.1,9.8ZM23.3,17c-.2,1.6-.2,3.3-.1,4.9-2.3.7-4.7.5-7,.3.2-2,.3-4,.3-6.1.1,0,.3,0,.5-.1,0,0,0,0,0,0,.1,0,.2,0,.4,0,0,0,.1,0,.2,0,0,0,.1,0,.2,0,1.9-.2,3.8-.3,5.7-.2,0,.4-.1.9-.2,1.3ZM23.4,7.4c0,1.7,0,3.3-.1,5,0,.5,0,.9,0,1.3-2,0-4,0-5.9.3-.3,0-.5,0-.8,0,0,0,0,0,0,0,0-.4,0-.8,0-1.1V3.1c.5,0,.9,0,1.3,0,.9,0,1.8,0,2.7,0,.4,0,.9,0,1.3,0,.2,0,1.1-.1,1.3,0,.5.2.2,3.7.2,4.4Z"/>
  <path d="M12.2,10.9c-1.7-2.2-3.7-4.3-5.8-6.1-1-.9-2.4.6-1.4,1.4,1.8,1.6,3.5,3.4,5.1,5.3-2.2,1.9-4.1,4.1-5.7,6.4-.7,1.1,1,2.1,1.7,1,1.7-2.5,3.7-4.7,6-6.6.4-.4.3-1,0-1.4Z"/>
</svg>