<?xml version="1.0" encoding="UTF-8"?>
<svg id="Layer_1" xmlns="http://www.w3.org/2000/svg" version="1.1" viewBox="0 0 25 26">
  <!-- Generator: Adobe Illustrator 29.8.2, SVG Export Plug-In . SVG Version: 2.1.1 Build 3)  -->
  <path d="M24.5,20.2c.4-1.8.7-3.6,0-5.4-.6-1.7-1.9-2.9-3.7-3.1-.4,0-.9,0-1.3-.1,0-1,0-1.9,0-2.9-.1-1.2,0-2.5,0-3.7,0,0,0-.1,0-.2,0-1.1,0-2.1-.9-2.9-.7-.8-1.7-1.2-2.7-1.3-1.1-.2-2.3-.3-3.5-.3-1.1,0-2.2,0-3.2.3-2,.6-3.3,2.2-3.4,4.3,0,1,.2,2.1.4,3.1,0,.1,0,.2,0,.4,0,.9.1,1.8.2,2.7-2.5-.2-5.1-.2-6,2.6-.5,1.5-.4,3.3-.4,5,0,1.9,0,3.8,0,5.8,0,.6.4,1,1,1,1.1,0,2.2-.4,3.3-.5,1.2-.1,2.4,0,3.7.1,2.5.2,5,.7,7.5.9,1.2,0,2.4-.3,3.6-.4,1.2-.1,2.5,0,3.7-.1.8,0,1.5-.3,1.6-1.1.2-1.2,0-2.6,0-3.8,0,0,0,0,0-.1ZM9.3,2.6c1.5-.7,3.5-.4,5.2-.3.8,0,1.6.1,2.3.6.7.5.7,1.2.6,1.9,0,0,0,.1,0,.2,0,1.2-.1,2.3,0,3.5,0,1,.2,2,.1,3-.9,0-1.9,0-2.8,0-1.9,0-3.8,0-5.6-.3-.1-.1-.3-.2-.5-.3,0,0,0,0,0,0,0-.2,0-.4,0-.6,0,0,0,0,0,0,0-1.4-.4-2.8-.7-4.2-.3-1.5,0-3,1.4-3.6ZM22.5,20.6c0,.9.1,1.8,0,2.7-.2,0-.4,0-.6,0-.5,0-1,0-1.5,0-.8,0-1.6,0-2.4.2-1.1.2-2.1.3-3.3.1-.9-.1-1.7-.3-2.6-.4-1.8-.2-3.7-.4-5.6-.5-.9,0-1.9,0-2.8,0-.3,0-.7.1-1,.2-.2,0-.5,0-.7,0,0-2.5,0-4.9,0-7.4,0-1.5.3-2.6,2-2.7,1.1,0,2.1,0,3.2,0,0,0,.2.1.3.1,3.6.7,7.2.4,10.8.5,1.6,0,3.2,0,4,1.5,0,.1.1.2.2.4,0,.3,0,.7,0,.9,0,.6,0,1.2.1,1.8,0,.6-.2,1.3-.4,1.9,0,.2,0,.4,0,.5Z"/>
</svg>