<?xml version="1.0" encoding="UTF-8"?>
<svg id="Layer_1" xmlns="http://www.w3.org/2000/svg" version="1.1" viewBox="0 0 25 26">
  <!-- Generator: Adobe Illustrator 29.8.2, SVG Export Plug-In . SVG Version: 2.1.1 Build 3)  -->
  <defs>
    <style>
      .st0 {
        fill: #bb8fea;
      }
    </style>
  </defs>
  <path class="st0" d="M24.5,20.2c.4-1.8.7-3.6,0-5.4-.6-1.7-1.9-2.9-3.7-3.1-.4,0-.9,0-1.3-.1v-2.9c-.1-1.2,0-2.5,0-3.7v-.2c0-1.1,0-2.1-.9-2.9-.7-.8-1.7-1.2-2.7-1.3-1.1-.2-2.3-.3-3.5-.3s-2.2,0-3.2.3c-2,.6-3.3,2.2-3.4,4.3,0,1,.2,2.1.4,3.1v.4c0,.9,0,1.8.2,2.7-2.5-.2-5.1-.2-6,2.6C0,15.2,0,17,0,18.7v5.8C0,25.1.4,25.5,1,25.5c1.1,0,2.2-.4,3.3-.5,1.2-.1,2.4,0,3.7.1,2.5.2,5,.7,7.5.9,1.2,0,2.4-.3,3.6-.4,1.2-.1,2.5,0,3.7-.1.8,0,1.5-.3,1.6-1.1.2-1.2,0-2.6,0-3.8h0c0-.1,0-.4,0-.4ZM9.3,2.6c1.5-.7,3.5-.4,5.2-.3.8,0,1.6,0,2.3.6.7.5.7,1.2.6,1.9v.2c0,1.2-.1,2.3,0,3.5,0,1,.2,2,.1,3h-2.8c-1.9,0-3.8,0-5.6-.3-.1-.1-.3-.2-.5-.3h0v-.6h0c0-1.4-.4-2.8-.7-4.2-.3-1.5,0-3,1.4-3.6h0ZM22.5,20.6c0,.9.1,1.8,0,2.7h-2.1c-.8,0-1.6,0-2.4.2-1.1.2-2.1.3-3.3.1-.9-.1-1.7-.3-2.6-.4-1.8-.2-3.7-.4-5.6-.5h-2.8c-.3,0-.7.1-1,.2h-.7v-7.4c0-1.5.3-2.6,2-2.7h3.2s.2.1.3.1c3.6.7,7.2.4,10.8.5,1.6,0,3.2,0,4,1.5,0,.1.1.2.2.4v.9c0,.6,0,1.2.1,1.8,0,.6-.2,1.3-.4,1.9v.5l.3.2Z"/>
</svg>