<?xml version="1.0" encoding="UTF-8"?>
<svg id="Layer_1" xmlns="http://www.w3.org/2000/svg" version="1.1" viewBox="0 0 25 26">
  <!-- Generator: Adobe Illustrator 29.8.2, SVG Export Plug-In . SVG Version: 2.1.1 Build 3)  -->
  <path d="M24.2,20.5c0-1.1-.2-2.3-.3-3.4,0-1,0-2.1-.4-3.1-.6-2-3.2-2-5.1-2.1,0,0,0,0,0,0,.3-2.2.5-4.3.6-6.5,0,0,.1-.1.2-.2.5-1.3-.4-2.7-1.7-3.4-1.5-.8-3.5-.8-5.2-.9-1.6,0-3.7-.4-4.9.9-1,1.1-1.1,2.7-1.1,4.1,0,1.9.2,3.9.4,5.8-1,0-2,0-2.9,0-.9.1-1.8.4-2.3,1-.7.8-.5,2.1-.6,3.1,0,2.6-.1,5.2-.2,7.8,0,.4.4.5.7.4,0,0,0,0,.1,0,4.7-.2,9.3,1,14.1,1.3,2.2.1,4.5,0,6.7-.5.9-.2,1.6-.7,2-1.5.3-.8.2-1.8,0-2.7ZM8.7,2c.8-.4,2.1-.2,3-.2,1,0,2,0,3.1.2,1.5.2,3.9,1,3.5,2.7,0,0-.1.2-.1.3-.1,2.3-.3,4.6-.7,6.9-2.2,0-4.4,0-6.5-.1-1,0-2.1,0-3.1,0-.1-1.8-.3-3.6-.4-5.5,0-1.2-.2-3.6,1.3-4.2ZM21.5,23.8c-2,.5-4,.5-6.1.4-4.6-.3-9-1.4-13.6-1.2,0-1.8,0-3.6.1-5.5,0-1,0-2,0-3,0-.5,0-1,.4-1.3.3-.3.6-.4,1-.5.8-.2,1.7-.1,2.6-.1,1.1,0,2.2,0,3.4,0,2.2,0,4.5,0,6.7.1,1.1,0,2.2,0,3.2.1.9,0,2.4.1,3,.8.6.7.5,2,.6,2.8,0,1,.2,2,.3,3,0,.9.2,1.8.2,2.7,0,1.1-.7,1.4-1.8,1.7Z"/>
  <path d="M12.2,14.8c-.5,0-1.2-.1-1.6.2-.2.2-.3.4-.4.7,0,.2-.2.4-.3.7-.1.5.4.9.9,1.2.2.1.4.2.7.3,0,.3,0,.6,0,.8,0,1,0,1.9,0,2.9,0,.6,1.1.6,1.1,0,0-.7,0-1.3,0-2,0-.3,0-.7,0-1,0-.2,0-.3,0-.5,0,0,0,0,0,0,.1,0,.2-.1.3-.2.2,0,.4-.1.6-.3.4-.3.6-.7.8-1.1.5-1.2-1.1-1.6-2.1-1.7ZM13.1,16.4c-.1.2-.3.5-.6.5-.2,0-.3,0-.5,0,0,0,0,0,0,0-.3-.1-.6-.3-.9-.5,0,0,0,0,0,0,0-.1,0-.2.1-.3,0,0,0-.2.1-.3,0,0,0,0,0,0,0,0,0,0,0,0,.4,0,1,0,1.4.2.1,0,.4,0,.5.2,0,0-.1.2-.2.3Z"/>
</svg>