<?xml version="1.0" encoding="UTF-8"?>
<svg id="Layer_1" xmlns="http://www.w3.org/2000/svg" version="1.1" viewBox="0 0 26 25">
  <!-- Generator: Adobe Illustrator 29.8.2, SVG Export Plug-In . SVG Version: 2.1.1 Build 3)  -->
  <path d="M2.5,22.3s0,0,0,0c0,0,0,0,0,0,0,0,0,0,0,0Z"/>
  <path d="M25.5,8.2c0-1.5,0-2.9-.2-4.4-.1-1-.3-2.2-1.2-2.8-.9-.6-2.2-.2-3.2.1-1.1.4-2.1.9-3,1.5-1.7,1.1-3.2,2.3-5,3.2-1.2-.9-2.3-1.8-3.5-2.7-1-.8-2-1.7-3.3-2.1-1.1-.4-2.6-.5-3.7-.3-1.3.3-1.6,1.4-1.7,2.6-.2,3,.2,6,.2,9,0,3.2-.2,6.4-.4,9.6,0,.1,0,.3,0,.4,0,.9.6,1.8,1.5,2.1,1.3.4,2.7-.2,3.9-.6,2.5-.9,4.9-2.2,7.3-3.5,1.2,1,2.3,2,3.6,2.8,1.4.9,3,1.4,4.7,1.4.8,0,1.6-.1,2.3-.4.8-.3,1.1-1,1.1-1.9,0-1.7,0-3.5,0-5.2,0,0,0,0,0,0,.2-2.8.4-5.7.4-8.6ZM12,18.6c-1.6.9-3.2,1.8-4.9,2.5-.9.4-1.8.7-2.7,1-.4.1-.9.3-1.3.3-.2,0-.3,0-.4,0,0,0,0,0,0,0,0,0,0,0,0,.1,0,0,0,0,0-.1,0,0,0,0,0,0,0-.2,0-.5,0-.7.3-5,.5-10.1.2-15.1,0-.6,0-1.1,0-1.7,0-.4-.1-1.5.1-1.8.3-.3,1.2-.1,1.6,0,.6,0,1.1.2,1.6.5,1,.6,2,1.4,2.9,2.1.9.7,1.8,1.4,2.7,2.1.3,3.7.4,7.4.2,11.1ZM21.1,22.4c-1.3,0-2.4-.6-3.4-1.3-1.2-.8-2.3-1.8-3.4-2.7,0,0-.2-.1-.3-.2.2-3.5,0-7-.2-10.6,1.6-.8,3-1.8,4.4-2.8.8-.5,1.6-1,2.4-1.4.4-.2.9-.4,1.3-.5.2,0,.9-.3,1.2-.2.3.1.3.8.3,1.1,0,.6.1,1.2.1,1.8,0,1.3,0,2.6,0,3.8,0,2.3-.2,4.6-.3,7,0,0,0,.1,0,.2,0,1.5,0,3.1,0,4.6,0,.3-.1.8,0,1,0,0-.1,0-.2,0-.6.2-1.2.2-1.8.2Z"/>
</svg>