<?xml version="1.0" encoding="UTF-8"?>
<svg id="Layer_1" xmlns="http://www.w3.org/2000/svg" version="1.1" viewBox="0 0 26 25">
  <!-- Generator: Adobe Illustrator 29.8.2, SVG Export Plug-In . SVG Version: 2.1.1 Build 3)  -->
  <path d="M25.4,20.9h-.2c0-.8,0-1.7-.1-2.6v-5c0-1.7-.3-3.3-.3-5v-2.4c0-.9.2-1.7.2-2.6,0-1.3-.5-2.6-1.8-3-1.4-.4-3.1.3-4.5.6-1.8.4-3.6.8-5.4,1.2-.2-.2-.5-.2-.7,0-1.6,0-3.1,0-4.7-.6-1.5-.4-3-1-4.5-1S1,.8.9,2.2c-.2,1.6,0,3.2,0,4.8,0,3.4,0,6.9-.1,10.3v5c0,.6.1,1.2.6,1.7.4.4,1,.5,1.6.6.9,0,1.8,0,2.7-.2.9,0,1.7-.1,2.6-.5,1.5-.6,3-1.1,4.5-1.4.2.4.8.3.9-.2,3,0,5.7,1.5,8.7,1.8,1.1.1,2.5,0,2.9-1.2.2-.6.2-1.3.1-2ZM8.8,22.6c-.6.3-1.3.6-1.9.7-.8.2-1.5.2-2.3.2s-1.2,0-1.8,0-.6,0-.9-.3c-.3-.3-.3-.8-.3-1.2,0-1.5,0-2.9,0-4.4V2.1c.1-.8,1-.7,1.7-.7,1.6,0,3.1.8,4.7,1.2,1.4.4,2.8.5,4.2.5,0,3.2,0,6.3,0,9.5,0,1.6.1,3.3,0,4.9,0,1.4-.2,2.7-.2,4h.3c-1.2.3-2.4.7-3.6,1.1ZM23.8,23.2h0c-.5.2-1.2,0-1.7,0-2.9-.3-5.6-1.8-8.6-1.8,0-1.4.2-2.8.2-4.1s0-3.3,0-4.9V3.2l4.2-.9c1.4-.3,2.8-.7,4.2-.9.5,0,1.1,0,1.5.2.6.4.7,1.4.7,2.1,0,1.5-.3,2.9-.2,4.4,0,1.5.2,3,.3,4.5v4.4c0,1.5,0,2.9,0,4.4,0,.6.2,1.4-.5,1.8Z"/>
</svg>