<?xml version="1.0" encoding="UTF-8"?>
<svg id="Layer_2" xmlns="http://www.w3.org/2000/svg" version="1.1" viewBox="0 0 401.5 585.4">
  <!-- Generator: Adobe Illustrator 29.8.3, SVG Export Plug-In . SVG Version: 2.1.1 Build 3)  -->
  <defs>
    <style>
      .st0 {
        fill: #fff;
      }
    </style>
  </defs>
  <g id="Layer_1-2">
    <path class="st0" d="M369.5,0H32C14.3,0,0,14.3,0,32v521.4c0,17.7,14.3,32,32,32h337.5c17.7,0,32-14.3,32-32V32c0-17.7-14.3-32-32-32ZM370.3,485.9c0,2.2-1.8,4-4,4H35.1c-2.2,0-4-1.8-4-4V36.4c0-2.2,1.8-4,4-4h331.2c2.2,0,4,1.8,4,4v449.6h0Z"/>
  </g>
</svg>