<svg width="22" height="34" viewBox="0 0 22 34" fill="none" xmlns="http://www.w3.org/2000/svg">
<path d="M21.2071 6.65715C21.5976 7.04768 21.5976 7.68084 21.2071 8.07136L14.8431 14.4353C14.4526 14.8258 13.8195 14.8258 13.4289 14.4353C13.0384 14.0448 13.0384 13.4116 13.4289 13.0211L19.0858 7.36426L13.4289 1.7074C13.0384 1.31688 13.0384 0.683714 13.4289 0.29319C13.8195 -0.0973346 14.4526 -0.0973346 14.8431 0.29319L21.2071 6.65715ZM13.5 8.36426C12.9477 8.36426 12.5 7.91654 12.5 7.36426C12.5 6.81197 12.9477 6.36426 13.5 6.36426L13.5 7.36426L13.5 8.36426ZM20.5 7.36426L20.5 8.36426L13.5 8.36426L13.5 7.36426L13.5 6.36426L20.5 6.36426L20.5 7.36426Z" fill="black"/>
<path d="M13.5 7.36426C6.59644 7.36426 1 12.9607 1 19.8643C1 26.7678 6.59644 32.3643 13.5 32.3643" stroke="black" stroke-width="2" stroke-linecap="round"/>
</svg>
