<?xml version="1.0" encoding="UTF-8"?>
<svg id="Layer_2" data-name="Layer 2" xmlns="http://www.w3.org/2000/svg" viewBox="0 0 510.4 570.06">
  <defs>
    <style>
      .cls-1 {
        fill: #aa91eb;
      }

      .cls-2 {
        fill: #74bbf0;
      }

      .cls-3 {
        fill: #e57c79;
      }

      .cls-4 {
        fill: #838383;
      }

      .cls-5 {
        fill: #e799ca;
      }
    </style>
  </defs>
  <g id="Layer_1-2" data-name="Layer 1">
    <g>
      <path class="cls-4" d="M19.17,252.77c-4.14,10.92-6.98,22.06,2.63,28.41,9.61,6.35,21.8,4.84,27.23-3.37,5.42-8.21,2.03-20.02-7.58-26.37-9.61-6.35-18.79-7.87-22.28,1.33Z"/>
      <g>
        <path d="M200.49,62.84c-1.4-8.03-3.96-15.08-9.03-20.6-8.82-9.59-24.13-9.2-33.24.28-10.79,11.23-8.51,34.01-5.92,51.01l21.41,140.43,5.65-.38c-3.19,4.91-6.26,9.5-7.71,15.3-5.02,20.22-7.98,40.52-8.61,61.49,7,6.16,14.71,11.71,16.14,21.76-5.3-8.22-11.49-16.71-22.05-20.22l4.07,11.64c2.19,6.27,1.69,13.49-1.91,19.08,1.9-10.53,1.09-20.51-6.09-28.29l-9.99-10.82-26.14-30.87c-20.04-23.67-44.22-41.42-76.28-39.79-8.47.43-16.57,2.7-22.76,8.23-3.96,3.54-7.75,8.57-6.45,14.19,1.13,4.89,5.26,9.54,9.35,12.46l19.53,13.94c5.64-1.44,10.16-7.38,10.34-12.94.38-11.86-14.39-24.54-27.43-20.33-5,1.61-6.8,12.18-6.14,17.89-3.5-4.04-1.47-15.78,2.37-18.54,10.47-7.51,23.65-.32,31.2,10.21,2.92,4.08,3.83,9.66,1.96,15.06-1.26,3.63-5.58,7.52-10.51,9.78,10.02,8.56,18.5,18.62,25.42,30.29l30.5,51.48c13.12,22.15,26.16,43.44,43.04,62.89l17.58,17.43c13.64,13.52,31.89,20.1,51.1,20.94l21.56.94c-7.8,2.55-15.71,4.35-24.12,3.82l-28.09-1.79.46,7.18c6.16,2.7,11.68,4.48,18.01,5.97l16,3.77c-9.28,1.54-17.33-.46-26.54-2.26-2.26-.44-4.71-2.4-7.58-4.54l1.4,55.41.54,35.72-15.03-4.08-.95-29.55-1.03-31.98-.67-22.91-.7-16.97c-24.16-15.53-44.63-40.65-60.06-64.97l-32-55.96c-8.64-15.1-16.76-29.73-28.14-42.85-15.22-17.54-36.45-24.91-41.43-38.49-4.48-12.22,1.36-24.9,12.12-31.58,15.44-9.58,35.52-9.23,53.28-4.99,31.8,7.61,46.89,27.26,66.56,49.49l18.21,20.59c2.08-19.1,4.32-35.67,8.93-53.43l-7.36-60.02-14.03-97.85c-2.61-18.19-1.91-38.86,12.02-50.13,10.68-8.64,24.02-11.5,37.52-6.35,10.75,4.1,19.71,14.68,22.24,27.98,8.49,44.68,17.35,88.88,30.04,132.63l1.74-130.38c.15-10.9,1.05-21.37,3.72-31.47C251.18,9.05,266.52-.81,284.32.05c24.18,1.17,35.62,19.32,36.7,42.71l5.63,122.32,1.18,23.65,25.2-123.42c4-19.61,16.63-34.83,37.27-33.99,25.2,1.03,37.38,17.61,37.34,42.1l-3.94,34.48-14.76,107.08c-.98,1.76-.65,2.74.7,1.35l33-84.35c4.82-12.32,14.82-20.62,27.49-21.77,11.4-1.03,21.33,2,29.32,9.48,15.37,14.4,11.72,34.83,6.14,55.08l-39.67,122.37c-1.59,28.44-4.53,55.77-10.15,83.62-6.99,31.7-15.55,59.23-38.16,82.78l.81,17.93,4.84,84.56-14.19,3.84-7.06-91.6c-7.84,8.47-22,9.1-33.91,9.03-1.63-.88-2.13-1.77-.21-1.58,14-2.21,36.79-5.59,33.22-16.44l-16.8,2.54c-13.44,2.04-26.33-.16-39.42-4.01l.22-1.41c13.83,1.84,26.6,1.45,39.84-1.36,35.33-7.5,50.37-54.55,57.23-87.87,5.16-25.09,8.5-50.04,10.14-75.66.31-4.8.46-8.57,2.03-13.17l36.83-107.97,6.24-23.98c1.69-6.51,1.65-13.57,0-20.09-3.32-13.13-17.81-20.71-30.04-14.9-8.85,4.21-13.17,12.75-16.55,21.61l-26.51,69.27-13.72,31.37c5.01,2.34,9.77,4.66,12.87,8.87-12.37-6.16-24.33-10.28-37.74-12.48l-1.84-.87c-.33-.16-.13-.44.26-.46l9.87-.62,9.98-75.07,11.59-81.49c1.57-11.03.42-22.4-6.03-31.15-5.22-7.09-13.76-10.25-22.04-9.31s-16.28,6.09-18.86,14.72l-5.57,18.58-30.12,146.02,7.35,3.78c.25.08,1.05,2.72.43,1.78l-31.02-6.68,8.21-1.37-3.55-60.46-2.97-63.97-.76-19.02-2.01-37.28c-.41-7.66-3.72-15.57-9.08-20.89-6.99-6.94-17.22-8.29-26.25-4.75-8,3.13-13.94,10.8-15.75,20.38-2.51,13.35-3.05,26.78-3.51,40.54l-.7,21.01-.21,46-1.1,58.99-.85,17.95,7.26,2.84-16.17.25-15.52,1.36c3.33-2.07,5.44-2.85,9.25-4.34l-7.83-29.98c-10.71-41.01-20.3-81.32-27.68-123.66Z"/>
        <path d="M298.2,53.9c-7.54,8.21-22.56,7.25-29.48-.79-7.97-9.26-7.53-23.97.05-33.19,7.82-9.5,23.82-8.67,30.3,1.5s7.39,23.49-.87,32.49ZM299.36,46.83c3.75-8.61,2.3-19.59-3.96-26.46-6.87-7.53-18.35-5.97-24.94,1.3-4.86,5.37-5.7,12.92-4.43,19.81,1.63,8.84,8.46,13.53,17.34,13.42,6.21-.08,12.98-1.16,15.99-8.07Z"/>
        <path d="M403.47,85.15c-8.77,7.86-23.76,4.13-29.24-5.5-5.08-8.93-4.18-21.09,2.5-28.79,8-9.21,22.98-7.91,30.14,2.21,6.46,9.13,5.66,23.95-3.41,32.08ZM401.33,82c9.21-7.28,9.33-21.57,2.03-29.55-5.05-5.51-14.04-7.19-20.57-3.41-10,5.78-12.56,20.12-5.19,29.21,5.11,6.3,16.78,9.25,23.74,3.76Z"/>
        <path d="M192.29,74.01c-6.83,11.25-23.68,11.47-31.78,2.39-6.05-6.78-6.78-16.4-3.79-24.61,3.9-10.72,16.85-16.84,27.1-10.67s15.26,21.72,8.47,32.89ZM191.48,68.34c3.32-9.54-.41-20.48-8.78-25.26s-19.54-.59-23.39,8.31c-2.83,6.54-2.55,14.6,1.59,20.53,3.6,5.17,10.43,7.08,16.74,6.36,4.79-.55,11.69-3.8,13.83-9.95Z"/>
        <path class="cls-1" d="M299.36,46.83c-3.01,6.91-9.78,7.99-15.99,8.07-8.88.11-15.71-4.58-17.34-13.42-1.27-6.88-.43-14.44,4.43-19.81,6.58-7.27,18.07-8.84,24.94-1.3,6.26,6.87,7.71,17.85,3.96,26.46Z"/>
        <path class="cls-5" d="M401.33,82c-6.96,5.5-18.63,2.55-23.74-3.76-7.36-9.09-4.8-23.42,5.19-29.21,6.53-3.78,15.53-2.09,20.57,3.41,7.31,7.97,7.18,22.27-2.03,29.55Z"/>
        <path class="cls-2" d="M191.48,68.34c-2.14,6.15-9.04,9.4-13.83,9.95-6.31.72-13.14-1.19-16.74-6.36-4.14-5.94-4.42-14-1.59-20.53,3.85-8.9,14.81-13.2,23.39-8.31s12.1,15.72,8.78,25.26Z"/>
        <g>
          <path d="M485.38,162.93c-8.11,5.56-19.15,2.3-24.4-5.2s-4.52-18.23.43-26.23c5.85-9.44,19.54-11.9,27.5-3.63,9.46,9.82,8.21,27.02-3.53,35.06ZM484.55,159.3c8.97-6.14,10.17-18.85,5.08-27.07-3.53-5.7-10.05-7.65-16.37-6.51-11.13,2.01-16.35,16.23-11.51,26.48,3.62,7.67,15.2,12.32,22.81,7.11Z"/>
          <path d="M450.17,284.01c-4.88-5.15-8.45-10.78-10.62-17.16,6.29,4.14,9.45,10.18,10.62,17.16Z"/>
          <path class="cls-3" d="M484.55,159.3c-7.61,5.21-19.19.57-22.81-7.11-4.83-10.25.39-24.47,11.51-26.48,6.33-1.14,12.84.81,16.37,6.51,5.1,8.23,3.89,20.94-5.08,27.07Z"/>
        </g>
      </g>
    </g>
  </g>
</svg>