<?xml version="1.0" encoding="UTF-8"?>
<svg id="Layer_1" xmlns="http://www.w3.org/2000/svg" version="1.1" viewBox="0 0 17 12">
  <!-- Generator: Adobe Illustrator 29.8.2, SVG Export Plug-In . SVG Version: 2.1.1 Build 3)  -->
  <path d="M16,.1c-5,0-9.9,0-14.9,0-.3,0-.5,0-.6.2C.2.5,0,.7,0,.9c0,.6.2,1.2.9,1.2,5,0,9.9,0,14.9,0,1.3,0,1.3-2,0-2Z"/>
  <path d="M15.9,5.1c-.5,0-1.1.1-1.6.2-.1,0-.2,0,0,0,0,0-.2,0-.2,0-.1,0-.2,0-.3,0-.3,0-.5,0-.8,0-1.1,0-2.2,0-3.3,0-.5,0-1,.5-1,1,0,.5.4,1,1,1,1.1,0,2.2,0,3.3,0,.5,0,1.1,0,1.6,0,.3,0,.5-.1.8-.2.3,0,.3,0,.6,0,.5,0,1-.5,1-1,0-.6-.4-1-1-1Z"/>
  <path d="M15.8,9.8c-1.2,0-2.4.1-3.6.1-1.3,0-2.6,0-3.9-.2-2.5-.1-5-.2-7.5.1-.5,0-.8.8-.7,1.2.2.6.7.8,1.2.7,2.4-.4,4.9-.2,7.3,0,1.2,0,2.4.1,3.6.1,1.2,0,2.4-.1,3.6-.1,1.3,0,1.3-2,0-2Z"/>
</svg>