<?xml version="1.0" encoding="UTF-8"?>
<svg id="Layer_1" xmlns="http://www.w3.org/2000/svg" version="1.1" viewBox="0 0 17 12">
  <!-- Generator: Adobe Illustrator 29.8.2, SVG Export Plug-In . SVG Version: 2.1.1 Build 3)  -->
  <path d="M16.2.2c-2.6.2-5.2.3-7.8.2C5.8.4,3.2,0,.7.3,0,.4,0,1.4.7,1.3c2.6-.2,5.2,0,7.7.1,2.6,0,5.2,0,7.8-.2.6,0,.6-1,0-1Z"/>
  <path d="M16.2,5.5c-2.1.1-4.2.1-6.3,0-.6,0-.6,1,0,1,2.1.1,4.2.1,6.3,0,.6,0,.6-1,0-1Z"/>
  <path d="M16.3,10.7c-5.2.4-10.4-.5-15.6-.1-.6,0-.6,1.1,0,1,5.2-.4,10.4.5,15.6.1.6,0,.6-1,0-1Z"/>
</svg>