<?xml version="1.0" encoding="UTF-8"?>
<svg id="Layer_1" xmlns="http://www.w3.org/2000/svg" version="1.1" viewBox="0 0 26 25">
  <!-- Generator: Adobe Illustrator 29.8.2, SVG Export Plug-In . SVG Version: 2.1.1 Build 3)  -->
  <path d="M25.7,7c0-1,0-1.3-.8-2-.7-.6-1.4-1.2-2.1-1.9-1-1-1.9-2.3-3.3-2.7-.8-.2-1.4.1-2.2.2-.9,0-1.7-.4-2.6-.3-1,0-1.9.3-2.9.4-.9,0-1.9,0-2.8,0-1.7-.2-3.4-.3-5.1-.2C2.5.3.4.2.2,2.1c0,1.1.1,2.2.1,3.3,0,1.2,0,2.3,0,3.5,0,2.2,0,4.3,0,6.5,0,2.2-.2,4.5.1,6.7.3,2.1,2,2.3,3.8,2.5,2.1.3,4.1.2,6.2.1,2.2-.1,4.3-.3,6.5-.3,1.5.2,3.1.4,4.6.3,1.3,0,2.7-.4,3.4-1.5.8-1.2.6-3.1.7-4.5,0-2,.1-3.9.1-5.9,0-1.9,0-3.8-.1-5.7ZM7,2.4c.7,0,1.5.2,2.2.2.9,0,1.9.1,2.8,0,1,0,1.9-.4,2.9-.4.4,0,.7,0,1.1.1,0,0,0,.1,0,.2,0,.9.1,1.7.1,2.6,0,.4,0,.8,0,1.2,0,.1,0,.2,0,.3,0,0,0,0,0,0,0,0-.2.1-.2.1-.7.3-1.5.2-2.2.2-.8,0-1.7,0-2.5,0-.8,0-1.7,0-2.5,0-.5,0-1.2.1-1.4-.3-.3-.6-.4-1.4-.4-2.1,0-.8,0-1.5.1-2.3ZM16.8,22.3c-.2,0-.4,0-.6,0-1.5,0-3,.1-4.5.2-1.6,0-3.1.2-4.7.1,0,0,0-.1,0-.2,0-1.3,0-2.7-.1-4,0-.6,0-1.2,0-1.9,0-.5-.1-1.1.2-1.5.5-.8,1.8-1.1,2.8-1.2,1.2-.1,2.4-.1,3.6-.1,1.2,0,2.5,0,3.7.2.4,0,.9,0,1.1.5.2.5,0,1.1.2,1.6.2,1.2.4,2.4.4,3.6,0,1,0,2-.1,3-.7,0-1.3-.2-1.9-.3ZM23.7,17.9c0,.9,0,1.9-.1,2.8,0,.9-.2,1.5-1,1.7-.6.2-1.2.2-1.8.2.1-2.1.2-4.2-.2-6.3-.2-1,0-2.1-.5-3-.5-1-1.5-1.3-2.5-1.4-2.3-.3-4.8-.3-7.2-.1-1.9.1-4.3.6-5.2,2.6-.5,1.2-.3,2.6-.2,3.8,0,1.4,0,2.9.1,4.3,0,0,0,0,0,0-.3,0-.7,0-1-.1-.4,0-.9,0-1.2-.2-.6-.2-.5-.5-.5-1-.2-3.5,0-7.1,0-10.7,0-1.7,0-3.5,0-5.2,0-.8,0-1.8-.1-2.6,0-.2,0-.3,0-.4.2,0,.3,0,.5,0,0,0,.2,0,.3,0,.1,0,.3,0,.5,0,0,0,.1,0,.2,0,.1,0,.2,0,.4,0,.2,0,.3,0,.5,0,.2,0,.3,0,.5,0-.1,1-.2,2-.1,3,0,.9.2,2,.8,2.7.6.8,1.5,1.1,2.5,1.1,1,0,2,0,3,0,1,0,2.1,0,3.1,0,1,0,1.9-.1,2.8-.6,1-.6,1.1-1.6,1.1-2.6,0-1.1,0-2.1-.1-3.2,0,0,0,0,0-.1.3,0,.5-.2.8-.1.4,0,.7.4,1,.6,1.3,1.2,2.5,2.5,3.9,3.6.1,3.8.2,7.6,0,11.4Z"/>
</svg>