<?xml version="1.0" encoding="UTF-8"?>
<svg id="Layer_1" xmlns="http://www.w3.org/2000/svg" version="1.1" viewBox="0 0 24 24">
  <!-- Generator: Adobe Illustrator 29.8.2, SVG Export Plug-In . SVG Version: 2.1.1 Build 3)  -->
  <defs>
    <style>
      .st0 {
        fill: none;
        stroke: #000;
        stroke-linecap: round;
        stroke-linejoin: round;
        stroke-width: 2px;
      }
    </style>
  </defs>
  <path class="st0" d="M23.1,16.2v4.8c0,1.1-1.1,2-2.5,2H3.5c-1.4,0-2.5-.9-2.5-2v-4.8"/>
  <path class="st0" d="M12,16.5l-6.9-7.5c-1.5-2-1.4-4.8.2-6.8h0c.6-.8,1.6-1.2,2.6-1.2h0c.6,0,1.2.2,1.7.5l.4.2c1.2.7,2,2.1,2,3.5h0s0,0,0,0c0-1.4.8-2.8,2-3.5l.4-.2c.5-.3,1.1-.5,1.7-.5h0c1,0,2,.5,2.6,1.2h0c1.6,2,1.7,4.8.2,6.8l-6.9,7.5"/>
</svg>