<?xml version="1.0" encoding="UTF-8"?>
<svg id="Layer_1" xmlns="http://www.w3.org/2000/svg" version="1.1" viewBox="0 0 26 25">
  <!-- Generator: Adobe Illustrator 29.8.2, SVG Export Plug-In . SVG Version: 2.1.1 Build 3)  -->
  <path d="M25.4,8.8h0c0-.6,0-1.1-.3-1.6-.2-.3-.4-.5-.6-.8v-.2c-.2-.1-.3-.3-.4-.4,0-.2-.2-.3-.4-.4-.7-.8-1.5-1.6-2.2-2.4-.5-.6-1.1-1.1-1.7-1.7-.5-.5-1.1-.8-1.8-.8-.8,0-1.6.1-2.3.2-.9,0-1.8,0-2.7,0-3.4-.2-6.8-.1-10.2,0-.6,0-1.1,0-1.6.5-.4.4-.5,1-.6,1.5-.1,1.6,0,3.2-.1,4.8,0,3.4-.1,6.8,0,10.2,0,.9,0,1.7,0,2.6,0,.7,0,1.5.2,2.2.4,1.2,1.6,1.6,2.8,1.7,3.4.2,6.8.2,10.3.3,1.7,0,3.4.1,5.1,0,1.5,0,3.2,0,4.7-.6.6-.2,1.1-.6,1.2-1.2.2-.8.2-1.7.2-2.5.1-2,.2-4,.2-6,0-1.4,0-2.8,0-4.3,0-.3,0-.7,0-1ZM7.2,4.6c0-1.1,0-2.1.2-3.2.9,0,1.8,0,2.7,0,1.7,0,3.4.2,5.1.3.8,0,1.7,0,2.5-.1,0,0,.1,0,.2,0,0,1.1,0,2.1,0,3.2,0,.5,0,.9,0,1.4,0,.3,0,.5,0,.8,0,.2,0,.7,0,.8-.1.2-.9.3-1.1.3-.5.1-1,.2-1.4.2-1,.1-1.9.1-2.9,0-1,0-1.9-.1-2.9-.2-.8,0-1.8,0-2.1-.9-.2-.8-.2-1.8-.2-2.6ZM7.7,23.2c-.3,0-.5,0-.8,0-.1-1.2-.2-2.5-.3-3.8,0-1.2-.1-2.6.2-3.8.1-.5.3-1,.8-1.3.4-.2,1-.2,1.5-.2,1.2,0,2.5,0,3.7.1,1.2,0,2.5.1,3.7.4.8.2,1.9.5,2.1,1.4.2.6,0,1.3.1,1.9,0,.6,0,1.1,0,1.7,0,1.2.1,2.5.2,3.7-.7,0-1.4,0-2.1,0-3,0-6.1-.2-9.1-.3ZM24.1,21c0,.6,0,1.5-.6,1.9-.6.4-1.4.5-2.1.6-.5,0-1,0-1.5.1-.1-2.2-.2-4.5-.3-6.7,0-.9-.2-1.6-.9-2.1-.6-.5-1.4-.8-2.2-.9-2.2-.5-4.5-.5-6.8-.5-.9,0-1.9,0-2.6.4-.7.4-1.1,1.2-1.3,2-.3,1.2-.2,2.5-.2,3.8,0,1.3.1,2.6.3,3.9-.8,0-1.6,0-2.4-.1-.6,0-1.2-.2-1.6-.7-.4-.6-.3-1.6-.3-2.3-.1-3.1-.1-6.1-.1-9.2,0-1.5,0-3.1,0-4.6v-2.1c0-.6,0-1.4.1-2,.2-.7,1-.6,1.6-.6.8,0,1.6-.1,2.4-.1.2,0,.4,0,.7,0-.2,1.8-.3,3.6,0,5.4,0,.6.3,1.2.7,1.7.6.5,1.3.5,2,.6,1.8.2,3.6.3,5.5.2.9,0,1.7-.2,2.5-.3.6-.1,1.6-.2,1.7-1,0-.5,0-1,0-1.5,0-.5,0-1.1,0-1.6V1.8c.4.2.6.6,1,.9,1,1,2,2.1,3,3.2,0,0,.1.2.2.2,0,0,.1.1.2.2,0,0,0,0,0,.1,0,0,0,0,0,0,0,.2.2.3.3.5.1.2.3.4.5.5.1.2.3.5.3.8,0,0,0,.1,0,.2,0,.2,0,.4,0,.6,0,.5,0,1,0,1.5,0,0,0,0,0,.1,0,0,0,0,0,0,0,.2,0,.3.1.3,0,3.3-.1,6.6-.3,9.9Z"/>
</svg>