<svg width="26" height="25" viewBox="0 0 26 25" fill="none" xmlns="http://www.w3.org/2000/svg">
<path d="M5.93151 24.5H3C1.89543 24.5 1 23.6046 1 22.5V2.5C1 1.39543 1.89543 0.5 3 0.5H5.93151M5.93151 24.5V16.2143C5.93151 15.1097 6.82694 14.2143 7.93151 14.2143H17.411C18.5155 14.2143 19.411 15.1097 19.411 16.2143V24.5M5.93151 24.5H19.411M19.411 24.5H23C24.1046 24.5 25 23.6046 25 22.5V8.05052C25 7.60138 24.8488 7.16532 24.5708 6.81256L20.1965 1.26204C19.8172 0.780832 19.2383 0.5 18.6256 0.5H17.911M5.93151 0.5V5.35714C5.93151 6.46171 6.82694 7.35714 7.93151 7.35714H15.911C17.0155 7.35714 17.911 6.46171 17.911 5.35714V0.5M5.93151 0.5H17.911" stroke="black" stroke-linecap="round"/>
</svg>
