<?xml version="1.0" encoding="UTF-8"?>
<svg id="Layer_1" xmlns="http://www.w3.org/2000/svg" version="1.1" viewBox="0 0 21 21">
  <!-- Generator: Adobe Illustrator 29.8.2, SVG Export Plug-In . SVG Version: 2.1.1 Build 3)  -->
  <path d="M15.7,9.9c0-.6-.2-1.2-.5-1.8-.2-.5-.4-1-.7-1.4-.8-1.1-1.9-1.4-3.2-1.6s-2.4.2-3.4.8c-.9.6-2,1.3-2.5,2.4-.5,1-.5,2-.3,3.1.5,2.2,2.5,3.6,4.5,4.1,1.2.3,2.7.6,3.8-.2s2-2,2.1-3.3c0-.2,0-.4-.2-.6.2-.5.3-.9.2-1.5h.2ZM12.6,13.5c-.6.5-1.5.2-2.1,0-1.3-.3-2.7-1.1-3.2-2.5-.2-.6-.3-1.2,0-1.8s.9-1.1,1.5-1.5c.7-.5,1.4-.9,2.3-.8.6,0,1.5,0,1.8.7.2.3.4.7.5,1.1.2.4.4.9.3,1.4,0,.4-.3.7-.4,1.1-.2.5-.4,1-.4,1.6v.3c-.1.1-.3.2-.4.3h0Z"/>
  <path d="M14.7,2.5h0c.2-.3.3-.5.3-.8s-.1-.5-.3-.7c-.2-.2-.4-.3-.7-.3s-.5,0-.7.3c-.3.3-.5.6-.7,1,0,.2-.2.4-.2.7s0,.5-.1.7v.4c0,0,.1.2.2.3.2.2.5.3.7.3.3,0,.5,0,.7-.3,0,0,.1,0,.2-.2,0,0,0-.2.1-.4,0-.2,0-.4.1-.5,0,0,.1-.3.2-.4h.2Z"/>
  <path d="M8.7.8c-.2-.2-.4-.3-.7-.3s-.5.1-.7.3-.3.4-.3.7,0,.5.3.7c0,0,0,0,0,.2,0,0,.2.3.3.4,0,.2,0,.4.2.6h0c0,.3,0,.5.3.7s.5.3.7.3c.3,0,.5,0,.7-.3.2-.2.3-.4.3-.7,0-1-.4-1.9-1.1-2.6h0Z"/>
  <path d="M5.5,5.3c-.2-.2-.5-.3-.7-.3h0c0,0-.2-.2-.3-.3-.2-.2-.5-.4-.7-.5-.4-.3-.7-.5-1.1-.7-.5-.2-1.1,0-1.4.4-.2.5-.1,1.1.4,1.4.4.2.8.5,1.2.8.2.2.4.4.7.6.2,0,.4.3.6.4.3,0,.6.2.9.2s.5,0,.7-.3c.2-.2.3-.5.3-.7,0-.3,0-.5-.3-.7l-.2-.3Z"/>
  <path d="M4,10.5c-.2-.2-.4-.3-.7-.3h-1.6c-.3,0-.5.1-.7.3s-.3.5-.3.7c0,.3,0,.5.3.7.2.2.4.3.7.3h1.6c.3,0,.5-.1.7-.3.2-.2.3-.5.3-.7,0-.3,0-.5-.3-.7Z"/>
  <path d="M5.9,15.1c0-.3,0-.5-.3-.7-.2-.2-.4-.3-.7-.3s-.5,0-.7.2c-.2,0-.3.2-.4.3-.2.2-.4.3-.5.5-.4.3-.7.7-1,1.1-.2.2-.3.4-.3.7s0,.5.3.7.4.3.7.3.5,0,.7-.3c.3-.3.5-.6.8-.9.2-.2.5-.5.7-.7.2,0,.3-.1.5-.2.2-.2.3-.5.3-.7h-.1Z"/>
  <path d="M9.7,17.5v-.4c0-.1-.1-.2-.2-.3-.2-.2-.5-.3-.7-.3-.3,0-.5,0-.7.3-.2.2-.3.4-.3.7v1.4c0,.3,0,.5,0,.8,0,.2.4.4.6.5.3,0,.5,0,.8-.1.2-.1.4-.3.5-.6.2-.6.2-1.3.2-2h-.3Z"/>
  <path d="M15,19.2c0-.3-.2-.7-.4-1-.1-.2-.3-.4-.5-.7,0,0-.1-.2-.2-.2h0c0-.2-.3-.5-.5-.6s-.5-.2-.8-.1c-.2,0-.5.2-.6.5,0,0,0,.2-.1.2v.5c0,.2,0,.3.2.4,0,0,0,.2.1.2,0,.1.2.3.3.4l.3.6c0,.1,0,.2.1.3,0,.2.2.5.5.6.2.1.5.2.8.1.5-.2.8-.7.7-1.2h0Z"/>
  <path d="M19.4,15.8c-.1-.2-.3-.4-.6-.5h-.2c-.2,0-.4-.2-.6-.3-.1-.1-.3-.2-.5-.3-.1,0-.3-.1-.5-.2h-.5c-.3,0-.5,0-.7.3-.2.2-.3.5-.3.7,0,.3,0,.5.3.7.2.2.4.3.7.3,0,0,.2.1.3.2.2.1.4.3.6.4.3.2.6.3.9.4.2,0,.5,0,.8-.1.2-.1.4-.4.5-.6,0-.3,0-.5-.1-.8v-.2Z"/>
  <path d="M20.3,10.3c0-.2-.2-.5-.5-.6,0,0-.2,0-.2-.1h-2.1c-.2,0-.5.1-.7.3s-.3.5-.3.7c0,.3,0,.5.3.7.2.2.4.3.7.3h2.2c.2,0,.5-.3.6-.5s.2-.5.1-.8h-.1Z"/>
  <path d="M19.1,4.5c-.1-.2-.3-.4-.6-.5-.3,0-.5,0-.8,0-.6.4-1.2.8-1.8,1.2-.2,0-.4.3-.5.6,0,.2,0,.6.1.8.1.2.3.4.6.5.3,0,.5,0,.8,0,.6-.4,1.2-.8,1.8-1.2.2,0,.4-.3.5-.6,0-.2,0-.6,0-.8Z"/>
</svg>