<?xml version="1.0" encoding="UTF-8"?>
<svg id="Layer_1" xmlns="http://www.w3.org/2000/svg" version="1.1" viewBox="0 0 26 26">
  <!-- Generator: Adobe Illustrator 29.8.2, SVG Export Plug-In . SVG Version: 2.1.1 Build 3)  -->
  <path d="M7.5,12.5c0-.2-.2-.4-.3-.6-.2-.4-.5-.7-.9-.9-.2,0-.4-.2-.6-.3-.4-.1-.9-.1-1.3,0,0,0-.2,0-.3,0-.3,0-.6.2-.9.4-.3.2-.5.4-.6.7-.2.3-.3.6-.3.9,0,.3,0,.7,0,1,0,.2.2.4.3.6.2.4.5.7.9.9.2,0,.4.2.6.3.4.1.9.1,1.3,0h.3c.3-.1.6-.3.9-.5.3-.2.5-.4.6-.7.2-.3.3-.6.3-.9,0-.3,0-.7,0-1Z"/>
  <path d="M15.6,11.8c0-.3-.2-.6-.4-.8,0-.2-.2-.3-.4-.5-.2-.2-.5-.4-.8-.5-.3-.2-.6-.2-1-.2-.2,0-.4,0-.7,0-.4.1-.8.3-1.1.6l-.4.5c-.2.4-.3.8-.3,1.3,0,0,0,.1,0,.2,0,.3,0,.7.2,1,.1.3.3.6.5.8.2.1.3.3.5.4.4.2.8.3,1.3.3,0,0,0,0,.1,0,.3,0,.7,0,1-.2.3-.1.6-.3.8-.5.2-.2.4-.5.5-.8.2-.3.2-.6.2-1,0-.2,0-.4,0-.7Z"/>
  <path d="M23.9,12.8c-.1-.4-.3-.8-.6-1.1-.2-.1-.3-.3-.5-.4-.4-.2-.8-.3-1.3-.3h-.3c-.3,0-.7,0-1,.2-.3.1-.6.3-.8.5-.2.2-.4.5-.5.8-.2.3-.2.6-.2,1,0,.2,0,.4,0,.7.1.4.3.8.6,1.1.2.1.3.3.5.4.4.2.8.3,1.3.3h.3c.3,0,.7,0,1-.2.3-.1.6-.3.8-.5.2-.2.4-.5.5-.8.2-.3.2-.6.2-1,0-.2,0-.4,0-.7Z"/>
</svg>