<svg width="22" height="34" viewBox="0 0 22 34" fill="none" xmlns="http://www.w3.org/2000/svg">
<path d="M0.292893 6.65715C-0.0976311 7.04768 -0.0976311 7.68084 0.292893 8.07136L6.65685 14.4353C7.04738 14.8258 7.68054 14.8258 8.07107 14.4353C8.46159 14.0448 8.46159 13.4116 8.07107 13.0211L2.41421 7.36426L8.07107 1.7074C8.46159 1.31688 8.46159 0.683714 8.07107 0.29319C7.68054 -0.0973346 7.04738 -0.0973346 6.65685 0.29319L0.292893 6.65715ZM8 8.36426C8.55228 8.36426 9 7.91654 9 7.36426C9 6.81197 8.55228 6.36426 8 6.36426L8 7.36426L8 8.36426ZM1 7.36426L1 8.36426L8 8.36426L8 7.36426L8 6.36426L1 6.36426L1 7.36426Z" fill="black"/>
<path d="M8 7.36426C14.9036 7.36426 20.5 12.9607 20.5 19.8643C20.5 26.7678 14.9036 32.3643 8 32.3643" stroke="black" stroke-width="2" stroke-linecap="round"/>
</svg>
