<?xml version="1.0" encoding="UTF-8"?>
<svg id="Layer_1" xmlns="http://www.w3.org/2000/svg" version="1.1" viewBox="0 0 25 25">
  <!-- Generator: Adobe Illustrator 29.8.2, SVG Export Plug-In . SVG Version: 2.1.1 Build 3)  -->
  <path d="M18.4,6.3c-1.6-2.4-3.6-4.5-6-6-.2-.1-.3,0-.4,0,0,0,0,0-.1,0-1.1.8-2.2,1.8-3.1,2.8-1,1.1-1.9,2.2-2.8,3.3-.4.5.3,1.2.7.7.9-1.1,1.8-2.2,2.7-3.3.8-.9,1.7-1.6,2.6-2.4,0,2.5,0,5,0,7.5,0,1.3,0,2.6-.1,3.8,0,1.3-.2,2.6,0,3.8,0,.6,1,.4.9-.3-.2-1.2,0-2.6,0-3.8,0-1.3.1-2.6.1-3.8,0-2.3,0-4.6,0-6.9,1.8,1.4,3.5,3,4.7,5,.3.5,1.2,0,.8-.5Z"/>
  <path d="M24.8,20.8c-.2-1.5,0-3,0-4.6,0-.6-1-.6-1,0,0,1.2,0,2.4,0,3.5,0,1.1.5,2.4-.3,3.4-.7.8-2.4.7-3.4.7-1.2,0-2.4-.1-3.6-.2-1.2-.1-2.4-.2-3.6-.3-1.2,0-2.4,0-3.6,0-1.2,0-2.4-.1-3.7-.1-.6,0-1.1,0-1.7,0-.5,0-1.1.2-1.7.2-1.2-.1-1-1.9-1-2.7,0-1.4,0-2.9,0-4.3,0-.6-1-.6-1,0,0,1.4,0,2.9,0,4.3,0,.9,0,2,.5,2.8.6.9,1.7.8,2.7.7,1.4-.2,2.8-.1,4.3,0,1.4,0,2.8,0,4.2,0,1.4,0,2.7.1,4.1.3,1.4.1,2.7.3,4.1.3,1.2,0,2.7,0,3.7-.6,1.1-.8,1.2-2.1,1-3.4Z"/>
</svg>