<?xml version="1.0" encoding="UTF-8"?>
<svg id="Layer_1" xmlns="http://www.w3.org/2000/svg" version="1.1" viewBox="0 0 21 21">
  <!-- Generator: Adobe Illustrator 29.8.2, SVG Export Plug-In . SVG Version: 2.1.1 Build 3)  -->
  <path d="M20.8,20.2c-.3-1.1,0-2.2-.3-3.3-.2-1-.8-2-1.3-2.8-.5-.8-1.1-1.5-1.9-2-.9-.5-2-.9-3-1.2-.5-.2-1.1-.3-1.6-.4,1.3-.7,2.4-2,2.9-3.4.2-.6.4-1.2.4-1.8,0-.7-.3-1.3-.5-1.9-.4-1.1-1.2-2-2.3-2.5-2-.9-4.4-.7-6.1.7-1.6,1.3-2.3,3.5-1.8,5.5.4,1.5,1.6,2.8,3,3.4-.2,0-.5,0-.7,0-1.1.2-2.1.4-3.1,1-.8.5-1.4,1.1-1.9,1.8-.7.9-1.1,2-1.4,3.1-.4,1.2-.9,2.4-.8,3.7,0,.6,1,.6,1,0,0-1,.3-1.9.6-2.8.3-.9.6-1.9,1.1-2.7.4-.7.9-1.4,1.6-1.9.8-.6,1.7-.9,2.7-1,2.1-.4,4.1-.4,6.2,0,1,.2,1.9.6,2.8,1,.9.4,1.5,1,2.1,1.8.5.9,1.1,1.8,1.3,2.8.2,1.1,0,2.2.3,3.3.1.6,1.1.3.9-.3ZM10.4,9.9c-1.7,0-3.3-1-4.1-2.5-.7-1.5-.4-3.4.7-4.7,1.2-1.4,3.1-1.8,4.8-1.4.9.2,1.8.7,2.3,1.5.6.8,1,2.1.7,3.1-.5,2-2,3.9-4.2,4,0,0-.2,0-.3,0Z"/>
</svg>