<?xml version="1.0" encoding="UTF-8"?><svg id="Layer_2" xmlns="http://www.w3.org/2000/svg" viewBox="0 0 24 24"><g id="Layer_1-2"><path d="M15.9,11.55c1.52-1.17,2.49-3.02,2.49-5.1,0-3.56-2.87-6.45-6.4-6.45s-6.39,2.9-6.39,6.45c0,2.08.98,3.93,2.49,5.1C3.39,13.19,0,17.7,0,22.99c0,.55.45,1.01,1,1.01s1-.45,1-1.01c0-5.56,4.49-10.08,10-10.08s10.01,4.52,10.01,10.08c0,.55.44,1.01,1,1.01s1-.45,1-1.01c0-5.3-3.39-9.8-8.1-11.44ZM7.6,6.45c0-2.45,1.97-4.44,4.4-4.44s4.41,1.99,4.41,4.44-1.97,4.44-4.41,4.44-4.4-2-4.4-4.44Z"/></g></svg>