<?xml version="1.0" encoding="UTF-8"?>
<svg id="Layer_1" xmlns="http://www.w3.org/2000/svg" version="1.1" viewBox="0 0 21 21">
  <!-- Generator: Adobe Illustrator 29.8.2, SVG Export Plug-In . SVG Version: 2.1.1 Build 3)  -->
  <path d="M20.1,15.2c-.3-.8-.7-1.4-1.3-2,0-.1-.1-.2-.2-.3-1.5-1.4-3-2.4-5.1-2.7,0,0,.1,0,.2-.2.5-.5.9-1,1.2-1.7.3-.4.5-.8.7-1.3.2-.6.4-1.2.4-1.8s-.3-1.3-.5-1.9c0,0,0-.2-.1-.2-.1-.3-.2-.7-.4-.9-.3-.4-.6-.6-1-.9-.2-.2-.5-.3-.8-.5-1.4-.6-2.9-.7-4.3-.2,0,0-.2,0-.3,0,0,0-.1,0-.2,0-.4.2-.8.3-1.2.6-2,1.4-2.6,3.7-2.2,6,.2,1.2.9,2.3,1.9,3,0,0-.1,0-.2,0-1,.3-2,.7-2.8,1.3-.8.6-1.4,1.4-1.9,2.2-1.1,1.7-1.9,3.7-1.9,5.7,0,1.3,2,1.3,2,0,0-1.7.6-3.2,1.5-4.6.4-.6.8-1.3,1.4-1.8.7-.5,1.6-.8,2.4-1,1.6-.4,3.4-.4,5.1-.3,1.5,0,2.6.6,3.7,1.5,0,0,.1.1.2.2,0,0,.1,0,.1.1,0,0,0,0,0,0,.1,0,.2.2.3.3.1,0,.2.2.3.3,0,0,.3.3.2.2.3.4.6,1,.7,1.3.4,1.2.5,2.3.5,3.6,0,.5.4,1,1,1s1-.5,1-1c0-1.5-.1-3-.7-4.4ZM12.5,8.4c-.6.6-1.3.9-2.1,1,0,0-.2,0-.2,0-1.4.1-2.7-.6-3.1-2-.4-1.4-.2-3.2.9-4.2,1.1-1,2.7-1.1,4.1-.6.6.2,1.2.4,1.4,1.1.3.8.5,1.6.2,2.5-.3.7-.6,1.6-1.2,2.2Z"/>
</svg>