<?xml version="1.0" encoding="UTF-8"?><svg id="Layer_2" xmlns="http://www.w3.org/2000/svg" viewBox="0 0 502.02 318.63"><g id="Layer_1-2"><path d="M0,0v318.63h502.02V0H0ZM489.07,305.69H12.94V12.94h476.13v292.75Z"/><path d="M420.77,217.73c.23,6.37-2.01,11.47-6.7,15.27-4.69,3.8-11.11,5.84-19.27,6.13-5.68.21-10.87-.65-15.59-2.54-4.72-1.91-8.38-4.63-10.95-8.15-2.59-3.51-3.95-7.65-4.13-12.41l15.22-.55c.29,8.14,5.31,12.02,15.01,11.66,3.61-.13,6.41-.95,8.36-2.51,1.97-1.54,2.91-3.62,2.81-6.24-.1-2.86-1.2-5.03-3.27-6.5-2.09-1.46-5.78-2.94-11.1-4.45-5.32-1.52-9.56-3.04-12.68-4.59-8.53-4.21-12.93-10.14-13.2-17.81-.15-3.98.84-7.55,2.98-10.76,2.14-3.2,5.26-5.76,9.4-7.67,4.13-1.89,8.82-2.94,14.04-3.14,5.26-.19,9.98.6,14.17,2.35,4.17,1.76,7.47,4.34,9.87,7.73,2.41,3.38,3.69,7.3,3.85,11.71l-15.17.55c-.13-3.38-1.28-5.95-3.48-7.75-2.18-1.8-5.21-2.64-9.06-2.49-3.7.13-6.57,1.02-8.56,2.67-2.01,1.63-2.96,3.74-2.86,6.31.08,2.39,1.36,4.35,3.83,5.89,2.48,1.52,6.07,2.91,10.81,4.16,8.74,2.3,15.14,5.29,19.22,8.99,4.09,3.69,6.23,8.41,6.44,14.14Z"/><path d="M332.54,200h28.52v28.91c-2.69,3.22-6.49,5.73-11.39,7.49-4.92,1.78-10.35,2.67-16.32,2.67-6.28,0-11.78-1.38-16.5-4.11-4.72-2.73-8.38-6.71-10.95-11.92-2.57-5.21-3.88-11.32-3.96-18.36v-4.92c0-7.23,1.23-13.49,3.67-18.78,2.43-5.31,5.95-9.35,10.55-12.15,4.59-2.8,9.97-4.21,16.14-4.21,8.59,0,15.3,2.05,20.16,6.15,4.84,4.09,7.72,10.06,8.61,17.89h-14.53c-.66-4.16-2.14-7.18-4.42-9.11-2.26-1.93-5.39-2.9-9.37-2.9-5.08,0-8.95,1.91-11.6,5.73-2.65,3.82-4,9.5-4.03,17.02v4.63c0,7.6,1.44,13.35,4.32,17.23,2.9,3.88,7.12,5.82,12.7,5.82s9.59-1.2,11.99-3.59v-12.49h-13.59v-11Z"/><polygon points="297.16 165.61 297.16 238.07 282.23 238.07 256.41 190.39 256.41 238.07 241.48 238.07 241.48 165.61 256.41 165.61 282.28 213.4 282.28 165.61 297.16 165.61"/><rect x="216.26" y="165.61" width="14.92" height="72.46"/><polygon points="204.34 165.61 204.34 238.07 189.4 238.07 189.4 207.02 155.43 207.02 155.43 238.07 140.52 238.07 140.52 177.71 115.52 177.71 115.52 238.07 100.61 238.07 100.61 177.71 81.94 177.71 81.94 165.61 155.43 165.61 155.43 194.97 189.4 194.97 189.4 165.61 204.34 165.61"/><path d="M132.57,120.26c-2.14-2.81-5.06-4.69-8.78-5.63,3.25-1.25,5.79-3.24,7.62-5.94,1.81-2.7,2.73-5.84,2.73-9.38,0-6.5-2.28-11.44-6.83-14.8-4.55-3.36-11.21-5.05-20-5.05h-25.38v72.46h28.16c8.23-.08,14.56-1.89,19.01-5.48,4.45-3.58,6.67-8.85,6.67-15.82,0-4.08-1.07-7.54-3.2-10.35ZM96.87,91.55h10.45c4.11,0,7.12.73,9.03,2.17,1.91,1.44,2.86,3.8,2.86,7.09,0,5.87-3.77,8.88-11.29,9.01h-11.05v-18.26ZM117.9,137.41c-1.97,1.67-4.72,2.51-8.25,2.51h-12.78v-19.56h13.69c6.86.1,10.3,3.48,10.3,10.11,0,2.94-.99,5.26-2.96,6.94Z"/><path d="M404.4,121.61c4.35-1.96,7.59-4.58,9.74-7.88,2.14-3.3,3.2-7.43,3.2-12.38,0-6.97-2.33-12.36-6.97-16.18-4.64-3.8-11.24-5.71-19.8-5.71h-250.05v72.46h64.74v-12h-49.83v-19.41h28.21v-11.68h-28.21v-17.28h60.83v60.37h14.92v-60.37h31.13v60.37h14.93v-60.37h27.94v60.37h73.41v-26.53h11.89l13.59,26.53h16.02v-.71l-15.68-29.6ZM363.65,139.92h-43.55v-19.41h28.67v-11.68h-28.67v-17.28h43.55v48.37ZM399.32,110.44c-2.05,1.89-4.95,2.85-8.7,2.85h-12.04v-21.74h11.99c4.01,0,6.99.99,8.93,2.94,1.94,1.96,2.91,4.64,2.91,8.06s-1.02,5.99-3.09,7.89Z"/></g></svg>